  0
SECTION
  2
HEADER
  9
$ACADVER
  1
AC1014
  9
$ACADMAINTVER
 70
     5
  9
$DWGCODEPAGE
  3
ANSI_1252
  9
$INSBASE
 10
0.0
 20
0.0
 30
0.0
  9
$EXTMIN
 10
1.000000000000000E+20
 20
1.000000000000000E+20
 30
1.000000000000000E+20
  9
$EXTMAX
 10
-1.000000000000000E+20
 20
-1.000000000000000E+20
 30
-1.000000000000000E+20
  9
$LIMMIN
 10
0.0
 20
0.0
  9
$LIMMAX
 10
12.0
 20
9.0
  9
$ORTHOMODE
 70
     0
  9
$REGENMODE
 70
     1
  9
$FILLMODE
 70
     1
  9
$QTEXTMODE
 70
     0
  9
$MIRRTEXT
 70
     1
  9
$DRAGMODE
 70
     2
  9
$LTSCALE
 40
1.0
  9
$OSMODE
 70
     0
  9
$ATTMODE
 70
     1
  9
$TEXTSIZE
 40
9.999999999999998
  9
$TRACEWID
 40
0.05
  9
$TEXTSTYLE
  7
STANDARD
  9
$CLAYER
  8
0
  9
$CELTYPE
  6
BYLAYER
  9
$CECOLOR
 62
   256
  9
$CELTSCALE
 40
1.0
  9
$DELOBJ
 70
     1
  9
$DISPSILH
 70
     0
  9
$DIMSCALE
 40
1.0
  9
$DIMASZ
 40
0.18
  9
$DIMEXO
 40
0.0625
  9
$DIMDLI
 40
0.38
  9
$DIMRND
 40
0.0
  9
$DIMDLE
 40
0.0
  9
$DIMEXE
 40
0.18
  9
$DIMTP
 40
0.0
  9
$DIMTM
 40
0.0
  9
$DIMTXT
 40
0.1574803149606299
  9
$DIMCEN
 40
0.09
  9
$DIMTSZ
 40
0.0
  9
$DIMTOL
 70
     0
  9
$DIMLIM
 70
     0
  9
$DIMTIH
 70
     1
  9
$DIMTOH
 70
     1
  9
$DIMSE1
 70
     0
  9
$DIMSE2
 70
     0
  9
$DIMTAD
 70
     0
  9
$DIMZIN
 70
     0
  9
$DIMBLK
  1

  9
$DIMASO
 70
     1
  9
$DIMSHO
 70
     1
  9
$DIMPOST
  1

  9
$DIMAPOST
  1

  9
$DIMALT
 70
     0
  9
$DIMALTD
 70
     2
  9
$DIMALTF
 40
25.4
  9
$DIMLFAC
 40
1.0
  9
$DIMTOFL
 70
     0
  9
$DIMTVP
 40
0.0
  9
$DIMTIX
 70
     0
  9
$DIMSOXD
 70
     0
  9
$DIMSAH
 70
     0
  9
$DIMBLK1
  1

  9
$DIMBLK2
  1

  9
$DIMSTYLE
  2
STANDARD
  9
$DIMCLRD
 70
     0
  9
$DIMCLRE
 70
     0
  9
$DIMCLRT
 70
     0
  9
$DIMTFAC
 40
1.0
  9
$DIMGAP
 40
0.09
  9
$DIMJUST
 70
     0
  9
$DIMSD1
 70
     0
  9
$DIMSD2
 70
     0
  9
$DIMTOLJ
 70
     1
  9
$DIMTZIN
 70
     0
  9
$DIMALTZ
 70
     0
  9
$DIMALTTZ
 70
     0
  9
$DIMFIT
 70
     3
  9
$DIMUPT
 70
     0
  9
$DIMUNIT
 70
     4
  9
$DIMDEC
 70
     2
  9
$DIMTDEC
 70
     4
  9
$DIMALTU
 70
     2
  9
$DIMALTTD
 70
     2
  9
$DIMTXSTY
  7
STANDARD
  9
$DIMAUNIT
 70
     1
  9
$LUNITS
 70
     2
  9
$LUPREC
 70
     2
  9
$SKETCHINC
 40
0.1
  9
$FILLETRAD
 40
4.999999999999999
  9
$AUNITS
 70
     0
  9
$AUPREC
 70
     2
  9
$MENU
  1
.
  9
$ELEVATION
 40
0.0
  9
$PELEVATION
 40
0.0
  9
$THICKNESS
 40
0.0
  9
$LIMCHECK
 70
     0
  9
$BLIPMODE
 70
     0
  9
$CHAMFERA
 40
4.999999999999999
  9
$CHAMFERB
 40
4.999999999999999
  9
$CHAMFERC
 40
0.0
  9
$CHAMFERD
 40
0.0
  9
$SKPOLY
 70
     0
  9
$TDCREATE
 40
0.0000000000
  9
$TDUPDATE
 40
0.0000000000
  9
$TDINDWG
 40
0.0000000000
  9
$TDUSRTIMER
 40
0.0000000000
  9
$USRTIMER
 70
     1
  9
$ANGBASE
 50
0.0
  9
$ANGDIR
 70
     0
  9
$PDMODE
 70
     0
  9
$PDSIZE
 40
0.0
  9
$PLINEWID
 40
0.0
  9
$COORDS
 70
     1
  9
$SPLFRAME
 70
     0
  9
$SPLINETYPE
 70
     6
  9
$SPLINESEGS
 70
     8
  9
$ATTDIA
 70
     0
  9
$ATTREQ
 70
     1
  9
$HANDLING
 70
     1
  9
$HANDSEED
  5
303
  9
$SURFTAB1
 70
     6
  9
$SURFTAB2
 70
     6
  9
$SURFTYPE
 70
     6
  9
$SURFU
 70
     6
  9
$SURFV
 70
     6
  9
$UCSNAME
  2

  9
$UCSORG
 10
0.0
 20
0.0
 30
0.0
  9
$UCSXDIR
 10
1.0
 20
0.0
 30
0.0
  9
$UCSYDIR
 10
0.0
 20
1.0
 30
0.0
  9
$PUCSNAME
  2

  9
$PUCSORG
 10
0.0
 20
0.0
 30
0.0
  9
$PUCSXDIR
 10
1.0
 20
0.0
 30
0.0
  9
$PUCSYDIR
 10
0.0
 20
1.0
 30
0.0
  9
$USERI1
 70
     0
  9
$USERI2
 70
     0
  9
$USERI3
 70
     0
  9
$USERI4
 70
     0
  9
$USERI5
 70
     0
  9
$USERR1
 40
0.0
  9
$USERR2
 40
0.0
  9
$USERR3
 40
0.0
  9
$USERR4
 40
0.0
  9
$USERR5
 40
0.0
  9
$WORLDVIEW
 70
     1
  9
$SHADEDGE
 70
     3
  9
$SHADEDIF
 70
    70
  9
$TILEMODE
 70
     1
  9
$MAXACTVP
 70
    48
  9
$PINSBASE
 10
0.0
 20
0.0
 30
0.0
  9
$PLIMCHECK
 70
     0
  9
$PEXTMIN
 10
1.000000000000000E+20
 20
1.000000000000000E+20
 30
1.000000000000000E+20
  9
$PEXTMAX
 10
-1.000000000000000E+20
 20
-1.000000000000000E+20
 30
-1.000000000000000E+20
  9
$PLIMMIN
 10
0.0
 20
0.0
  9
$PLIMMAX
 10
12.0
 20
9.0
  9
$UNITMODE
 70
     0
  9
$VISRETAIN
 70
     1
  9
$PLINEGEN
 70
     0
  9
$PSLTSCALE
 70
     1
  9
$TREEDEPTH
 70
  3020
  9
$PICKSTYLE
 70
     1
  9
$CMLSTYLE
  2
STANDARD
  9
$CMLJUST
 70
     0
  9
$CMLSCALE
 40
1.0
  9
$PROXYGRAPHICS
 70
     1
  9
$MEASUREMENT
 70
     1
  0
ENDSEC
  0
SECTION
  2
CLASSES
  0
CLASS
  1
LWPOLYLINE
  2
AcDbPolyline
  3
"AutoCAD"
 90
        0
280
     0
281
     1
  0
CLASS
  1
HATCH
  2
AcDbHatch
  3
"ACAD_SEDONA"
 90
        0
280
     0
281
     1
  0
ENDSEC
  0
SECTION
  2
TABLES
  0
TABLE
  2
VPORT
  5
8
100
AcDbSymbolTable
 70
     1
  0
VPORT
  5
11
100
AcDbSymbolTableRecord
100
AcDbViewportTableRecord
  2
*ACTIVE
 70
     0
 10
0.0
 20
0.0
 11
1.0
 21
1.0
 12
3.6
 22
4.5
 13
0.0
 23
0.0
 14
1.0
 24
1.0
 15
0.0
 25
0.0
 16
0.0
 26
0.0
 36
1.0
 17
0.0
 27
0.0
 37
0.0
 40
15.0
 41
0.8
 42
50.0
 43
0.0
 44
0.0
 50
0.0
 51
0.0
 71
     0
 72
   100
 73
     1
 74
     1
 75
     0
 76
     0
 77
     0
 78
     0
  0
ENDTAB
  0
TABLE
  2
LTYPE
  5
5
100
AcDbSymbolTable
 70
    40
  0
LTYPE
  5
12
100
AcDbSymbolTableRecord
100
AcDbLinetypeTableRecord
  2
BYBLOCK
 70
     0
  3

 72
    65
 73
     0
 40
0.0
  0
LTYPE
  5
13
100
AcDbSymbolTableRecord
100
AcDbLinetypeTableRecord
  2
BYLAYER
 70
     0
  3

 72
    65
 73
     0
 40
0.0
  0
LTYPE
  5
14
100
AcDbSymbolTableRecord
100
AcDbLinetypeTableRecord
  2
CONTINUOUS
 70
     0
  3
Solid line
 72
    65
 73
     0
 40
0.0
  0
LTYPE
  5
1E
100
AcDbSymbolTableRecord
100
AcDbLinetypeTableRecord
  2
HIDDEN
 70
     0
  3
_ _ _ _ _ _ _ _ _ _ _ _ _ _ 
 72
    65
 73
     2
 40
9.524999999999998
 49
6.349999999999999
 74
     0
 49
-3.174999999999999
 74
     0
  0
LTYPE
  5
1F
100
AcDbSymbolTableRecord
100
AcDbLinetypeTableRecord
  2
DASHED
 70
     0
  3
__ __ __ __ __ __ __ __ __ 
 72
    65
 73
     2
 40
19.04999999999999
 49
12.7
 74
     0
 49
-6.349999999999999
 74
     0
  0
LTYPE
  5
20
100
AcDbSymbolTableRecord
100
AcDbLinetypeTableRecord
  2
CENTER
 70
     0
  3
____ _ ____ _ ____ _ ____ _ 
 72
    65
 73
     4
 40
50.8
 49
31.75
 74
     0
 49
-6.349999999999999
 74
     0
 49
6.349999999999999
 74
     0
 49
-6.349999999999999
 74
     0
  0
LTYPE
  5
21
100
AcDbSymbolTableRecord
100
AcDbLinetypeTableRecord
  2
PHANTOM
 70
     0
  3
_____ _ _ _____ _ _ _____ _ _ 
 72
    65
 73
     6
 40
63.50000000000001
 49
31.75
 74
     0
 49
-6.349999999999999
 74
     0
 49
6.349999999999999
 74
     0
 49
-6.349999999999999
 74
     0
 49
6.349999999999999
 74
     0
 49
-6.349999999999999
 74
     0
  0
LTYPE
  5
22
100
AcDbSymbolTableRecord
100
AcDbLinetypeTableRecord
  2
DOT
 70
     0
  3
...........................
 72
    65
 73
     2
 40
6.349999999999999
 49
0.0
 74
     0
 49
-6.349999999999999
 74
     0
  0
LTYPE
  5
23
100
AcDbSymbolTableRecord
100
AcDbLinetypeTableRecord
  2
DASHDOT
 70
     0
  3
__ . __ . __ . __ . __ . __ . 
 72
    65
 73
     4
 40
25.4
 49
12.7
 74
     0
 49
-6.349999999999999
 74
     0
 49
0.0
 74
     0
 49
-6.349999999999999
 74
     0
  0
LTYPE
  5
24
100
AcDbSymbolTableRecord
100
AcDbLinetypeTableRecord
  2
DIVIDE
 70
     0
  3
__ . . __ . . __ . . __ . . 
 72
    65
 73
     6
 40
31.75
 49
12.7
 74
     0
 49
-6.349999999999999
 74
     0
 49
0.0
 74
     0
 49
-6.349999999999999
 74
     0
 49
0.0
 74
     0
 49
-6.349999999999999
 74
     0
  0
LTYPE
  5
25
100
AcDbSymbolTableRecord
100
AcDbLinetypeTableRecord
  2
BORDER
 70
     0
  3
__ __ . __ __ . __ __ . __ __ .
 72
    65
 73
     6
 40
44.44999999999999
 49
12.7
 74
     0
 49
-6.349999999999999
 74
     0
 49
12.7
 74
     0
 49
-6.349999999999999
 74
     0
 49
0.0
 74
     0
 49
-6.349999999999999
 74
     0
  0
LTYPE
  5
26
100
AcDbSymbolTableRecord
100
AcDbLinetypeTableRecord
  2
BORDER2
 70
     0
  3
Border (.5x) __.__.__.__.__.__.
 72
    65
 73
     6
 40
0.875
 49
0.25
 74
     0
 49
-0.125
 74
     0
 49
0.25
 74
     0
 49
-0.125
 74
     0
 49
0.0
 74
     0
 49
-0.125
 74
     0
  0
LTYPE
  5
27
100
AcDbSymbolTableRecord
100
AcDbLinetypeTableRecord
  2
BORDERX2
 70
     0
  3
Border (2x) ____  ____  .  ____
 72
    65
 73
     6
 40
3.5
 49
1.0
 74
     0
 49
-0.5
 74
     0
 49
1.0
 74
     0
 49
-0.5
 74
     0
 49
0.0
 74
     0
 49
-0.5
 74
     0
  0
LTYPE
  5
28
100
AcDbSymbolTableRecord
100
AcDbLinetypeTableRecord
  2
CENTER2
 70
     0
  3
Center (.5x) ___ _ ___ _ ___ _ 
 72
    65
 73
     4
 40
1.125
 49
0.7500000000000001
 74
     0
 49
-0.125
 74
     0
 49
0.125
 74
     0
 49
-0.125
 74
     0
  0
LTYPE
  5
29
100
AcDbSymbolTableRecord
100
AcDbLinetypeTableRecord
  2
CENTERX2
 70
     0
  3
Center (2x) ________  __  _____
 72
    65
 73
     4
 40
4.0
 49
2.5
 74
     0
 49
-0.5
 74
     0
 49
0.5
 74
     0
 49
-0.5
 74
     0
  0
LTYPE
  5
2A
100
AcDbSymbolTableRecord
100
AcDbLinetypeTableRecord
  2
DASHDOT2
 70
     0
  3
Dash dot (.5x) _._._._._._._._.
 72
    65
 73
     4
 40
0.5
 49
0.25
 74
     0
 49
-0.125
 74
     0
 49
0.0
 74
     0
 49
-0.125
 74
     0
  0
LTYPE
  5
2B
100
AcDbSymbolTableRecord
100
AcDbLinetypeTableRecord
  2
DASHDOTX2
 70
     0
  3
Dash dot (2x) ____  .  ____  . 
 72
    65
 73
     4
 40
2.0
 49
1.0
 74
     0
 49
-0.5
 74
     0
 49
0.0
 74
     0
 49
-0.5
 74
     0
  0
LTYPE
  5
2C
100
AcDbSymbolTableRecord
100
AcDbLinetypeTableRecord
  2
DASHED2
 70
     0
  3
Dashed (.5x) _ _ _ _ _ _ _ _ _ 
 72
    65
 73
     2
 40
0.375
 49
0.25
 74
     0
 49
-0.125
 74
     0
  0
LTYPE
  5
2D
100
AcDbSymbolTableRecord
100
AcDbLinetypeTableRecord
  2
DASHEDX2
 70
     0
  3
Dashed (2x) ____  ____  ____  _
 72
    65
 73
     2
 40
1.5
 49
1.0
 74
     0
 49
-0.5
 74
     0
  0
LTYPE
  5
2E
100
AcDbSymbolTableRecord
100
AcDbLinetypeTableRecord
  2
DIVIDE2
 70
     0
  3
Divide (.5x) __..__..__..__..__
 72
    65
 73
     6
 40
0.625
 49
0.25
 74
     0
 49
-0.125
 74
     0
 49
0.0
 74
     0
 49
-0.125
 74
     0
 49
0.0
 74
     0
 49
-0.125
 74
     0
  0
LTYPE
  5
2F
100
AcDbSymbolTableRecord
100
AcDbLinetypeTableRecord
  2
DIVIDEX2
 70
     0
  3
Divide (2x) ________  .  .  ___
 72
    65
 73
     6
 40
2.5
 49
1.0
 74
     0
 49
-0.5
 74
     0
 49
0.0
 74
     0
 49
-0.5
 74
     0
 49
0.0
 74
     0
 49
-0.5
 74
     0
  0
LTYPE
  5
30
100
AcDbSymbolTableRecord
100
AcDbLinetypeTableRecord
  2
DOT2
 70
     0
  3
Dot (.5x) .....................
 72
    65
 73
     2
 40
0.125
 49
0.0
 74
     0
 49
-0.125
 74
     0
  0
LTYPE
  5
31
100
AcDbSymbolTableRecord
100
AcDbLinetypeTableRecord
  2
DOTX2
 70
     0
  3
Dot (2x) .  .  .  .  .  .  .  .
 72
    65
 73
     2
 40
0.5
 49
0.0
 74
     0
 49
-0.5
 74
     0
  0
LTYPE
  5
32
100
AcDbSymbolTableRecord
100
AcDbLinetypeTableRecord
  2
HIDDEN2
 70
     0
  3
Hidden (.5x) _ _ _ _ _ _ _ _ _ 
 72
    65
 73
     2
 40
0.1875
 49
0.125
 74
     0
 49
-0.0625
 74
     0
  0
LTYPE
  5
33
100
AcDbSymbolTableRecord
100
AcDbLinetypeTableRecord
  2
HIDDENX2
 70
     0
  3
Hidden (2x) ____ ____ ____ ____
 72
    65
 73
     2
 40
0.75
 49
0.5
 74
     0
 49
-0.25
 74
     0
  0
LTYPE
  5
34
100
AcDbSymbolTableRecord
100
AcDbLinetypeTableRecord
  2
PHANTOM2
 70
     0
  3
Phantom (.5x) ___ _ _ ___ _ _ _
 72
    65
 73
     6
 40
1.25
 49
0.6250000000000001
 74
     0
 49
-0.125
 74
     0
 49
0.125
 74
     0
 49
-0.125
 74
     0
 49
0.125
 74
     0
 49
-0.125
 74
     0
  0
LTYPE
  5
35
100
AcDbSymbolTableRecord
100
AcDbLinetypeTableRecord
  2
PHANTOMX2
 70
     0
  3
Phantom (2x) ____________    __
 72
    65
 73
     6
 40
5.0
 49
2.5
 74
     0
 49
-0.5
 74
     0
 49
0.5
 74
     0
 49
-0.5
 74
     0
 49
0.5
 74
     0
 49
-0.5
 74
     0
  0
LTYPE
  5
36
100
AcDbSymbolTableRecord
100
AcDbLinetypeTableRecord
  2
DOTS
 70
     0
  3
Dots - - - - - - - - - - - - - 
 72
    65
 73
     2
 40
0.1
 49
0.05
 74
     0
 49
-0.05
 74
     0
  0
LTYPE
  5
37
100
AcDbSymbolTableRecord
100
AcDbLinetypeTableRecord
  2
ACAD_ISO02W100
 70
     0
  3
__ __ __ __ __ __ __ __ __ __ _
 72
    65
 73
     2
 40
15.0
 49
12.0
 74
     0
 49
-3.0
 74
     0
  0
LTYPE
  5
38
100
AcDbSymbolTableRecord
100
AcDbLinetypeTableRecord
  2
ACAD_ISO03W100
 70
     0
  3
__    __    __    __    __    _
 72
    65
 73
     2
 40
30.0
 49
12.0
 74
     0
 49
-18.0
 74
     0
  0
LTYPE
  5
39
100
AcDbSymbolTableRecord
100
AcDbLinetypeTableRecord
  2
ACAD_ISO04W100
 70
     0
  3
____ . ____ . ____ . ____ . ___
 72
    65
 73
     4
 40
30.5
 49
24.0
 74
     0
 49
-3.0
 74
     0
 49
0.5
 74
     0
 49
-3.0
 74
     0
  0
LTYPE
  5
3A
100
AcDbSymbolTableRecord
100
AcDbLinetypeTableRecord
  2
ACAD_ISO05W100
 70
     0
  3
____ .. ____ .. ____ .. ____ ..
 72
    65
 73
     6
 40
34.0
 49
24.0
 74
     0
 49
-3.0
 74
     0
 49
0.5
 74
     0
 49
-3.0
 74
     0
 49
0.5
 74
     0
 49
-3.0
 74
     0
  0
LTYPE
  5
3B
100
AcDbSymbolTableRecord
100
AcDbLinetypeTableRecord
  2
ACAD_ISO06W100
 70
     0
  3
____ ... ____ ... ____ ... ____
 72
    65
 73
     6
 40
34.0
 49
24.0
 74
     0
 49
-3.0
 74
     0
 49
0.5
 74
     0
 49
-3.0
 74
     0
 49
0.5
 74
     0
 49
-3.0
 74
     0
  0
LTYPE
  5
3C
100
AcDbSymbolTableRecord
100
AcDbLinetypeTableRecord
  2
ACAD_ISO07W100
 70
     0
  3
. . . . . . . . . . . . . . . .
 72
    65
 73
     2
 40
3.5
 49
0.5
 74
     0
 49
-3.0
 74
     0
  0
LTYPE
  5
3D
100
AcDbSymbolTableRecord
100
AcDbLinetypeTableRecord
  2
ACAD_ISO08W100
 70
     0
  3
____ __ ____ __ ____ __ ____ __
 72
    65
 73
     4
 40
36.0
 49
24.0
 74
     0
 49
-3.0
 74
     0
 49
6.0
 74
     0
 49
-3.0
 74
     0
  0
LTYPE
  5
3E
100
AcDbSymbolTableRecord
100
AcDbLinetypeTableRecord
  2
ACAD_ISO09W100
 70
     0
  3
____ __ __ ____ __ __ ____ __ _
 72
    65
 73
     6
 40
45.0
 49
24.0
 74
     0
 49
-3.0
 74
     0
 49
6.0
 74
     0
 49
-3.0
 74
     0
 49
6.0
 74
     0
 49
-3.0
 74
     0
  0
LTYPE
  5
3F
100
AcDbSymbolTableRecord
100
AcDbLinetypeTableRecord
  2
ACAD_ISO10W100
 70
     0
  3
__ . __ . __ . __ . __ . __ . _
 72
    65
 73
     4
 40
18.5
 49
12.0
 74
     0
 49
-3.0
 74
     0
 49
0.5
 74
     0
 49
-3.0
 74
     0
  0
LTYPE
  5
40
100
AcDbSymbolTableRecord
100
AcDbLinetypeTableRecord
  2
ACAD_ISO11W100
 70
     0
  3
__ __ . __ __ . __ __ . __ __ .
 72
    65
 73
     6
 40
33.5
 49
12.0
 74
     0
 49
-3.0
 74
     0
 49
12.0
 74
     0
 49
-3.0
 74
     0
 49
0.5
 74
     0
 49
-3.0
 74
     0
  0
LTYPE
  5
41
100
AcDbSymbolTableRecord
100
AcDbLinetypeTableRecord
  2
ACAD_ISO12W100
 70
     0
  3
__ . . __ . . __ . . __ . . __ 
 72
    65
 73
     6
 40
22.0
 49
12.0
 74
     0
 49
-3.0
 74
     0
 49
0.5
 74
     0
 49
-3.0
 74
     0
 49
0.5
 74
     0
 49
-3.0
 74
     0
  0
LTYPE
  5
42
100
AcDbSymbolTableRecord
100
AcDbLinetypeTableRecord
  2
ACAD_ISO13W100
 70
     0
  3
__ __ . . __ __ . . __ __ . . _
 72
    65
 73
     6
 40
33.5
 49
12.0
 74
     0
 49
-3.0
 74
     0
 49
12.0
 74
     0
 49
-3.0
 74
     0
 49
0.5
 74
     0
 49
-3.0
 74
     0
  0
LTYPE
  5
43
100
AcDbSymbolTableRecord
100
AcDbLinetypeTableRecord
  2
ACAD_ISO14W100
 70
     0
  3
__ . . . __ . . . __ . . . __ .
 72
    65
 73
     6
 40
22.0
 49
12.0
 74
     0
 49
-3.0
 74
     0
 49
0.5
 74
     0
 49
-3.0
 74
     0
 49
0.5
 74
     0
 49
-3.0
 74
     0
  0
LTYPE
  5
44
100
AcDbSymbolTableRecord
100
AcDbLinetypeTableRecord
  2
ACAD_ISO15W100
 70
     0
  3
__ __ . . . __ __ . . . __ __ .
 72
    65
 73
     6
 40
33.5
 49
12.0
 74
     0
 49
-3.0
 74
     0
 49
12.0
 74
     0
 49
-3.0
 74
     0
 49
0.5
 74
     0
 49
-3.0
 74
     0
  0
ENDTAB
  0
TABLE
  2
LAYER
  5
2
100
AcDbSymbolTable
 70
     2
  0
LAYER
  5
E
100
AcDbSymbolTableRecord
100
AcDbLayerTableRecord
  2
0
 70
     0
 62
     7
  6
CONTINUOUS
  0
LAYER
  5
45
100
AcDbSymbolTableRecord
100
AcDbLayerTableRecord
  2
1
 70
     0
 62
     7
  6
CONTINUOUS
  0
ENDTAB
  0
TABLE
  2
STYLE
  5
3
100
AcDbSymbolTable
 70
     5
  0
STYLE
  5
F
100
AcDbSymbolTableRecord
100
AcDbTextStyleTableRecord
  2
STANDARD
 70
     0
 40
0.0
 41
1.0
 50
0.0
 71
     0
 42
9.999999999999998
  3
txt
  4

  0
STYLE
  5
46
100
AcDbSymbolTableRecord
100
AcDbTextStyleTableRecord
  2
ITALIC
 70
     0
 40
0.0
 41
1.0
 50
0.0
 71
     0
 42
9.999999999999998
  3
ITALIC
  4

  0
STYLE
  5
47
100
AcDbSymbolTableRecord
100
AcDbTextStyleTableRecord
  2
SIMPLEX
 70
     0
 40
0.0
 41
1.0
 50
0.0
 71
     0
 42
9.999999999999998
  3
SIMPLEX
  4

  0
STYLE
  5
48
100
AcDbSymbolTableRecord
100
AcDbTextStyleTableRecord
  2
COMPLEX
 70
     0
 40
0.0
 41
1.0
 50
0.0
 71
     0
 42
9.999999999999998
  3
COMPLEX
  4

  0
STYLE
  5
68
100
AcDbSymbolTableRecord
100
AcDbTextStyleTableRecord
  2
ARIALB
 70
     0
 40
0.0
 41
1.0
 50
0.0
 71
     0
 42
9.999999999999998
  3
ARIALBD.TTF
  4

1001
ACAD
1000
Arial
1071
 33554432
  0
ENDTAB
  0
TABLE
  2
VIEW
  5
6
100
AcDbSymbolTable
 70
     0
  0
ENDTAB
  0
TABLE
  2
UCS
  5
7
100
AcDbSymbolTable
 70
     0
  0
ENDTAB
  0
TABLE
  2
APPID
  5
9
100
AcDbSymbolTable
 70
     1
  0
APPID
  5
10
100
AcDbSymbolTableRecord
100
AcDbRegAppTableRecord
  2
ACAD
 70
     0
  0
ENDTAB
  0
TABLE
  2
DIMSTYLE
  5
A
100
AcDbSymbolTable
 70
     1
  0
DIMSTYLE
105
1D
100
AcDbSymbolTableRecord
100
AcDbDimStyleTableRecord
  2
STANDARD
 70
     0
  3

  4

  5

  6

  7

 40
1.0
 41
0.18
 42
0.0625
 43
0.38
 44
0.18
 45
0.0
 46
0.0
 47
0.0
 48
0.0
140
0.18
141
0.09
142
0.0
143
25.4
144
1.0
145
0.0
146
1.0
147
0.09
 71
     0
 72
     0
 73
     1
 74
     1
 75
     0
 76
     0
 77
     0
 78
     0
170
     0
171
     2
172
     0
173
     0
174
     0
175
     0
176
     0
177
     0
178
     0
270
     2
271
     4
272
     4
273
     2
274
     2
340
F
275
     0
280
     0
281
     0
282
     0
283
     1
284
     0
285
     0
286
     0
287
     3
288
     0
  0
ENDTAB
  0
TABLE
  2
BLOCK_RECORD
  5
1
100
AcDbSymbolTable
 70
     0
  0
BLOCK_RECORD
  5
18
100
AcDbSymbolTableRecord
100
AcDbBlockTableRecord
  2
*MODEL_SPACE
  0
BLOCK_RECORD
  5
15
100
AcDbSymbolTableRecord
100
AcDbBlockTableRecord
  2
*PAPER_SPACE
  0
ENDTAB
  0
ENDSEC
  0
SECTION
  2
BLOCKS
  0
BLOCK
  5
19
100
AcDbEntity
  8
0
100
AcDbBlockBegin
  2
*MODEL_SPACE
 70
     0
 10
0.0
 20
0.0
 30
0.0
  3
*MODEL_SPACE
  1

  0
ENDBLK
  5
1A
100
AcDbEntity
  8
0
100
AcDbBlockEnd
  0
BLOCK
  5
16
100
AcDbEntity
 67
     1
  8
0
100
AcDbBlockBegin
  2
*PAPER_SPACE
 70
     0
 10
0.0
 20
0.0
 30
0.0
  3
*PAPER_SPACE
  1

  0
ENDBLK
  5
17
100
AcDbEntity
 67
     1
  8
0
100
AcDbBlockEnd
  0
ENDSEC
  0
SECTION
  2
ENTITIES
  0
LINE
  5
49
100
AcDbEntity
  8
1
  6
CONTINUOUS
 62
     7
100
AcDbLine
 10
122.9999999999999
 20
65.99999999999998
 30
0.0
 11
122.9999999999999
 21
53.99999999999998
 31
0.0
  0
LINE
  5
4A
100
AcDbEntity
  8
1
  6
CONTINUOUS
 62
     7
100
AcDbLine
 10
122.9999999999999
 20
65.99999999999998
 30
0.0
 11
135.0
 21
59.99999999999997
 31
0.0
  0
LINE
  5
4B
100
AcDbEntity
  8
1
  6
CONTINUOUS
 62
     7
100
AcDbLine
 10
122.9999999999999
 20
53.99999999999998
 30
0.0
 11
135.0
 21
59.99999999999997
 31
0.0
  0
LINE
  5
4C
100
AcDbEntity
  8
1
  6
CONTINUOUS
 62
     7
100
AcDbLine
 10
122.9999999999999
 20
62.99999999999998
 30
0.0
 11
119.9999999999999
 21
62.99999999999998
 31
0.0
  0
LINE
  5
4D
100
AcDbEntity
  8
1
  6
CONTINUOUS
 62
     7
100
AcDbLine
 10
122.9999999999999
 20
56.99999999999997
 30
0.0
 11
81.00000000000017
 21
56.99999999999997
 31
0.0
  0
LINE
  5
4E
100
AcDbEntity
  8
1
  6
CONTINUOUS
 62
     7
100
AcDbLine
 10
135.0
 20
59.99999999999997
 30
0.0
 11
138.0
 21
59.99999999999997
 31
0.0
  0
LWPOLYLINE
  5
4F
100
AcDbEntity
  8
1
  6
CONTINUOUS
 62
     7
100
AcDbPolyline
 90
        4
 70
     0
 43
0.0
 10
157.9999999999999
 20
53.99999999999999
 10
177.9999999999999
 20
53.99999999999999
 10
177.9999999999999
 20
43.99999999999999
 10
157.9999999999999
 20
43.99999999999999
  0
LINE
  5
50
100
AcDbEntity
  8
1
  6
CONTINUOUS
 62
     7
100
AcDbLine
 10
157.9999999999999
 20
53.99999999999999
 30
0.0
 11
157.9999999999999
 21
43.99999999999999
 31
0.0
  0
LINE
  5
51
100
AcDbEntity
  8
1
  6
CONTINUOUS
 62
     7
100
AcDbLine
 10
182.9999999999999
 20
56.99999999999999
 30
0.0
 11
186.9999999999999
 21
56.99999999999999
 31
0.0
  0
LINE
  5
52
100
AcDbEntity
  8
1
  6
CONTINUOUS
 62
     7
100
AcDbLine
 10
182.9999999999999
 20
55.99999999999998
 30
0.0
 11
186.9999999999999
 21
55.99999999999998
 31
0.0
  0
LINE
  5
53
100
AcDbEntity
  8
1
  6
CONTINUOUS
 62
     7
100
AcDbLine
 10
184.9999999999999
 20
56.99999999999999
 30
0.0
 11
184.9999999999999
 21
59.99999999999998
 31
0.0
  0
LINE
  5
54
100
AcDbEntity
  8
1
  6
CONTINUOUS
 62
     7
100
AcDbLine
 10
184.9999999999999
 20
55.99999999999998
 30
0.0
 11
184.9999999999999
 21
52.99999999999999
 31
0.0
  0
LINE
  5
55
100
AcDbEntity
  8
1
  6
CONTINUOUS
 62
     7
100
AcDbLine
 10
140.9999999999999
 20
60.0
 30
0.0
 11
143.9999999999999
 21
60.0
 31
0.0
  0
LINE
  5
56
100
AcDbEntity
  8
1
  6
CONTINUOUS
 62
     7
100
AcDbLine
 10
143.9999999999999
 20
61.0
 30
0.0
 11
143.9999999999999
 21
58.99999999999999
 31
0.0
  0
LINE
  5
57
100
AcDbEntity
  8
1
  6
CONTINUOUS
 62
     7
100
AcDbLine
 10
143.9999999999999
 20
58.99999999999999
 30
0.0
 11
150.0
 21
58.99999999999999
 31
0.0
  0
LINE
  5
58
100
AcDbEntity
  8
1
  6
CONTINUOUS
 62
     7
100
AcDbLine
 10
150.0
 20
61.0
 30
0.0
 11
143.9999999999999
 21
61.0
 31
0.0
  0
LINE
  5
59
100
AcDbEntity
  8
1
  6
CONTINUOUS
 62
     7
100
AcDbLine
 10
150.0
 20
61.0
 30
0.0
 11
150.0
 21
58.99999999999999
 31
0.0
  0
LINE
  5
5A
100
AcDbEntity
  8
1
  6
CONTINUOUS
 62
     7
100
AcDbLine
 10
150.0
 20
60.0
 30
0.0
 11
153.0
 21
60.0
 31
0.0
  0
LINE
  5
5B
100
AcDbEntity
  8
1
  6
CONTINUOUS
 62
     7
100
AcDbLine
 10
161.0
 20
60.0
 30
0.0
 11
164.0
 21
60.0
 31
0.0
  0
LINE
  5
5C
100
AcDbEntity
  8
1
  6
CONTINUOUS
 62
     7
100
AcDbLine
 10
164.0
 20
61.0
 30
0.0
 11
164.0
 21
58.99999999999999
 31
0.0
  0
LINE
  5
5D
100
AcDbEntity
  8
1
  6
CONTINUOUS
 62
     7
100
AcDbLine
 10
164.0
 20
58.99999999999999
 30
0.0
 11
170.0
 21
58.99999999999999
 31
0.0
  0
LINE
  5
5E
100
AcDbEntity
  8
1
  6
CONTINUOUS
 62
     7
100
AcDbLine
 10
170.0
 20
61.0
 30
0.0
 11
164.0
 21
61.0
 31
0.0
  0
LINE
  5
5F
100
AcDbEntity
  8
1
  6
CONTINUOUS
 62
     7
100
AcDbLine
 10
170.0
 20
61.0
 30
0.0
 11
170.0
 21
58.99999999999999
 31
0.0
  0
LINE
  5
60
100
AcDbEntity
  8
1
  6
CONTINUOUS
 62
     7
100
AcDbLine
 10
170.0
 20
60.0
 30
0.0
 11
172.9999999999999
 21
60.0
 31
0.0
  0
LINE
  5
61
100
AcDbEntity
  8
1
  6
CONTINUOUS
 62
     7
100
AcDbLine
 10
138.0
 20
60.0
 30
0.0
 11
140.9999999999999
 21
60.0
 31
0.0
  0
LINE
  5
62
100
AcDbEntity
  8
1
  6
CONTINUOUS
 62
     7
100
AcDbLine
 10
153.0
 20
60.0
 30
0.0
 11
161.0
 21
60.0
 31
0.0
  0
LINE
  5
63
100
AcDbEntity
  8
1
  6
CONTINUOUS
 62
     7
100
AcDbLine
 10
159.9999999999999
 20
60.0
 30
0.0
 11
159.9999999999999
 21
53.99999999999999
 31
0.0
  0
LINE
  5
64
100
AcDbEntity
  8
1
  6
CONTINUOUS
 62
     7
100
AcDbLine
 10
174.0
 20
60.0
 30
0.0
 11
174.0
 21
53.99999999999999
 31
0.0
  0
LINE
  5
65
100
AcDbEntity
  8
1
  6
CONTINUOUS
 62
     7
100
AcDbLine
 10
175.9999999999999
 20
60.0
 30
0.0
 11
175.9999999999999
 21
53.99999999999999
 31
0.0
  0
LINE
  5
66
100
AcDbEntity
  8
1
  6
CONTINUOUS
 62
     7
100
AcDbLine
 10
172.9999999999999
 20
60.0
 30
0.0
 11
184.9999999999999
 21
60.0
 31
0.0
  0
LINE
  5
67
100
AcDbEntity
  8
1
  6
CONTINUOUS
 62
     7
100
AcDbLine
 10
182.9999999999999
 20
52.99999999999999
 30
0.0
 11
186.9999999999999
 21
52.99999999999999
 31
0.0
  0
TEXT
  5
69
100
AcDbEntity
  8
1
  6
CONTINUOUS
 62
     7
100
AcDbText
 10
183.9999999999999
 20
51.0
 30
0.0
 40
1.249999999999999
  1
Batt -ve
  7
ARIALB
100
AcDbText
  0
LINE
  5
6A
100
AcDbEntity
  8
1
  6
CONTINUOUS
 62
     7
100
AcDbLine
 10
157.9999999999999
 20
51.0
 30
0.0
 11
154.0
 21
51.0
 31
0.0
  0
LINE
  5
6B
100
AcDbEntity
  8
1
  6
CONTINUOUS
 62
     7
100
AcDbLine
 10
157.9999999999999
 20
47.0
 30
0.0
 11
154.0
 21
47.0
 31
0.0
  0
LINE
  5
6C
100
AcDbEntity
  8
1
  6
CONTINUOUS
 62
     7
100
AcDbLine
 10
154.0
 20
47.0
 30
0.0
 11
154.0
 21
55.0
 31
0.0
  0
LINE
  5
6D
100
AcDbEntity
  8
1
  6
CONTINUOUS
 62
     7
100
AcDbLine
 10
152.0
 20
55.0
 30
0.0
 11
156.0
 21
55.0
 31
0.0
  0
TEXT
  5
6E
100
AcDbEntity
  8
1
  6
CONTINUOUS
 62
     7
100
AcDbText
 10
153.0
 20
56.0
 30
0.0
 40
1.249999999999999
  1
+3.54V
  7
ARIALB
100
AcDbText
  0
CIRCLE
  5
6F
100
AcDbEntity
  8
1
  6
CONTINUOUS
 62
     7
100
AcDbCircle
 10
159.9999999999999
 20
60.0
 30
0.0
 40
0.4
  0
CIRCLE
  5
70
100
AcDbEntity
  8
1
  6
CONTINUOUS
 62
     7
100
AcDbCircle
 10
154.0
 20
55.0
 30
0.0
 40
0.4
  0
CIRCLE
  5
71
100
AcDbEntity
  8
1
  6
CONTINUOUS
 62
     7
100
AcDbCircle
 10
174.0
 20
60.0
 30
0.0
 40
0.4
  0
CIRCLE
  5
72
100
AcDbEntity
  8
1
  6
CONTINUOUS
 62
     7
100
AcDbCircle
 10
175.9999999999999
 20
60.0
 30
0.0
 40
0.4
  0
CIRCLE
  5
73
100
AcDbEntity
  8
1
  6
CONTINUOUS
 62
     7
100
AcDbCircle
 10
184.9999999999999
 20
52.99999999999999
 30
0.0
 40
0.4
  0
LINE
  5
74
100
AcDbEntity
  8
1
  6
CONTINUOUS
 62
     7
100
AcDbLine
 10
169.9999999999999
 20
44.0
 30
0.0
 11
169.9999999999999
 21
39.99999999999999
 31
0.0
  0
LINE
  5
75
100
AcDbEntity
  8
1
  6
CONTINUOUS
 62
     7
100
AcDbLine
 10
167.9999999999999
 20
39.99999999999999
 30
0.0
 11
171.9999999999999
 21
39.99999999999999
 31
0.0
  0
TEXT
  5
76
100
AcDbEntity
  8
1
  6
CONTINUOUS
 62
     7
100
AcDbText
 10
168.9999999999999
 20
38.0
 30
0.0
 40
1.249999999999999
  1
Batt -ve
  7
ARIALB
100
AcDbText
  0
CIRCLE
  5
77
100
AcDbEntity
  8
1
  6
CONTINUOUS
 62
     7
100
AcDbCircle
 10
169.9999999999999
 20
39.99999999999999
 30
0.0
 40
0.4
  0
TEXT
  5
78
100
AcDbEntity
  8
1
  6
CONTINUOUS
 62
     7
100
AcDbText
 10
165.0
 20
45.99999999999999
 30
0.0
 40
1.249999999999999
  1
ICM7555
  7
ARIALB
100
AcDbText
  0
TEXT
  5
79
100
AcDbEntity
  8
1
  6
CONTINUOUS
 62
     7
100
AcDbText
 10
155.9999999999999
 20
51.99999999999999
 30
0.0
 40
1.249999999999999
  1
4
  7
ARIALB
100
AcDbText
  0
TEXT
  5
7A
100
AcDbEntity
  8
1
  6
CONTINUOUS
 62
     7
100
AcDbText
 10
155.9999999999999
 20
48.0
 30
0.0
 40
1.249999999999999
  1
8
  7
ARIALB
100
AcDbText
  0
TEXT
  5
7B
100
AcDbEntity
  8
1
  6
CONTINUOUS
 62
     7
100
AcDbText
 10
170.9999999999999
 20
41.99999999999999
 30
0.0
 40
1.249999999999999
  1
1
  7
ARIALB
100
AcDbText
  0
TEXT
  5
7C
100
AcDbEntity
  8
1
  6
CONTINUOUS
 62
     7
100
AcDbText
 10
161.0
 20
55.0
 30
0.0
 40
1.249999999999999
  1
7
  7
ARIALB
100
AcDbText
  0
TEXT
  5
7D
100
AcDbEntity
  8
1
  6
CONTINUOUS
 62
     7
100
AcDbText
 10
171.9999999999999
 20
55.0
 30
0.0
 40
1.249999999999999
  1
2
  7
ARIALB
100
AcDbText
  0
TEXT
  5
7E
100
AcDbEntity
  8
1
  6
CONTINUOUS
 62
     7
100
AcDbText
 10
177.0
 20
55.0
 30
0.0
 40
1.249999999999999
  1
6
  7
ARIALB
100
AcDbText
  0
TEXT
  5
7F
100
AcDbEntity
  8
1
  6
CONTINUOUS
 62
     7
100
AcDbText
 10
179.0
 20
47.0
 30
0.0
 40
1.249999999999999
  1
3
  7
ARIALB
100
AcDbText
  0
TEXT
  5
80
100
AcDbEntity
  8
1
  6
CONTINUOUS
 62
     7
100
AcDbText
 10
144.9999999999999
 20
62.0
 30
0.0
 40
1.249999999999999
  1
390k
  7
ARIALB
100
AcDbText
  0
TEXT
  5
81
100
AcDbEntity
  8
1
  6
CONTINUOUS
 62
     7
100
AcDbText
 10
165.0
 20
62.0
 30
0.0
 40
1.249999999999999
  1
18k
  7
ARIALB
100
AcDbText
  0
TEXT
  5
82
100
AcDbEntity
  8
1
  6
CONTINUOUS
 62
     7
100
AcDbText
 10
186.0
 20
58.99999999999999
 30
0.0
 40
1.249999999999999
  1
.01u
  7
ARIALB
100
AcDbText
  0
CIRCLE
  5
83
100
AcDbEntity
  8
1
  6
CONTINUOUS
 62
     7
100
AcDbCircle
 10
154.0
 20
51.0
 30
0.0
 40
0.4
  0
LINE
  5
84
100
AcDbEntity
  8
1
  6
CONTINUOUS
 62
     7
100
AcDbLine
 10
129.0
 20
57.0
 30
0.0
 11
129.0
 21
53.99999999999999
 31
0.0
  0
LINE
  5
85
100
AcDbEntity
  8
1
  6
CONTINUOUS
 62
     7
100
AcDbLine
 10
127.0
 20
63.99999999999999
 30
0.0
 11
127.0
 21
66.99999999999999
 31
0.0
  0
LINE
  5
86
100
AcDbEntity
  8
1
  6
CONTINUOUS
 62
     7
100
AcDbLine
 10
130.9999999999999
 20
62.0
 30
0.0
 11
130.9999999999999
 21
66.99999999999999
 31
0.0
  0
LINE
  5
87
100
AcDbEntity
  8
1
  6
CONTINUOUS
 62
     7
100
AcDbLine
 10
125.0
 20
66.99999999999999
 30
0.0
 11
132.9999999999999
 21
66.99999999999999
 31
0.0
  0
CIRCLE
  5
88
100
AcDbEntity
  8
1
  6
CONTINUOUS
 62
     7
100
AcDbCircle
 10
127.0
 20
66.99999999999999
 30
0.0
 40
0.4
  0
CIRCLE
  5
89
100
AcDbEntity
  8
1
  6
CONTINUOUS
 62
     7
100
AcDbCircle
 10
130.9999999999999
 20
66.99999999999999
 30
0.0
 40
0.4
  0
CIRCLE
  5
8A
100
AcDbEntity
  8
1
  6
CONTINUOUS
 62
     7
100
AcDbCircle
 10
129.0
 20
53.99999999999999
 30
0.0
 40
0.4
  0
LINE
  5
8B
100
AcDbEntity
  8
1
  6
CONTINUOUS
 62
     7
100
AcDbLine
 10
127.0
 20
53.99999999999999
 30
0.0
 11
130.9999999999999
 21
53.99999999999999
 31
0.0
  0
TEXT
  5
8C
100
AcDbEntity
  8
1
  6
CONTINUOUS
 62
     7
100
AcDbText
 10
127.0
 20
69.0
 30
0.0
 40
1.249999999999999
  1
+7.2V
  7
ARIALB
100
AcDbText
  0
TEXT
  5
8D
100
AcDbEntity
  8
1
  6
CONTINUOUS
 62
     7
100
AcDbText
 10
127.0
 20
51.0
 30
0.0
 40
1.249999999999999
  1
Batt -ve
  7
ARIALB
100
AcDbText
  0
TEXT
  5
8E
100
AcDbEntity
  8
1
  6
CONTINUOUS
 62
     7
100
AcDbText
 10
120.9999999999999
 20
63.99999999999999
 30
0.0
 40
1.249999999999999
  1
2
  7
ARIALB
100
AcDbText
  0
TEXT
  5
8F
100
AcDbEntity
  8
1
  6
CONTINUOUS
 62
     7
100
AcDbText
 10
120.9999999999999
 20
57.99999999999999
 30
0.0
 40
1.249999999999999
  1
3
  7
ARIALB
100
AcDbText
  0
TEXT
  5
90
100
AcDbEntity
  8
1
  6
CONTINUOUS
 62
     7
100
AcDbText
 10
127.9999999999999
 20
63.99999999999999
 30
0.0
 40
1.249999999999999
  1
8
  7
ARIALB
100
AcDbText
  0
TEXT
  5
91
100
AcDbEntity
  8
1
  6
CONTINUOUS
 62
     7
100
AcDbText
 10
131.9999999999999
 20
62.0
 30
0.0
 40
1.249999999999999
  1
7
  7
ARIALB
100
AcDbText
  0
TEXT
  5
92
100
AcDbEntity
  8
1
  6
CONTINUOUS
 62
     7
100
AcDbText
 10
130.0
 20
55.0
 30
0.0
 40
1.249999999999999
  1
4
  7
ARIALB
100
AcDbText
  0
TEXT
  5
93
100
AcDbEntity
  8
1
  6
CONTINUOUS
 62
     7
100
AcDbText
 10
136.0
 20
61.0
 30
0.0
 40
1.249999999999999
  1
6
  7
ARIALB
100
AcDbText
  0
LINE
  5
94
100
AcDbEntity
  8
1
  6
CONTINUOUS
 62
     7
100
AcDbLine
 10
120.9999999999999
 20
72.99999999999998
 30
0.0
 11
123.9999999999999
 21
72.99999999999998
 31
0.0
  0
LINE
  5
95
100
AcDbEntity
  8
1
  6
CONTINUOUS
 62
     7
100
AcDbLine
 10
123.9999999999999
 20
73.99999999999998
 30
0.0
 11
123.9999999999999
 21
71.99999999999999
 31
0.0
  0
LINE
  5
96
100
AcDbEntity
  8
1
  6
CONTINUOUS
 62
     7
100
AcDbLine
 10
123.9999999999999
 20
71.99999999999999
 30
0.0
 11
130.0
 21
71.99999999999999
 31
0.0
  0
LINE
  5
97
100
AcDbEntity
  8
1
  6
CONTINUOUS
 62
     7
100
AcDbLine
 10
130.0
 20
73.99999999999998
 30
0.0
 11
123.9999999999999
 21
73.99999999999998
 31
0.0
  0
LINE
  5
98
100
AcDbEntity
  8
1
  6
CONTINUOUS
 62
     7
100
AcDbLine
 10
130.0
 20
73.99999999999998
 30
0.0
 11
130.0
 21
71.99999999999999
 31
0.0
  0
LINE
  5
99
100
AcDbEntity
  8
1
  6
CONTINUOUS
 62
     7
100
AcDbLine
 10
130.0
 20
72.99999999999998
 30
0.0
 11
132.9999999999999
 21
72.99999999999998
 31
0.0
  0
LINE
  5
9A
100
AcDbEntity
  8
1
  6
CONTINUOUS
 62
     7
100
AcDbLine
 10
116.9999999999999
 20
72.99999999999998
 30
0.0
 11
120.9999999999999
 21
72.99999999999998
 31
0.0
  0
LINE
  5
9B
100
AcDbEntity
  8
1
  6
CONTINUOUS
 62
     7
100
AcDbLine
 10
132.9999999999999
 20
72.99999999999998
 30
0.0
 11
140.0
 21
72.99999999999998
 31
0.0
  0
TEXT
  5
9C
100
AcDbEntity
  8
1
  6
CONTINUOUS
 62
     7
100
AcDbText
 10
124.9999999999999
 20
74.99999999999999
 30
0.0
 40
1.249999999999999
  1
1M
  7
ARIALB
100
AcDbText
  0
LINE
  5
9D
100
AcDbEntity
  8
1
  6
CONTINUOUS
 62
     7
100
AcDbLine
 10
93.0
 20
62.99999999999997
 30
0.0
 11
96.99999999999997
 21
62.99999999999997
 31
0.0
  0
LINE
  5
9E
100
AcDbEntity
  8
1
  6
CONTINUOUS
 62
     7
100
AcDbLine
 10
99.99999999999998
 20
63.0
 30
0.0
 11
102.9999999999999
 21
63.0
 31
0.0
  0
LINE
  5
9F
100
AcDbEntity
  8
1
  6
CONTINUOUS
 62
     7
100
AcDbLine
 10
102.9999999999999
 20
64.0
 30
0.0
 11
102.9999999999999
 21
62.0
 31
0.0
  0
LINE
  5
A0
100
AcDbEntity
  8
1
  6
CONTINUOUS
 62
     7
100
AcDbLine
 10
102.9999999999999
 20
62.0
 30
0.0
 11
108.9999999999999
 21
62.0
 31
0.0
  0
LINE
  5
A1
100
AcDbEntity
  8
1
  6
CONTINUOUS
 62
     7
100
AcDbLine
 10
108.9999999999999
 20
64.0
 30
0.0
 11
102.9999999999999
 21
64.0
 31
0.0
  0
LINE
  5
A2
100
AcDbEntity
  8
1
  6
CONTINUOUS
 62
     7
100
AcDbLine
 10
108.9999999999999
 20
64.0
 30
0.0
 11
108.9999999999999
 21
62.0
 31
0.0
  0
LINE
  5
A3
100
AcDbEntity
  8
1
  6
CONTINUOUS
 62
     7
100
AcDbLine
 10
108.9999999999999
 20
63.0
 30
0.0
 11
111.9999999999999
 21
63.0
 31
0.0
  0
LINE
  5
A4
100
AcDbEntity
  8
1
  6
CONTINUOUS
 62
     7
100
AcDbLine
 10
96.99999999999997
 20
63.0
 30
0.0
 11
99.99999999999998
 21
63.0
 31
0.0
  0
LINE
  5
A5
100
AcDbEntity
  8
1
  6
CONTINUOUS
 62
     7
100
AcDbLine
 10
111.9999999999999
 20
63.0
 30
0.0
 11
119.9999999999999
 21
63.0
 31
0.0
  0
TEXT
  5
A6
100
AcDbEntity
  8
1
  6
CONTINUOUS
 62
     7
100
AcDbText
 10
103.9999999999999
 20
65.0
 30
0.0
 40
1.249999999999999
  1
560k
  7
ARIALB
100
AcDbText
  0
LINE
  5
A7
100
AcDbEntity
  8
1
  6
CONTINUOUS
 62
     7
100
AcDbLine
 10
116.9999999999999
 20
72.99999999999998
 30
0.0
 11
116.9999999999999
 21
63.0
 31
0.0
  0
LINE
  5
A8
100
AcDbEntity
  8
1
  6
CONTINUOUS
 62
     7
100
AcDbLine
 10
140.0
 20
72.99999999999998
 30
0.0
 11
140.0
 21
60.0
 31
0.0
  0
CIRCLE
  5
A9
100
AcDbEntity
  8
1
  6
CONTINUOUS
 62
     7
100
AcDbCircle
 10
116.9999999999999
 20
63.0
 30
0.0
 40
0.4
  0
CIRCLE
  5
AA
100
AcDbEntity
  8
1
  6
CONTINUOUS
 62
     7
100
AcDbCircle
 10
140.0
 20
60.0
 30
0.0
 40
0.4
  0
LINE
  5
AB
100
AcDbEntity
  8
1
  6
CONTINUOUS
 62
     7
100
AcDbLine
 10
178.0
 20
46.99999999999999
 30
0.0
 11
183.9999999999999
 21
46.99999999999999
 31
0.0
  0
LINE
  5
AC
100
AcDbEntity
  8
1
  6
CONTINUOUS
 62
     7
100
AcDbLine
 10
183.9999999999999
 20
48.0
 30
0.0
 11
183.9999999999999
 21
45.99999999999999
 31
0.0
  0
LINE
  5
AD
100
AcDbEntity
  8
1
  6
CONTINUOUS
 62
     7
100
AcDbLine
 10
183.9999999999999
 20
45.99999999999999
 30
0.0
 11
189.9999999999999
 21
45.99999999999999
 31
0.0
  0
LINE
  5
AE
100
AcDbEntity
  8
1
  6
CONTINUOUS
 62
     7
100
AcDbLine
 10
189.9999999999999
 20
48.0
 30
0.0
 11
183.9999999999999
 21
48.0
 31
0.0
  0
LINE
  5
AF
100
AcDbEntity
  8
1
  6
CONTINUOUS
 62
     7
100
AcDbLine
 10
189.9999999999999
 20
48.0
 30
0.0
 11
189.9999999999999
 21
45.99999999999999
 31
0.0
  0
LINE
  5
B0
100
AcDbEntity
  8
1
  6
CONTINUOUS
 62
     7
100
AcDbLine
 10
189.9999999999999
 20
46.99999999999999
 30
0.0
 11
197.9999999999999
 21
46.99999999999999
 31
0.0
  0
TEXT
  5
B1
100
AcDbEntity
  8
1
  6
CONTINUOUS
 62
     7
100
AcDbText
 10
184.9999999999999
 20
49.0
 30
0.0
 40
1.249999999999999
  1
1M
  7
ARIALB
100
AcDbText
  0
LINE
  5
B2
100
AcDbEntity
  8
1
  6
CONTINUOUS
 62
     7
100
AcDbLine
 10
197.9999999999999
 20
48.99999999999999
 30
0.0
 11
197.9999999999999
 21
45.0
 31
0.0
  0
LINE
  5
B3
100
AcDbEntity
  8
1
  6
CONTINUOUS
 62
     7
100
AcDbLine
 10
197.9999999999999
 20
48.0
 30
0.0
 11
200.9999999999999
 21
51.00000000000001
 31
0.0
  0
LINE
  5
B4
100
AcDbEntity
  8
1
  6
CONTINUOUS
 62
     7
100
AcDbLine
 10
197.9999999999999
 20
46.0
 30
0.0
 11
200.9999999999999
 21
42.99999999999998
 31
0.0
  0
LINE
  5
B5
100
AcDbEntity
  8
1
  6
CONTINUOUS
 62
     7
100
AcDbLine
 10
201.0
 20
42.99999999999999
 30
0.0
 11
201.0
 21
37.0
 31
0.0
  0
LINE
  5
B6
100
AcDbEntity
  8
1
  6
CONTINUOUS
 62
     7
100
AcDbLine
 10
200.0
 20
44.0
 30
0.0
 11
199.0
 21
44.0
 31
0.0
  0
LINE
  5
B7
100
AcDbEntity
  8
1
  6
CONTINUOUS
 62
     7
100
AcDbLine
 10
199.9999999999999
 20
44.00000000000001
 30
0.0
 11
199.9999999999999
 21
45.0
 31
0.0
  0
LINE
  5
B8
100
AcDbEntity
  8
1
  6
CONTINUOUS
 62
     7
100
AcDbLine
 10
198.0
 20
35.0
 30
0.0
 11
198.0
 21
31.0
 31
0.0
  0
LINE
  5
B9
100
AcDbEntity
  8
1
  6
CONTINUOUS
 62
     7
100
AcDbLine
 10
198.0
 20
34.0
 30
0.0
 11
201.0
 21
37.00000000000001
 31
0.0
  0
LINE
  5
BA
100
AcDbEntity
  8
1
  6
CONTINUOUS
 62
     7
100
AcDbLine
 10
198.0
 20
32.0
 30
0.0
 11
201.0
 21
28.99999999999998
 31
0.0
  0
LINE
  5
BB
100
AcDbEntity
  8
1
  6
CONTINUOUS
 62
     7
100
AcDbLine
 10
201.0
 20
29.0
 30
0.0
 11
201.0
 21
25.0
 31
0.0
  0
LINE
  5
BC
100
AcDbEntity
  8
1
  6
CONTINUOUS
 62
     7
100
AcDbLine
 10
200.0
 20
30.0
 30
0.0
 11
199.0
 21
30.0
 31
0.0
  0
LINE
  5
BD
100
AcDbEntity
  8
1
  6
CONTINUOUS
 62
     7
100
AcDbLine
 10
200.0
 20
30.0
 30
0.0
 11
200.0
 21
31.0
 31
0.0
  0
LINE
  5
BE
100
AcDbEntity
  8
1
  6
CONTINUOUS
 62
     7
100
AcDbLine
 10
199.0
 20
25.0
 30
0.0
 11
203.0
 21
25.0
 31
0.0
  0
CIRCLE
  5
BF
100
AcDbEntity
  8
1
  6
CONTINUOUS
 62
     7
100
AcDbCircle
 10
201.0
 20
25.0
 30
0.0
 40
0.4
  0
LINE
  5
C0
100
AcDbEntity
  8
1
  6
CONTINUOUS
 62
     7
100
AcDbLine
 10
197.9999999999999
 20
32.99999999999999
 30
0.0
 11
194.9999999999999
 21
32.99999999999999
 31
0.0
  0
LINE
  5
C1
100
AcDbEntity
  8
1
  6
CONTINUOUS
 62
     7
100
AcDbLine
 10
194.9999999999999
 20
32.99999999999999
 30
0.0
 11
194.9999999999999
 21
79.99999999999997
 31
0.0
  0
LINE
  5
C2
100
AcDbEntity
  8
1
  6
CONTINUOUS
 62
     7
100
AcDbLine
 10
201.0
 20
51.0
 30
0.0
 11
201.0
 21
57.0
 31
0.0
  0
LINE
  5
C3
100
AcDbEntity
  8
1
  6
CONTINUOUS
 62
     7
100
AcDbLine
 10
200.0
 20
57.0
 30
0.0
 11
202.0
 21
57.0
 31
0.0
  0
LINE
  5
C4
100
AcDbEntity
  8
1
  6
CONTINUOUS
 62
     7
100
AcDbLine
 10
202.0
 20
63.0
 30
0.0
 11
202.0
 21
57.0
 31
0.0
  0
LINE
  5
C5
100
AcDbEntity
  8
1
  6
CONTINUOUS
 62
     7
100
AcDbLine
 10
200.0
 20
57.0
 30
0.0
 11
200.0
 21
63.0
 31
0.0
  0
LINE
  5
C6
100
AcDbEntity
  8
1
  6
CONTINUOUS
 62
     7
100
AcDbLine
 10
200.0
 20
63.0
 30
0.0
 11
202.0
 21
63.0
 31
0.0
  0
LINE
  5
C7
100
AcDbEntity
  8
1
  6
CONTINUOUS
 62
     7
100
AcDbLine
 10
201.0
 20
63.0
 30
0.0
 11
201.0
 21
68.0
 31
0.0
  0
LINE
  5
C8
100
AcDbEntity
  8
1
  6
CONTINUOUS
 62
     7
100
AcDbLine
 10
209.9999999999999
 20
57.0
 30
0.0
 11
221.9999999999999
 21
50.99999999999998
 31
0.0
  0
LINE
  5
C9
100
AcDbEntity
  8
1
  6
CONTINUOUS
 62
     7
100
AcDbLine
 10
209.9999999999999
 20
57.0
 30
0.0
 11
209.9999999999999
 21
45.0
 31
0.0
  0
LINE
  5
CA
100
AcDbEntity
  8
1
  6
CONTINUOUS
 62
     7
100
AcDbLine
 10
209.9999999999999
 20
45.0
 30
0.0
 11
221.9999999999999
 21
50.99999999999998
 31
0.0
  0
LINE
  5
CB
100
AcDbEntity
  8
1
  6
CONTINUOUS
 62
     7
100
AcDbLine
 10
228.0
 20
57.0
 30
0.0
 11
239.9999999999999
 21
50.99999999999998
 31
0.0
  0
LINE
  5
CC
100
AcDbEntity
  8
1
  6
CONTINUOUS
 62
     7
100
AcDbLine
 10
228.0
 20
57.0
 30
0.0
 11
228.0
 21
45.0
 31
0.0
  0
LINE
  5
CD
100
AcDbEntity
  8
1
  6
CONTINUOUS
 62
     7
100
AcDbLine
 10
228.0
 20
45.0
 30
0.0
 11
239.9999999999999
 21
50.99999999999998
 31
0.0
  0
LINE
  5
CE
100
AcDbEntity
  8
1
  6
CONTINUOUS
 62
     7
100
AcDbLine
 10
250.0
 20
57.0
 30
0.0
 11
262.0
 21
50.99999999999998
 31
0.0
  0
LINE
  5
CF
100
AcDbEntity
  8
1
  6
CONTINUOUS
 62
     7
100
AcDbLine
 10
250.0
 20
57.0
 30
0.0
 11
250.0
 21
45.0
 31
0.0
  0
LINE
  5
D0
100
AcDbEntity
  8
1
  6
CONTINUOUS
 62
     7
100
AcDbLine
 10
250.0
 20
45.0
 30
0.0
 11
262.0
 21
50.99999999999998
 31
0.0
  0
LINE
  5
D1
100
AcDbEntity
  8
1
  6
CONTINUOUS
 62
     7
100
AcDbLine
 10
228.0
 20
76.0
 30
0.0
 11
239.9999999999999
 21
69.99999999999999
 31
0.0
  0
LINE
  5
D2
100
AcDbEntity
  8
1
  6
CONTINUOUS
 62
     7
100
AcDbLine
 10
228.0
 20
76.0
 30
0.0
 11
228.0
 21
63.99999999999999
 31
0.0
  0
LINE
  5
D3
100
AcDbEntity
  8
1
  6
CONTINUOUS
 62
     7
100
AcDbLine
 10
228.0
 20
63.99999999999999
 30
0.0
 11
239.9999999999999
 21
69.99999999999999
 31
0.0
  0
LINE
  5
D4
100
AcDbEntity
  8
1
  6
CONTINUOUS
 62
     7
100
AcDbLine
 10
250.0
 20
76.0
 30
0.0
 11
262.0
 21
69.99999999999999
 31
0.0
  0
LINE
  5
D5
100
AcDbEntity
  8
1
  6
CONTINUOUS
 62
     7
100
AcDbLine
 10
250.0
 20
76.0
 30
0.0
 11
250.0
 21
63.99999999999999
 31
0.0
  0
LINE
  5
D6
100
AcDbEntity
  8
1
  6
CONTINUOUS
 62
     7
100
AcDbLine
 10
250.0
 20
63.99999999999999
 30
0.0
 11
262.0
 21
69.99999999999999
 31
0.0
  0
LINE
  5
D7
100
AcDbEntity
  8
1
  6
CONTINUOUS
 62
     7
100
AcDbLine
 10
228.0
 20
94.0
 30
0.0
 11
239.9999999999999
 21
87.99999999999998
 31
0.0
  0
LINE
  5
D8
100
AcDbEntity
  8
1
  6
CONTINUOUS
 62
     7
100
AcDbLine
 10
228.0
 20
94.0
 30
0.0
 11
228.0
 21
82.00000000000001
 31
0.0
  0
LINE
  5
D9
100
AcDbEntity
  8
1
  6
CONTINUOUS
 62
     7
100
AcDbLine
 10
228.0
 20
82.00000000000001
 30
0.0
 11
239.9999999999999
 21
87.99999999999998
 31
0.0
  0
LINE
  5
DA
100
AcDbEntity
  8
1
  6
CONTINUOUS
 62
     7
100
AcDbLine
 10
201.0
 20
51.0
 30
0.0
 11
209.9999999999999
 21
51.0
 31
0.0
  0
LINE
  5
DB
100
AcDbEntity
  8
1
  6
CONTINUOUS
 62
     7
100
AcDbLine
 10
222.0
 20
51.0
 30
0.0
 11
228.0
 21
51.0
 31
0.0
  0
LINE
  5
DC
100
AcDbEntity
  8
1
  6
CONTINUOUS
 62
     7
100
AcDbLine
 10
239.9999999999999
 20
51.0
 30
0.0
 11
250.0
 21
51.0
 31
0.0
  0
LINE
  5
DD
100
AcDbEntity
  8
1
  6
CONTINUOUS
 62
     7
100
AcDbLine
 10
262.0
 20
51.0
 30
0.0
 11
266.9999999999999
 21
51.0
 31
0.0
  0
LINE
  5
DE
100
AcDbEntity
  8
1
  6
CONTINUOUS
 62
     7
100
AcDbLine
 10
224.0
 20
51.0
 30
0.0
 11
224.0
 21
88.0
 31
0.0
  0
LINE
  5
DF
100
AcDbEntity
  8
1
  6
CONTINUOUS
 62
     7
100
AcDbLine
 10
224.0
 20
88.0
 30
0.0
 11
228.0
 21
88.0
 31
0.0
  0
LINE
  5
E0
100
AcDbEntity
  8
1
  6
CONTINUOUS
 62
     7
100
AcDbLine
 10
224.0
 20
70.0
 30
0.0
 11
228.0
 21
70.0
 31
0.0
  0
LINE
  5
E1
100
AcDbEntity
  8
1
  6
CONTINUOUS
 62
     7
100
AcDbLine
 10
245.9999999999999
 20
51.0
 30
0.0
 11
245.9999999999999
 21
70.0
 31
0.0
  0
LINE
  5
E2
100
AcDbEntity
  8
1
  6
CONTINUOUS
 62
     7
100
AcDbLine
 10
250.0
 20
70.0
 30
0.0
 11
245.9999999999999
 21
70.0
 31
0.0
  0
LINE
  5
E3
100
AcDbEntity
  8
1
  6
CONTINUOUS
 62
     7
100
AcDbLine
 10
239.9999999999999
 20
70.0
 30
0.0
 11
241.9999999999999
 21
70.0
 31
0.0
  0
LINE
  5
E4
100
AcDbEntity
  8
1
  6
CONTINUOUS
 62
     7
100
AcDbLine
 10
241.9999999999999
 20
70.0
 30
0.0
 11
241.9999999999999
 21
88.0
 31
0.0
  0
LINE
  5
E5
100
AcDbEntity
  8
1
  6
CONTINUOUS
 62
     7
100
AcDbLine
 10
241.9999999999999
 20
88.0
 30
0.0
 11
239.9999999999999
 21
88.0
 31
0.0
  0
CIRCLE
  5
E6
100
AcDbEntity
  8
1
  6
CONTINUOUS
 62
     7
100
AcDbCircle
 10
201.0
 20
51.0
 30
0.0
 40
0.4
  0
CIRCLE
  5
E7
100
AcDbEntity
  8
1
  6
CONTINUOUS
 62
     7
100
AcDbCircle
 10
224.0
 20
51.0
 30
0.0
 40
0.4
  0
CIRCLE
  5
E8
100
AcDbEntity
  8
1
  6
CONTINUOUS
 62
     7
100
AcDbCircle
 10
245.9999999999999
 20
51.0
 30
0.0
 40
0.4
  0
CIRCLE
  5
E9
100
AcDbEntity
  8
1
  6
CONTINUOUS
 62
     7
100
AcDbCircle
 10
224.0
 20
70.0
 30
0.0
 40
0.4
  0
CIRCLE
  5
EA
100
AcDbEntity
  8
1
  6
CONTINUOUS
 62
     7
100
AcDbCircle
 10
241.9999999999999
 20
88.0
 30
0.0
 40
0.4
  0
CIRCLE
  5
EB
100
AcDbEntity
  8
1
  6
CONTINUOUS
 62
     7
100
AcDbCircle
 10
266.9999999999999
 20
70.0
 30
0.0
 40
0.4
  0
LINE
  5
EC
100
AcDbEntity
  8
1
  6
CONTINUOUS
 62
     7
100
AcDbLine
 10
261.9999999999999
 20
70.0
 30
0.0
 11
276.0
 21
70.0
 31
0.0
  0
LINE
  5
ED
100
AcDbEntity
  8
1
  6
CONTINUOUS
 62
     7
100
AcDbLine
 10
241.9999999999999
 20
88.0
 30
0.0
 11
276.0
 21
88.0
 31
0.0
  0
LINE
  5
EE
100
AcDbEntity
  8
1
  6
CONTINUOUS
 62
     7
100
AcDbLine
 10
266.9999999999999
 20
51.0
 30
0.0
 11
266.9999999999999
 21
70.0
 31
0.0
  0
TEXT
  5
EF
100
AcDbEntity
  8
1
  6
CONTINUOUS
 62
     7
100
AcDbText
 10
203.0
 20
60.0
 30
0.0
 40
1.249999999999999
  1
100k
  7
ARIALB
100
AcDbText
  0
TEXT
  5
F0
100
AcDbEntity
  8
1
  6
CONTINUOUS
 62
     7
100
AcDbText
 10
202.2277356707825
 20
26.846927222487
 30
0.0
 40
1.249999999999999
  1
Batt -ve
  7
ARIALB
100
AcDbText
  0
TEXT
  5
F1
100
AcDbEntity
  8
1
  6
CONTINUOUS
 62
     7
100
AcDbText
 10
212.9999999999999
 20
35.99999999999999
 30
0.0
 40
1.249999999999999
  1
Batt -ve
  7
ARIALB
100
AcDbText
  0
LINE
  5
F2
100
AcDbEntity
  8
1
  6
CONTINUOUS
 62
     7
100
AcDbLine
 10
213.9999999999999
 20
55.00000000000003
 30
0.0
 11
213.9999999999999
 21
105.9999999999999
 31
0.0
  0
LINE
  5
F3
100
AcDbEntity
  8
1
  6
CONTINUOUS
 62
     7
100
AcDbLine
 10
213.9999999999999
 20
47.0
 30
0.0
 11
213.9999999999999
 21
39.99999999999999
 31
0.0
  0
LINE
  5
F4
100
AcDbEntity
  8
1
  6
CONTINUOUS
 62
     7
100
AcDbLine
 10
211.9999999999999
 20
39.99999999999999
 30
0.0
 11
215.9999999999999
 21
39.99999999999999
 31
0.0
  0
CIRCLE
  5
F5
100
AcDbEntity
  8
1
  6
CONTINUOUS
 62
     7
100
AcDbCircle
 10
213.9999999999999
 20
39.99999999999999
 30
0.0
 40
0.4
  0
TEXT
  5
F6
100
AcDbEntity
  8
1
  6
CONTINUOUS
 62
     7
100
AcDbText
 10
206.9999999999999
 20
51.99999999999999
 30
0.0
 40
1.249999999999999
  1
7
  7
ARIALB
100
AcDbText
  0
TEXT
  5
F7
100
AcDbEntity
  8
1
  6
CONTINUOUS
 62
     7
100
AcDbText
 10
220.9999999999999
 20
52.99999999999999
 30
0.0
 40
1.249999999999999
  1
6
  7
ARIALB
100
AcDbText
  0
TEXT
  5
F8
100
AcDbEntity
  8
1
  6
CONTINUOUS
 62
     7
100
AcDbText
 10
226.0
 20
52.99999999999999
 30
0.0
 40
1.249999999999999
  1
5
  7
ARIALB
100
AcDbText
  0
TEXT
  5
F9
100
AcDbEntity
  8
1
  6
CONTINUOUS
 62
     7
100
AcDbText
 10
239.9999999999999
 20
52.99999999999999
 30
0.0
 40
1.249999999999999
  1
4
  7
ARIALB
100
AcDbText
  0
TEXT
  5
FA
100
AcDbEntity
  8
1
  6
CONTINUOUS
 62
     7
100
AcDbText
 10
247.9999999999999
 20
52.99999999999999
 30
0.0
 40
1.249999999999999
  1
3
  7
ARIALB
100
AcDbText
  0
TEXT
  5
FB
100
AcDbEntity
  8
1
  6
CONTINUOUS
 62
     7
100
AcDbText
 10
247.9999999999999
 20
71.0
 30
0.0
 40
1.249999999999999
  1
14
  7
ARIALB
100
AcDbText
  0
TEXT
  5
FC
100
AcDbEntity
  8
1
  6
CONTINUOUS
 62
     7
100
AcDbText
 10
260.9999999999999
 20
71.0
 30
0.0
 40
1.249999999999999
  1
15
  7
ARIALB
100
AcDbText
  0
TEXT
  5
FD
100
AcDbEntity
  8
1
  6
CONTINUOUS
 62
     7
100
AcDbText
 10
260.9999999999999
 20
52.99999999999999
 30
0.0
 40
1.249999999999999
  1
2
  7
ARIALB
100
AcDbText
  0
TEXT
  5
FE
100
AcDbEntity
  8
1
  6
CONTINUOUS
 62
     7
100
AcDbText
 10
238.9999999999999
 20
71.99999999999999
 30
0.0
 40
1.249999999999999
  1
10
  7
ARIALB
100
AcDbText
  0
TEXT
  5
FF
100
AcDbEntity
  8
1
  6
CONTINUOUS
 62
     7
100
AcDbText
 10
239.9999999999999
 20
90.0
 30
0.0
 40
1.249999999999999
  1
12
  7
ARIALB
100
AcDbText
  0
TEXT
  5
100
100
AcDbEntity
  8
1
  6
CONTINUOUS
 62
     7
100
AcDbText
 10
225.0
 20
90.0
 30
0.0
 40
1.249999999999999
  1
11
  7
ARIALB
100
AcDbText
  0
TEXT
  5
101
100
AcDbEntity
  8
1
  6
CONTINUOUS
 62
     7
100
AcDbText
 10
226.0
 20
71.99999999999999
 30
0.0
 40
1.249999999999999
  1
9
  7
ARIALB
100
AcDbText
  0
TEXT
  5
102
100
AcDbEntity
  8
1
  6
CONTINUOUS
 62
     7
100
AcDbText
 10
215.9999999999999
 20
45.0
 30
0.0
 40
1.249999999999999
  1
8
  7
ARIALB
100
AcDbText
  0
TEXT
  5
103
100
AcDbEntity
  8
1
  6
CONTINUOUS
 62
     7
100
AcDbText
 10
214.9999999999999
 20
56.0
 30
0.0
 40
1.249999999999999
  1
16
  7
ARIALB
100
AcDbText
  0
LINE
  5
104
100
AcDbEntity
  8
1
  6
CONTINUOUS
 62
     7
100
AcDbLine
 10
218.0
 20
52.99999999999999
 30
0.0
 11
218.0
 21
60.0
 31
0.0
  0
TEXT
  5
105
100
AcDbEntity
  8
1
  6
CONTINUOUS
 62
     7
100
AcDbText
 10
218.9999999999999
 20
55.0
 30
0.0
 40
1.249999999999999
  1
1
  7
ARIALB
100
AcDbText
  0
LINE
  5
106
100
AcDbEntity
  8
1
  6
CONTINUOUS
 62
     7
100
AcDbLine
 10
276.0
 20
105.9999999999999
 30
0.0
 11
201.0
 21
105.9999999999999
 31
0.0
  0
LINE
  5
107
100
AcDbEntity
  8
1
  6
CONTINUOUS
 62
     7
100
AcDbLine
 10
201.0
 20
105.9999999999999
 30
0.0
 11
201.0
 21
68.0
 31
0.0
  0
CIRCLE
  5
108
100
AcDbEntity
  8
1
  6
CONTINUOUS
 62
     7
100
AcDbCircle
 10
213.9999999999999
 20
105.9999999999999
 30
0.0
 40
0.4
  0
LINE
  5
109
100
AcDbEntity
  8
1
  6
CONTINUOUS
 62
     7
100
AcDbLine
 10
218.0
 20
60.0
 30
0.0
 11
213.9999999999999
 21
60.0
 31
0.0
  0
CIRCLE
  5
10A
100
AcDbEntity
  8
1
  6
CONTINUOUS
 62
     7
100
AcDbCircle
 10
213.9999999999999
 20
60.0
 30
0.0
 40
0.4
  0
TEXT
  5
10B
100
AcDbEntity
  8
1
  6
CONTINUOUS
 62
     7
100
AcDbText
 10
234.9999999999999
 20
38.99999999999999
 30
0.0
 40
1.999999999999999
  1
CD 4049UB
  7
ARIALB
100
AcDbText
  0
TEXT
  5
10C
100
AcDbEntity
  8
1
  6
CONTINUOUS
 62
     7
100
AcDbText
 10
276.0
 20
72.99999999999998
 30
0.0
 40
1.249999999999999
  1
CN2/5
  7
ARIALB
100
AcDbText
  0
TEXT
  5
10D
100
AcDbEntity
  8
1
  6
CONTINUOUS
 62
     7
100
AcDbText
 10
276.0
 20
90.99999999999999
 30
0.0
 40
1.249999999999999
  1
CN2/3
  7
ARIALB
100
AcDbText
  0
TEXT
  5
10E
100
AcDbEntity
  8
1
  6
CONTINUOUS
 62
     7
100
AcDbText
 10
276.0
 20
109.0
 30
0.0
 40
1.249999999999999
  1
CN2/1
  7
ARIALB
100
AcDbText
  0
LINE
  5
10F
100
AcDbEntity
  8
1
  6
CONTINUOUS
 62
     7
100
AcDbLine
 10
68.00000000000003
 20
98.99999999999998
 30
0.0
 11
68.00000000000003
 21
87.00000000000001
 31
0.0
  0
LINE
  5
110
100
AcDbEntity
  8
1
  6
CONTINUOUS
 62
     7
100
AcDbLine
 10
68.00000000000003
 20
98.99999999999998
 30
0.0
 11
80.00000000000003
 21
92.99999999999998
 31
0.0
  0
LINE
  5
111
100
AcDbEntity
  8
1
  6
CONTINUOUS
 62
     7
100
AcDbLine
 10
68.00000000000003
 20
87.00000000000001
 30
0.0
 11
80.00000000000003
 21
92.99999999999998
 31
0.0
  0
LINE
  5
112
100
AcDbEntity
  8
1
  6
CONTINUOUS
 62
     7
100
AcDbLine
 10
68.00000000000003
 20
95.99999999999999
 30
0.0
 11
65.0
 21
95.99999999999999
 31
0.0
  0
LINE
  5
113
100
AcDbEntity
  8
1
  6
CONTINUOUS
 62
     7
100
AcDbLine
 10
68.00000000000003
 20
90.0
 30
0.0
 11
65.0
 21
90.0
 31
0.0
  0
LINE
  5
114
100
AcDbEntity
  8
1
  6
CONTINUOUS
 62
     7
100
AcDbLine
 10
80.00000000000003
 20
92.99999999999998
 30
0.0
 11
83.00000000000002
 21
92.99999999999998
 31
0.0
  0
LWPOLYLINE
  5
115
100
AcDbEntity
  8
1
  6
CONTINUOUS
 62
     7
100
AcDbPolyline
 90
        4
 70
     0
 43
0.0
 10
158.0
 20
87.00000000000001
 10
178.0
 20
87.00000000000001
 10
178.0
 20
77.0
 10
158.0
 20
77.0
  0
LINE
  5
116
100
AcDbEntity
  8
1
  6
CONTINUOUS
 62
     7
100
AcDbLine
 10
158.0
 20
87.00000000000001
 30
0.0
 11
158.0
 21
77.0
 31
0.0
  0
LINE
  5
117
100
AcDbEntity
  8
1
  6
CONTINUOUS
 62
     7
100
AcDbLine
 10
183.0
 20
90.0
 30
0.0
 11
187.0
 21
90.0
 31
0.0
  0
LINE
  5
118
100
AcDbEntity
  8
1
  6
CONTINUOUS
 62
     7
100
AcDbLine
 10
183.0
 20
89.0
 30
0.0
 11
187.0
 21
89.0
 31
0.0
  0
LINE
  5
119
100
AcDbEntity
  8
1
  6
CONTINUOUS
 62
     7
100
AcDbLine
 10
185.0
 20
90.0
 30
0.0
 11
185.0
 21
92.99999999999998
 31
0.0
  0
LINE
  5
11A
100
AcDbEntity
  8
1
  6
CONTINUOUS
 62
     7
100
AcDbLine
 10
185.0
 20
89.0
 30
0.0
 11
185.0
 21
85.99999999999999
 31
0.0
  0
LINE
  5
11B
100
AcDbEntity
  8
1
  6
CONTINUOUS
 62
     7
100
AcDbLine
 10
125.0
 20
92.99999999999998
 30
0.0
 11
132.9999999999999
 21
92.99999999999998
 31
0.0
  0
LINE
  5
11C
100
AcDbEntity
  8
1
  6
CONTINUOUS
 62
     7
100
AcDbLine
 10
133.0
 20
94.00000000000002
 30
0.0
 11
133.0
 21
91.99999999999999
 31
0.0
  0
LINE
  5
11D
100
AcDbEntity
  8
1
  6
CONTINUOUS
 62
     7
100
AcDbLine
 10
133.0
 20
91.99999999999999
 30
0.0
 11
139.0
 21
91.99999999999999
 31
0.0
  0
LINE
  5
11E
100
AcDbEntity
  8
1
  6
CONTINUOUS
 62
     7
100
AcDbLine
 10
139.0
 20
94.00000000000002
 30
0.0
 11
133.0
 21
94.00000000000002
 31
0.0
  0
LINE
  5
11F
100
AcDbEntity
  8
1
  6
CONTINUOUS
 62
     7
100
AcDbLine
 10
139.0
 20
94.00000000000002
 30
0.0
 11
139.0
 21
91.99999999999999
 31
0.0
  0
LINE
  5
120
100
AcDbEntity
  8
1
  6
CONTINUOUS
 62
     7
100
AcDbLine
 10
139.0
 20
92.99999999999998
 30
0.0
 11
153.0
 21
92.99999999999998
 31
0.0
  0
LINE
  5
121
100
AcDbEntity
  8
1
  6
CONTINUOUS
 62
     7
100
AcDbLine
 10
161.0
 20
92.99999999999998
 30
0.0
 11
164.0
 21
92.99999999999998
 31
0.0
  0
LINE
  5
122
100
AcDbEntity
  8
1
  6
CONTINUOUS
 62
     7
100
AcDbLine
 10
164.0
 20
94.00000000000002
 30
0.0
 11
164.0
 21
91.99999999999999
 31
0.0
  0
LINE
  5
123
100
AcDbEntity
  8
1
  6
CONTINUOUS
 62
     7
100
AcDbLine
 10
164.0
 20
91.99999999999999
 30
0.0
 11
170.0
 21
91.99999999999999
 31
0.0
  0
LINE
  5
124
100
AcDbEntity
  8
1
  6
CONTINUOUS
 62
     7
100
AcDbLine
 10
170.0
 20
94.00000000000002
 30
0.0
 11
164.0
 21
94.00000000000002
 31
0.0
  0
LINE
  5
125
100
AcDbEntity
  8
1
  6
CONTINUOUS
 62
     7
100
AcDbLine
 10
170.0
 20
94.00000000000002
 30
0.0
 11
170.0
 21
91.99999999999999
 31
0.0
  0
LINE
  5
126
100
AcDbEntity
  8
1
  6
CONTINUOUS
 62
     7
100
AcDbLine
 10
170.0
 20
92.99999999999998
 30
0.0
 11
173.0
 21
92.99999999999998
 31
0.0
  0
LINE
  5
127
100
AcDbEntity
  8
1
  6
CONTINUOUS
 62
     7
100
AcDbLine
 10
83.00000000000002
 20
92.99999999999998
 30
0.0
 11
86.00000000000001
 21
92.99999999999998
 31
0.0
  0
LINE
  5
128
100
AcDbEntity
  8
1
  6
CONTINUOUS
 62
     7
100
AcDbLine
 10
153.0
 20
92.99999999999998
 30
0.0
 11
161.0
 21
92.99999999999998
 31
0.0
  0
LINE
  5
129
100
AcDbEntity
  8
1
  6
CONTINUOUS
 62
     7
100
AcDbLine
 10
160.0
 20
92.99999999999998
 30
0.0
 11
160.0
 21
87.00000000000001
 31
0.0
  0
LINE
  5
12A
100
AcDbEntity
  8
1
  6
CONTINUOUS
 62
     7
100
AcDbLine
 10
174.0
 20
92.99999999999998
 30
0.0
 11
174.0
 21
87.00000000000001
 31
0.0
  0
LINE
  5
12B
100
AcDbEntity
  8
1
  6
CONTINUOUS
 62
     7
100
AcDbLine
 10
176.0
 20
92.99999999999998
 30
0.0
 11
176.0
 21
87.00000000000001
 31
0.0
  0
LINE
  5
12C
100
AcDbEntity
  8
1
  6
CONTINUOUS
 62
     7
100
AcDbLine
 10
173.0
 20
92.99999999999998
 30
0.0
 11
185.0
 21
92.99999999999998
 31
0.0
  0
LINE
  5
12D
100
AcDbEntity
  8
1
  6
CONTINUOUS
 62
     7
100
AcDbLine
 10
183.0
 20
85.99999999999999
 30
0.0
 11
187.0
 21
85.99999999999999
 31
0.0
  0
TEXT
  5
12E
100
AcDbEntity
  8
1
  6
CONTINUOUS
 62
     7
100
AcDbText
 10
184.0
 20
84.0
 30
0.0
 40
1.249999999999999
  1
Batt -ve
  7
ARIALB
100
AcDbText
  0
LINE
  5
12F
100
AcDbEntity
  8
1
  6
CONTINUOUS
 62
     7
100
AcDbLine
 10
158.0
 20
80.00000000000001
 30
0.0
 11
154.0
 21
80.00000000000001
 31
0.0
  0
LINE
  5
130
100
AcDbEntity
  8
1
  6
CONTINUOUS
 62
     7
100
AcDbLine
 10
154.0
 20
80.00000000000001
 30
0.0
 11
154.0
 21
88.0
 31
0.0
  0
LINE
  5
131
100
AcDbEntity
  8
1
  6
CONTINUOUS
 62
     7
100
AcDbLine
 10
152.0
 20
88.0
 30
0.0
 11
156.0
 21
88.0
 31
0.0
  0
TEXT
  5
132
100
AcDbEntity
  8
1
  6
CONTINUOUS
 62
     7
100
AcDbText
 10
153.0
 20
89.0
 30
0.0
 40
1.249999999999999
  1
+3.54V
  7
ARIALB
100
AcDbText
  0
CIRCLE
  5
133
100
AcDbEntity
  8
1
  6
CONTINUOUS
 62
     7
100
AcDbCircle
 10
160.0
 20
93.00000000000002
 30
0.0
 40
0.4
  0
CIRCLE
  5
134
100
AcDbEntity
  8
1
  6
CONTINUOUS
 62
     7
100
AcDbCircle
 10
154.0
 20
88.0
 30
0.0
 40
0.4
  0
CIRCLE
  5
135
100
AcDbEntity
  8
1
  6
CONTINUOUS
 62
     7
100
AcDbCircle
 10
174.0
 20
92.99999999999998
 30
0.0
 40
0.4
  0
CIRCLE
  5
136
100
AcDbEntity
  8
1
  6
CONTINUOUS
 62
     7
100
AcDbCircle
 10
176.0
 20
92.99999999999998
 30
0.0
 40
0.4
  0
CIRCLE
  5
137
100
AcDbEntity
  8
1
  6
CONTINUOUS
 62
     7
100
AcDbCircle
 10
185.0
 20
85.99999999999999
 30
0.0
 40
0.4
  0
LINE
  5
138
100
AcDbEntity
  8
1
  6
CONTINUOUS
 62
     7
100
AcDbLine
 10
170.0
 20
77.0
 30
0.0
 11
170.0
 21
73.0
 31
0.0
  0
LINE
  5
139
100
AcDbEntity
  8
1
  6
CONTINUOUS
 62
     7
100
AcDbLine
 10
167.9999999999999
 20
73.0
 30
0.0
 11
171.9999999999999
 21
73.0
 31
0.0
  0
TEXT
  5
13A
100
AcDbEntity
  8
1
  6
CONTINUOUS
 62
     7
100
AcDbText
 10
168.9999999999999
 20
71.0
 30
0.0
 40
1.249999999999999
  1
Batt -ve
  7
ARIALB
100
AcDbText
  0
CIRCLE
  5
13B
100
AcDbEntity
  8
1
  6
CONTINUOUS
 62
     7
100
AcDbCircle
 10
170.0
 20
73.0
 30
0.0
 40
0.4
  0
TEXT
  5
13C
100
AcDbEntity
  8
1
  6
CONTINUOUS
 62
     7
100
AcDbText
 10
165.0
 20
79.0
 30
0.0
 40
1.249999999999999
  1
ICM7556
  7
ARIALB
100
AcDbText
  0
TEXT
  5
13D
100
AcDbEntity
  8
1
  6
CONTINUOUS
 62
     7
100
AcDbText
 10
156.0
 20
81.00000000000001
 30
0.0
 40
1.249999999999999
  1
4
  7
ARIALB
100
AcDbText
  0
TEXT
  5
13E
100
AcDbEntity
  8
1
  6
CONTINUOUS
 62
     7
100
AcDbText
 10
170.9999999999999
 20
75.0
 30
0.0
 40
1.249999999999999
  1
7
  7
ARIALB
100
AcDbText
  0
TEXT
  5
13F
100
AcDbEntity
  8
1
  6
CONTINUOUS
 62
     7
100
AcDbText
 10
161.0
 20
88.0
 30
0.0
 40
1.249999999999999
  1
1
  7
ARIALB
100
AcDbText
  0
TEXT
  5
140
100
AcDbEntity
  8
1
  6
CONTINUOUS
 62
     7
100
AcDbText
 10
171.9999999999999
 20
88.0
 30
0.0
 40
1.249999999999999
  1
2
  7
ARIALB
100
AcDbText
  0
TEXT
  5
141
100
AcDbEntity
  8
1
  6
CONTINUOUS
 62
     7
100
AcDbText
 10
177.0
 20
88.0
 30
0.0
 40
1.249999999999999
  1
6
  7
ARIALB
100
AcDbText
  0
TEXT
  5
142
100
AcDbEntity
  8
1
  6
CONTINUOUS
 62
     7
100
AcDbText
 10
179.0
 20
80.00000000000001
 30
0.0
 40
1.249999999999999
  1
5
  7
ARIALB
100
AcDbText
  0
TEXT
  5
143
100
AcDbEntity
  8
1
  6
CONTINUOUS
 62
     7
100
AcDbText
 10
134.0
 20
95.0
 30
0.0
 40
1.249999999999999
  1
390k
  7
ARIALB
100
AcDbText
  0
TEXT
  5
144
100
AcDbEntity
  8
1
  6
CONTINUOUS
 62
     7
100
AcDbText
 10
165.0
 20
95.0
 30
0.0
 40
1.249999999999999
  1
18k
  7
ARIALB
100
AcDbText
  0
TEXT
  5
145
100
AcDbEntity
  8
1
  6
CONTINUOUS
 62
     7
100
AcDbText
 10
186.0
 20
91.99999999999999
 30
0.0
 40
1.249999999999999
  1
.01u
  7
ARIALB
100
AcDbText
  0
LINE
  5
146
100
AcDbEntity
  8
1
  6
CONTINUOUS
 62
     7
100
AcDbLine
 10
74.00000000000002
 20
90.0
 30
0.0
 11
74.00000000000002
 21
87.00000000000001
 31
0.0
  0
LINE
  5
147
100
AcDbEntity
  8
1
  6
CONTINUOUS
 62
     7
100
AcDbLine
 10
70.00000000000001
 20
100.0
 30
0.0
 11
78.0
 21
100.0
 31
0.0
  0
CIRCLE
  5
148
100
AcDbEntity
  8
1
  6
CONTINUOUS
 62
     7
100
AcDbCircle
 10
74.00000000000002
 20
100.0
 30
0.0
 40
0.4
  0
CIRCLE
  5
149
100
AcDbEntity
  8
1
  6
CONTINUOUS
 62
     7
100
AcDbCircle
 10
74.00000000000002
 20
87.00000000000001
 30
0.0
 40
0.4
  0
LINE
  5
14A
100
AcDbEntity
  8
1
  6
CONTINUOUS
 62
     7
100
AcDbLine
 10
72.00000000000001
 20
87.00000000000001
 30
0.0
 11
76.00000000000001
 21
87.00000000000001
 31
0.0
  0
TEXT
  5
14B
100
AcDbEntity
  8
1
  6
CONTINUOUS
 62
     7
100
AcDbText
 10
72.00000000000001
 20
102.0
 30
0.0
 40
1.249999999999999
  1
+9V (batt +ve)
  7
ARIALB
100
AcDbText
  0
TEXT
  5
14C
100
AcDbEntity
  8
1
  6
CONTINUOUS
 62
     7
100
AcDbText
 10
72.00000000000001
 20
84.0
 30
0.0
 40
1.249999999999999
  1
Batt -ve
  7
ARIALB
100
AcDbText
  0
TEXT
  5
14D
100
AcDbEntity
  8
1
  6
CONTINUOUS
 62
     7
100
AcDbText
 10
66.0
 20
97.00000000000001
 30
0.0
 40
1.249999999999999
  1
3
  7
ARIALB
100
AcDbText
  0
TEXT
  5
14E
100
AcDbEntity
  8
1
  6
CONTINUOUS
 62
     7
100
AcDbText
 10
66.0
 20
90.99999999999999
 30
0.0
 40
1.249999999999999
  1
2
  7
ARIALB
100
AcDbText
  0
TEXT
  5
14F
100
AcDbEntity
  8
1
  6
CONTINUOUS
 62
     7
100
AcDbText
 10
73.00000000000001
 20
97.00000000000001
 30
0.0
 40
1.249999999999999
  1
8
  7
ARIALB
100
AcDbText
  0
TEXT
  5
150
100
AcDbEntity
  8
1
  6
CONTINUOUS
 62
     7
100
AcDbText
 10
75.00000000000001
 20
88.0
 30
0.0
 40
1.249999999999999
  1
4
  7
ARIALB
100
AcDbText
  0
TEXT
  5
151
100
AcDbEntity
  8
1
  6
CONTINUOUS
 62
     7
100
AcDbText
 10
81.00000000000001
 20
94.00000000000002
 30
0.0
 40
1.249999999999999
  1
1
  7
ARIALB
100
AcDbText
  0
LINE
  5
152
100
AcDbEntity
  8
1
  6
CONTINUOUS
 62
     7
100
AcDbLine
 10
66.0
 20
105.9999999999999
 30
0.0
 11
69.0
 21
105.9999999999999
 31
0.0
  0
LINE
  5
153
100
AcDbEntity
  8
1
  6
CONTINUOUS
 62
     7
100
AcDbLine
 10
69.0
 20
107.0
 30
0.0
 11
69.0
 21
104.9999999999999
 31
0.0
  0
LINE
  5
154
100
AcDbEntity
  8
1
  6
CONTINUOUS
 62
     7
100
AcDbLine
 10
69.0
 20
104.9999999999999
 30
0.0
 11
75.00000000000001
 21
104.9999999999999
 31
0.0
  0
LINE
  5
155
100
AcDbEntity
  8
1
  6
CONTINUOUS
 62
     7
100
AcDbLine
 10
75.00000000000001
 20
107.0
 30
0.0
 11
69.0
 21
107.0
 31
0.0
  0
LINE
  5
156
100
AcDbEntity
  8
1
  6
CONTINUOUS
 62
     7
100
AcDbLine
 10
75.00000000000001
 20
107.0
 30
0.0
 11
75.00000000000001
 21
104.9999999999999
 31
0.0
  0
LINE
  5
157
100
AcDbEntity
  8
1
  6
CONTINUOUS
 62
     7
100
AcDbLine
 10
75.00000000000001
 20
105.9999999999999
 30
0.0
 11
78.0
 21
105.9999999999999
 31
0.0
  0
LINE
  5
158
100
AcDbEntity
  8
1
  6
CONTINUOUS
 62
     7
100
AcDbLine
 10
62.00000000000001
 20
105.9999999999999
 30
0.0
 11
66.0
 21
105.9999999999999
 31
0.0
  0
LINE
  5
159
100
AcDbEntity
  8
1
  6
CONTINUOUS
 62
     7
100
AcDbLine
 10
78.0
 20
105.9999999999999
 30
0.0
 11
85.00000000000001
 21
105.9999999999999
 31
0.0
  0
TEXT
  5
15A
100
AcDbEntity
  8
1
  6
CONTINUOUS
 62
     7
100
AcDbText
 10
70.0
 20
108.0
 30
0.0
 40
1.249999999999999
  1
68M
  7
ARIALB
100
AcDbText
  0
LINE
  5
15B
100
AcDbEntity
  8
1
  6
CONTINUOUS
 62
     7
100
AcDbLine
 10
38.99999999999999
 20
95.99999999999999
 30
0.0
 11
41.99999999999999
 21
95.99999999999999
 31
0.0
  0
LINE
  5
15C
100
AcDbEntity
  8
1
  6
CONTINUOUS
 62
     7
100
AcDbLine
 10
45.0
 20
96.00000000000001
 30
0.0
 11
47.99999999999999
 21
96.00000000000001
 31
0.0
  0
LINE
  5
15D
100
AcDbEntity
  8
1
  6
CONTINUOUS
 62
     7
100
AcDbLine
 10
47.99999999999999
 20
97.00000000000002
 30
0.0
 11
47.99999999999999
 21
95.0
 31
0.0
  0
LINE
  5
15E
100
AcDbEntity
  8
1
  6
CONTINUOUS
 62
     7
100
AcDbLine
 10
47.99999999999999
 20
95.0
 30
0.0
 11
53.99999999999998
 21
95.0
 31
0.0
  0
LINE
  5
15F
100
AcDbEntity
  8
1
  6
CONTINUOUS
 62
     7
100
AcDbLine
 10
53.99999999999998
 20
97.00000000000002
 30
0.0
 11
47.99999999999999
 21
97.00000000000002
 31
0.0
  0
LINE
  5
160
100
AcDbEntity
  8
1
  6
CONTINUOUS
 62
     7
100
AcDbLine
 10
53.99999999999998
 20
97.00000000000002
 30
0.0
 11
53.99999999999998
 21
95.0
 31
0.0
  0
LINE
  5
161
100
AcDbEntity
  8
1
  6
CONTINUOUS
 62
     7
100
AcDbLine
 10
53.99999999999998
 20
96.00000000000001
 30
0.0
 11
56.99999999999997
 21
96.00000000000001
 31
0.0
  0
LINE
  5
162
100
AcDbEntity
  8
1
  6
CONTINUOUS
 62
     7
100
AcDbLine
 10
41.99999999999999
 20
96.00000000000001
 30
0.0
 11
45.0
 21
96.00000000000001
 31
0.0
  0
LINE
  5
163
100
AcDbEntity
  8
1
  6
CONTINUOUS
 62
     7
100
AcDbLine
 10
56.99999999999997
 20
96.00000000000001
 30
0.0
 11
65.0
 21
96.00000000000001
 31
0.0
  0
TEXT
  5
164
100
AcDbEntity
  8
1
  6
CONTINUOUS
 62
     7
100
AcDbText
 10
48.99999999999998
 20
98.00000000000004
 30
0.0
 40
1.249999999999999
  1
22k
  7
ARIALB
100
AcDbText
  0
LINE
  5
165
100
AcDbEntity
  8
1
  6
CONTINUOUS
 62
     7
100
AcDbLine
 10
62.00000000000001
 20
106.0
 30
0.0
 11
62.00000000000001
 21
96.00000000000001
 31
0.0
  0
LINE
  5
166
100
AcDbEntity
  8
1
  6
CONTINUOUS
 62
     7
100
AcDbLine
 10
85.00000000000001
 20
106.0
 30
0.0
 11
85.00000000000001
 21
84.99999999999998
 31
0.0
  0
CIRCLE
  5
167
100
AcDbEntity
  8
1
  6
CONTINUOUS
 62
     7
100
AcDbCircle
 10
62.00000000000001
 20
96.00000000000001
 30
0.0
 40
0.4
  0
CIRCLE
  5
168
100
AcDbEntity
  8
1
  6
CONTINUOUS
 62
     7
100
AcDbCircle
 10
85.00000000000001
 20
92.99999999999998
 30
0.0
 40
0.4
  0
LINE
  5
169
100
AcDbEntity
  8
1
  6
CONTINUOUS
 62
     7
100
AcDbLine
 10
178.0
 20
80.0
 30
0.0
 11
184.0
 21
80.0
 31
0.0
  0
LINE
  5
16A
100
AcDbEntity
  8
1
  6
CONTINUOUS
 62
     7
100
AcDbLine
 10
184.0
 20
81.00000000000001
 30
0.0
 11
184.0
 21
79.0
 31
0.0
  0
LINE
  5
16B
100
AcDbEntity
  8
1
  6
CONTINUOUS
 62
     7
100
AcDbLine
 10
184.0
 20
79.0
 30
0.0
 11
190.0
 21
79.0
 31
0.0
  0
LINE
  5
16C
100
AcDbEntity
  8
1
  6
CONTINUOUS
 62
     7
100
AcDbLine
 10
190.0
 20
81.00000000000001
 30
0.0
 11
184.0
 21
81.00000000000001
 31
0.0
  0
LINE
  5
16D
100
AcDbEntity
  8
1
  6
CONTINUOUS
 62
     7
100
AcDbLine
 10
190.0
 20
81.00000000000001
 30
0.0
 11
190.0
 21
79.0
 31
0.0
  0
TEXT
  5
16E
100
AcDbEntity
  8
1
  6
CONTINUOUS
 62
     7
100
AcDbText
 10
185.0
 20
82.00000000000001
 30
0.0
 40
1.249999999999999
  1
1M
  7
ARIALB
100
AcDbText
  0
LINE
  5
16F
100
AcDbEntity
  8
1
  6
CONTINUOUS
 62
     7
100
AcDbLine
 10
190.0
 20
79.99999999999999
 30
0.0
 11
194.9999999999999
 21
79.99999999999999
 31
0.0
  0
LINE
  5
170
100
AcDbEntity
  8
1
  6
CONTINUOUS
 62
     7
100
AcDbLine
 10
73.99999999999998
 20
96.00000000000001
 30
0.0
 11
73.99999999999998
 21
100.0
 31
0.0
  0
TEXT
  5
171
100
AcDbEntity
  8
1
  6
CONTINUOUS
 62
     7
100
AcDbText
 10
72.0
 20
56.99999999999999
 30
0.0
 40
1.249999999999999
  1
CN4/1
  7
ARIALB
100
AcDbText
  0
LINE
  5
172
100
AcDbEntity
  8
1
  6
CONTINUOUS
 62
     7
100
AcDbLine
 10
84.99999999999998
 20
65.0
 30
0.0
 11
86.99999999999997
 21
65.0
 31
0.0
  0
LINE
  5
173
100
AcDbEntity
  8
1
  6
CONTINUOUS
 62
     7
100
AcDbLine
 10
86.99999999999997
 20
71.0
 30
0.0
 11
86.99999999999997
 21
65.0
 31
0.0
  0
LINE
  5
174
100
AcDbEntity
  8
1
  6
CONTINUOUS
 62
     7
100
AcDbLine
 10
84.99999999999998
 20
65.0
 30
0.0
 11
84.99999999999998
 21
71.0
 31
0.0
  0
LINE
  5
175
100
AcDbEntity
  8
1
  6
CONTINUOUS
 62
     7
100
AcDbLine
 10
84.99999999999998
 20
71.0
 30
0.0
 11
86.99999999999997
 21
71.0
 31
0.0
  0
TEXT
  5
176
100
AcDbEntity
  8
1
  6
CONTINUOUS
 62
     7
100
AcDbText
 10
87.99999999999997
 20
67.99999999999998
 30
0.0
 40
1.249999999999999
  1
160k
  7
ARIALB
100
AcDbText
  0
LINE
  5
177
100
AcDbEntity
  8
1
  6
CONTINUOUS
 62
     7
100
AcDbLine
 10
85.99999999999997
 20
41.0
 30
0.0
 11
87.99999999999997
 21
41.0
 31
0.0
  0
LINE
  5
178
100
AcDbEntity
  8
1
  6
CONTINUOUS
 62
     7
100
AcDbLine
 10
87.99999999999997
 20
46.99999999999999
 30
0.0
 11
87.99999999999997
 21
41.0
 31
0.0
  0
LINE
  5
179
100
AcDbEntity
  8
1
  6
CONTINUOUS
 62
     7
100
AcDbLine
 10
85.99999999999997
 20
41.0
 30
0.0
 11
85.99999999999997
 21
46.99999999999999
 31
0.0
  0
LINE
  5
17A
100
AcDbEntity
  8
1
  6
CONTINUOUS
 62
     7
100
AcDbLine
 10
85.99999999999997
 20
46.99999999999999
 30
0.0
 11
87.99999999999997
 21
46.99999999999999
 31
0.0
  0
TEXT
  5
17B
100
AcDbEntity
  8
1
  6
CONTINUOUS
 62
     7
100
AcDbText
 10
88.99999999999996
 20
43.99999999999999
 30
0.0
 40
1.249999999999999
  1
68k
  7
ARIALB
100
AcDbText
  0
LINE
  5
17C
100
AcDbEntity
  8
1
  6
CONTINUOUS
 62
     7
100
AcDbLine
 10
93.0
 20
135.0
 30
0.0
 11
93.0
 21
63.0
 31
0.0
  0
TEXT
  5
17D
100
AcDbEntity
  8
1
  6
CONTINUOUS
 62
     7
100
AcDbText
 10
71.99999999999999
 20
62.99999999999998
 30
0.0
 40
1.249999999999999
  1
CN4/2
  7
ARIALB
100
AcDbText
  0
TEXT
  5
17E
100
AcDbEntity
  8
1
  6
CONTINUOUS
 62
     7
100
AcDbText
 10
71.99999999999999
 20
50.99999999999998
 30
0.0
 40
1.249999999999999
  1
CN4/3
  7
ARIALB
100
AcDbText
  0
LINE
  5
17F
100
AcDbEntity
  8
1
  6
CONTINUOUS
 62
     7
100
AcDbLine
 10
80.99999999999999
 20
63.0
 30
0.0
 11
85.99999999999999
 21
63.0
 31
0.0
  0
LINE
  5
180
100
AcDbEntity
  8
1
  6
CONTINUOUS
 62
     7
100
AcDbLine
 10
85.99999999999999
 20
63.0
 30
0.0
 11
85.99999999999999
 21
65.0
 31
0.0
  0
LINE
  5
181
100
AcDbEntity
  8
1
  6
CONTINUOUS
 62
     7
100
AcDbLine
 10
80.99999999999999
 20
51.0
 30
0.0
 11
87.00000000000001
 21
51.0
 31
0.0
  0
LINE
  5
182
100
AcDbEntity
  8
1
  6
CONTINUOUS
 62
     7
100
AcDbLine
 10
87.00000000000001
 20
51.0
 30
0.0
 11
87.00000000000001
 21
47.0
 31
0.0
  0
LINE
  5
183
100
AcDbEntity
  8
1
  6
CONTINUOUS
 62
     7
100
AcDbLine
 10
87.00000000000001
 20
41.0
 30
0.0
 11
87.00000000000001
 21
35.99999999999999
 31
0.0
  0
LINE
  5
184
100
AcDbEntity
  8
1
  6
CONTINUOUS
 62
     7
100
AcDbLine
 10
84.99999999999998
 20
35.99999999999999
 30
0.0
 11
89.0
 21
35.99999999999999
 31
0.0
  0
LINE
  5
185
100
AcDbEntity
  8
1
  6
CONTINUOUS
 62
     7
100
AcDbLine
 10
85.99999999999999
 20
71.0
 30
0.0
 11
85.99999999999999
 21
76.0
 31
0.0
  0
LINE
  5
186
100
AcDbEntity
  8
1
  6
CONTINUOUS
 62
     7
100
AcDbLine
 10
88.0
 20
76.0
 30
0.0
 11
83.99999999999998
 21
76.0
 31
0.0
  0
TEXT
  5
187
100
AcDbEntity
  8
1
  6
CONTINUOUS
 62
     7
100
AcDbText
 10
83.99999999999998
 20
32.99999999999999
 30
0.0
 40
1.249999999999999
  1
Batt -ve
  7
ARIALB
100
AcDbText
  0
LINE
  5
188
100
AcDbEntity
  8
1
  6
CONTINUOUS
 62
     7
100
AcDbLine
 10
68.00000000000004
 20
140.9999999999999
 30
0.0
 11
68.00000000000004
 21
129.0
 31
0.0
  0
LINE
  5
189
100
AcDbEntity
  8
1
  6
CONTINUOUS
 62
     7
100
AcDbLine
 10
68.00000000000004
 20
140.9999999999999
 30
0.0
 11
80.00000000000005
 21
134.9999999999999
 31
0.0
  0
LINE
  5
18A
100
AcDbEntity
  8
1
  6
CONTINUOUS
 62
     7
100
AcDbLine
 10
68.00000000000004
 20
129.0
 30
0.0
 11
80.00000000000005
 21
134.9999999999999
 31
0.0
  0
LINE
  5
18B
100
AcDbEntity
  8
1
  6
CONTINUOUS
 62
     7
100
AcDbLine
 10
68.00000000000004
 20
137.9999999999999
 30
0.0
 11
65.00000000000003
 21
137.9999999999999
 31
0.0
  0
LINE
  5
18C
100
AcDbEntity
  8
1
  6
CONTINUOUS
 62
     7
100
AcDbLine
 10
68.00000000000004
 20
131.9999999999999
 30
0.0
 11
65.00000000000003
 21
131.9999999999999
 31
0.0
  0
TEXT
  5
18D
100
AcDbEntity
  8
1
  6
CONTINUOUS
 62
     7
100
AcDbText
 10
66.00000000000003
 20
139.0
 30
0.0
 40
1.249999999999999
  1
5
  7
ARIALB
100
AcDbText
  0
TEXT
  5
18E
100
AcDbEntity
  8
1
  6
CONTINUOUS
 62
     7
100
AcDbText
 10
66.00000000000003
 20
132.9999999999999
 30
0.0
 40
1.249999999999999
  1
6
  7
ARIALB
100
AcDbText
  0
TEXT
  5
18F
100
AcDbEntity
  8
1
  6
CONTINUOUS
 62
     7
100
AcDbText
 10
14.4303219266907
 20
135.1772250515815
 30
0.0
 40
1.249999999999999
  1
CN1/1
  7
ARIALB
100
AcDbText
  0
TEXT
  5
190
100
AcDbEntity
  8
1
  6
CONTINUOUS
 62
     7
100
AcDbText
 10
12.99999999999999
 20
199.9999999999999
 30
0.0
 40
1.249999999999999
  1
CN2/2
  7
ARIALB
100
AcDbText
  0
LINE
  5
191
100
AcDbEntity
  8
1
  6
CONTINUOUS
 62
     7
100
AcDbLine
 10
36.00000000000001
 20
187.9999999999999
 30
0.0
 11
36.00000000000001
 21
175.9999999999999
 31
0.0
  0
LINE
  5
192
100
AcDbEntity
  8
1
  6
CONTINUOUS
 62
     7
100
AcDbLine
 10
36.00000000000001
 20
187.9999999999999
 30
0.0
 11
48.00000000000001
 21
181.9999999999999
 31
0.0
  0
LINE
  5
193
100
AcDbEntity
  8
1
  6
CONTINUOUS
 62
     7
100
AcDbLine
 10
36.00000000000001
 20
175.9999999999999
 30
0.0
 11
48.00000000000001
 21
181.9999999999999
 31
0.0
  0
LINE
  5
194
100
AcDbEntity
  8
1
  6
CONTINUOUS
 62
     7
100
AcDbLine
 10
36.00000000000001
 20
179.0
 30
0.0
 11
32.99999999999999
 21
179.0
 31
0.0
  0
LINE
  5
195
100
AcDbEntity
  8
1
  6
CONTINUOUS
 62
     7
100
AcDbLine
 10
48.00000000000001
 20
181.9999999999999
 30
0.0
 11
51.00000000000001
 21
181.9999999999999
 31
0.0
  0
TEXT
  5
196
100
AcDbEntity
  8
1
  6
CONTINUOUS
 62
     7
100
AcDbText
 10
33.99999999999999
 20
180.0
 30
0.0
 40
1.249999999999999
  1
8
  7
ARIALB
100
AcDbText
  0
TEXT
  5
197
100
AcDbEntity
  8
1
  6
CONTINUOUS
 62
     7
100
AcDbText
 10
49.00000000000002
 20
183.0
 30
0.0
 40
1.249999999999999
  1
1
  7
ARIALB
100
AcDbText
  0
LINE
  5
198
100
AcDbEntity
  8
1
  6
CONTINUOUS
 62
     7
100
AcDbLine
 10
69.0
 20
184.9999999999999
 30
0.0
 11
69.0
 21
172.9999999999999
 31
0.0
  0
LINE
  5
199
100
AcDbEntity
  8
1
  6
CONTINUOUS
 62
     7
100
AcDbLine
 10
69.0
 20
184.9999999999999
 30
0.0
 11
81.00000000000001
 21
178.9999999999999
 31
0.0
  0
LINE
  5
19A
100
AcDbEntity
  8
1
  6
CONTINUOUS
 62
     7
100
AcDbLine
 10
69.0
 20
172.9999999999999
 30
0.0
 11
81.00000000000001
 21
178.9999999999999
 31
0.0
  0
LINE
  5
19B
100
AcDbEntity
  8
1
  6
CONTINUOUS
 62
     7
100
AcDbLine
 10
69.0
 20
181.9999999999999
 30
0.0
 11
65.99999999999998
 21
181.9999999999999
 31
0.0
  0
TEXT
  5
19C
100
AcDbEntity
  8
1
  6
CONTINUOUS
 62
     7
100
AcDbText
 10
66.99999999999999
 20
182.9999999999999
 30
0.0
 40
1.249999999999999
  1
3
  7
ARIALB
100
AcDbText
  0
TEXT
  5
19D
100
AcDbEntity
  8
1
  6
CONTINUOUS
 62
     7
100
AcDbText
 10
66.99999999999999
 20
176.9999999999999
 30
0.0
 40
1.249999999999999
  1
2
  7
ARIALB
100
AcDbText
  0
LINE
  5
19E
100
AcDbEntity
  8
1
  6
CONTINUOUS
 62
     7
100
AcDbLine
 10
115.9999999999999
 20
192.9999999999999
 30
0.0
 11
115.9999999999999
 21
181.0
 31
0.0
  0
LINE
  5
19F
100
AcDbEntity
  8
1
  6
CONTINUOUS
 62
     7
100
AcDbLine
 10
115.9999999999999
 20
192.9999999999999
 30
0.0
 11
127.9999999999999
 21
187.0
 31
0.0
  0
LINE
  5
1A0
100
AcDbEntity
  8
1
  6
CONTINUOUS
 62
     7
100
AcDbLine
 10
115.9999999999999
 20
181.0
 30
0.0
 11
127.9999999999999
 21
187.0
 31
0.0
  0
LINE
  5
1A1
100
AcDbEntity
  8
1
  6
CONTINUOUS
 62
     7
100
AcDbLine
 10
115.9999999999999
 20
190.0
 30
0.0
 11
112.9999999999999
 21
190.0
 31
0.0
  0
LINE
  5
1A2
100
AcDbEntity
  8
1
  6
CONTINUOUS
 62
     7
100
AcDbLine
 10
115.9999999999999
 20
184.0
 30
0.0
 11
112.9999999999999
 21
184.0
 31
0.0
  0
LINE
  5
1A3
100
AcDbEntity
  8
1
  6
CONTINUOUS
 62
     7
100
AcDbLine
 10
127.9999999999999
 20
187.0
 30
0.0
 11
130.9999999999999
 21
187.0
 31
0.0
  0
TEXT
  5
1A4
100
AcDbEntity
  8
1
  6
CONTINUOUS
 62
     7
100
AcDbText
 10
113.9999999999999
 20
191.0
 30
0.0
 40
1.249999999999999
  1
2
  7
ARIALB
100
AcDbText
  0
TEXT
  5
1A5
100
AcDbEntity
  8
1
  6
CONTINUOUS
 62
     7
100
AcDbText
 10
113.9999999999999
 20
185.0
 30
0.0
 40
1.249999999999999
  1
3
  7
ARIALB
100
AcDbText
  0
TEXT
  5
1A6
100
AcDbEntity
  8
1
  6
CONTINUOUS
 62
     7
100
AcDbText
 10
129.0
 20
188.0
 30
0.0
 40
1.249999999999999
  1
6
  7
ARIALB
100
AcDbText
  0
LWPOLYLINE
  5
1A7
100
AcDbEntity
  8
1
  6
CONTINUOUS
 62
     7
100
AcDbPolyline
 90
        4
 70
     0
 43
0.0
 10
155.9999999999999
 20
128.9999999999999
 10
175.9999999999999
 20
128.9999999999999
 10
175.9999999999999
 20
118.9999999999999
 10
155.9999999999999
 20
118.9999999999999
  0
LINE
  5
1A8
100
AcDbEntity
  8
1
  6
CONTINUOUS
 62
     7
100
AcDbLine
 10
155.9999999999999
 20
128.9999999999999
 30
0.0
 11
155.9999999999999
 21
118.9999999999999
 31
0.0
  0
LINE
  5
1A9
100
AcDbEntity
  8
1
  6
CONTINUOUS
 62
     7
100
AcDbLine
 10
180.9999999999999
 20
131.9999999999999
 30
0.0
 11
184.9999999999999
 21
131.9999999999999
 31
0.0
  0
LINE
  5
1AA
100
AcDbEntity
  8
1
  6
CONTINUOUS
 62
     7
100
AcDbLine
 10
180.9999999999999
 20
130.9999999999999
 30
0.0
 11
184.9999999999999
 21
130.9999999999999
 31
0.0
  0
LINE
  5
1AB
100
AcDbEntity
  8
1
  6
CONTINUOUS
 62
     7
100
AcDbLine
 10
182.9999999999999
 20
131.9999999999999
 30
0.0
 11
182.9999999999999
 21
134.9999999999999
 31
0.0
  0
LINE
  5
1AC
100
AcDbEntity
  8
1
  6
CONTINUOUS
 62
     7
100
AcDbLine
 10
182.9999999999999
 20
130.9999999999999
 30
0.0
 11
182.9999999999999
 21
127.9999999999999
 31
0.0
  0
LINE
  5
1AD
100
AcDbEntity
  8
1
  6
CONTINUOUS
 62
     7
100
AcDbLine
 10
141.9999999999999
 20
135.9999999999999
 30
0.0
 11
141.9999999999999
 21
133.9999999999999
 31
0.0
  0
LINE
  5
1AE
100
AcDbEntity
  8
1
  6
CONTINUOUS
 62
     7
100
AcDbLine
 10
141.9999999999999
 20
133.9999999999999
 30
0.0
 11
147.9999999999999
 21
133.9999999999999
 31
0.0
  0
LINE
  5
1AF
100
AcDbEntity
  8
1
  6
CONTINUOUS
 62
     7
100
AcDbLine
 10
147.9999999999999
 20
135.9999999999999
 30
0.0
 11
141.9999999999999
 21
135.9999999999999
 31
0.0
  0
LINE
  5
1B0
100
AcDbEntity
  8
1
  6
CONTINUOUS
 62
     7
100
AcDbLine
 10
147.9999999999999
 20
135.9999999999999
 30
0.0
 11
147.9999999999999
 21
133.9999999999999
 31
0.0
  0
LINE
  5
1B1
100
AcDbEntity
  8
1
  6
CONTINUOUS
 62
     7
100
AcDbLine
 10
147.9999999999999
 20
134.9999999999999
 30
0.0
 11
150.9999999999999
 21
134.9999999999999
 31
0.0
  0
LINE
  5
1B2
100
AcDbEntity
  8
1
  6
CONTINUOUS
 62
     7
100
AcDbLine
 10
159.0
 20
134.9999999999999
 30
0.0
 11
162.0
 21
134.9999999999999
 31
0.0
  0
LINE
  5
1B3
100
AcDbEntity
  8
1
  6
CONTINUOUS
 62
     7
100
AcDbLine
 10
162.0
 20
135.9999999999999
 30
0.0
 11
162.0
 21
133.9999999999999
 31
0.0
  0
LINE
  5
1B4
100
AcDbEntity
  8
1
  6
CONTINUOUS
 62
     7
100
AcDbLine
 10
162.0
 20
133.9999999999999
 30
0.0
 11
167.9999999999999
 21
133.9999999999999
 31
0.0
  0
LINE
  5
1B5
100
AcDbEntity
  8
1
  6
CONTINUOUS
 62
     7
100
AcDbLine
 10
167.9999999999999
 20
135.9999999999999
 30
0.0
 11
162.0
 21
135.9999999999999
 31
0.0
  0
LINE
  5
1B6
100
AcDbEntity
  8
1
  6
CONTINUOUS
 62
     7
100
AcDbLine
 10
167.9999999999999
 20
135.9999999999999
 30
0.0
 11
167.9999999999999
 21
133.9999999999999
 31
0.0
  0
LINE
  5
1B7
100
AcDbEntity
  8
1
  6
CONTINUOUS
 62
     7
100
AcDbLine
 10
167.9999999999999
 20
134.9999999999999
 30
0.0
 11
170.9999999999999
 21
134.9999999999999
 31
0.0
  0
LINE
  5
1B8
100
AcDbEntity
  8
1
  6
CONTINUOUS
 62
     7
100
AcDbLine
 10
150.9999999999999
 20
134.9999999999999
 30
0.0
 11
159.0
 21
134.9999999999999
 31
0.0
  0
LINE
  5
1B9
100
AcDbEntity
  8
1
  6
CONTINUOUS
 62
     7
100
AcDbLine
 10
157.9999999999999
 20
134.9999999999999
 30
0.0
 11
157.9999999999999
 21
128.9999999999999
 31
0.0
  0
LINE
  5
1BA
100
AcDbEntity
  8
1
  6
CONTINUOUS
 62
     7
100
AcDbLine
 10
171.9999999999999
 20
134.9999999999999
 30
0.0
 11
171.9999999999999
 21
128.9999999999999
 31
0.0
  0
LINE
  5
1BB
100
AcDbEntity
  8
1
  6
CONTINUOUS
 62
     7
100
AcDbLine
 10
174.0
 20
134.9999999999999
 30
0.0
 11
174.0
 21
128.9999999999999
 31
0.0
  0
LINE
  5
1BC
100
AcDbEntity
  8
1
  6
CONTINUOUS
 62
     7
100
AcDbLine
 10
170.9999999999999
 20
134.9999999999999
 30
0.0
 11
182.9999999999999
 21
134.9999999999999
 31
0.0
  0
LINE
  5
1BD
100
AcDbEntity
  8
1
  6
CONTINUOUS
 62
     7
100
AcDbLine
 10
180.9999999999999
 20
127.9999999999999
 30
0.0
 11
184.9999999999999
 21
127.9999999999999
 31
0.0
  0
TEXT
  5
1BE
100
AcDbEntity
  8
1
  6
CONTINUOUS
 62
     7
100
AcDbText
 10
182.9999999999999
 20
124.9999999999999
 30
0.0
 40
1.249999999999999
  1
Batt -ve
  7
ARIALB
100
AcDbText
  0
LINE
  5
1BF
100
AcDbEntity
  8
1
  6
CONTINUOUS
 62
     7
100
AcDbLine
 10
155.9999999999999
 20
125.9999999999999
 30
0.0
 11
152.0
 21
125.9999999999999
 31
0.0
  0
LINE
  5
1C0
100
AcDbEntity
  8
1
  6
CONTINUOUS
 62
     7
100
AcDbLine
 10
155.9999999999999
 20
121.9999999999999
 30
0.0
 11
152.0
 21
121.9999999999999
 31
0.0
  0
LINE
  5
1C1
100
AcDbEntity
  8
1
  6
CONTINUOUS
 62
     7
100
AcDbLine
 10
152.0
 20
121.9999999999999
 30
0.0
 11
152.0
 21
129.9999999999999
 31
0.0
  0
LINE
  5
1C2
100
AcDbEntity
  8
1
  6
CONTINUOUS
 62
     7
100
AcDbLine
 10
150.0
 20
129.9999999999999
 30
0.0
 11
154.0
 21
129.9999999999999
 31
0.0
  0
TEXT
  5
1C3
100
AcDbEntity
  8
1
  6
CONTINUOUS
 62
     7
100
AcDbText
 10
150.9999999999999
 20
130.9999999999999
 30
0.0
 40
1.249999999999999
  1
+3.54V
  7
ARIALB
100
AcDbText
  0
CIRCLE
  5
1C4
100
AcDbEntity
  8
1
  6
CONTINUOUS
 62
     7
100
AcDbCircle
 10
157.9999999999999
 20
134.9999999999999
 30
0.0
 40
0.4
  0
CIRCLE
  5
1C5
100
AcDbEntity
  8
1
  6
CONTINUOUS
 62
     7
100
AcDbCircle
 10
152.0
 20
129.9999999999999
 30
0.0
 40
0.4
  0
CIRCLE
  5
1C6
100
AcDbEntity
  8
1
  6
CONTINUOUS
 62
     7
100
AcDbCircle
 10
171.9999999999999
 20
134.9999999999999
 30
0.0
 40
0.4
  0
CIRCLE
  5
1C7
100
AcDbEntity
  8
1
  6
CONTINUOUS
 62
     7
100
AcDbCircle
 10
174.0
 20
134.9999999999999
 30
0.0
 40
0.4
  0
CIRCLE
  5
1C8
100
AcDbEntity
  8
1
  6
CONTINUOUS
 62
     7
100
AcDbCircle
 10
182.9999999999999
 20
127.9999999999999
 30
0.0
 40
0.4
  0
TEXT
  5
1C9
100
AcDbEntity
  8
1
  6
CONTINUOUS
 62
     7
100
AcDbText
 10
163.0
 20
120.9999999999999
 30
0.0
 40
1.249999999999999
  1
ICM7556
  7
ARIALB
100
AcDbText
  0
TEXT
  5
1CA
100
AcDbEntity
  8
1
  6
CONTINUOUS
 62
     7
100
AcDbText
 10
154.0
 20
126.9999999999999
 30
0.0
 40
1.249999999999999
  1
10
  7
ARIALB
100
AcDbText
  0
TEXT
  5
1CB
100
AcDbEntity
  8
1
  6
CONTINUOUS
 62
     7
100
AcDbText
 10
154.0
 20
122.9999999999999
 30
0.0
 40
1.249999999999999
  1
14
  7
ARIALB
100
AcDbText
  0
TEXT
  5
1CC
100
AcDbEntity
  8
1
  6
CONTINUOUS
 62
     7
100
AcDbText
 10
159.0
 20
129.9999999999999
 30
0.0
 40
1.249999999999999
  1
13
  7
ARIALB
100
AcDbText
  0
TEXT
  5
1CD
100
AcDbEntity
  8
1
  6
CONTINUOUS
 62
     7
100
AcDbText
 10
169.9999999999999
 20
129.9999999999999
 30
0.0
 40
1.249999999999999
  1
12
  7
ARIALB
100
AcDbText
  0
TEXT
  5
1CE
100
AcDbEntity
  8
1
  6
CONTINUOUS
 62
     7
100
AcDbText
 10
175.0
 20
129.9999999999999
 30
0.0
 40
1.249999999999999
  1
8
  7
ARIALB
100
AcDbText
  0
TEXT
  5
1CF
100
AcDbEntity
  8
1
  6
CONTINUOUS
 62
     7
100
AcDbText
 10
177.0
 20
121.9999999999999
 30
0.0
 40
1.249999999999999
  1
9
  7
ARIALB
100
AcDbText
  0
TEXT
  5
1D0
100
AcDbEntity
  8
1
  6
CONTINUOUS
 62
     7
100
AcDbText
 10
142.9999999999999
 20
136.9999999999999
 30
0.0
 40
1.249999999999999
  1
1M8
  7
ARIALB
100
AcDbText
  0
TEXT
  5
1D1
100
AcDbEntity
  8
1
  6
CONTINUOUS
 62
     7
100
AcDbText
 10
163.0
 20
136.9999999999999
 30
0.0
 40
1.249999999999999
  1
270k
  7
ARIALB
100
AcDbText
  0
TEXT
  5
1D2
100
AcDbEntity
  8
1
  6
CONTINUOUS
 62
     7
100
AcDbText
 10
184.0
 20
133.9999999999999
 30
0.0
 40
1.249999999999999
  1
.47u
  7
ARIALB
100
AcDbText
  0
CIRCLE
  5
1D3
100
AcDbEntity
  8
1
  6
CONTINUOUS
 62
     7
100
AcDbCircle
 10
152.0
 20
125.9999999999999
 30
0.0
 40
0.4
  0
LINE
  5
1D4
100
AcDbEntity
  8
1
  6
CONTINUOUS
 62
     7
100
AcDbLine
 10
175.9999999999999
 20
121.9999999999999
 30
0.0
 11
187.9999999999999
 21
121.9999999999999
 31
0.0
  0
LINE
  5
1D5
100
AcDbEntity
  8
1
  6
CONTINUOUS
 62
     7
100
AcDbLine
 10
187.9999999999999
 20
121.9999999999999
 30
0.0
 11
193.9999999999999
 21
121.9999999999999
 31
0.0
  0
LINE
  5
1D6
100
AcDbEntity
  8
1
  6
CONTINUOUS
 62
     7
100
AcDbLine
 10
145.9999999999999
 20
104.9999999999999
 30
0.0
 11
145.9999999999999
 21
100.9999999999999
 31
0.0
  0
LINE
  5
1D7
100
AcDbEntity
  8
1
  6
CONTINUOUS
 62
     7
100
AcDbLine
 10
145.9999999999999
 20
102.9999999999999
 30
0.0
 11
148.9999999999999
 21
104.9999999999999
 31
0.0
  0
LINE
  5
1D8
100
AcDbEntity
  8
1
  6
CONTINUOUS
 62
     7
100
AcDbLine
 10
145.9999999999999
 20
102.9999999999999
 30
0.0
 11
148.9999999999999
 21
100.9999999999999
 31
0.0
  0
LINE
  5
1D9
100
AcDbEntity
  8
1
  6
CONTINUOUS
 62
     7
100
AcDbLine
 10
148.9999999999999
 20
104.9999999999999
 30
0.0
 11
148.9999999999999
 21
100.9999999999999
 31
0.0
  0
LINE
  5
1DA
100
AcDbEntity
  8
1
  6
CONTINUOUS
 62
     7
100
AcDbLine
 10
148.9999999999999
 20
102.9999999999999
 30
0.0
 11
155.9999999999999
 21
102.9999999999999
 31
0.0
  0
LINE
  5
1DB
100
AcDbEntity
  8
1
  6
CONTINUOUS
 62
     7
100
AcDbLine
 10
145.9999999999999
 20
102.9999999999999
 30
0.0
 11
140.9999999999999
 21
102.9999999999999
 31
0.0
  0
LINE
  5
1DC
100
AcDbEntity
  8
1
  6
CONTINUOUS
 62
     7
100
AcDbLine
 10
135.9999999999999
 20
86.99999999999999
 30
0.0
 11
135.9999999999999
 21
83.0
 31
0.0
  0
LINE
  5
1DD
100
AcDbEntity
  8
1
  6
CONTINUOUS
 62
     7
100
AcDbLine
 10
135.9999999999999
 20
84.99999999999998
 30
0.0
 11
138.9999999999999
 21
86.99999999999999
 31
0.0
  0
LINE
  5
1DE
100
AcDbEntity
  8
1
  6
CONTINUOUS
 62
     7
100
AcDbLine
 10
135.9999999999999
 20
84.99999999999998
 30
0.0
 11
138.9999999999999
 21
83.0
 31
0.0
  0
LINE
  5
1DF
100
AcDbEntity
  8
1
  6
CONTINUOUS
 62
     7
100
AcDbLine
 10
138.9999999999999
 20
86.99999999999999
 30
0.0
 11
138.9999999999999
 21
83.0
 31
0.0
  0
LINE
  5
1E0
100
AcDbEntity
  8
1
  6
CONTINUOUS
 62
     7
100
AcDbLine
 10
138.9999999999999
 20
84.99999999999998
 30
0.0
 11
145.9999999999999
 21
84.99999999999998
 31
0.0
  0
LINE
  5
1E1
100
AcDbEntity
  8
1
  6
CONTINUOUS
 62
     7
100
AcDbLine
 10
135.9999999999999
 20
84.99999999999998
 30
0.0
 11
84.99999999999998
 21
84.99999999999998
 31
0.0
  0
LINE
  5
1E2
100
AcDbEntity
  8
1
  6
CONTINUOUS
 62
     7
100
AcDbLine
 10
155.9999999999999
 20
102.9999999999999
 30
0.0
 11
155.9999999999999
 21
93.0
 31
0.0
  0
LINE
  5
1E3
100
AcDbEntity
  8
1
  6
CONTINUOUS
 62
     7
100
AcDbLine
 10
140.9999999999999
 20
102.9999999999999
 30
0.0
 11
140.9999999999999
 21
110.0
 31
0.0
  0
LINE
  5
1E4
100
AcDbEntity
  8
1
  6
CONTINUOUS
 62
     7
100
AcDbLine
 10
140.9999999999999
 20
110.0
 30
0.0
 11
193.9999999999999
 21
110.0
 31
0.0
  0
LINE
  5
1E5
100
AcDbEntity
  8
1
  6
CONTINUOUS
 62
     7
100
AcDbLine
 10
193.9999999999999
 20
110.0
 30
0.0
 11
193.9999999999999
 21
121.9999999999999
 31
0.0
  0
LINE
  5
1E6
100
AcDbEntity
  8
1
  6
CONTINUOUS
 62
     7
100
AcDbLine
 10
145.9999999999999
 20
84.99999999999998
 30
0.0
 11
145.9999999999999
 21
93.0
 31
0.0
  0
LINE
  5
1E7
100
AcDbEntity
  8
1
  6
CONTINUOUS
 62
     7
100
AcDbLine
 10
141.9999999999999
 20
135.0
 30
0.0
 11
79.99999999999999
 21
135.0
 31
0.0
  0
LINE
  5
1E8
100
AcDbEntity
  8
1
  6
CONTINUOUS
 62
     7
100
AcDbLine
 10
52.00000000000001
 20
170.9999999999999
 30
0.0
 11
54.00000000000002
 21
170.9999999999999
 31
0.0
  0
LINE
  5
1E9
100
AcDbEntity
  8
1
  6
CONTINUOUS
 62
     7
100
AcDbLine
 10
54.00000000000002
 20
177.0
 30
0.0
 11
54.00000000000002
 21
170.9999999999999
 31
0.0
  0
LINE
  5
1EA
100
AcDbEntity
  8
1
  6
CONTINUOUS
 62
     7
100
AcDbLine
 10
52.00000000000001
 20
170.9999999999999
 30
0.0
 11
52.00000000000001
 21
177.0
 31
0.0
  0
LINE
  5
1EB
100
AcDbEntity
  8
1
  6
CONTINUOUS
 62
     7
100
AcDbLine
 10
52.00000000000001
 20
177.0
 30
0.0
 11
54.00000000000002
 21
177.0
 31
0.0
  0
LINE
  5
1EC
100
AcDbEntity
  8
1
  6
CONTINUOUS
 62
     7
100
AcDbLine
 10
25.00000000000002
 20
194.9999999999999
 30
0.0
 11
29.00000000000001
 21
194.9999999999999
 31
0.0
  0
LINE
  5
1ED
100
AcDbEntity
  8
1
  6
CONTINUOUS
 62
     7
100
AcDbLine
 10
27.00000000000001
 20
195.9999999999999
 30
0.0
 11
27.00000000000001
 21
198.0
 31
0.0
  0
LINE
  5
1EE
100
AcDbEntity
  8
1
  6
CONTINUOUS
 62
     7
100
AcDbLine
 10
27.00000000000001
 20
192.9999999999999
 30
0.0
 11
27.00000000000001
 21
191.0
 31
0.0
  0
LINE
  5
1EF
100
AcDbEntity
  8
1
  6
CONTINUOUS
 62
     7
100
AcDbLine
 10
25.00000000000002
 20
194.9999999999999
 30
0.0
 11
25.00000000000002
 21
195.9999999999999
 31
0.0
  0
LINE
  5
1F0
100
AcDbEntity
  8
1
  6
CONTINUOUS
 62
     7
100
AcDbLine
 10
25.00000000000002
 20
195.9999999999999
 30
0.0
 11
29.00000000000001
 21
195.9999999999999
 31
0.0
  0
LINE
  5
1F1
100
AcDbEntity
  8
1
  6
CONTINUOUS
 62
     7
100
AcDbLine
 10
29.00000000000001
 20
195.9999999999999
 30
0.0
 11
29.00000000000001
 21
194.9999999999999
 31
0.0
  0
LWPOLYLINE
  5
1F2
102
{ACAD_REACTORS
330
1F3
102
}
100
AcDbEntity
  8
1
  6
CONTINUOUS
 62
     7
100
AcDbPolyline
 90
        4
 70
     1
 43
0.0
 10
25.00000000000002
 20
193.9999999999999
 10
29.00000000000001
 20
193.9999999999999
 10
29.00000000000001
 20
192.9999999999999
 10
25.00000000000002
 20
192.9999999999999
  0
HATCH
  5
1F3
100
AcDbEntity
  8
1
  6
CONTINUOUS
 62
    19
100
AcDbHatch
 10
0.0
 20
0.0
 30
0.0
210
0.0
220
0.0
230
1.0
  2
SOLID
 70
     1
 71
     1
 91
        1
 92
        1
 93
        4
 72
     1
 10
25.00000000000002
 20
193.9999999999999
 11
29.00000000000001
 21
193.9999999999999
 72
     1
 10
29.00000000000001
 20
193.9999999999999
 11
29.00000000000001
 21
192.9999999999999
 72
     1
 10
29.00000000000001
 20
192.9999999999999
 11
25.00000000000002
 21
192.9999999999999
 72
     1
 10
25.00000000000002
 20
192.9999999999999
 11
25.00000000000002
 21
193.9999999999999
 97
        1
330
1F2
 75
     0
 76
     1
 98
        1
 10
0.0
 20
0.0
  0
LINE
  5
1F4
100
AcDbEntity
  8
1
  6
CONTINUOUS
 62
     7
100
AcDbLine
 10
51.99999999999999
 20
160.9999999999999
 30
0.0
 11
53.99999999999999
 21
160.9999999999999
 31
0.0
  0
LINE
  5
1F5
100
AcDbEntity
  8
1
  6
CONTINUOUS
 62
     7
100
AcDbLine
 10
53.99999999999999
 20
166.9999999999999
 30
0.0
 11
53.99999999999999
 21
160.9999999999999
 31
0.0
  0
LINE
  5
1F6
100
AcDbEntity
  8
1
  6
CONTINUOUS
 62
     7
100
AcDbLine
 10
51.99999999999999
 20
160.9999999999999
 30
0.0
 11
51.99999999999999
 21
166.9999999999999
 31
0.0
  0
LINE
  5
1F7
100
AcDbEntity
  8
1
  6
CONTINUOUS
 62
     7
100
AcDbLine
 10
51.99999999999999
 20
166.9999999999999
 30
0.0
 11
53.99999999999999
 21
166.9999999999999
 31
0.0
  0
LINE
  5
1F8
100
AcDbEntity
  8
1
  6
CONTINUOUS
 62
     7
100
AcDbLine
 10
19.99999999999999
 20
200.0
 30
0.0
 11
136.0
 21
200.0
 31
0.0
  0
LINE
  5
1F9
100
AcDbEntity
  8
1
  6
CONTINUOUS
 62
     7
100
AcDbLine
 10
26.99999999999999
 20
200.0
 30
0.0
 11
26.99999999999999
 21
197.9999999999999
 31
0.0
  0
LINE
  5
1FA
100
AcDbEntity
  8
1
  6
CONTINUOUS
 62
     7
100
AcDbLine
 10
26.99999999999999
 20
191.0
 30
0.0
 11
26.99999999999999
 21
187.0
 31
0.0
  0
LINE
  5
1FB
100
AcDbEntity
  8
1
  6
CONTINUOUS
 62
     7
100
AcDbLine
 10
25.0
 20
187.0
 30
0.0
 11
29.0
 21
187.0
 31
0.0
  0
CIRCLE
  5
1FC
100
AcDbEntity
  8
1
  6
CONTINUOUS
 62
     7
100
AcDbCircle
 10
26.99999999999999
 20
187.0
 30
0.0
 40
0.4
  0
CIRCLE
  5
1FD
100
AcDbEntity
  8
1
  6
CONTINUOUS
 62
     7
100
AcDbCircle
 10
26.99999999999999
 20
200.0
 30
0.0
 40
0.4
  0
LINE
  5
1FE
100
AcDbEntity
  8
1
  6
CONTINUOUS
 62
     7
100
AcDbLine
 10
69.0
 20
175.9999999999999
 30
0.0
 11
65.99999999999998
 21
175.9999999999999
 31
0.0
  0
LINE
  5
1FF
100
AcDbEntity
  8
1
  6
CONTINUOUS
 62
     7
100
AcDbLine
 10
51.0
 20
181.9999999999999
 30
0.0
 11
52.99999999999999
 21
181.9999999999999
 31
0.0
  0
LINE
  5
200
100
AcDbEntity
  8
1
  6
CONTINUOUS
 62
     7
100
AcDbLine
 10
52.99999999999999
 20
181.9999999999999
 30
0.0
 11
52.99999999999999
 21
177.0
 31
0.0
  0
LINE
  5
201
100
AcDbEntity
  8
1
  6
CONTINUOUS
 62
     7
100
AcDbLine
 10
52.99999999999999
 20
170.9999999999999
 30
0.0
 11
52.99999999999999
 21
166.9999999999999
 31
0.0
  0
LINE
  5
202
100
AcDbEntity
  8
1
  6
CONTINUOUS
 62
     7
100
AcDbLine
 10
52.99999999999999
 20
161.0
 30
0.0
 11
52.99999999999999
 21
156.9999999999999
 31
0.0
  0
LINE
  5
203
100
AcDbEntity
  8
1
  6
CONTINUOUS
 62
     7
100
AcDbLine
 10
19.99999999999999
 20
156.9999999999999
 30
0.0
 11
57.0
 21
156.9999999999999
 31
0.0
  0
LINE
  5
204
100
AcDbEntity
  8
1
  6
CONTINUOUS
 62
     7
100
AcDbLine
 10
52.99999999999999
 20
168.9999999999999
 30
0.0
 11
31.0
 21
168.9999999999999
 31
0.0
  0
LINE
  5
205
100
AcDbEntity
  8
1
  6
CONTINUOUS
 62
     7
100
AcDbLine
 10
31.0
 20
168.9999999999999
 30
0.0
 11
31.0
 21
179.0
 31
0.0
  0
LINE
  5
206
100
AcDbEntity
  8
1
  6
CONTINUOUS
 62
     7
100
AcDbLine
 10
31.0
 20
168.9999999999999
 30
0.0
 11
31.0
 21
179.0
 31
0.0
  0
LINE
  5
207
100
AcDbEntity
  8
1
  6
CONTINUOUS
 62
     7
100
AcDbLine
 10
32.99999999999999
 20
179.0
 30
0.0
 11
31.0
 21
179.0
 31
0.0
  0
CIRCLE
  5
208
100
AcDbEntity
  8
1
  6
CONTINUOUS
 62
     7
100
AcDbCircle
 10
52.99999999999999
 20
168.9999999999999
 30
0.0
 40
0.4
  0
CIRCLE
  5
209
100
AcDbEntity
  8
1
  6
CONTINUOUS
 62
     7
100
AcDbCircle
 10
52.99999999999999
 20
156.9999999999999
 30
0.0
 40
0.4
  0
LINE
  5
20A
100
AcDbEntity
  8
1
  6
CONTINUOUS
 62
     7
100
AcDbLine
 10
52.99999999999999
 20
181.9999999999999
 30
0.0
 11
65.99999999999998
 21
181.9999999999999
 31
0.0
  0
LINE
  5
20B
100
AcDbEntity
  8
1
  6
CONTINUOUS
 62
     7
100
AcDbLine
 10
85.99999999999999
 20
147.9999999999999
 30
0.0
 11
87.99999999999998
 21
147.9999999999999
 31
0.0
  0
LINE
  5
20C
100
AcDbEntity
  8
1
  6
CONTINUOUS
 62
     7
100
AcDbLine
 10
87.99999999999998
 20
154.0
 30
0.0
 11
87.99999999999998
 21
147.9999999999999
 31
0.0
  0
LINE
  5
20D
100
AcDbEntity
  8
1
  6
CONTINUOUS
 62
     7
100
AcDbLine
 10
85.99999999999999
 20
147.9999999999999
 30
0.0
 11
85.99999999999999
 21
154.0
 31
0.0
  0
LINE
  5
20E
100
AcDbEntity
  8
1
  6
CONTINUOUS
 62
     7
100
AcDbLine
 10
85.99999999999999
 20
154.0
 30
0.0
 11
87.99999999999998
 21
154.0
 31
0.0
  0
LINE
  5
20F
100
AcDbEntity
  8
1
  6
CONTINUOUS
 62
     7
100
AcDbLine
 10
98.00000000000002
 20
186.0
 30
0.0
 11
100.0
 21
186.0
 31
0.0
  0
LINE
  5
210
100
AcDbEntity
  8
1
  6
CONTINUOUS
 62
     7
100
AcDbLine
 10
100.0
 20
191.9999999999999
 30
0.0
 11
100.0
 21
186.0
 31
0.0
  0
LINE
  5
211
100
AcDbEntity
  8
1
  6
CONTINUOUS
 62
     7
100
AcDbLine
 10
98.00000000000002
 20
186.0
 30
0.0
 11
98.00000000000002
 21
191.9999999999999
 31
0.0
  0
LINE
  5
212
100
AcDbEntity
  8
1
  6
CONTINUOUS
 62
     7
100
AcDbLine
 10
98.00000000000002
 20
191.9999999999999
 30
0.0
 11
100.0
 21
191.9999999999999
 31
0.0
  0
LINE
  5
213
100
AcDbEntity
  8
1
  6
CONTINUOUS
 62
     7
100
AcDbLine
 10
97.99999999999998
 20
175.9999999999999
 30
0.0
 11
100.0
 21
175.9999999999999
 31
0.0
  0
LINE
  5
214
100
AcDbEntity
  8
1
  6
CONTINUOUS
 62
     7
100
AcDbLine
 10
100.0
 20
182.0
 30
0.0
 11
100.0
 21
175.9999999999999
 31
0.0
  0
LINE
  5
215
100
AcDbEntity
  8
1
  6
CONTINUOUS
 62
     7
100
AcDbLine
 10
97.99999999999998
 20
175.9999999999999
 30
0.0
 11
97.99999999999998
 21
182.0
 31
0.0
  0
LINE
  5
216
100
AcDbEntity
  8
1
  6
CONTINUOUS
 62
     7
100
AcDbLine
 10
97.99999999999998
 20
182.0
 30
0.0
 11
100.0
 21
182.0
 31
0.0
  0
LINE
  5
217
100
AcDbEntity
  8
1
  6
CONTINUOUS
 62
     7
100
AcDbLine
 10
98.99999999999998
 20
186.0
 30
0.0
 11
98.99999999999998
 21
182.0
 31
0.0
  0
CIRCLE
  5
218
100
AcDbEntity
  8
1
  6
CONTINUOUS
 62
     7
100
AcDbCircle
 10
98.99999999999998
 20
184.0
 30
0.0
 40
0.4
  0
LINE
  5
219
100
AcDbEntity
  8
1
  6
CONTINUOUS
 62
     7
100
AcDbLine
 10
80.99999999999999
 20
179.0
 30
0.0
 11
87.00000000000001
 21
179.0
 31
0.0
  0
LINE
  5
21A
100
AcDbEntity
  8
1
  6
CONTINUOUS
 62
     7
100
AcDbLine
 10
87.00000000000001
 20
179.0
 30
0.0
 11
87.00000000000001
 21
170.0
 31
0.0
  0
LINE
  5
21B
100
AcDbEntity
  8
1
  6
CONTINUOUS
 62
     7
100
AcDbLine
 10
87.00000000000001
 20
147.9999999999999
 30
0.0
 11
87.00000000000001
 21
143.9999999999999
 31
0.0
  0
LINE
  5
21C
100
AcDbEntity
  8
1
  6
CONTINUOUS
 62
     7
100
AcDbLine
 10
84.99999999999998
 20
143.9999999999999
 30
0.0
 11
89.0
 21
143.9999999999999
 31
0.0
  0
LINE
  5
21D
100
AcDbEntity
  8
1
  6
CONTINUOUS
 62
     7
100
AcDbLine
 10
65.99999999999998
 20
175.9999999999999
 30
0.0
 11
65.99999999999998
 21
168.9999999999999
 31
0.0
  0
LINE
  5
21E
100
AcDbEntity
  8
1
  6
CONTINUOUS
 62
     7
100
AcDbLine
 10
65.99999999999998
 20
160.9999999999999
 30
0.0
 11
86.01869158878505
 21
160.9999999999999
 31
0.0
  0
LINE
  5
21F
100
AcDbEntity
  8
1
  6
CONTINUOUS
 62
     7
100
AcDbLine
 10
87.00000000000001
 20
179.0
 30
0.0
 11
87.00000000000001
 21
196.9999999999999
 31
0.0
  0
LINE
  5
220
100
AcDbEntity
  8
1
  6
CONTINUOUS
 62
     7
100
AcDbLine
 10
87.00000000000001
 20
196.9999999999999
 30
0.0
 11
136.0
 21
196.9999999999999
 31
0.0
  0
LINE
  5
221
100
AcDbEntity
  8
1
  6
CONTINUOUS
 62
     7
100
AcDbLine
 10
136.0
 20
196.9999999999999
 30
0.0
 11
135.0
 21
197.9999999999999
 31
0.0
  0
LINE
  5
222
100
AcDbEntity
  8
1
  6
CONTINUOUS
 62
     7
100
AcDbLine
 10
136.0
 20
196.9999999999999
 30
0.0
 11
135.0
 21
195.9999999999999
 31
0.0
  0
LINE
  5
223
100
AcDbEntity
  8
1
  6
CONTINUOUS
 62
     7
100
AcDbLine
 10
130.9999999999999
 20
187.0
 30
0.0
 11
136.0
 21
187.0
 31
0.0
  0
LINE
  5
224
100
AcDbEntity
  8
1
  6
CONTINUOUS
 62
     7
100
AcDbLine
 10
136.0
 20
187.0
 30
0.0
 11
135.0
 21
188.0
 31
0.0
  0
LINE
  5
225
100
AcDbEntity
  8
1
  6
CONTINUOUS
 62
     7
100
AcDbLine
 10
136.0
 20
187.0
 30
0.0
 11
135.0
 21
186.0
 31
0.0
  0
LINE
  5
226
100
AcDbEntity
  8
1
  6
CONTINUOUS
 62
     7
100
AcDbLine
 10
131.9999999999999
 20
187.0
 30
0.0
 11
131.9999999999999
 21
193.9999999999999
 31
0.0
  0
LINE
  5
227
100
AcDbEntity
  8
1
  6
CONTINUOUS
 62
     7
100
AcDbLine
 10
131.9999999999999
 20
193.9999999999999
 30
0.0
 11
110.0
 21
193.9999999999999
 31
0.0
  0
LINE
  5
228
100
AcDbEntity
  8
1
  6
CONTINUOUS
 62
     7
100
AcDbLine
 10
110.0
 20
193.9999999999999
 30
0.0
 11
110.0
 21
190.0
 31
0.0
  0
LINE
  5
229
100
AcDbEntity
  8
1
  6
CONTINUOUS
 62
     7
100
AcDbLine
 10
110.0
 20
190.0
 30
0.0
 11
113.0
 21
190.0
 31
0.0
  0
LINE
  5
22A
100
AcDbEntity
  8
1
  6
CONTINUOUS
 62
     7
100
AcDbLine
 10
113.0
 20
183.9999999999999
 30
0.0
 11
98.99999999999998
 21
183.9999999999999
 31
0.0
  0
LINE
  5
22B
100
AcDbEntity
  8
1
  6
CONTINUOUS
 62
     7
100
AcDbLine
 10
98.99999999999998
 20
191.9999999999999
 30
0.0
 11
98.99999999999998
 21
193.9999999999999
 31
0.0
  0
LINE
  5
22C
100
AcDbEntity
  8
1
  6
CONTINUOUS
 62
     7
100
AcDbLine
 10
98.99999999999998
 20
193.9999999999999
 30
0.0
 11
87.00000000000001
 21
193.9999999999999
 31
0.0
  0
LINE
  5
22D
100
AcDbEntity
  8
1
  6
CONTINUOUS
 62
     7
100
AcDbLine
 10
98.99999999999998
 20
175.9999999999999
 30
0.0
 11
98.99999999999998
 21
169.9999999999999
 31
0.0
  0
LINE
  5
22E
100
AcDbEntity
  8
1
  6
CONTINUOUS
 62
     7
100
AcDbLine
 10
96.99999999999999
 20
169.9999999999999
 30
0.0
 11
101.0
 21
169.9999999999999
 31
0.0
  0
LINE
  5
22F
100
AcDbEntity
  8
1
  6
CONTINUOUS
 62
     7
100
AcDbLine
 10
121.9999999999999
 20
190.0
 30
0.0
 11
121.9999999999999
 21
196.9999999999999
 31
0.0
  0
LINE
  5
230
100
AcDbEntity
  8
1
  6
CONTINUOUS
 62
     7
100
AcDbLine
 10
121.9999999999999
 20
183.9999999999999
 30
0.0
 11
121.9999999999999
 21
175.0
 31
0.0
  0
LINE
  5
231
100
AcDbEntity
  8
1
  6
CONTINUOUS
 62
     7
100
AcDbLine
 10
119.9999999999999
 20
175.0
 30
0.0
 11
123.9999999999999
 21
175.0
 31
0.0
  0
CIRCLE
  5
232
100
AcDbEntity
  8
1
  6
CONTINUOUS
 62
     7
100
AcDbCircle
 10
87.00000000000001
 20
193.9999999999999
 30
0.0
 40
0.4
  0
CIRCLE
  5
233
100
AcDbEntity
  8
1
  6
CONTINUOUS
 62
     7
100
AcDbCircle
 10
131.9999999999999
 20
187.0
 30
0.0
 40
0.4
  0
CIRCLE
  5
234
100
AcDbEntity
  8
1
  6
CONTINUOUS
 62
     7
100
AcDbCircle
 10
121.9999999999999
 20
175.0
 30
0.0
 40
0.4
  0
CIRCLE
  5
235
100
AcDbEntity
  8
1
  6
CONTINUOUS
 62
     7
100
AcDbCircle
 10
121.9999999999999
 20
196.9999999999999
 30
0.0
 40
0.4
  0
CIRCLE
  5
236
100
AcDbEntity
  8
1
  6
CONTINUOUS
 62
     7
100
AcDbCircle
 10
98.99999999999998
 20
169.9999999999999
 30
0.0
 40
0.4
  0
CIRCLE
  5
237
100
AcDbEntity
  8
1
  6
CONTINUOUS
 62
     7
100
AcDbCircle
 10
87.00000000000001
 20
143.9999999999999
 30
0.0
 40
0.4
  0
CIRCLE
  5
238
100
AcDbEntity
  8
1
  6
CONTINUOUS
 62
     7
100
AcDbCircle
 10
52.99999999999999
 20
181.9999999999999
 30
0.0
 40
0.4
  0
LINE
  5
239
100
AcDbEntity
  8
1
  6
CONTINUOUS
 62
     7
100
AcDbLine
 10
136.0
 20
200.0
 30
0.0
 11
135.0
 21
201.0
 31
0.0
  0
LINE
  5
23A
100
AcDbEntity
  8
1
  6
CONTINUOUS
 62
     7
100
AcDbLine
 10
136.0
 20
200.0
 30
0.0
 11
135.0
 21
199.0
 31
0.0
  0
TEXT
  5
23B
100
AcDbEntity
  8
1
  6
CONTINUOUS
 62
     7
100
AcDbText
 10
12.99999999999999
 20
157.9999999999999
 30
0.0
 40
1.249999999999999
  1
CN1/4
  7
ARIALB
100
AcDbText
  0
TEXT
  5
23C
100
AcDbEntity
  8
1
  6
CONTINUOUS
 62
     7
100
AcDbText
 10
138.0
 20
200.0
 30
0.0
 40
1.249999999999999
  1
+9V (batt +ve)
  7
ARIALB
100
AcDbText
  0
TEXT
  5
23D
100
AcDbEntity
  8
1
  6
CONTINUOUS
 62
     7
100
AcDbText
 10
11.99999999999999
 20
196.9999999999999
 30
0.0
 40
1.249999999999999
  1
+9V (batt +ve)
  7
ARIALB
100
AcDbText
  0
TEXT
  5
23E
100
AcDbEntity
  8
1
  6
CONTINUOUS
 62
     7
100
AcDbText
 10
11.99999999999999
 20
153.9999999999999
 30
0.0
 40
1.249999999999999
  1
Batt -ve
  7
ARIALB
100
AcDbText
  0
TEXT
  5
23F
100
AcDbEntity
  8
1
  6
CONTINUOUS
 62
     7
100
AcDbText
 10
53.99999999999999
 20
190.0
 30
0.0
 40
1.249999999999999
  1
LM10
  7
ARIALB
100
AcDbText
  0
TEXT
  5
240
100
AcDbEntity
  8
1
  6
CONTINUOUS
 62
     7
100
AcDbText
 10
116.9999999999999
 20
166.9999999999999
 30
0.0
 40
1.249999999999999
  1
TL061 etc
  7
ARIALB
100
AcDbText
  0
TEXT
  5
241
100
AcDbEntity
  8
1
  6
CONTINUOUS
 62
     7
100
AcDbText
 10
57.0
 20
153.0
 30
0.0
 40
1.249999999999999
  1
Batt -ve
  7
ARIALB
100
AcDbText
  0
LINE
  5
242
100
AcDbEntity
  8
1
  6
CONTINUOUS
 62
     7
100
AcDbLine
 10
57.0
 20
156.9999999999999
 30
0.0
 11
56.0
 21
157.9999999999999
 31
0.0
  0
LINE
  5
243
100
AcDbEntity
  8
1
  6
CONTINUOUS
 62
     7
100
AcDbLine
 10
57.0
 20
156.9999999999999
 30
0.0
 11
56.0
 21
155.9999999999999
 31
0.0
  0
TEXT
  5
244
100
AcDbEntity
  8
1
  6
CONTINUOUS
 62
     7
100
AcDbText
 10
85.99999999999999
 20
140.0
 30
0.0
 40
1.249999999999999
  1
Batt -ve
  7
ARIALB
100
AcDbText
  0
TEXT
  5
245
100
AcDbEntity
  8
1
  6
CONTINUOUS
 62
     7
100
AcDbText
 10
96.99999999999999
 20
166.9999999999999
 30
0.0
 40
1.249999999999999
  1
Batt -ve
  7
ARIALB
100
AcDbText
  0
TEXT
  5
246
100
AcDbEntity
  8
1
  6
CONTINUOUS
 62
     7
100
AcDbText
 10
122.9999999999999
 20
171.9999999999999
 30
0.0
 40
1.249999999999999
  1
Batt -ve
  7
ARIALB
100
AcDbText
  0
TEXT
  5
247
100
AcDbEntity
  8
1
  6
CONTINUOUS
 62
     7
100
AcDbText
 10
55.0
 20
174.0
 30
0.0
 40
1.249999999999999
  1
47k
  7
ARIALB
100
AcDbText
  0
TEXT
  5
248
100
AcDbEntity
  8
1
  6
CONTINUOUS
 62
     7
100
AcDbText
 10
55.0
 20
163.0
 30
0.0
 40
1.249999999999999
  1
2k
  7
ARIALB
100
AcDbText
  0
TEXT
  5
249
100
AcDbEntity
  8
1
  6
CONTINUOUS
 62
     7
100
AcDbText
 10
89.0
 20
150.0
 30
0.0
 40
1.249999999999999
  1
47k
  7
ARIALB
100
AcDbText
  0
TEXT
  5
24A
100
AcDbEntity
  8
1
  6
CONTINUOUS
 62
     7
100
AcDbText
 10
101.0
 20
188.0
 30
0.0
 40
1.249999999999999
  1
100k
  7
ARIALB
100
AcDbText
  0
TEXT
  5
24B
100
AcDbEntity
  8
1
  6
CONTINUOUS
 62
     7
100
AcDbText
 10
101.0
 20
178.0
 30
0.0
 40
1.249999999999999
  1
100k
  7
ARIALB
100
AcDbText
  0
TEXT
  5
24C
100
AcDbEntity
  8
1
  6
CONTINUOUS
 62
     7
100
AcDbText
 10
139.0
 20
186.0
 30
0.0
 40
1.249999999999999
  1
+3.6V
  7
ARIALB
100
AcDbText
  0
TEXT
  5
24D
100
AcDbEntity
  8
1
  6
CONTINUOUS
 62
     7
100
AcDbText
 10
138.0
 20
195.9999999999999
 30
0.0
 40
1.249999999999999
  1
+7.2V
  7
ARIALB
100
AcDbText
  0
TEXT
  5
24E
100
AcDbEntity
  8
1
  6
CONTINUOUS
 62
     7
100
AcDbText
 10
123.9999999999999
 20
191.0
 30
0.0
 40
1.249999999999999
  1
7
  7
ARIALB
100
AcDbText
  0
TEXT
  5
24F
100
AcDbEntity
  8
1
  6
CONTINUOUS
 62
     7
100
AcDbText
 10
123.9999999999999
 20
181.9999999999999
 30
0.0
 40
1.249999999999999
  1
4
  7
ARIALB
100
AcDbText
  0
TEXT
  5
250
100
AcDbEntity
  8
1
  6
CONTINUOUS
 62
     7
100
AcDbText
 10
116.9999999999999
 20
189.0
 30
0.0
 40
1.249999999999999
  1
-
  7
ARIALB
100
AcDbText
  0
TEXT
  5
251
100
AcDbEntity
  8
1
  6
CONTINUOUS
 62
     7
100
AcDbText
 10
116.9999999999999
 20
183.9999999999999
 30
0.0
 40
1.249999999999999
  1
+
  7
ARIALB
100
AcDbText
  0
TEXT
  5
252
100
AcDbEntity
  8
1
  6
CONTINUOUS
 62
     7
100
AcDbText
 10
70.0
 20
180.9999999999999
 30
0.0
 40
1.249999999999999
  1
+
  7
ARIALB
100
AcDbText
  0
TEXT
  5
253
100
AcDbEntity
  8
1
  6
CONTINUOUS
 62
     7
100
AcDbText
 10
70.0
 20
175.9999999999999
 30
0.0
 40
1.249999999999999
  1
-
  7
ARIALB
100
AcDbText
  0
TEXT
  5
254
100
AcDbEntity
  8
1
  6
CONTINUOUS
 62
     7
100
AcDbText
 10
20.99999999999999
 20
183.9999999999999
 30
0.0
 40
1.249999999999999
  1
Batt -ve
  7
ARIALB
100
AcDbText
  0
TEXT
  5
255
100
AcDbEntity
  8
1
  6
CONTINUOUS
 62
     7
100
AcDbText
 10
31.0
 20
193.9999999999999
 30
0.0
 40
1.249999999999999
  1
22u, 16V
  7
ARIALB
100
AcDbText
  0
TEXT
  5
256
100
AcDbEntity
  8
1
  6
CONTINUOUS
 62
     7
100
AcDbText
 10
82.00000000000001
 20
180.0
 30
0.0
 40
1.249999999999999
  1
6
  7
ARIALB
100
AcDbText
  0
LINE
  5
257
100
AcDbEntity
  8
1
  6
CONTINUOUS
 62
     7
100
AcDbLine
 10
75.0
 20
181.9999999999999
 30
0.0
 11
75.0
 21
200.0
 31
0.0
  0
LINE
  5
258
100
AcDbEntity
  8
1
  6
CONTINUOUS
 62
     7
100
AcDbLine
 10
75.0
 20
175.9999999999999
 30
0.0
 11
75.0
 21
166.0
 31
0.0
  0
LINE
  5
259
100
AcDbEntity
  8
1
  6
CONTINUOUS
 62
     7
100
AcDbLine
 10
72.99999999999998
 20
165.9999999999999
 30
0.0
 11
77.0
 21
165.9999999999999
 31
0.0
  0
LINE
  5
25A
100
AcDbEntity
  8
1
  6
CONTINUOUS
 62
     7
100
AcDbLine
 10
84.99999999999998
 20
143.9999999999999
 30
0.0
 11
89.0
 21
143.9999999999999
 31
0.0
  0
LINE
  5
25B
100
AcDbEntity
  8
1
  6
CONTINUOUS
 62
     7
100
AcDbLine
 10
72.99999999999998
 20
165.9999999999999
 30
0.0
 11
77.0
 21
165.9999999999999
 31
0.0
  0
LINE
  5
25C
100
AcDbEntity
  8
1
  6
CONTINUOUS
 62
     7
100
AcDbLine
 10
72.99999999999998
 20
200.0
 30
0.0
 11
77.0
 21
200.0
 31
0.0
  0
LINE
  5
25D
100
AcDbEntity
  8
1
  6
CONTINUOUS
 62
     7
100
AcDbLine
 10
72.99999999999998
 20
165.9999999999999
 30
0.0
 11
77.0
 21
165.9999999999999
 31
0.0
  0
LINE
  5
25E
100
AcDbEntity
  8
1
  6
CONTINUOUS
 62
     7
100
AcDbLine
 10
72.99999999999998
 20
165.9999999999999
 30
0.0
 11
77.0
 21
165.9999999999999
 31
0.0
  0
CIRCLE
  5
25F
100
AcDbEntity
  8
1
  6
CONTINUOUS
 62
     7
100
AcDbCircle
 10
75.0
 20
165.9999999999999
 30
0.0
 40
0.4
  0
CIRCLE
  5
260
100
AcDbEntity
  8
1
  6
CONTINUOUS
 62
     7
100
AcDbCircle
 10
75.0
 20
200.0
 30
0.0
 40
0.4
  0
LINE
  5
261
100
AcDbEntity
  8
1
  6
CONTINUOUS
 62
     7
100
AcDbLine
 10
87.00000000000001
 20
157.9999999999999
 30
0.0
 11
87.00000000000001
 21
154.0
 31
0.0
  0
LINE
  5
262
100
AcDbEntity
  8
1
  6
CONTINUOUS
 62
     7
100
AcDbLine
 10
65.99999999999998
 20
168.9999999999999
 30
0.0
 11
65.99999999999998
 21
161.0
 31
0.0
  0
TEXT
  5
263
100
AcDbEntity
  8
1
  6
CONTINUOUS
 62
     7
100
AcDbText
 10
72.99999999999998
 20
163.0
 30
0.0
 40
1.249999999999999
  1
Batt -ve
  7
ARIALB
100
AcDbText
  0
LINE
  5
264
100
AcDbEntity
  8
1
  6
CONTINUOUS
 62
     7
100
AcDbLine
 10
65.0
 20
138.0
 30
0.0
 11
30.0
 21
138.0
 31
0.0
  0
LINE
  5
265
100
AcDbEntity
  8
1
  6
CONTINUOUS
 62
     7
100
AcDbLine
 10
30.0
 20
138.0
 30
0.0
 11
30.0
 21
96.00000000000001
 31
0.0
  0
LINE
  5
266
100
AcDbEntity
  8
1
  6
CONTINUOUS
 62
     7
100
AcDbLine
 10
30.0
 20
96.00000000000001
 30
0.0
 11
38.99999999999999
 21
96.00000000000001
 31
0.0
  0
LINE
  5
267
100
AcDbEntity
  8
1
  6
CONTINUOUS
 62
     7
100
AcDbLine
 10
19.0
 20
138.0
 30
0.0
 11
30.0
 21
138.0
 31
0.0
  0
LINE
  5
268
100
AcDbEntity
  8
1
  6
CONTINUOUS
 62
     7
100
AcDbLine
 10
19.99999999999999
 20
138.0
 30
0.0
 11
23.99999999999999
 21
138.0
 31
0.0
  0
TEXT
  5
269
100
AcDbEntity
  8
1
  6
CONTINUOUS
 62
     7
100
AcDbText
 10
16.31239818244042
 20
142.1436341165073
 30
0.0
 40
1.249999999999999
  1
+ or - 1.25V climb signal
  7
ARIALB
100
AcDbText
  0
LINE
  5
26A
100
AcDbEntity
  8
1
  6
CONTINUOUS
 62
     7
100
AcDbLine
 10
84.00000000000002
 20
126.0
 30
0.0
 11
86.00000000000001
 21
126.0
 31
0.0
  0
LINE
  5
26B
100
AcDbEntity
  8
1
  6
CONTINUOUS
 62
     7
100
AcDbLine
 10
86.00000000000001
 20
132.0
 30
0.0
 11
86.00000000000001
 21
126.0
 31
0.0
  0
LINE
  5
26C
100
AcDbEntity
  8
1
  6
CONTINUOUS
 62
     7
100
AcDbLine
 10
84.00000000000002
 20
126.0
 30
0.0
 11
84.00000000000002
 21
132.0
 31
0.0
  0
LINE
  5
26D
100
AcDbEntity
  8
1
  6
CONTINUOUS
 62
     7
100
AcDbLine
 10
84.00000000000002
 20
132.0
 30
0.0
 11
86.00000000000001
 21
132.0
 31
0.0
  0
LINE
  5
26E
100
AcDbEntity
  8
1
  6
CONTINUOUS
 62
     7
100
AcDbLine
 10
83.99999999999998
 20
116.0
 30
0.0
 11
85.99999999999999
 21
116.0
 31
0.0
  0
LINE
  5
26F
100
AcDbEntity
  8
1
  6
CONTINUOUS
 62
     7
100
AcDbLine
 10
85.99999999999999
 20
122.0
 30
0.0
 11
85.99999999999999
 21
116.0
 31
0.0
  0
LINE
  5
270
100
AcDbEntity
  8
1
  6
CONTINUOUS
 62
     7
100
AcDbLine
 10
83.99999999999998
 20
116.0
 30
0.0
 11
83.99999999999998
 21
122.0
 31
0.0
  0
LINE
  5
271
100
AcDbEntity
  8
1
  6
CONTINUOUS
 62
     7
100
AcDbLine
 10
83.99999999999998
 20
122.0
 30
0.0
 11
85.99999999999999
 21
122.0
 31
0.0
  0
LINE
  5
272
100
AcDbEntity
  8
1
  6
CONTINUOUS
 62
     7
100
AcDbLine
 10
84.99999999999998
 20
126.0
 30
0.0
 11
84.99999999999998
 21
122.0
 31
0.0
  0
CIRCLE
  5
273
100
AcDbEntity
  8
1
  6
CONTINUOUS
 62
     7
100
AcDbCircle
 10
84.99999999999998
 20
135.0
 30
0.0
 40
0.4
  0
LINE
  5
274
100
AcDbEntity
  8
1
  6
CONTINUOUS
 62
     7
100
AcDbLine
 10
84.99999999999998
 20
132.0
 30
0.0
 11
84.99999999999998
 21
135.0
 31
0.0
  0
LINE
  5
275
100
AcDbEntity
  8
1
  6
CONTINUOUS
 62
     7
100
AcDbLine
 10
84.99999999999998
 20
116.0
 30
0.0
 11
84.99999999999998
 21
110.0
 31
0.0
  0
LINE
  5
276
100
AcDbEntity
  8
1
  6
CONTINUOUS
 62
     7
100
AcDbLine
 10
83.0
 20
110.0
 30
0.0
 11
87.00000000000001
 21
110.0
 31
0.0
  0
CIRCLE
  5
277
100
AcDbEntity
  8
1
  6
CONTINUOUS
 62
     7
100
AcDbCircle
 10
84.99999999999998
 20
110.0
 30
0.0
 40
0.4
  0
TEXT
  5
278
100
AcDbEntity
  8
1
  6
CONTINUOUS
 62
     7
100
AcDbText
 10
87.00000000000001
 20
128.0
 30
0.0
 40
1.249999999999999
  1
300k
  7
ARIALB
100
AcDbText
  0
TEXT
  5
279
100
AcDbEntity
  8
1
  6
CONTINUOUS
 62
     7
100
AcDbText
 10
87.00000000000001
 20
118.0
 30
0.0
 40
1.249999999999999
  1
100k
  7
ARIALB
100
AcDbText
  0
LINE
  5
27A
100
AcDbEntity
  8
1
  6
CONTINUOUS
 62
     7
100
AcDbLine
 10
65.0
 20
131.9999999999999
 30
0.0
 11
65.0
 21
123.9999999999999
 31
0.0
  0
LINE
  5
27B
100
AcDbEntity
  8
1
  6
CONTINUOUS
 62
     7
100
AcDbLine
 10
65.0
 20
123.9999999999999
 30
0.0
 11
84.99999999999998
 21
123.9999999999999
 31
0.0
  0
CIRCLE
  5
27C
100
AcDbEntity
  8
1
  6
CONTINUOUS
 62
     7
100
AcDbCircle
 10
84.99999999999998
 20
123.9999999999999
 30
0.0
 40
0.4
  0
TEXT
  5
27D
100
AcDbEntity
  8
1
  6
CONTINUOUS
 62
     7
100
AcDbText
 10
79.99999999999999
 20
136.0
 30
0.0
 40
1.249999999999999
  1
8
  7
ARIALB
100
AcDbText
  0
CIRCLE
  5
27E
100
AcDbEntity
  8
1
  6
CONTINUOUS
 62
     7
100
AcDbCircle
 10
93.0
 20
135.0
 30
0.0
 40
0.4
  0
TEXT
  5
27F
100
AcDbEntity
  8
1
  6
CONTINUOUS
 62
     7
100
AcDbText
 10
66.99999999999999
 20
114.9999999999999
 30
0.0
 40
1.249999999999999
  1
'7621
  7
ARIALB
100
AcDbText
  0
CIRCLE
  5
280
100
AcDbEntity
  8
1
  6
CONTINUOUS
 62
     7
100
AcDbCircle
 10
87.00000000000001
 20
179.0
 30
0.0
 40
0.4
  0
LINE
  5
281
100
AcDbEntity
  8
1
  6
CONTINUOUS
 62
     7
100
AcDbLine
 10
10.99999999999997
 20
203.0
 30
0.0
 11
283.0
 21
203.0
 31
0.0
  0
LINE
  5
282
100
AcDbEntity
  8
1
  6
CONTINUOUS
 62
     7
100
AcDbLine
 10
283.0
 20
203.0
 30
0.0
 11
283.0
 21
13.99999999999999
 31
0.0
  0
LINE
  5
283
100
AcDbEntity
  8
1
  6
CONTINUOUS
 62
     7
100
AcDbLine
 10
283.0
 20
14.0
 30
0.0
 11
10.99999999999998
 21
14.0
 31
0.0
  0
LINE
  5
284
100
AcDbEntity
  8
1
  6
CONTINUOUS
 62
     7
100
AcDbLine
 10
11.0
 20
14.0
 30
0.0
 11
11.0
 21
203.0
 31
0.0
  0
MTEXT
  5
285
100
AcDbEntity
  8
1
  6
CONTINUOUS
 62
     7
100
AcDbMText
 10
223.7340019806371
 20
18.95265314259628
 30
0.0
 40
4.999999999999999
 41
0.0
 71
     7
 72
     1
  1
LR2 schematics\PAudio Card 
  7
ARIALB
  0
LINE
  5
286
100
AcDbEntity
  8
1
  6
CONTINUOUS
 62
     7
100
AcDbLine
 10
18.99999999999999
 20
67.0
 30
0.0
 11
20.99999999999999
 21
67.0
 31
0.0
  0
LINE
  5
287
100
AcDbEntity
  8
1
  6
CONTINUOUS
 62
     7
100
AcDbLine
 10
20.99999999999999
 20
73.00000000000001
 30
0.0
 11
20.99999999999999
 21
67.0
 31
0.0
  0
LINE
  5
288
100
AcDbEntity
  8
1
  6
CONTINUOUS
 62
     7
100
AcDbLine
 10
18.99999999999999
 20
67.0
 30
0.0
 11
18.99999999999999
 21
73.00000000000001
 31
0.0
  0
LINE
  5
289
100
AcDbEntity
  8
1
  6
CONTINUOUS
 62
     7
100
AcDbLine
 10
18.99999999999999
 20
73.00000000000001
 30
0.0
 11
20.99999999999999
 21
73.00000000000001
 31
0.0
  0
TEXT
  5
28A
100
AcDbEntity
  8
1
  6
CONTINUOUS
 62
     7
100
AcDbText
 10
22.0
 20
69.0
 30
0.0
 40
1.249999999999999
  1
47k
  7
ARIALB
100
AcDbText
  0
LINE
  5
28B
100
AcDbEntity
  8
1
  6
CONTINUOUS
 62
     7
100
AcDbLine
 10
20.0
 20
76.00000000000001
 30
0.0
 11
20.0
 21
73.00000000000001
 31
0.0
  0
LINE
  5
28C
100
AcDbEntity
  8
1
  6
CONTINUOUS
 62
     7
100
AcDbLine
 10
18.99999999999999
 20
70.00000000000001
 30
0.0
 11
17.99999999999999
 21
69.0
 31
0.0
  0
LINE
  5
28D
100
AcDbEntity
  8
1
  6
CONTINUOUS
 62
     7
100
AcDbLine
 10
52.99999999999999
 20
53.99999999999999
 30
0.0
 11
55.0
 21
53.99999999999999
 31
0.0
  0
LINE
  5
28E
100
AcDbEntity
  8
1
  6
CONTINUOUS
 62
     7
100
AcDbLine
 10
55.0
 20
60.0
 30
0.0
 11
55.0
 21
53.99999999999999
 31
0.0
  0
LINE
  5
28F
100
AcDbEntity
  8
1
  6
CONTINUOUS
 62
     7
100
AcDbLine
 10
52.99999999999999
 20
53.99999999999999
 30
0.0
 11
52.99999999999999
 21
60.0
 31
0.0
  0
LINE
  5
290
100
AcDbEntity
  8
1
  6
CONTINUOUS
 62
     7
100
AcDbLine
 10
52.99999999999999
 20
60.0
 30
0.0
 11
55.0
 21
60.0
 31
0.0
  0
TEXT
  5
291
100
AcDbEntity
  8
1
  6
CONTINUOUS
 62
     7
100
AcDbText
 10
56.0
 20
52.99999999999999
 30
0.0
 40
1.249999999999999
  1
47k
  7
ARIALB
100
AcDbText
  0
LINE
  5
292
100
AcDbEntity
  8
1
  6
CONTINUOUS
 62
     7
100
AcDbLine
 10
54.0
 20
63.0
 30
0.0
 11
54.0
 21
60.0
 31
0.0
  0
LINE
  5
293
100
AcDbEntity
  8
1
  6
CONTINUOUS
 62
     7
100
AcDbLine
 10
53.99999999999999
 20
63.0
 30
0.0
 11
63.99999999999999
 21
63.0
 31
0.0
  0
LINE
  5
294
100
AcDbEntity
  8
1
  6
CONTINUOUS
 62
     7
100
AcDbLine
 10
53.99999999999999
 20
53.99999999999999
 30
0.0
 11
53.99999999999999
 21
51.0
 31
0.0
  0
LINE
  5
295
100
AcDbEntity
  8
1
  6
CONTINUOUS
 62
     7
100
AcDbLine
 10
53.99999999999999
 20
51.0
 30
0.0
 11
63.99999999999999
 21
51.0
 31
0.0
  0
LINE
  5
296
100
AcDbEntity
  8
1
  6
CONTINUOUS
 62
     7
100
AcDbLine
 10
63.99999999999999
 20
57.0
 30
0.0
 11
55.0
 21
57.0
 31
0.0
  0
LINE
  5
297
100
AcDbEntity
  8
1
  6
CONTINUOUS
 62
     7
100
AcDbLine
 10
55.0
 20
57.0
 30
0.0
 11
56.0
 21
57.99999999999999
 31
0.0
  0
LINE
  5
298
100
AcDbEntity
  8
1
  6
CONTINUOUS
 62
     7
100
AcDbLine
 10
55.0
 20
57.0
 30
0.0
 11
56.0
 21
56.0
 31
0.0
  0
CIRCLE
  5
299
100
AcDbEntity
  8
1
  6
CONTINUOUS
 62
     7
100
AcDbCircle
 10
65.0
 20
63.0
 30
0.0
 40
0.999999999999998
  0
CIRCLE
  5
29A
100
AcDbEntity
  8
1
  6
CONTINUOUS
 62
     7
100
AcDbCircle
 10
65.0
 20
57.0
 30
0.0
 40
0.999999999999998
  0
CIRCLE
  5
29B
100
AcDbEntity
  8
1
  6
CONTINUOUS
 62
     7
100
AcDbCircle
 10
65.0
 20
51.0
 30
0.0
 40
0.999999999999998
  0
TEXT
  5
29C
100
AcDbEntity
  8
1
  6
CONTINUOUS
 62
     7
100
AcDbText
 10
51.0
 20
47.0
 30
0.0
 40
1.249999999999999
  1
SINK threshold pot
  7
ARIALB
100
AcDbText
  0
CIRCLE
  5
29D
100
AcDbEntity
  8
1
  6
CONTINUOUS
 62
     7
100
AcDbCircle
 10
87.00000000000001
 20
35.99999999999999
 30
0.0
 40
0.4
  0
CIRCLE
  5
29E
100
AcDbEntity
  8
1
  6
CONTINUOUS
 62
     7
100
AcDbCircle
 10
85.99999999999999
 20
76.0
 30
0.0
 40
0.4
  0
TEXT
  5
29F
100
AcDbEntity
  8
1
  6
CONTINUOUS
 62
     7
100
AcDbText
 10
83.0
 20
77.0
 30
0.0
 40
1.249999999999999
  1
+7.2V
  7
ARIALB
100
AcDbText
  0
ARC
  5
2A0
100
AcDbEntity
  8
1
  6
CONTINUOUS
 62
     7
100
AcDbCircle
 10
79.99999999999999
 20
51.0
 30
0.0
 40
1.000000000000003
100
AcDbArc
 50
270.0
 51
90.00000000000007
  0
ARC
  5
2A1
100
AcDbEntity
  8
1
  6
CONTINUOUS
 62
     7
100
AcDbCircle
 10
79.99999999999999
 20
57.0
 30
0.0
 40
1.000000000000003
100
AcDbArc
 50
270.0
 51
90.00000000000007
  0
ARC
  5
2A2
100
AcDbEntity
  8
1
  6
CONTINUOUS
 62
     7
100
AcDbCircle
 10
79.99999999999999
 20
63.0
 30
0.0
 40
1.000000000000003
100
AcDbArc
 50
270.0
 51
90.00000000000007
  0
ARC
  5
2A3
100
AcDbEntity
  8
1
  6
CONTINUOUS
 62
     7
100
AcDbCircle
 10
17.99999999999999
 20
138.0
 30
0.0
 40
1.000000000000003
100
AcDbArc
 50
270.0
 51
90.00000000000007
  0
ARC
  5
2A4
100
AcDbEntity
  8
1
  6
CONTINUOUS
 62
     7
100
AcDbCircle
 10
19.0
 20
156.9999999999999
 30
0.0
 40
1.000000000000003
100
AcDbArc
 50
270.0
 51
90.00000000000007
  0
ARC
  5
2A5
100
AcDbEntity
  8
1
  6
CONTINUOUS
 62
     7
100
AcDbCircle
 10
19.0
 20
200.0
 30
0.0
 40
1.000000000000003
100
AcDbArc
 50
270.0
 51
90.00000000000007
  0
ARC
  5
2A6
100
AcDbEntity
  8
1
  6
CONTINUOUS
 62
     7
100
AcDbCircle
 10
277.0
 20
105.9999999999999
 30
0.0
 40
0.999999999999998
100
AcDbArc
 50
90.00000000000005
 51
270.0
  0
ARC
  5
2A7
100
AcDbEntity
  8
1
  6
CONTINUOUS
 62
     7
100
AcDbCircle
 10
277.0
 20
88.0
 30
0.0
 40
0.999999999999998
100
AcDbArc
 50
90.00000000000005
 51
270.0
  0
ARC
  5
2A8
100
AcDbEntity
  8
1
  6
CONTINUOUS
 62
     7
100
AcDbCircle
 10
277.0
 20
70.0
 30
0.0
 40
0.999999999999998
100
AcDbArc
 50
90.00000000000005
 51
270.0
  0
LINE
  5
2A9
100
AcDbEntity
  8
1
  6
CONTINUOUS
 62
     7
100
AcDbLine
 10
18.99999999999999
 20
70.00000000000001
 30
0.0
 11
17.99999999999999
 21
71.00000000000001
 31
0.0
  0
LINE
  5
2AA
100
AcDbEntity
  8
1
  6
CONTINUOUS
 62
     7
100
AcDbLine
 10
14.0
 20
70.0
 30
0.0
 11
19.01869158878504
 21
70.0
 31
0.0
  0
LINE
  5
2AB
100
AcDbEntity
  8
1
  6
CONTINUOUS
 62
     7
100
AcDbLine
 10
43.99999999999998
 20
75.99999999999998
 30
0.0
 11
45.99999999999998
 21
75.99999999999998
 31
0.0
  0
LINE
  5
2AC
100
AcDbEntity
  8
1
  6
CONTINUOUS
 62
     7
100
AcDbLine
 10
45.99999999999998
 20
81.99999999999999
 30
0.0
 11
45.99999999999998
 21
75.99999999999998
 31
0.0
  0
LINE
  5
2AD
100
AcDbEntity
  8
1
  6
CONTINUOUS
 62
     7
100
AcDbLine
 10
43.99999999999998
 20
75.99999999999998
 30
0.0
 11
43.99999999999998
 21
81.99999999999999
 31
0.0
  0
LINE
  5
2AE
100
AcDbEntity
  8
1
  6
CONTINUOUS
 62
     7
100
AcDbLine
 10
43.99999999999998
 20
81.99999999999999
 30
0.0
 11
45.99999999999998
 21
81.99999999999999
 31
0.0
  0
TEXT
  5
2AF
100
AcDbEntity
  8
1
  6
CONTINUOUS
 62
     7
100
AcDbText
 10
46.99999999999998
 20
78.99999999999998
 30
0.0
 40
1.249999999999999
  1
1M
  7
ARIALB
100
AcDbText
  0
TEXT
  5
2B0
100
AcDbEntity
  8
1
  6
CONTINUOUS
 62
     7
100
AcDbText
 10
34.66695707541568
 20
76.31125493280652
 30
0.0
 40
1.249999999999999
  1
CN3/1
  7
ARIALB
100
AcDbText
  0
LINE
  5
2B1
100
AcDbEntity
  8
1
  6
CONTINUOUS
 62
     7
100
AcDbLine
 10
40.0
 20
73.99999999999998
 30
0.0
 11
45.0
 21
73.99999999999998
 31
0.0
  0
LINE
  5
2B2
100
AcDbEntity
  8
1
  6
CONTINUOUS
 62
     7
100
AcDbLine
 10
45.0
 20
73.99999999999998
 30
0.0
 11
45.0
 21
75.99999999999998
 31
0.0
  0
LINE
  5
2B3
100
AcDbEntity
  8
1
  6
CONTINUOUS
 62
     7
100
AcDbLine
 10
45.0
 20
81.99999999999999
 30
0.0
 11
45.0
 21
86.99999999999999
 31
0.0
  0
LINE
  5
2B4
100
AcDbEntity
  8
1
  6
CONTINUOUS
 62
     7
100
AcDbLine
 10
47.00000000000001
 20
86.99999999999999
 30
0.0
 11
42.99999999999999
 21
86.99999999999999
 31
0.0
  0
CIRCLE
  5
2B5
100
AcDbEntity
  8
1
  6
CONTINUOUS
 62
     7
100
AcDbCircle
 10
45.0
 20
86.99999999999999
 30
0.0
 40
0.4
  0
TEXT
  5
2B6
100
AcDbEntity
  8
1
  6
CONTINUOUS
 62
     7
100
AcDbText
 10
42.0
 20
87.99999999999998
 30
0.0
 40
1.249999999999999
  1
+7.2V
  7
ARIALB
100
AcDbText
  0
ARC
  5
2B7
100
AcDbEntity
  8
1
  6
CONTINUOUS
 62
     7
100
AcDbCircle
 10
38.99999999999999
 20
73.99999999999998
 30
0.0
 40
1.000000000000003
100
AcDbArc
 50
270.0
 51
90.00000000000007
  0
LINE
  5
2B8
100
AcDbEntity
  8
1
  6
CONTINUOUS
 62
     7
100
AcDbLine
 10
45.0
 20
74.0
 30
0.0
 11
53.99999999999999
 21
74.0
 31
0.0
  0
LINE
  5
2B9
100
AcDbEntity
  8
1
  6
CONTINUOUS
 62
     7
100
AcDbLine
 10
53.99999999999999
 20
74.0
 30
0.0
 11
53.99999999999999
 21
90.0
 31
0.0
  0
LINE
  5
2BA
100
AcDbEntity
  8
1
  6
CONTINUOUS
 62
     7
100
AcDbLine
 10
53.99999999999999
 20
90.0
 30
0.0
 11
63.99999999999999
 21
90.0
 31
0.0
  0
LINE
  5
2BB
100
AcDbEntity
  8
1
  6
CONTINUOUS
 62
     7
100
AcDbLine
 10
65.0
 20
90.0
 30
0.0
 11
63.99999999999999
 21
90.0
 31
0.0
  0
CIRCLE
  5
2BC
100
AcDbEntity
  8
1
  6
CONTINUOUS
 62
     7
100
AcDbCircle
 10
45.0
 20
74.0
 30
0.0
 40
0.4
  0
TEXT
  5
2BD
100
AcDbEntity
  8
1
  6
CONTINUOUS
 62
     7
100
AcDbText
 10
35.04249497462545
 20
68.8681069911039
 30
0.0
 40
1.249999999999999
  1
CN3/3
  7
ARIALB
100
AcDbText
  0
ARC
  5
2BE
100
AcDbEntity
  8
1
  6
CONTINUOUS
 62
     7
100
AcDbCircle
 10
39.99999999999999
 20
67.0
 30
0.0
 40
1.000000000000003
100
AcDbArc
 50
270.0
 51
90.00000000000007
  0
LINE
  5
2BF
100
AcDbEntity
  8
1
  6
CONTINUOUS
 62
     7
100
AcDbLine
 10
41.99999999999999
 20
66.99999999999999
 30
0.0
 11
45.0
 21
66.99999999999999
 31
0.0
  0
LINE
  5
2C0
100
AcDbEntity
  8
1
  6
CONTINUOUS
 62
     7
100
AcDbLine
 10
41.99999999999999
 20
66.99999999999999
 30
0.0
 11
41.0
 21
66.99999999999999
 31
0.0
  0
LINE
  5
2C1
100
AcDbEntity
  8
1
  6
CONTINUOUS
 62
     7
100
AcDbLine
 10
45.0
 20
66.99999999999999
 30
0.0
 11
45.0
 21
63.99999999999999
 31
0.0
  0
LINE
  5
2C2
100
AcDbEntity
  8
1
  6
CONTINUOUS
 62
     7
100
AcDbLine
 10
42.99999999999999
 20
63.99999999999999
 30
0.0
 11
47.0
 21
63.99999999999999
 31
0.0
  0
CIRCLE
  5
2C3
100
AcDbEntity
  8
1
  6
CONTINUOUS
 62
     7
100
AcDbCircle
 10
45.0
 20
63.99999999999999
 30
0.0
 40
0.4
  0
TEXT
  5
2C4
100
AcDbEntity
  8
1
  6
CONTINUOUS
 62
     7
100
AcDbText
 10
41.99999999999999
 20
62.0
 30
0.0
 40
1.249999999999999
  1
+3.54V
  7
ARIALB
100
AcDbText
  0
LINE
  5
2C5
100
AcDbEntity
  8
1
  6
CONTINUOUS
 62
     7
100
AcDbLine
 10
20.0
 20
76.0
 30
0.0
 11
28.0
 21
76.0
 31
0.0
  0
LINE
  5
2C6
100
AcDbEntity
  8
1
  6
CONTINUOUS
 62
     7
100
AcDbLine
 10
14.0
 20
70.0
 30
0.0
 11
14.0
 21
65.0
 31
0.0
  0
LINE
  5
2C7
100
AcDbEntity
  8
1
  6
CONTINUOUS
 62
     7
100
AcDbLine
 10
14.0
 20
65.0
 30
0.0
 11
28.0
 21
65.0
 31
0.0
  0
CIRCLE
  5
2C8
100
AcDbEntity
  8
1
  6
CONTINUOUS
 62
     7
100
AcDbCircle
 10
29.0
 20
76.0
 30
0.0
 40
0.999999999999998
  0
CIRCLE
  5
2C9
100
AcDbEntity
  8
1
  6
CONTINUOUS
 62
     7
100
AcDbCircle
 10
29.0
 20
65.0
 30
0.0
 40
0.999999999999998
  0
LINE
  5
2CA
100
AcDbEntity
  8
1
  6
CONTINUOUS
 62
     7
100
AcDbLine
 10
20.0
 20
66.99999999999999
 30
0.0
 11
20.0
 21
65.99999999999998
 31
0.0
  0
TEXT
  5
2CB
100
AcDbEntity
  8
1
  6
CONTINUOUS
 62
     7
100
AcDbText
 10
17.65404749438111
 20
59.99228165472002
 30
0.0
 40
1.249999999999999
  1
CLIMB threshold pot
  7
ARIALB
100
AcDbText
  0
TEXT
  5
2CC
100
AcDbEntity
  8
1
  6
CONTINUOUS
 62
     7
100
AcDbText
 10
256.9999999999999
 20
107.9999999999999
 30
0.0
 40
1.249999999999999
  1
volume 2V to 9V
  7
ARIALB
100
AcDbText
  0
TEXT
  5
2CD
100
AcDbEntity
  8
1
  6
CONTINUOUS
 62
     7
100
AcDbText
 10
199.0
 20
45.99999999999999
 30
0.0
 40
1.999999999999999
  1
BC184L
  7
ARIALB
100
AcDbText
  0
TEXT
  5
2CE
100
AcDbEntity
  8
1
  6
CONTINUOUS
 62
     7
100
AcDbText
 10
201.0
 20
31.99999999999999
 30
0.0
 40
1.999999999999999
  1
BC184L
  7
ARIALB
100
AcDbText
  0
TEXT
  5
2CF
100
AcDbEntity
  8
1
  6
CONTINUOUS
 62
     7
100
AcDbText
 10
132.9999999999999
 20
78.99999999999998
 30
0.0
 40
1.999999999999999
  1
1N914
  7
ARIALB
100
AcDbText
  0
TEXT
  5
2D0
100
AcDbEntity
  8
1
  6
CONTINUOUS
 62
     7
100
AcDbText
 10
141.9999999999999
 20
97.99999999999998
 30
0.0
 40
1.999999999999999
  1
1N914
  7
ARIALB
100
AcDbText
  0
CIRCLE
  5
2D1
100
AcDbEntity
  8
1
  6
CONTINUOUS
 62
     7
100
AcDbCircle
 10
145.9999999999999
 20
93.0
 30
0.0
 40
0.4
  0
CIRCLE
  5
2D2
100
AcDbEntity
  8
1
  6
CONTINUOUS
 62
     7
100
AcDbCircle
 10
155.9999999999999
 20
93.0
 30
0.0
 40
0.4
  0
TEXT
  5
2D3
100
AcDbEntity
  8
1
  6
CONTINUOUS
 62
     7
100
AcDbText
 10
117.9999999999999
 20
137.0
 30
0.0
 40
1.999999999999999
  1
climb signal
  7
ARIALB
100
AcDbText
  0
LINE
  5
2D4
100
AcDbEntity
  8
1
  6
CONTINUOUS
 62
     7
100
AcDbLine
 10
125.0
 20
135.0
 30
0.0
 11
125.0
 21
93.0
 31
0.0
  0
CIRCLE
  5
2D5
100
AcDbEntity
  8
1
  6
CONTINUOUS
 62
     7
100
AcDbCircle
 10
125.0
 20
135.0
 30
0.0
 40
0.4
  0
TEXT
  5
2D6
100
AcDbEntity
  8
1
  6
CONTINUOUS
 62
     7
100
AcDbText
 10
85.99999999999999
 20
111.0
 30
0.0
 40
1.249999999999999
  1
+3.54V
  7
ARIALB
100
AcDbText
  0
TEXT
  5
2D7
100
AcDbEntity
  8
1
  6
CONTINUOUS
 62
     7
100
AcDbText
 10
69.0
 20
138.0
 30
0.0
 40
1.249999999999999
  1
+
  7
ARIALB
100
AcDbText
  0
TEXT
  5
2D8
100
AcDbEntity
  8
1
  6
CONTINUOUS
 62
     7
100
AcDbText
 10
69.0
 20
131.9999999999999
 30
0.0
 40
1.249999999999999
  1
-
  7
ARIALB
100
AcDbText
  0
TEXT
  5
2D9
100
AcDbEntity
  8
1
  6
CONTINUOUS
 62
     7
100
AcDbText
 10
69.0
 20
96.00000000000001
 30
0.0
 40
1.249999999999999
  1
+
  7
ARIALB
100
AcDbText
  0
TEXT
  5
2DA
100
AcDbEntity
  8
1
  6
CONTINUOUS
 62
     7
100
AcDbText
 10
69.0
 20
90.0
 30
0.0
 40
1.249999999999999
  1
-
  7
ARIALB
100
AcDbText
  0
TEXT
  5
2DB
100
AcDbEntity
  8
1
  6
CONTINUOUS
 62
     7
100
AcDbText
 10
76.0
 20
182.9999999999999
 30
0.0
 40
1.249999999999999
  1
7
  7
ARIALB
100
AcDbText
  0
TEXT
  5
2DC
100
AcDbEntity
  8
1
  6
CONTINUOUS
 62
     7
100
AcDbText
 10
76.0
 20
174.0
 30
0.0
 40
1.249999999999999
  1
4
  7
ARIALB
100
AcDbText
  0
CIRCLE
  5
2DD
100
AcDbEntity
  8
1
  6
CONTINUOUS
 62
     7
100
AcDbCircle
 10
271.9052571349227
 20
84.98933417004591
 30
0.0
 40
0.999999999999998
  0
CIRCLE
  5
2DE
100
AcDbEntity
  8
1
  6
CONTINUOUS
 62
     7
100
AcDbCircle
 10
271.9052571349227
 20
75.98933417004592
 30
0.0
 40
0.999999999999998
  0
LINE
  5
2DF
100
AcDbEntity
  8
1
  6
CONTINUOUS
 62
     7
100
AcDbLine
 10
273.9052571349227
 20
81.98933417004592
 30
0.0
 11
277.9052571349227
 21
81.98933417004592
 31
0.0
  0
LINE
  5
2E0
100
AcDbEntity
  8
1
  6
CONTINUOUS
 62
     7
100
AcDbLine
 10
274.9052571349227
 20
81.98933417004592
 30
0.0
 11
274.9052571349227
 21
80.98933417004593
 31
0.0
  0
LINE
  5
2E1
100
AcDbEntity
  8
1
  6
CONTINUOUS
 62
     7
100
AcDbLine
 10
274.9052571349227
 20
80.98933417004593
 30
0.0
 11
277.9052571349227
 21
80.98933417004593
 31
0.0
  0
LINE
  5
2E2
100
AcDbEntity
  8
1
  6
CONTINUOUS
 62
     7
100
AcDbLine
 10
277.9052571349227
 20
81.98933417004592
 30
0.0
 11
278.9052571349227
 21
81.98933417004592
 31
0.0
  0
LINE
  5
2E3
100
AcDbEntity
  8
1
  6
CONTINUOUS
 62
     7
100
AcDbLine
 10
273.9052571349227
 20
79.98933417004592
 30
0.0
 11
278.9052571349227
 21
79.98933417004592
 31
0.0
  0
LINE
  5
2E4
100
AcDbEntity
  8
1
  6
CONTINUOUS
 62
     7
100
AcDbLine
 10
273.9052571349227
 20
84.98933417004591
 30
0.0
 11
276.9052571349227
 21
84.98933417004591
 31
0.0
  0
LINE
  5
2E5
100
AcDbEntity
  8
1
  6
CONTINUOUS
 62
     7
100
AcDbLine
 10
272.9052571349228
 20
84.98933417004591
 30
0.0
 11
273.9052571349227
 21
84.98933417004591
 31
0.0
  0
LINE
  5
2E6
100
AcDbEntity
  8
1
  6
CONTINUOUS
 62
     7
100
AcDbLine
 10
276.9052571349227
 20
84.98933417004591
 30
0.0
 11
276.9052571349227
 21
81.98933417004592
 31
0.0
  0
LINE
  5
2E7
100
AcDbEntity
  8
1
  6
CONTINUOUS
 62
     7
100
AcDbLine
 10
272.9052571349228
 20
75.98933417004592
 30
0.0
 11
276.9052571349227
 21
75.98933417004592
 31
0.0
  0
LINE
  5
2E8
100
AcDbEntity
  8
1
  6
CONTINUOUS
 62
     7
100
AcDbLine
 10
276.9052571349227
 20
75.98933417004592
 30
0.0
 11
276.9052571349227
 21
79.98933417004592
 31
0.0
  0
LINE
  5
2E9
100
AcDbEntity
  8
1
  6
CONTINUOUS
 62
     7
100
AcDbLine
 10
278.9052571349227
 20
79.98933417004592
 30
0.0
 11
279.9052571349227
 21
79.98933417004592
 31
0.0
  0
LINE
  5
2EA
100
AcDbEntity
  8
1
  6
CONTINUOUS
 62
     7
100
AcDbLine
 10
278.9052571349227
 20
81.98933417004592
 30
0.0
 11
279.9052571349227
 21
81.98933417004592
 31
0.0
  0
LINE
  5
2EB
100
AcDbEntity
  8
1
  6
CONTINUOUS
 62
     7
100
AcDbLine
 10
277.9052571349227
 20
80.98933417004593
 30
0.0
 11
278.9052571349227
 21
80.98933417004593
 31
0.0
  0
LINE
  5
2EC
100
AcDbEntity
  8
1
  6
CONTINUOUS
 62
     7
100
AcDbLine
 10
278.9052571349227
 20
80.98933417004593
 30
0.0
 11
278.9052571349227
 21
81.98933417004592
 31
0.0
  0
MTEXT
  5
2ED
100
AcDbEntity
  8
1
  6
CONTINUOUS
 62
     7
100
AcDbMText
 10
264.4881585901323
 20
78.72394158106775
 30
0.0
 40
1.249999999999999
 41
0.0
 71
     7
 72
     1
  1
piezoceramic \Psounder
  7
ARIALB
  0
LINE
  5
2EE
100
AcDbEntity
  8
1
  6
CONTINUOUS
 62
     7
100
AcDbLine
 10
85.99999999999999
 20
163.0
 30
0.0
 11
88.0
 21
163.0
 31
0.0
  0
LINE
  5
2EF
100
AcDbEntity
  8
1
  6
CONTINUOUS
 62
     7
100
AcDbLine
 10
88.0
 20
168.9999999999999
 30
0.0
 11
88.0
 21
163.0
 31
0.0
  0
LINE
  5
2F0
100
AcDbEntity
  8
1
  6
CONTINUOUS
 62
     7
100
AcDbLine
 10
85.99999999999999
 20
163.0
 30
0.0
 11
85.99999999999999
 21
168.9999999999999
 31
0.0
  0
LINE
  5
2F1
100
AcDbEntity
  8
1
  6
CONTINUOUS
 62
     7
100
AcDbLine
 10
85.99999999999999
 20
168.9999999999999
 30
0.0
 11
88.0
 21
168.9999999999999
 31
0.0
  0
LINE
  5
2F2
100
AcDbEntity
  8
1
  6
CONTINUOUS
 62
     7
100
AcDbLine
 10
90.0
 20
163.0
 30
0.0
 11
91.99999999999999
 21
163.0
 31
0.0
  0
LINE
  5
2F3
100
AcDbEntity
  8
1
  6
CONTINUOUS
 62
     7
100
AcDbLine
 10
91.99999999999999
 20
168.9999999999999
 30
0.0
 11
91.99999999999999
 21
163.0
 31
0.0
  0
LINE
  5
2F4
100
AcDbEntity
  8
1
  6
CONTINUOUS
 62
     7
100
AcDbLine
 10
90.0
 20
163.0
 30
0.0
 11
90.0
 21
168.9999999999999
 31
0.0
  0
LINE
  5
2F5
100
AcDbEntity
  8
1
  6
CONTINUOUS
 62
     7
100
AcDbLine
 10
90.0
 20
168.9999999999999
 30
0.0
 11
91.99999999999999
 21
168.9999999999999
 31
0.0
  0
LINE
  5
2F6
100
AcDbEntity
  8
1
  6
CONTINUOUS
 62
     7
100
AcDbLine
 10
87.00000000000001
 20
170.9999999999999
 30
0.0
 11
87.00000000000001
 21
169.9999999999999
 31
0.0
  0
LINE
  5
2F7
100
AcDbEntity
  8
1
  6
CONTINUOUS
 62
     7
100
AcDbLine
 10
87.00000000000001
 20
168.9999999999999
 30
0.0
 11
87.00000000000001
 21
169.9999999999999
 31
0.0
  0
LINE
  5
2F8
100
AcDbEntity
  8
1
  6
CONTINUOUS
 62
     7
100
AcDbLine
 10
87.00000000000001
 20
169.9999999999999
 30
0.0
 11
90.99999999999999
 21
169.9999999999999
 31
0.0
  0
LINE
  5
2F9
100
AcDbEntity
  8
1
  6
CONTINUOUS
 62
     7
100
AcDbLine
 10
90.99999999999999
 20
169.9999999999999
 30
0.0
 11
90.99999999999999
 21
168.9999999999999
 31
0.0
  0
LINE
  5
2FA
100
AcDbEntity
  8
1
  6
CONTINUOUS
 62
     7
100
AcDbLine
 10
87.00000000000001
 20
163.0
 30
0.0
 11
87.00000000000001
 21
157.9999999999999
 31
0.0
  0
LINE
  5
2FB
100
AcDbEntity
  8
1
  6
CONTINUOUS
 62
     7
100
AcDbLine
 10
85.99999999999999
 20
161.0
 30
0.0
 11
87.00000000000001
 21
161.0
 31
0.0
  0
LINE
  5
2FC
100
AcDbEntity
  8
1
  6
CONTINUOUS
 62
     7
100
AcDbLine
 10
87.00000000000001
 20
161.0
 30
0.0
 11
90.99999999999999
 21
161.0
 31
0.0
  0
LINE
  5
2FD
100
AcDbEntity
  8
1
  6
CONTINUOUS
 62
     7
100
AcDbLine
 10
90.99999999999999
 20
161.0
 30
0.0
 11
90.99999999999999
 21
163.0
 31
0.0
  0
CIRCLE
  5
2FE
100
AcDbEntity
  8
1
  6
CONTINUOUS
 62
     7
100
AcDbCircle
 10
87.00000000000001
 20
161.0
 30
0.0
 40
0.4
  0
CIRCLE
  5
2FF
100
AcDbEntity
  8
1
  6
CONTINUOUS
 62
     7
100
AcDbCircle
 10
87.00000000000001
 20
169.9999999999999
 30
0.0
 40
0.4
  0
TEXT
  5
300
100
AcDbEntity
  8
1
  6
CONTINUOUS
 62
     7
100
AcDbText
 10
82.00000000000001
 20
165.0
 30
0.0
 40
1.249999999999999
  1
24k
  7
ARIALB
100
AcDbText
  0
TEXT
  5
301
100
AcDbEntity
  8
1
  6
CONTINUOUS
 62
     7
100
AcDbText
 10
93.0
 20
165.0
 30
0.0
 40
1.249999999999999
  1
SOT
  7
ARIALB
100
AcDbText
  0
CIRCLE
  5
302
100
AcDbEntity
  8
1
  6
CONTINUOUS
 62
     7
100
AcDbCircle
 10
30.0
 20
138.0
 30
0.0
 40
0.4
  0
ENDSEC
  0
SECTION
  2
OBJECTS
  0
DICTIONARY
  5
C
100
AcDbDictionary
  3
ACAD_GROUP
350
D
  3
ACAD_MLINESTYLE
350
1B
  0
DICTIONARY
  5
D
102
{ACAD_REACTORS
330
C
102
}
100
AcDbDictionary
  0
DICTIONARY
  5
1B
102
{ACAD_REACTORS
330
C
102
}
100
AcDbDictionary
  3
STANDARD
350
1C
  0
MLINESTYLE
  5
1C
102
{ACAD_REACTORS
330
1B
102
}
100
AcDbMlineStyle
  2
STANDARD
 70
     0
  3

 62
   256
 51
90.0
 52
90.0
 71
     2
 49
0.5
 62
   256
  6
BYLAYER
 49
-0.5
 62
   256
  6
BYLAYER
  0
ENDSEC
  0
EOF
