  0
SECTION
  2
HEADER
  9
$ACADVER
  1
AC1014
  9
$ACADMAINTVER
 70
     5
  9
$DWGCODEPAGE
  3
ANSI_1252
  9
$INSBASE
 10
0.0
 20
0.0
 30
0.0
  9
$EXTMIN
 10
1.000000000000000E+20
 20
1.000000000000000E+20
 30
1.000000000000000E+20
  9
$EXTMAX
 10
-1.000000000000000E+20
 20
-1.000000000000000E+20
 30
-1.000000000000000E+20
  9
$LIMMIN
 10
0.0
 20
0.0
  9
$LIMMAX
 10
12.0
 20
9.0
  9
$ORTHOMODE
 70
     0
  9
$REGENMODE
 70
     1
  9
$FILLMODE
 70
     1
  9
$QTEXTMODE
 70
     0
  9
$MIRRTEXT
 70
     1
  9
$DRAGMODE
 70
     2
  9
$LTSCALE
 40
1.0
  9
$OSMODE
 70
     8
  9
$ATTMODE
 70
     1
  9
$TEXTSIZE
 40
19.99999999999999
  9
$TRACEWID
 40
0.05
  9
$TEXTSTYLE
  7
STANDARD
  9
$CLAYER
  8
0
  9
$CELTYPE
  6
BYLAYER
  9
$CECOLOR
 62
   256
  9
$CELTSCALE
 40
1.0
  9
$DELOBJ
 70
     1
  9
$DISPSILH
 70
     0
  9
$DIMSCALE
 40
1.0
  9
$DIMASZ
 40
0.18
  9
$DIMEXO
 40
0.0625
  9
$DIMDLI
 40
0.38
  9
$DIMRND
 40
0.0
  9
$DIMDLE
 40
0.0
  9
$DIMEXE
 40
0.18
  9
$DIMTP
 40
0.0
  9
$DIMTM
 40
0.0
  9
$DIMTXT
 40
0.3149606299212598
  9
$DIMCEN
 40
0.09
  9
$DIMTSZ
 40
0.0
  9
$DIMTOL
 70
     0
  9
$DIMLIM
 70
     0
  9
$DIMTIH
 70
     1
  9
$DIMTOH
 70
     1
  9
$DIMSE1
 70
     0
  9
$DIMSE2
 70
     0
  9
$DIMTAD
 70
     0
  9
$DIMZIN
 70
     0
  9
$DIMBLK
  1

  9
$DIMASO
 70
     1
  9
$DIMSHO
 70
     1
  9
$DIMPOST
  1

  9
$DIMAPOST
  1

  9
$DIMALT
 70
     0
  9
$DIMALTD
 70
     2
  9
$DIMALTF
 40
25.4
  9
$DIMLFAC
 40
1.0
  9
$DIMTOFL
 70
     0
  9
$DIMTVP
 40
0.0
  9
$DIMTIX
 70
     0
  9
$DIMSOXD
 70
     0
  9
$DIMSAH
 70
     0
  9
$DIMBLK1
  1

  9
$DIMBLK2
  1

  9
$DIMSTYLE
  2
STANDARD
  9
$DIMCLRD
 70
     0
  9
$DIMCLRE
 70
     0
  9
$DIMCLRT
 70
     0
  9
$DIMTFAC
 40
1.0
  9
$DIMGAP
 40
0.09
  9
$DIMJUST
 70
     0
  9
$DIMSD1
 70
     0
  9
$DIMSD2
 70
     0
  9
$DIMTOLJ
 70
     1
  9
$DIMTZIN
 70
     0
  9
$DIMALTZ
 70
     0
  9
$DIMALTTZ
 70
     0
  9
$DIMFIT
 70
     3
  9
$DIMUPT
 70
     0
  9
$DIMUNIT
 70
     4
  9
$DIMDEC
 70
     2
  9
$DIMTDEC
 70
     4
  9
$DIMALTU
 70
     2
  9
$DIMALTTD
 70
     2
  9
$DIMTXSTY
  7
STANDARD
  9
$DIMAUNIT
 70
     1
  9
$LUNITS
 70
     2
  9
$LUPREC
 70
     2
  9
$SKETCHINC
 40
0.1
  9
$FILLETRAD
 40
4.999999999999999
  9
$AUNITS
 70
     0
  9
$AUPREC
 70
     2
  9
$MENU
  1
.
  9
$ELEVATION
 40
0.0
  9
$PELEVATION
 40
0.0
  9
$THICKNESS
 40
0.0
  9
$LIMCHECK
 70
     0
  9
$BLIPMODE
 70
     0
  9
$CHAMFERA
 40
4.999999999999999
  9
$CHAMFERB
 40
4.999999999999999
  9
$CHAMFERC
 40
0.0
  9
$CHAMFERD
 40
0.0
  9
$SKPOLY
 70
     0
  9
$TDCREATE
 40
0.0000000000
  9
$TDUPDATE
 40
0.0000000000
  9
$TDINDWG
 40
0.0000000000
  9
$TDUSRTIMER
 40
0.0000000000
  9
$USRTIMER
 70
     1
  9
$ANGBASE
 50
0.0
  9
$ANGDIR
 70
     0
  9
$PDMODE
 70
     0
  9
$PDSIZE
 40
0.0
  9
$PLINEWID
 40
0.0
  9
$COORDS
 70
     1
  9
$SPLFRAME
 70
     0
  9
$SPLINETYPE
 70
     6
  9
$SPLINESEGS
 70
     8
  9
$ATTDIA
 70
     0
  9
$ATTREQ
 70
     1
  9
$HANDLING
 70
     1
  9
$HANDSEED
  5
150
  9
$SURFTAB1
 70
     6
  9
$SURFTAB2
 70
     6
  9
$SURFTYPE
 70
     6
  9
$SURFU
 70
     6
  9
$SURFV
 70
     6
  9
$UCSNAME
  2

  9
$UCSORG
 10
0.0
 20
0.0
 30
0.0
  9
$UCSXDIR
 10
1.0
 20
0.0
 30
0.0
  9
$UCSYDIR
 10
0.0
 20
1.0
 30
0.0
  9
$PUCSNAME
  2

  9
$PUCSORG
 10
0.0
 20
0.0
 30
0.0
  9
$PUCSXDIR
 10
1.0
 20
0.0
 30
0.0
  9
$PUCSYDIR
 10
0.0
 20
1.0
 30
0.0
  9
$USERI1
 70
     0
  9
$USERI2
 70
     0
  9
$USERI3
 70
     0
  9
$USERI4
 70
     0
  9
$USERI5
 70
     0
  9
$USERR1
 40
0.0
  9
$USERR2
 40
0.0
  9
$USERR3
 40
0.0
  9
$USERR4
 40
0.0
  9
$USERR5
 40
0.0
  9
$WORLDVIEW
 70
     1
  9
$SHADEDGE
 70
     3
  9
$SHADEDIF
 70
    70
  9
$TILEMODE
 70
     1
  9
$MAXACTVP
 70
    48
  9
$PINSBASE
 10
0.0
 20
0.0
 30
0.0
  9
$PLIMCHECK
 70
     0
  9
$PEXTMIN
 10
1.000000000000000E+20
 20
1.000000000000000E+20
 30
1.000000000000000E+20
  9
$PEXTMAX
 10
-1.000000000000000E+20
 20
-1.000000000000000E+20
 30
-1.000000000000000E+20
  9
$PLIMMIN
 10
0.0
 20
0.0
  9
$PLIMMAX
 10
12.0
 20
9.0
  9
$UNITMODE
 70
     0
  9
$VISRETAIN
 70
     1
  9
$PLINEGEN
 70
     0
  9
$PSLTSCALE
 70
     1
  9
$TREEDEPTH
 70
  3020
  9
$PICKSTYLE
 70
     1
  9
$CMLSTYLE
  2
STANDARD
  9
$CMLJUST
 70
     0
  9
$CMLSCALE
 40
1.0
  9
$PROXYGRAPHICS
 70
     1
  9
$MEASUREMENT
 70
     1
  0
ENDSEC
  0
SECTION
  2
CLASSES
  0
CLASS
  1
LWPOLYLINE
  2
AcDbPolyline
  3
"AutoCAD"
 90
        0
280
     0
281
     1
  0
ENDSEC
  0
SECTION
  2
TABLES
  0
TABLE
  2
VPORT
  5
8
100
AcDbSymbolTable
 70
     1
  0
VPORT
  5
11
100
AcDbSymbolTableRecord
100
AcDbViewportTableRecord
  2
*ACTIVE
 70
     0
 10
0.0
 20
0.0
 11
1.0
 21
1.0
 12
3.6
 22
4.5
 13
0.0
 23
0.0
 14
1.0
 24
1.0
 15
0.0
 25
0.0
 16
0.0
 26
0.0
 36
1.0
 17
0.0
 27
0.0
 37
0.0
 40
15.0
 41
0.8
 42
50.0
 43
0.0
 44
0.0
 50
0.0
 51
0.0
 71
     0
 72
   100
 73
     1
 74
     1
 75
     0
 76
     0
 77
     0
 78
     0
  0
ENDTAB
  0
TABLE
  2
LTYPE
  5
5
100
AcDbSymbolTable
 70
    40
  0
LTYPE
  5
12
100
AcDbSymbolTableRecord
100
AcDbLinetypeTableRecord
  2
BYBLOCK
 70
     0
  3

 72
    65
 73
     0
 40
0.0
  0
LTYPE
  5
13
100
AcDbSymbolTableRecord
100
AcDbLinetypeTableRecord
  2
BYLAYER
 70
     0
  3

 72
    65
 73
     0
 40
0.0
  0
LTYPE
  5
14
100
AcDbSymbolTableRecord
100
AcDbLinetypeTableRecord
  2
CONTINUOUS
 70
     0
  3
Solid line
 72
    65
 73
     0
 40
0.0
  0
LTYPE
  5
1E
100
AcDbSymbolTableRecord
100
AcDbLinetypeTableRecord
  2
HIDDEN
 70
     0
  3
_ _ _ _ _ _ _ _ _ _ _ _ _ _ 
 72
    65
 73
     2
 40
9.524999999999998
 49
6.349999999999999
 74
     0
 49
-3.174999999999999
 74
     0
  0
LTYPE
  5
1F
100
AcDbSymbolTableRecord
100
AcDbLinetypeTableRecord
  2
DASHED
 70
     0
  3
__ __ __ __ __ __ __ __ __ 
 72
    65
 73
     2
 40
19.04999999999999
 49
12.7
 74
     0
 49
-6.349999999999999
 74
     0
  0
LTYPE
  5
20
100
AcDbSymbolTableRecord
100
AcDbLinetypeTableRecord
  2
CENTER
 70
     0
  3
____ _ ____ _ ____ _ ____ _ 
 72
    65
 73
     4
 40
50.8
 49
31.75
 74
     0
 49
-6.349999999999999
 74
     0
 49
6.349999999999999
 74
     0
 49
-6.349999999999999
 74
     0
  0
LTYPE
  5
21
100
AcDbSymbolTableRecord
100
AcDbLinetypeTableRecord
  2
PHANTOM
 70
     0
  3
_____ _ _ _____ _ _ _____ _ _ 
 72
    65
 73
     6
 40
63.50000000000001
 49
31.75
 74
     0
 49
-6.349999999999999
 74
     0
 49
6.349999999999999
 74
     0
 49
-6.349999999999999
 74
     0
 49
6.349999999999999
 74
     0
 49
-6.349999999999999
 74
     0
  0
LTYPE
  5
22
100
AcDbSymbolTableRecord
100
AcDbLinetypeTableRecord
  2
DOT
 70
     0
  3
...........................
 72
    65
 73
     2
 40
6.349999999999999
 49
0.0
 74
     0
 49
-6.349999999999999
 74
     0
  0
LTYPE
  5
23
100
AcDbSymbolTableRecord
100
AcDbLinetypeTableRecord
  2
DASHDOT
 70
     0
  3
__ . __ . __ . __ . __ . __ . 
 72
    65
 73
     4
 40
25.4
 49
12.7
 74
     0
 49
-6.349999999999999
 74
     0
 49
0.0
 74
     0
 49
-6.349999999999999
 74
     0
  0
LTYPE
  5
24
100
AcDbSymbolTableRecord
100
AcDbLinetypeTableRecord
  2
DIVIDE
 70
     0
  3
__ . . __ . . __ . . __ . . 
 72
    65
 73
     6
 40
31.75
 49
12.7
 74
     0
 49
-6.349999999999999
 74
     0
 49
0.0
 74
     0
 49
-6.349999999999999
 74
     0
 49
0.0
 74
     0
 49
-6.349999999999999
 74
     0
  0
LTYPE
  5
25
100
AcDbSymbolTableRecord
100
AcDbLinetypeTableRecord
  2
BORDER
 70
     0
  3
__ __ . __ __ . __ __ . __ __ .
 72
    65
 73
     6
 40
44.44999999999999
 49
12.7
 74
     0
 49
-6.349999999999999
 74
     0
 49
12.7
 74
     0
 49
-6.349999999999999
 74
     0
 49
0.0
 74
     0
 49
-6.349999999999999
 74
     0
  0
LTYPE
  5
26
100
AcDbSymbolTableRecord
100
AcDbLinetypeTableRecord
  2
BORDER2
 70
     0
  3
Border (.5x) __.__.__.__.__.__.
 72
    65
 73
     6
 40
0.875
 49
0.25
 74
     0
 49
-0.125
 74
     0
 49
0.25
 74
     0
 49
-0.125
 74
     0
 49
0.0
 74
     0
 49
-0.125
 74
     0
  0
LTYPE
  5
27
100
AcDbSymbolTableRecord
100
AcDbLinetypeTableRecord
  2
BORDERX2
 70
     0
  3
Border (2x) ____  ____  .  ____
 72
    65
 73
     6
 40
3.5
 49
1.0
 74
     0
 49
-0.5
 74
     0
 49
1.0
 74
     0
 49
-0.5
 74
     0
 49
0.0
 74
     0
 49
-0.5
 74
     0
  0
LTYPE
  5
28
100
AcDbSymbolTableRecord
100
AcDbLinetypeTableRecord
  2
CENTER2
 70
     0
  3
Center (.5x) ___ _ ___ _ ___ _ 
 72
    65
 73
     4
 40
1.125
 49
0.7500000000000001
 74
     0
 49
-0.125
 74
     0
 49
0.125
 74
     0
 49
-0.125
 74
     0
  0
LTYPE
  5
29
100
AcDbSymbolTableRecord
100
AcDbLinetypeTableRecord
  2
CENTERX2
 70
     0
  3
Center (2x) ________  __  _____
 72
    65
 73
     4
 40
4.0
 49
2.5
 74
     0
 49
-0.5
 74
     0
 49
0.5
 74
     0
 49
-0.5
 74
     0
  0
LTYPE
  5
2A
100
AcDbSymbolTableRecord
100
AcDbLinetypeTableRecord
  2
DASHDOT2
 70
     0
  3
Dash dot (.5x) _._._._._._._._.
 72
    65
 73
     4
 40
0.5
 49
0.25
 74
     0
 49
-0.125
 74
     0
 49
0.0
 74
     0
 49
-0.125
 74
     0
  0
LTYPE
  5
2B
100
AcDbSymbolTableRecord
100
AcDbLinetypeTableRecord
  2
DASHDOTX2
 70
     0
  3
Dash dot (2x) ____  .  ____  . 
 72
    65
 73
     4
 40
2.0
 49
1.0
 74
     0
 49
-0.5
 74
     0
 49
0.0
 74
     0
 49
-0.5
 74
     0
  0
LTYPE
  5
2C
100
AcDbSymbolTableRecord
100
AcDbLinetypeTableRecord
  2
DASHED2
 70
     0
  3
Dashed (.5x) _ _ _ _ _ _ _ _ _ 
 72
    65
 73
     2
 40
0.375
 49
0.25
 74
     0
 49
-0.125
 74
     0
  0
LTYPE
  5
2D
100
AcDbSymbolTableRecord
100
AcDbLinetypeTableRecord
  2
DASHEDX2
 70
     0
  3
Dashed (2x) ____  ____  ____  _
 72
    65
 73
     2
 40
1.5
 49
1.0
 74
     0
 49
-0.5
 74
     0
  0
LTYPE
  5
2E
100
AcDbSymbolTableRecord
100
AcDbLinetypeTableRecord
  2
DIVIDE2
 70
     0
  3
Divide (.5x) __..__..__..__..__
 72
    65
 73
     6
 40
0.625
 49
0.25
 74
     0
 49
-0.125
 74
     0
 49
0.0
 74
     0
 49
-0.125
 74
     0
 49
0.0
 74
     0
 49
-0.125
 74
     0
  0
LTYPE
  5
2F
100
AcDbSymbolTableRecord
100
AcDbLinetypeTableRecord
  2
DIVIDEX2
 70
     0
  3
Divide (2x) ________  .  .  ___
 72
    65
 73
     6
 40
2.5
 49
1.0
 74
     0
 49
-0.5
 74
     0
 49
0.0
 74
     0
 49
-0.5
 74
     0
 49
0.0
 74
     0
 49
-0.5
 74
     0
  0
LTYPE
  5
30
100
AcDbSymbolTableRecord
100
AcDbLinetypeTableRecord
  2
DOT2
 70
     0
  3
Dot (.5x) .....................
 72
    65
 73
     2
 40
0.125
 49
0.0
 74
     0
 49
-0.125
 74
     0
  0
LTYPE
  5
31
100
AcDbSymbolTableRecord
100
AcDbLinetypeTableRecord
  2
DOTX2
 70
     0
  3
Dot (2x) .  .  .  .  .  .  .  .
 72
    65
 73
     2
 40
0.5
 49
0.0
 74
     0
 49
-0.5
 74
     0
  0
LTYPE
  5
32
100
AcDbSymbolTableRecord
100
AcDbLinetypeTableRecord
  2
HIDDEN2
 70
     0
  3
Hidden (.5x) _ _ _ _ _ _ _ _ _ 
 72
    65
 73
     2
 40
0.1875
 49
0.125
 74
     0
 49
-0.0625
 74
     0
  0
LTYPE
  5
33
100
AcDbSymbolTableRecord
100
AcDbLinetypeTableRecord
  2
HIDDENX2
 70
     0
  3
Hidden (2x) ____ ____ ____ ____
 72
    65
 73
     2
 40
0.75
 49
0.5
 74
     0
 49
-0.25
 74
     0
  0
LTYPE
  5
34
100
AcDbSymbolTableRecord
100
AcDbLinetypeTableRecord
  2
PHANTOM2
 70
     0
  3
Phantom (.5x) ___ _ _ ___ _ _ _
 72
    65
 73
     6
 40
1.25
 49
0.6250000000000001
 74
     0
 49
-0.125
 74
     0
 49
0.125
 74
     0
 49
-0.125
 74
     0
 49
0.125
 74
     0
 49
-0.125
 74
     0
  0
LTYPE
  5
35
100
AcDbSymbolTableRecord
100
AcDbLinetypeTableRecord
  2
PHANTOMX2
 70
     0
  3
Phantom (2x) ____________    __
 72
    65
 73
     6
 40
5.0
 49
2.5
 74
     0
 49
-0.5
 74
     0
 49
0.5
 74
     0
 49
-0.5
 74
     0
 49
0.5
 74
     0
 49
-0.5
 74
     0
  0
LTYPE
  5
36
100
AcDbSymbolTableRecord
100
AcDbLinetypeTableRecord
  2
DOTS
 70
     0
  3
Dots - - - - - - - - - - - - - 
 72
    65
 73
     2
 40
0.1
 49
0.05
 74
     0
 49
-0.05
 74
     0
  0
LTYPE
  5
37
100
AcDbSymbolTableRecord
100
AcDbLinetypeTableRecord
  2
ACAD_ISO02W100
 70
     0
  3
__ __ __ __ __ __ __ __ __ __ _
 72
    65
 73
     2
 40
15.0
 49
12.0
 74
     0
 49
-3.0
 74
     0
  0
LTYPE
  5
38
100
AcDbSymbolTableRecord
100
AcDbLinetypeTableRecord
  2
ACAD_ISO03W100
 70
     0
  3
__    __    __    __    __    _
 72
    65
 73
     2
 40
30.0
 49
12.0
 74
     0
 49
-18.0
 74
     0
  0
LTYPE
  5
39
100
AcDbSymbolTableRecord
100
AcDbLinetypeTableRecord
  2
ACAD_ISO04W100
 70
     0
  3
____ . ____ . ____ . ____ . ___
 72
    65
 73
     4
 40
30.5
 49
24.0
 74
     0
 49
-3.0
 74
     0
 49
0.5
 74
     0
 49
-3.0
 74
     0
  0
LTYPE
  5
3A
100
AcDbSymbolTableRecord
100
AcDbLinetypeTableRecord
  2
ACAD_ISO05W100
 70
     0
  3
____ .. ____ .. ____ .. ____ ..
 72
    65
 73
     6
 40
34.0
 49
24.0
 74
     0
 49
-3.0
 74
     0
 49
0.5
 74
     0
 49
-3.0
 74
     0
 49
0.5
 74
     0
 49
-3.0
 74
     0
  0
LTYPE
  5
3B
100
AcDbSymbolTableRecord
100
AcDbLinetypeTableRecord
  2
ACAD_ISO06W100
 70
     0
  3
____ ... ____ ... ____ ... ____
 72
    65
 73
     6
 40
34.0
 49
24.0
 74
     0
 49
-3.0
 74
     0
 49
0.5
 74
     0
 49
-3.0
 74
     0
 49
0.5
 74
     0
 49
-3.0
 74
     0
  0
LTYPE
  5
3C
100
AcDbSymbolTableRecord
100
AcDbLinetypeTableRecord
  2
ACAD_ISO07W100
 70
     0
  3
. . . . . . . . . . . . . . . .
 72
    65
 73
     2
 40
3.5
 49
0.5
 74
     0
 49
-3.0
 74
     0
  0
LTYPE
  5
3D
100
AcDbSymbolTableRecord
100
AcDbLinetypeTableRecord
  2
ACAD_ISO08W100
 70
     0
  3
____ __ ____ __ ____ __ ____ __
 72
    65
 73
     4
 40
36.0
 49
24.0
 74
     0
 49
-3.0
 74
     0
 49
6.0
 74
     0
 49
-3.0
 74
     0
  0
LTYPE
  5
3E
100
AcDbSymbolTableRecord
100
AcDbLinetypeTableRecord
  2
ACAD_ISO09W100
 70
     0
  3
____ __ __ ____ __ __ ____ __ _
 72
    65
 73
     6
 40
45.0
 49
24.0
 74
     0
 49
-3.0
 74
     0
 49
6.0
 74
     0
 49
-3.0
 74
     0
 49
6.0
 74
     0
 49
-3.0
 74
     0
  0
LTYPE
  5
3F
100
AcDbSymbolTableRecord
100
AcDbLinetypeTableRecord
  2
ACAD_ISO10W100
 70
     0
  3
__ . __ . __ . __ . __ . __ . _
 72
    65
 73
     4
 40
18.5
 49
12.0
 74
     0
 49
-3.0
 74
     0
 49
0.5
 74
     0
 49
-3.0
 74
     0
  0
LTYPE
  5
40
100
AcDbSymbolTableRecord
100
AcDbLinetypeTableRecord
  2
ACAD_ISO11W100
 70
     0
  3
__ __ . __ __ . __ __ . __ __ .
 72
    65
 73
     6
 40
33.5
 49
12.0
 74
     0
 49
-3.0
 74
     0
 49
12.0
 74
     0
 49
-3.0
 74
     0
 49
0.5
 74
     0
 49
-3.0
 74
     0
  0
LTYPE
  5
41
100
AcDbSymbolTableRecord
100
AcDbLinetypeTableRecord
  2
ACAD_ISO12W100
 70
     0
  3
__ . . __ . . __ . . __ . . __ 
 72
    65
 73
     6
 40
22.0
 49
12.0
 74
     0
 49
-3.0
 74
     0
 49
0.5
 74
     0
 49
-3.0
 74
     0
 49
0.5
 74
     0
 49
-3.0
 74
     0
  0
LTYPE
  5
42
100
AcDbSymbolTableRecord
100
AcDbLinetypeTableRecord
  2
ACAD_ISO13W100
 70
     0
  3
__ __ . . __ __ . . __ __ . . _
 72
    65
 73
     6
 40
33.5
 49
12.0
 74
     0
 49
-3.0
 74
     0
 49
12.0
 74
     0
 49
-3.0
 74
     0
 49
0.5
 74
     0
 49
-3.0
 74
     0
  0
LTYPE
  5
43
100
AcDbSymbolTableRecord
100
AcDbLinetypeTableRecord
  2
ACAD_ISO14W100
 70
     0
  3
__ . . . __ . . . __ . . . __ .
 72
    65
 73
     6
 40
22.0
 49
12.0
 74
     0
 49
-3.0
 74
     0
 49
0.5
 74
     0
 49
-3.0
 74
     0
 49
0.5
 74
     0
 49
-3.0
 74
     0
  0
LTYPE
  5
44
100
AcDbSymbolTableRecord
100
AcDbLinetypeTableRecord
  2
ACAD_ISO15W100
 70
     0
  3
__ __ . . . __ __ . . . __ __ .
 72
    65
 73
     6
 40
33.5
 49
12.0
 74
     0
 49
-3.0
 74
     0
 49
12.0
 74
     0
 49
-3.0
 74
     0
 49
0.5
 74
     0
 49
-3.0
 74
     0
  0
ENDTAB
  0
TABLE
  2
LAYER
  5
2
100
AcDbSymbolTable
 70
     2
  0
LAYER
  5
E
100
AcDbSymbolTableRecord
100
AcDbLayerTableRecord
  2
0
 70
     0
 62
     7
  6
CONTINUOUS
  0
LAYER
  5
45
100
AcDbSymbolTableRecord
100
AcDbLayerTableRecord
  2
1
 70
     0
 62
     7
  6
CONTINUOUS
  0
ENDTAB
  0
TABLE
  2
STYLE
  5
3
100
AcDbSymbolTable
 70
     5
  0
STYLE
  5
F
100
AcDbSymbolTableRecord
100
AcDbTextStyleTableRecord
  2
STANDARD
 70
     0
 40
0.0
 41
1.0
 50
0.0
 71
     0
 42
19.99999999999999
  3
txt
  4

  0
STYLE
  5
46
100
AcDbSymbolTableRecord
100
AcDbTextStyleTableRecord
  2
ITALIC
 70
     0
 40
0.0
 41
1.0
 50
0.0
 71
     0
 42
19.99999999999999
  3
ITALIC
  4

  0
STYLE
  5
47
100
AcDbSymbolTableRecord
100
AcDbTextStyleTableRecord
  2
SIMPLEX
 70
     0
 40
0.0
 41
1.0
 50
0.0
 71
     0
 42
19.99999999999999
  3
SIMPLEX
  4

  0
STYLE
  5
48
100
AcDbSymbolTableRecord
100
AcDbTextStyleTableRecord
  2
COMPLEX
 70
     0
 40
0.0
 41
1.0
 50
0.0
 71
     0
 42
19.99999999999999
  3
COMPLEX
  4

  0
STYLE
  5
4B
100
AcDbSymbolTableRecord
100
AcDbTextStyleTableRecord
  2
ARIALB
 70
     0
 40
0.0
 41
1.0
 50
0.0
 71
     0
 42
19.99999999999999
  3
ARIALBD.TTF
  4

1001
ACAD
1000
Arial
1071
 33554432
  0
ENDTAB
  0
TABLE
  2
VIEW
  5
6
100
AcDbSymbolTable
 70
     0
  0
ENDTAB
  0
TABLE
  2
UCS
  5
7
100
AcDbSymbolTable
 70
     0
  0
ENDTAB
  0
TABLE
  2
APPID
  5
9
100
AcDbSymbolTable
 70
     1
  0
APPID
  5
10
100
AcDbSymbolTableRecord
100
AcDbRegAppTableRecord
  2
ACAD
 70
     0
  0
ENDTAB
  0
TABLE
  2
DIMSTYLE
  5
A
100
AcDbSymbolTable
 70
     1
  0
DIMSTYLE
105
1D
100
AcDbSymbolTableRecord
100
AcDbDimStyleTableRecord
  2
STANDARD
 70
     0
  3

  4

  5

  6

  7

 40
1.0
 41
0.18
 42
0.0625
 43
0.38
 44
0.18
 45
0.0
 46
0.0
 47
0.0
 48
0.0
140
0.18
141
0.09
142
0.0
143
25.4
144
1.0
145
0.0
146
1.0
147
0.09
 71
     0
 72
     0
 73
     1
 74
     1
 75
     0
 76
     0
 77
     0
 78
     0
170
     0
171
     2
172
     0
173
     0
174
     0
175
     0
176
     0
177
     0
178
     0
270
     2
271
     4
272
     4
273
     2
274
     2
340
F
275
     0
280
     0
281
     0
282
     0
283
     1
284
     0
285
     0
286
     0
287
     3
288
     0
  0
ENDTAB
  0
TABLE
  2
BLOCK_RECORD
  5
1
100
AcDbSymbolTable
 70
     0
  0
BLOCK_RECORD
  5
18
100
AcDbSymbolTableRecord
100
AcDbBlockTableRecord
  2
*MODEL_SPACE
  0
BLOCK_RECORD
  5
15
100
AcDbSymbolTableRecord
100
AcDbBlockTableRecord
  2
*PAPER_SPACE
  0
ENDTAB
  0
ENDSEC
  0
SECTION
  2
BLOCKS
  0
BLOCK
  5
19
100
AcDbEntity
  8
0
100
AcDbBlockBegin
  2
*MODEL_SPACE
 70
     0
 10
0.0
 20
0.0
 30
0.0
  3
*MODEL_SPACE
  1

  0
ENDBLK
  5
1A
100
AcDbEntity
  8
0
100
AcDbBlockEnd
  0
BLOCK
  5
16
100
AcDbEntity
 67
     1
  8
0
100
AcDbBlockBegin
  2
*PAPER_SPACE
 70
     0
 10
0.0
 20
0.0
 30
0.0
  3
*PAPER_SPACE
  1

  0
ENDBLK
  5
17
100
AcDbEntity
 67
     1
  8
0
100
AcDbBlockEnd
  0
ENDSEC
  0
SECTION
  2
ENTITIES
  0
LWPOLYLINE
  5
49
100
AcDbEntity
  8
1
  6
CONTINUOUS
 62
     7
100
AcDbPolyline
 90
        6
 70
     0
 43
0.0
 10
162.9999999999999
 20
543.683257918552
 10
373.0452488687782
 20
543.683257918552
 10
373.0452488687782
 20
533.7285067873303
 10
383.0
 20
533.7285067873303
 10
383.0
 20
474.0000000000001
 10
162.9999999999999
 20
474.0000000000001
  0
LWPOLYLINE
  5
4A
100
AcDbEntity
  8
1
  6
CONTINUOUS
 62
     7
100
AcDbPolyline
 90
        2
 70
     0
 43
0.0
 10
162.9999999999999
 20
543.683257918552
 10
162.9999999999999
 20
474.0000000000001
  0
TEXT
  5
4C
100
AcDbEntity
  8
1
  6
CONTINUOUS
 62
     7
100
AcDbText
 10
171.9999999999999
 20
444.0
 30
0.0
 40
4.999999999999999
  1
Transducer Card, component side
  7
ARIALB
100
AcDbText
  0
LWPOLYLINE
  5
4E
102
{ACAD_REACTORS
330
4D
102
}
100
AcDbEntity
  8
1
  6
CONTINUOUS
 62
     7
100
AcDbPolyline
 90
        4
 70
     1
 43
0.0
 10
192.9999999999999
 20
534.0000000000001
 10
203.0
 20
534.0000000000001
 10
203.0
 20
521.0
 10
192.9999999999999
 20
521.0
  0
ARC
  5
4F
102
{ACAD_REACTORS
330
4D
102
}
100
AcDbEntity
  8
1
  6
CONTINUOUS
 62
     7
100
AcDbCircle
 10
198.0
 20
534.0000000000001
 30
0.0
 40
0.999999999999998
100
AcDbArc
 50
180.0
 51
0.0
  0
LWPOLYLINE
  5
51
102
{ACAD_REACTORS
330
50
102
}
100
AcDbEntity
  8
1
  6
CONTINUOUS
 62
     7
100
AcDbPolyline
 90
        4
 70
     1
 43
0.0
 10
172.9999999999999
 20
497.0
 10
182.9999999999999
 20
497.0
 10
182.9999999999999
 20
483.9999999999999
 10
172.9999999999999
 20
483.9999999999999
  0
ARC
  5
52
102
{ACAD_REACTORS
330
50
102
}
100
AcDbEntity
  8
1
  6
CONTINUOUS
 62
     7
100
AcDbCircle
 10
177.9999999999999
 20
497.0
 30
0.0
 40
0.999999999999998
100
AcDbArc
 50
180.0
 51
0.0
  0
LWPOLYLINE
  5
54
102
{ACAD_REACTORS
330
53
102
}
100
AcDbEntity
  8
1
  6
CONTINUOUS
 62
     7
100
AcDbPolyline
 90
        4
 70
     1
 43
0.0
 10
242.9999999999999
 20
533.9999999999999
 10
252.9999999999999
 20
533.9999999999999
 10
252.9999999999999
 20
520.9999999999999
 10
242.9999999999999
 20
520.9999999999999
  0
ARC
  5
55
102
{ACAD_REACTORS
330
53
102
}
100
AcDbEntity
  8
1
  6
CONTINUOUS
 62
     7
100
AcDbCircle
 10
247.9999999999999
 20
533.9999999999999
 30
0.0
 40
0.999999999999998
100
AcDbArc
 50
180.0
 51
0.0
  0
LWPOLYLINE
  5
57
102
{ACAD_REACTORS
330
56
102
}
100
AcDbEntity
  8
1
  6
CONTINUOUS
 62
     7
100
AcDbPolyline
 90
        4
 70
     1
 43
0.0
 10
242.9999999999999
 20
497.0
 10
252.9999999999999
 20
497.0
 10
252.9999999999999
 20
483.9999999999999
 10
242.9999999999999
 20
483.9999999999999
  0
ARC
  5
58
102
{ACAD_REACTORS
330
56
102
}
100
AcDbEntity
  8
1
  6
CONTINUOUS
 62
     7
100
AcDbCircle
 10
247.9999999999999
 20
497.0
 30
0.0
 40
0.999999999999998
100
AcDbArc
 50
180.0
 51
0.0
  0
LWPOLYLINE
  5
5A
102
{ACAD_REACTORS
330
59
102
}
100
AcDbEntity
  8
1
  6
CONTINUOUS
 62
     7
100
AcDbPolyline
 90
        4
 70
     1
 43
0.0
 10
283.0
 20
527.0
 10
292.9999999999999
 20
527.0
 10
292.9999999999999
 20
513.9999999999999
 10
283.0
 20
513.9999999999999
  0
ARC
  5
5B
102
{ACAD_REACTORS
330
59
102
}
100
AcDbEntity
  8
1
  6
CONTINUOUS
 62
     7
100
AcDbCircle
 10
287.9999999999999
 20
527.0
 30
0.0
 40
0.999999999999998
100
AcDbArc
 50
180.0
 51
0.0
  0
LWPOLYLINE
  5
5D
102
{ACAD_REACTORS
330
5C
102
}
100
AcDbEntity
  8
1
  6
CONTINUOUS
 62
     7
100
AcDbPolyline
 90
        4
 70
     1
 43
0.0
 10
312.9999999999999
 20
527.0
 10
322.9999999999999
 20
527.0
 10
322.9999999999999
 20
513.9999999999999
 10
312.9999999999999
 20
513.9999999999999
  0
ARC
  5
5E
102
{ACAD_REACTORS
330
5C
102
}
100
AcDbEntity
  8
1
  6
CONTINUOUS
 62
     7
100
AcDbCircle
 10
317.9999999999999
 20
527.0
 30
0.0
 40
0.999999999999998
100
AcDbArc
 50
180.0
 51
0.0
  0
LWPOLYLINE
  5
5F
100
AcDbEntity
  8
1
  6
CONTINUOUS
 62
     7
100
AcDbPolyline
 90
        4
 70
     1
 43
0.0
 10
342.9999999999999
 20
533.9999999999999
 10
356.0
 20
533.9999999999999
 10
356.0
 20
529.0
 10
342.9999999999999
 20
529.0
  0
LWPOLYLINE
  5
60
100
AcDbEntity
  8
1
  6
CONTINUOUS
 62
     7
100
AcDbPolyline
 90
        4
 70
     1
 43
0.0
 10
362.9999999999999
 20
533.9999999999999
 10
368.9999999999999
 20
533.9999999999999
 10
368.9999999999999
 20
504.0
 10
362.9999999999999
 20
504.0
  0
LWPOLYLINE
  5
61
100
AcDbEntity
  8
1
  6
CONTINUOUS
 62
     7
100
AcDbPolyline
 90
        4
 70
     1
 43
0.0
 10
346.9999999999999
 20
533.9999999999999
 10
352.0
 20
533.9999999999999
 10
352.0
 20
533.0
 10
346.9999999999999
 20
533.0
  0
LWPOLYLINE
  5
62
100
AcDbEntity
  8
1
  6
CONTINUOUS
 62
     7
100
AcDbPolyline
 90
        4
 70
     1
 43
0.0
 10
364.9999999999999
 20
533.9999999999999
 10
366.9999999999999
 20
533.9999999999999
 10
366.9999999999999
 20
533.0
 10
364.9999999999999
 20
533.0
  0
TEXT
  5
63
100
AcDbEntity
  8
1
  6
CONTINUOUS
 62
     7
100
AcDbText
 10
172.9999999999999
 20
477.0
 30
0.0
 40
2.499999999999999
  1
LM10 constant current generator
  7
ARIALB
100
AcDbText
  0
TEXT
  5
64
100
AcDbEntity
  8
1
  6
CONTINUOUS
 62
     7
100
AcDbText
 10
175.9999999999999
 20
516.9999999999999
 30
0.0
 40
2.499999999999999
  1
LM10 supply regulator
  7
ARIALB
100
AcDbText
  0
TEXT
  5
65
100
AcDbEntity
  8
1
  6
CONTINUOUS
 62
     7
100
AcDbText
 10
235.9999999999999
 20
516.9999999999999
 30
0.0
 40
2.499999999999999
  1
OP20 first amplifier
  7
ARIALB
100
AcDbText
  0
TEXT
  5
66
100
AcDbEntity
  8
1
  6
CONTINUOUS
 62
     7
100
AcDbText
 10
236.9999999999999
 20
479.0
 30
0.0
 40
2.499999999999999
  1
OP07 supply splitter
  7
ARIALB
100
AcDbText
  0
TEXT
  5
67
100
AcDbEntity
  8
1
  6
CONTINUOUS
 62
     7
100
AcDbText
 10
275.0
 20
508.9999999999999
 30
0.0
 40
2.499999999999999
  1
OP20 differentiator
  7
ARIALB
100
AcDbText
  0
TEXT
  5
68
100
AcDbEntity
  8
1
  6
CONTINUOUS
 62
     7
100
AcDbText
 10
310.0
 20
509.9999999999999
 30
0.0
 40
2.499999999999999
  1
OP20 final amplifier
  7
ARIALB
100
AcDbText
  0
MTEXT
  5
69
100
AcDbEntity
  8
1
  6
CONTINUOUS
 62
     7
100
AcDbMText
 10
338.9999999999999
 20
516.9999999999999
 30
0.0
 40
2.499999999999999
 41
0.0
 71
     7
 72
     1
  1
climb rate \Pgain adjust \Ptrimpot
  7
ARIALB
  0
MTEXT
  5
6A
100
AcDbEntity
  8
1
  6
CONTINUOUS
 62
     7
100
AcDbMText
 10
356.0
 20
491.9999999999999
 30
0.0
 40
2.499999999999999
 41
0.0
 71
     7
 72
     1
  1
climb rate \Poffset adjust \Ptrimpot
  7
ARIALB
  0
LINE
  5
6B
100
AcDbEntity
  8
1
  6
CONTINUOUS
 62
     7
100
AcDbLine
 10
169.9999999999999
 20
540.0
 30
0.0
 11
110.0
 21
540.0
 31
0.0
  0
LINE
  5
6C
100
AcDbEntity
  8
1
  6
CONTINUOUS
 62
     7
100
AcDbLine
 10
169.9999999999999
 20
535.0
 30
0.0
 11
110.0
 21
535.0
 31
0.0
  0
LINE
  5
6D
100
AcDbEntity
  8
1
  6
CONTINUOUS
 62
     7
100
AcDbLine
 10
169.9999999999999
 20
529.9999999999998
 30
0.0
 11
110.0
 21
529.9999999999998
 31
0.0
  0
LINE
  5
6E
100
AcDbEntity
  8
1
  6
CONTINUOUS
 62
     7
100
AcDbLine
 10
169.9999999999999
 20
524.9999999999999
 30
0.0
 11
110.0
 21
524.9999999999999
 31
0.0
  0
LINE
  5
6F
100
AcDbEntity
  8
1
  6
CONTINUOUS
 62
     7
100
AcDbLine
 10
169.9999999999999
 20
519.9999999999999
 30
0.0
 11
110.0
 21
519.9999999999999
 31
0.0
  0
LINE
  5
70
100
AcDbEntity
  8
1
  6
CONTINUOUS
 62
     7
100
AcDbLine
 10
169.9999999999999
 20
514.9999999999997
 30
0.0
 11
110.0
 21
514.9999999999997
 31
0.0
  0
LWPOLYLINE
  5
71
100
AcDbEntity
  8
1
  6
CONTINUOUS
 62
     7
100
AcDbPolyline
 90
        5
 70
     0
 43
0.0
 10
105.9999999999999
 20
545.0
 10
105.9999999999999
 20
510.0
 10
114.0
 20
510.0
 10
114.0
 20
545.0
 10
105.9999999999999
 20
545.0
  0
CIRCLE
  5
72
100
AcDbEntity
  8
1
  6
CONTINUOUS
 62
     7
100
AcDbCircle
 10
110.0
 20
540.0
 30
0.0
 40
1.000000000000043
  0
CIRCLE
  5
73
100
AcDbEntity
  8
1
  6
CONTINUOUS
 62
     7
100
AcDbCircle
 10
110.0
 20
535.0
 30
0.0
 40
1.000000000000043
  0
CIRCLE
  5
74
100
AcDbEntity
  8
1
  6
CONTINUOUS
 62
     7
100
AcDbCircle
 10
110.0
 20
529.9999999999998
 30
0.0
 40
1.000000000000043
  0
CIRCLE
  5
75
100
AcDbEntity
  8
1
  6
CONTINUOUS
 62
     7
100
AcDbCircle
 10
110.0
 20
525.0
 30
0.0
 40
1.000000000000043
  0
CIRCLE
  5
76
100
AcDbEntity
  8
1
  6
CONTINUOUS
 62
     7
100
AcDbCircle
 10
110.0
 20
520.0
 30
0.0
 40
1.000000000000043
  0
CIRCLE
  5
77
100
AcDbEntity
  8
1
  6
CONTINUOUS
 62
     7
100
AcDbCircle
 10
110.0
 20
515.0
 30
0.0
 40
1.000000000000043
  0
MTEXT
  5
78
100
AcDbEntity
  8
1
  6
CONTINUOUS
 62
     7
100
AcDbMText
 10
78.0
 20
470.9999999999999
 30
0.0
 40
4.999999999999999
 41
0.0
 71
     7
 72
     1
  1
flying lead to \PLineariser Card
  7
ARIALB
  0
TEXT
  5
79
100
AcDbEntity
  8
1
  6
CONTINUOUS
 62
     7
100
AcDbText
 10
118.9999999999999
 20
541.0
 30
0.0
 40
2.499999999999999
  1
brown (Batt +ve 9V)
  7
ARIALB
100
AcDbText
  0
TEXT
  5
7A
100
AcDbEntity
  8
1
  6
CONTINUOUS
 62
     7
100
AcDbText
 10
118.9999999999999
 20
535.9999999999998
 30
0.0
 40
2.499999999999999
  1
red (+7.2V)
  7
ARIALB
100
AcDbText
  0
TEXT
  5
7B
100
AcDbEntity
  8
1
  6
CONTINUOUS
 62
     7
100
AcDbText
 10
118.9999999999999
 20
531.0
 30
0.0
 40
2.499999999999999
  1
yellow (signal from Lineariser)
  7
ARIALB
100
AcDbText
  0
TEXT
  5
7C
100
AcDbEntity
  8
1
  6
CONTINUOUS
 62
     7
100
AcDbText
 10
118.9999999999999
 20
525.9999999999998
 30
0.0
 40
2.499999999999999
  1
black (battery -ve)
  7
ARIALB
100
AcDbText
  0
TEXT
  5
7D
100
AcDbEntity
  8
1
  6
CONTINUOUS
 62
     7
100
AcDbText
 10
118.9999999999999
 20
520.9999999999999
 30
0.0
 40
2.499999999999999
  1
white (sig gnd)
  7
ARIALB
100
AcDbText
  0
TEXT
  5
7E
100
AcDbEntity
  8
1
  6
CONTINUOUS
 62
     7
100
AcDbText
 10
118.9999999999999
 20
516.0
 30
0.0
 40
2.499999999999999
  1
blue (signal out to Lineariser)
  7
ARIALB
100
AcDbText
  0
LINE
  5
7F
100
AcDbEntity
  8
1
  6
CONTINUOUS
 62
     7
100
AcDbLine
 10
300.0
 20
488.9999999999999
 30
0.0
 11
300.0
 21
450.9999999999999
 31
0.0
  0
LINE
  5
80
100
AcDbEntity
  8
1
  6
CONTINUOUS
 62
     7
100
AcDbLine
 10
305.0
 20
488.9999999999999
 30
0.0
 11
305.0
 21
450.9999999999999
 31
0.0
  0
LINE
  5
81
100
AcDbEntity
  8
1
  6
CONTINUOUS
 62
     7
100
AcDbLine
 10
328.9999999999999
 20
488.9999999999999
 30
0.0
 11
328.9999999999999
 21
450.9999999999999
 31
0.0
  0
LINE
  5
82
100
AcDbEntity
  8
1
  6
CONTINUOUS
 62
     7
100
AcDbLine
 10
351.0
 20
490.9999999999999
 30
0.0
 11
351.0
 21
452.9999999999999
 31
0.0
  0
CIRCLE
  5
83
100
AcDbEntity
  8
1
  6
CONTINUOUS
 62
     7
100
AcDbCircle
 10
300.0
 20
450.9999999999999
 30
0.0
 40
0.999999999999998
  0
CIRCLE
  5
84
100
AcDbEntity
  8
1
  6
CONTINUOUS
 62
     7
100
AcDbCircle
 10
305.0
 20
450.9999999999999
 30
0.0
 40
0.999999999999998
  0
CIRCLE
  5
85
100
AcDbEntity
  8
1
  6
CONTINUOUS
 62
     7
100
AcDbCircle
 10
328.9999999999999
 20
450.9999999999999
 30
0.0
 40
0.999999999999998
  0
CIRCLE
  5
86
100
AcDbEntity
  8
1
  6
CONTINUOUS
 62
     7
100
AcDbCircle
 10
351.0
 20
452.9999999999999
 30
0.0
 40
0.999999999999998
  0
TEXT
  5
87
100
AcDbEntity
  8
1
  6
CONTINUOUS
 62
     7
100
AcDbText
 10
298.0
 20
457.0
 30
0.0
 40
2.499999999999999
  1
red (battery +ve 9V)
 50
90.00000000000005
  7
ARIALB
100
AcDbText
  0
TEXT
  5
88
100
AcDbEntity
  8
1
  6
CONTINUOUS
 62
     7
100
AcDbText
 10
304.25
 20
456.787
 30
0.0
 40
2.499999999999999
  1
black (battery -ve)
 50
90.00000000000005
  7
ARIALB
100
AcDbText
  0
TEXT
  5
89
100
AcDbEntity
  8
1
  6
CONTINUOUS
 62
     7
100
AcDbText
 10
333.25
 20
456.787
 30
0.0
 40
2.499999999999999
  1
white (signal ground +3.6V)
 50
90.00000000000005
  7
ARIALB
100
AcDbText
  0
TEXT
  5
8A
100
AcDbEntity
  8
1
  6
CONTINUOUS
 62
     7
100
AcDbText
 10
350.25
 20
459.787
 30
0.0
 40
2.499999999999999
  1
yellow (climb rate signal)
 50
90.00000000000005
  7
ARIALB
100
AcDbText
  0
TEXT
  5
8B
100
AcDbEntity
  8
1
  6
CONTINUOUS
 62
     7
100
AcDbText
 10
304.0
 20
444.0
 30
0.0
 40
2.499999999999999
  1
flying leads to battery and audio card
  7
ARIALB
100
AcDbText
  0
LINE
  5
8C
100
AcDbEntity
  8
1
  6
CONTINUOUS
 62
     7
100
AcDbLine
 10
70.0
 20
139.9999999999999
 30
0.0
 11
216.0
 21
139.9999999999999
 31
0.0
  0
LINE
  5
8D
100
AcDbEntity
  8
1
  6
CONTINUOUS
 62
     7
100
AcDbLine
 10
80.00000000000001
 20
59.99999999999998
 30
0.0
 11
204.0
 21
59.99999999999998
 31
0.0
  0
LINE
  5
8E
100
AcDbEntity
  8
1
  6
CONTINUOUS
 62
     7
100
AcDbLine
 10
64.00000000000002
 20
109.9999999999999
 30
0.0
 11
64.00000000000002
 21
69.99999999999996
 31
0.0
  0
LINE
  5
8F
100
AcDbEntity
  8
1
  6
CONTINUOUS
 62
     7
100
AcDbLine
 10
69.99999999999996
 20
390.0
 30
0.0
 11
209.9999999999999
 21
390.0
 31
0.0
  0
LINE
  5
90
100
AcDbEntity
  8
1
  6
CONTINUOUS
 62
     7
100
AcDbLine
 10
59.99999999999996
 20
300.0
 30
0.0
 11
109.9999999999999
 21
300.0
 31
0.0
  0
LINE
  5
91
100
AcDbEntity
  8
1
  6
CONTINUOUS
 62
     7
100
AcDbLine
 10
59.99999999999996
 20
370.0
 30
0.0
 11
59.99999999999996
 21
300.0
 31
0.0
  0
LINE
  5
92
100
AcDbEntity
  8
1
  6
CONTINUOUS
 62
     7
100
AcDbLine
 10
216.0
 20
139.9999999999999
 30
0.0
 11
216.0
 21
66.99999999999997
 31
0.0
  0
LWPOLYLINE
  5
93
100
AcDbEntity
  8
1
  6
CONTINUOUS
 62
     7
100
AcDbPolyline
 90
        5
 70
     0
 43
0.0
 10
332.0
 20
369.9999999999999
 10
390.0
 20
369.9999999999999
 10
390.0
 20
220.9999999999999
 10
332.0
 20
220.9999999999999
 10
332.0
 20
368.9999999999999
  0
LINE
  5
94
100
AcDbEntity
  8
1
  6
CONTINUOUS
 62
     7
100
AcDbLine
 10
70.0
 20
139.9999999999999
 30
0.0
 11
70.0
 21
109.9999999999999
 31
0.0
  0
LINE
  5
95
100
AcDbEntity
  8
1
  6
CONTINUOUS
 62
     7
100
AcDbLine
 10
80.00000000000001
 20
69.99999999999996
 30
0.0
 11
80.00000000000001
 21
59.99999999999998
 31
0.0
  0
LINE
  5
96
100
AcDbEntity
  8
1
  6
CONTINUOUS
 62
     7
100
AcDbLine
 10
64.00000000000002
 20
109.9999999999999
 30
0.0
 11
70.0
 21
109.9999999999999
 31
0.0
  0
LINE
  5
97
100
AcDbEntity
  8
1
  6
CONTINUOUS
 62
     7
100
AcDbLine
 10
64.00000000000002
 20
69.99999999999996
 30
0.0
 11
80.00000000000001
 21
69.99999999999996
 31
0.0
  0
LINE
  5
98
100
AcDbEntity
  8
1
  6
CONTINUOUS
 62
     7
100
AcDbLine
 10
204.0
 20
59.99999999999998
 30
0.0
 11
204.0
 21
66.99999999999997
 31
0.0
  0
LINE
  5
99
100
AcDbEntity
  8
1
  6
CONTINUOUS
 62
     7
100
AcDbLine
 10
216.0
 20
66.99999999999997
 30
0.0
 11
204.0
 21
66.99999999999997
 31
0.0
  0
TEXT
  5
9A
100
AcDbEntity
  8
1
  6
CONTINUOUS
 62
     7
100
AcDbText
 10
341.0
 20
353.9999999999999
 30
0.0
 40
4.999999999999999
  1
Audio Card
  7
ARIALB
100
AcDbText
  0
TEXT
  5
9B
100
AcDbEntity
  8
1
  6
CONTINUOUS
 62
     7
100
AcDbText
 10
77.99999999999998
 20
374.0
 30
0.0
 40
4.999999999999999
  1
Lineariser Card, component side
  7
ARIALB
100
AcDbText
  0
TEXT
  5
9C
100
AcDbEntity
  8
1
  6
CONTINUOUS
 62
     7
100
AcDbText
 10
91.99999999999999
 20
71.99999999999999
 30
0.0
 40
4.999999999999999
  1
DVM Card, component side
  7
ARIALB
100
AcDbText
  0
LWPOLYLINE
  5
9D
100
AcDbEntity
  8
1
  6
CONTINUOUS
 62
     7
100
AcDbPolyline
 90
        4
 70
     1
 43
0.0
 10
360.9999999999999
 20
440.9999999999999
 10
398.9999999999999
 20
440.9999999999999
 10
398.9999999999999
 20
400.9999999999999
 10
360.9999999999999
 20
400.9999999999999
  0
MTEXT
  5
9E
100
AcDbEntity
  8
1
  6
CONTINUOUS
 62
     7
100
AcDbMText
 10
361.9999999999999
 20
407.0
 30
0.0
 40
4.999999999999999
 41
0.0
 71
     7
 72
     1
  1
9V Battery\Pand Volume\Pcontrol\Passembly
  7
ARIALB
  0
LINE
  5
9F
100
AcDbEntity
  8
1
  6
CONTINUOUS
 62
     7
100
AcDbLine
 10
300.0
 20
488.9999999999999
 30
0.0
 11
226.0
 21
517.9999999999999
 31
0.0
  0
LINE
  5
A0
100
AcDbEntity
  8
1
  6
CONTINUOUS
 62
     7
100
AcDbLine
 10
260.0
 20
509.9999999999999
 30
0.0
 11
305.0
 21
488.9999999999999
 31
0.0
  0
LINE
  5
A1
100
AcDbEntity
  8
1
  6
CONTINUOUS
 62
     7
100
AcDbLine
 10
328.9999999999999
 20
488.9999999999999
 30
0.0
 11
270.9999999999999
 21
508.0
 31
0.0
  0
LINE
  5
A2
100
AcDbEntity
  8
1
  6
CONTINUOUS
 62
     7
100
AcDbLine
 10
356.0
 20
509.9999999999999
 30
0.0
 11
351.0
 21
490.9999999999999
 31
0.0
  0
LINE
  5
A3
100
AcDbEntity
  8
1
  6
CONTINUOUS
 62
     7
100
AcDbLine
 10
335.0
 20
436.9999999999999
 30
0.0
 11
354.0
 21
420.9999999999999
 31
0.0
  0
LINE
  5
A4
100
AcDbEntity
  8
1
  6
CONTINUOUS
 62
     7
100
AcDbLine
 10
354.0
 20
420.9999999999999
 30
0.0
 11
347.9999999999999
 21
420.9999999999999
 31
0.0
  0
LINE
  5
A5
100
AcDbEntity
  8
1
  6
CONTINUOUS
 62
     7
100
AcDbLine
 10
354.0
 20
420.9999999999999
 30
0.0
 11
354.0
 21
427.0
 31
0.0
  0
LWPOLYLINE
  5
A6
100
AcDbEntity
  8
1
  6
CONTINUOUS
 62
     7
100
AcDbPolyline
 90
        5
 70
     0
 43
0.0
 10
70.0
 20
365.4999999999998
 10
70.0
 20
330.5
 10
78.00000000000001
 20
330.5
 10
78.00000000000001
 20
365.4999999999998
 10
70.0
 20
365.4999999999998
  0
CIRCLE
  5
A7
100
AcDbEntity
  8
1
  6
CONTINUOUS
 62
     7
100
AcDbCircle
 10
74.00000000000003
 20
360.4999999999999
 30
0.0
 40
1.000000000000043
  0
CIRCLE
  5
A8
100
AcDbEntity
  8
1
  6
CONTINUOUS
 62
     7
100
AcDbCircle
 10
74.00000000000003
 20
355.4999999999998
 30
0.0
 40
1.000000000000043
  0
CIRCLE
  5
A9
100
AcDbEntity
  8
1
  6
CONTINUOUS
 62
     7
100
AcDbCircle
 10
74.00000000000003
 20
350.4999999999999
 30
0.0
 40
1.000000000000043
  0
CIRCLE
  5
AA
100
AcDbEntity
  8
1
  6
CONTINUOUS
 62
     7
100
AcDbCircle
 10
74.00000000000003
 20
345.4999999999999
 30
0.0
 40
1.000000000000043
  0
CIRCLE
  5
AB
100
AcDbEntity
  8
1
  6
CONTINUOUS
 62
     7
100
AcDbCircle
 10
74.00000000000003
 20
340.4999999999998
 30
0.0
 40
1.000000000000043
  0
CIRCLE
  5
AC
100
AcDbEntity
  8
1
  6
CONTINUOUS
 62
     7
100
AcDbCircle
 10
74.00000000000003
 20
335.4999999999999
 30
0.0
 40
1.000000000000043
  0
LWPOLYLINE
  5
AD
100
AcDbEntity
  8
1
  6
CONTINUOUS
 62
     7
100
AcDbPolyline
 90
        6
 70
     0
 43
0.0
 10
369.9999999999999
 20
389.9999999999999
 10
400.0
 20
389.9999999999999
 10
400.0
 20
380.0
 10
370.9999999999999
 20
380.0
 10
369.9999999999999
 20
380.0
 10
369.9999999999999
 20
389.9999999999999
  0
MTEXT
  5
AE
100
AcDbEntity
  8
1
  6
CONTINUOUS
 62
     7
100
AcDbMText
 10
372.9999999999999
 20
382.0
 30
0.0
 40
2.499999999999999
 41
0.0
 71
     7
 72
     1
  1
piezoceramic \Psounder
  7
ARIALB
  0
LINE
  5
AF
100
AcDbEntity
  8
1
  6
CONTINUOUS
 62
     7
100
AcDbLine
 10
356.0
 20
406.9999999999999
 30
0.0
 11
342.9999999999999
 21
376.0
 31
0.0
  0
LINE
  5
B0
100
AcDbEntity
  8
1
  6
CONTINUOUS
 62
     7
100
AcDbLine
 10
342.9999999999999
 20
376.0
 30
0.0
 11
341.9999999999999
 21
382.0
 31
0.0
  0
LINE
  5
B1
100
AcDbEntity
  8
1
  6
CONTINUOUS
 62
     7
100
AcDbLine
 10
342.9999999999999
 20
376.0
 30
0.0
 11
349.0
 21
379.0
 31
0.0
  0
LINE
  5
B2
100
AcDbEntity
  8
1
  6
CONTINUOUS
 62
     7
100
AcDbLine
 10
357.0
 20
374.0
 30
0.0
 11
366.9999999999999
 21
380.0
 31
0.0
  0
LINE
  5
B3
100
AcDbEntity
  8
1
  6
CONTINUOUS
 62
     7
100
AcDbLine
 10
366.9999999999999
 20
380.0
 30
0.0
 11
360.9999999999999
 21
380.0
 31
0.0
  0
LINE
  5
B4
100
AcDbEntity
  8
1
  6
CONTINUOUS
 62
     7
100
AcDbLine
 10
366.9999999999999
 20
380.0
 30
0.0
 11
365.9999999999999
 21
376.0
 31
0.0
  0
LWPOLYLINE
  5
B5
100
AcDbEntity
  8
1
  6
CONTINUOUS
 62
     7
100
AcDbPolyline
 90
        5
 70
     0
 43
0.0
 10
330.0
 20
190.0
 10
360.0
 20
190.0
 10
360.0
 20
159.9999999999999
 10
330.0
 20
159.9999999999999
 10
330.0
 20
190.0
  0
LWPOLYLINE
  5
B6
100
AcDbEntity
  8
1
  6
CONTINUOUS
 62
     7
100
AcDbPolyline
 90
        5
 70
     0
 43
0.0
 10
369.9999999999999
 20
190.0
 10
400.0
 20
190.0
 10
400.0
 20
159.9999999999999
 10
369.9999999999999
 20
159.9999999999999
 10
369.9999999999999
 20
190.0
  0
LINE
  5
B7
100
AcDbEntity
  8
1
  6
CONTINUOUS
 62
     7
100
AcDbLine
 10
347.9999999999999
 20
194.9999999999999
 30
0.0
 11
356.0
 21
215.9999999999999
 31
0.0
  0
LINE
  5
B8
100
AcDbEntity
  8
1
  6
CONTINUOUS
 62
     7
100
AcDbLine
 10
356.0
 20
215.9999999999999
 30
0.0
 11
352.0
 21
212.9999999999999
 31
0.0
  0
LINE
  5
B9
100
AcDbEntity
  8
1
  6
CONTINUOUS
 62
     7
100
AcDbLine
 10
356.0
 20
215.9999999999999
 30
0.0
 11
357.0
 21
211.9999999999999
 31
0.0
  0
LINE
  5
BA
100
AcDbEntity
  8
1
  6
CONTINUOUS
 62
     7
100
AcDbLine
 10
383.9999999999999
 20
193.9999999999999
 30
0.0
 11
378.0
 21
214.9999999999999
 31
0.0
  0
LINE
  5
BB
100
AcDbEntity
  8
1
  6
CONTINUOUS
 62
     7
100
AcDbLine
 10
378.0
 20
214.9999999999999
 30
0.0
 11
376.0
 21
211.9999999999999
 31
0.0
  0
LINE
  5
BC
100
AcDbEntity
  8
1
  6
CONTINUOUS
 62
     7
100
AcDbLine
 10
378.0
 20
214.9999999999999
 30
0.0
 11
381.0
 21
213.9999999999999
 31
0.0
  0
MTEXT
  5
BD
100
AcDbEntity
  8
1
  6
CONTINUOUS
 62
     7
100
AcDbMText
 10
333.9999999999999
 20
127.0
 30
0.0
 40
4.999999999999999
 41
0.0
 71
     7
 72
     1
  1
sink \Pthreshold \Ppot\P(47k)
  7
ARIALB
  0
MTEXT
  5
BE
100
AcDbEntity
  8
1
  6
CONTINUOUS
 62
     7
100
AcDbMText
 10
373.0599999999999
 20
127.0
 30
0.0
 40
4.999999999999999
 41
0.0
 71
     7
 72
     1
  1
climb\Pthreshold \Ppot\P(47k)
  7
ARIALB
  0
LWPOLYLINE
  5
BF
100
AcDbEntity
  8
1
  6
CONTINUOUS
 62
     7
100
AcDbPolyline
 90
        5
 70
     0
 43
0.0
 10
100.0
 20
130.0
 10
155.0
 20
130.0
 10
155.0
 20
119.9999999999999
 10
100.0
 20
119.9999999999999
 10
100.0
 20
130.0
  0
CIRCLE
  5
C0
100
AcDbEntity
  8
1
  6
CONTINUOUS
 62
     7
100
AcDbCircle
 10
110.0
 20
125.0
 30
0.0
 40
0.999999999999998
  0
CIRCLE
  5
C1
100
AcDbEntity
  8
1
  6
CONTINUOUS
 62
     7
100
AcDbCircle
 10
104.9999999999999
 20
125.0
 30
0.0
 40
0.999999999999998
  0
CIRCLE
  5
C2
100
AcDbEntity
  8
1
  6
CONTINUOUS
 62
     7
100
AcDbCircle
 10
114.9999999999999
 20
125.0
 30
0.0
 40
0.999999999999998
  0
CIRCLE
  5
C3
100
AcDbEntity
  8
1
  6
CONTINUOUS
 62
     7
100
AcDbCircle
 10
119.9999999999999
 20
125.0
 30
0.0
 40
0.999999999999998
  0
CIRCLE
  5
C4
100
AcDbEntity
  8
1
  6
CONTINUOUS
 62
     7
100
AcDbCircle
 10
125.0
 20
125.0
 30
0.0
 40
0.999999999999998
  0
CIRCLE
  5
C5
100
AcDbEntity
  8
1
  6
CONTINUOUS
 62
     7
100
AcDbCircle
 10
130.0
 20
125.0
 30
0.0
 40
0.999999999999998
  0
CIRCLE
  5
C6
100
AcDbEntity
  8
1
  6
CONTINUOUS
 62
     7
100
AcDbCircle
 10
140.0
 20
125.0
 30
0.0
 40
0.999999999999998
  0
CIRCLE
  5
C7
100
AcDbEntity
  8
1
  6
CONTINUOUS
 62
     7
100
AcDbCircle
 10
135.0
 20
125.0
 30
0.0
 40
0.999999999999998
  0
CIRCLE
  5
C8
100
AcDbEntity
  8
1
  6
CONTINUOUS
 62
     7
100
AcDbCircle
 10
144.9999999999999
 20
125.0
 30
0.0
 40
0.999999999999998
  0
CIRCLE
  5
C9
100
AcDbEntity
  8
1
  6
CONTINUOUS
 62
     7
100
AcDbCircle
 10
150.0
 20
125.0
 30
0.0
 40
0.999999999999998
  0
LINE
  5
CA
100
AcDbEntity
  8
1
  6
CONTINUOUS
 62
     7
100
AcDbLine
 10
69.99999999999996
 20
390.0
 30
0.0
 11
69.99999999999996
 21
370.0
 31
0.0
  0
LINE
  5
CB
100
AcDbEntity
  8
1
  6
CONTINUOUS
 62
     7
100
AcDbLine
 10
59.99999999999996
 20
370.0
 30
0.0
 11
69.99999999999996
 21
370.0
 31
0.0
  0
LINE
  5
CC
100
AcDbEntity
  8
1
  6
CONTINUOUS
 62
     7
100
AcDbLine
 10
109.9999999999999
 20
300.0
 30
0.0
 11
110.0
 21
350.0
 31
0.0
  0
LINE
  5
CD
100
AcDbEntity
  8
1
  6
CONTINUOUS
 62
     7
100
AcDbLine
 10
110.0
 20
350.0
 30
0.0
 11
130.0
 21
350.0
 31
0.0
  0
LINE
  5
CE
100
AcDbEntity
  8
1
  6
CONTINUOUS
 62
     7
100
AcDbLine
 10
130.0
 20
330.0
 30
0.0
 11
130.0
 21
350.0
 31
0.0
  0
LINE
  5
CF
100
AcDbEntity
  8
1
  6
CONTINUOUS
 62
     7
100
AcDbLine
 10
130.0
 20
330.0
 30
0.0
 11
209.9999999999999
 21
330.0
 31
0.0
  0
LINE
  5
D0
100
AcDbEntity
  8
1
  6
CONTINUOUS
 62
     7
100
AcDbLine
 10
209.9999999999999
 20
390.0
 30
0.0
 11
209.9999999999999
 21
330.0
 31
0.0
  0
LWPOLYLINE
  5
D1
100
AcDbEntity
  8
1
  6
CONTINUOUS
 62
     7
100
AcDbPolyline
 90
        4
 70
     1
 43
0.0
 10
90.0
 20
339.9999999999999
 10
96.99999999999995
 20
339.9999999999999
 10
96.99999999999995
 20
310.9999999999999
 10
90.0
 20
310.9999999999999
  0
LWPOLYLINE
  5
D2
100
AcDbEntity
  8
1
  6
CONTINUOUS
 62
     7
100
AcDbPolyline
 90
        4
 70
     1
 43
0.0
 10
91.99999999999999
 20
340.9999999999999
 10
95.0
 20
340.9999999999999
 10
95.0
 20
339.9999999999999
 10
91.99999999999999
 20
339.9999999999999
  0
LWPOLYLINE
  5
D3
100
AcDbEntity
  8
1
  6
CONTINUOUS
 62
     7
100
AcDbPolyline
 90
        4
 70
     1
 43
0.0
 10
194.4999999999999
 20
380.0
 10
197.5
 20
380.0
 10
197.5
 20
379.0
 10
194.4999999999999
 20
379.0
  0
LWPOLYLINE
  5
D4
100
AcDbEntity
  8
1
  6
CONTINUOUS
 62
     7
100
AcDbPolyline
 90
        4
 70
     1
 43
0.0
 10
192.4999999999999
 20
379.0
 10
199.4999999999999
 20
379.0
 10
199.4999999999999
 20
350.0
 10
192.4999999999999
 20
350.0
  0
LWPOLYLINE
  5
D5
100
AcDbEntity
  8
1
  6
CONTINUOUS
 62
     7
100
AcDbPolyline
 90
        4
 70
     1
 43
0.0
 10
182.5
 20
380.0
 10
185.5
 20
380.0
 10
185.5
 20
379.0
 10
182.5
 20
379.0
  0
LWPOLYLINE
  5
D6
100
AcDbEntity
  8
1
  6
CONTINUOUS
 62
     7
100
AcDbPolyline
 90
        4
 70
     1
 43
0.0
 10
180.4999999999999
 20
379.0
 10
187.4999999999999
 20
379.0
 10
187.4999999999999
 20
350.0
 10
180.4999999999999
 20
350.0
  0
LWPOLYLINE
  5
D7
100
AcDbEntity
  8
1
  6
CONTINUOUS
 62
     7
100
AcDbPolyline
 90
        5
 70
     0
 43
0.0
 10
140.0
 20
345.9999999999999
 10
194.9999999999999
 20
345.9999999999999
 10
194.9999999999999
 20
335.9999999999999
 10
140.0
 20
335.9999999999999
 10
140.0
 20
345.9999999999999
  0
CIRCLE
  5
D8
100
AcDbEntity
  8
1
  6
CONTINUOUS
 62
     7
100
AcDbCircle
 10
150.0
 20
341.0
 30
0.0
 40
0.999999999999998
  0
CIRCLE
  5
D9
100
AcDbEntity
  8
1
  6
CONTINUOUS
 62
     7
100
AcDbCircle
 10
144.9999999999999
 20
341.0
 30
0.0
 40
0.999999999999998
  0
CIRCLE
  5
DA
100
AcDbEntity
  8
1
  6
CONTINUOUS
 62
     7
100
AcDbCircle
 10
155.0
 20
341.0
 30
0.0
 40
0.999999999999998
  0
CIRCLE
  5
DB
100
AcDbEntity
  8
1
  6
CONTINUOUS
 62
     7
100
AcDbCircle
 10
159.9999999999999
 20
341.0
 30
0.0
 40
0.999999999999998
  0
CIRCLE
  5
DC
100
AcDbEntity
  8
1
  6
CONTINUOUS
 62
     7
100
AcDbCircle
 10
165.0
 20
341.0
 30
0.0
 40
0.999999999999998
  0
CIRCLE
  5
DD
100
AcDbEntity
  8
1
  6
CONTINUOUS
 62
     7
100
AcDbCircle
 10
169.9999999999999
 20
341.0
 30
0.0
 40
0.999999999999998
  0
CIRCLE
  5
DE
100
AcDbEntity
  8
1
  6
CONTINUOUS
 62
     7
100
AcDbCircle
 10
180.0
 20
341.0
 30
0.0
 40
0.999999999999998
  0
CIRCLE
  5
DF
100
AcDbEntity
  8
1
  6
CONTINUOUS
 62
     7
100
AcDbCircle
 10
175.0
 20
341.0
 30
0.0
 40
0.999999999999998
  0
CIRCLE
  5
E0
100
AcDbEntity
  8
1
  6
CONTINUOUS
 62
     7
100
AcDbCircle
 10
184.9999999999999
 20
341.0
 30
0.0
 40
0.999999999999998
  0
CIRCLE
  5
E1
100
AcDbEntity
  8
1
  6
CONTINUOUS
 62
     7
100
AcDbCircle
 10
190.0
 20
341.0
 30
0.0
 40
0.999999999999998
  0
LWPOLYLINE
  5
E3
102
{ACAD_REACTORS
330
E2
102
}
100
AcDbEntity
  8
1
  6
CONTINUOUS
 62
     7
100
AcDbPolyline
 90
        4
 70
     1
 43
0.0
 10
90.0
 20
370.5
 10
100.0
 20
370.5
 10
100.0
 20
357.5
 10
90.0
 20
357.5
  0
ARC
  5
E4
102
{ACAD_REACTORS
330
E2
102
}
100
AcDbEntity
  8
1
  6
CONTINUOUS
 62
     7
100
AcDbCircle
 10
95.0
 20
370.5
 30
0.0
 40
0.999999999999998
100
AcDbArc
 50
180.0
 51
0.0
  0
LWPOLYLINE
  5
E6
102
{ACAD_REACTORS
330
E5
102
}
100
AcDbEntity
  8
1
  6
CONTINUOUS
 62
     7
100
AcDbPolyline
 90
        4
 70
     1
 43
0.0
 10
157.0
 20
370.5
 10
166.9999999999999
 20
370.5
 10
166.9999999999999
 20
357.5
 10
157.0
 20
357.5
  0
ARC
  5
E7
102
{ACAD_REACTORS
330
E5
102
}
100
AcDbEntity
  8
1
  6
CONTINUOUS
 62
     7
100
AcDbCircle
 10
162.0
 20
370.5
 30
0.0
 40
0.999999999999998
100
AcDbArc
 50
180.0
 51
0.0
  0
MTEXT
  5
E8
100
AcDbEntity
  8
1
  6
CONTINUOUS
 62
     7
100
AcDbMText
 10
103.9999999999999
 20
358.9999999999999
 30
0.0
 40
2.499999999999999
 41
0.0
 71
     7
 72
     1
  1
Lineariser \Pinput \Pamplifier
  7
ARIALB
  0
MTEXT
  5
E9
100
AcDbEntity
  8
1
  6
CONTINUOUS
 62
     7
100
AcDbMText
 10
139.0
 20
358.9999999999999
 30
0.0
 40
2.499999999999999
 41
0.0
 71
     7
 72
     1
  1
Lineariser \Poutput \Pamplifier
  7
ARIALB
  0
MTEXT
  5
EA
100
AcDbEntity
  8
1
  6
CONTINUOUS
 62
     7
100
AcDbMText
 10
215.059
 20
347.0
 30
0.0
 40
2.499999999999999
 41
0.0
 71
     7
 72
     1
  1
DVM cal\Ptrimpot
  7
ARIALB
  0
MTEXT
  5
EB
100
AcDbEntity
  8
1
  6
CONTINUOUS
 62
     7
100
AcDbMText
 10
216.059
 20
362.9999999999999
 30
0.0
 40
2.499999999999999
 41
0.0
 71
     7
 72
     1
  1
mb\Poffset \Padjust \Ptrimpot
  7
ARIALB
  0
MTEXT
  5
EC
100
AcDbEntity
  8
1
  6
CONTINUOUS
 62
     7
100
AcDbMText
 10
98.05900000000001
 20
322.0
 30
0.0
 40
2.499999999999999
 41
0.0
 71
     7
 72
     1
  1
Altitude \Psignal \Poffset \Ptrimpot
  7
ARIALB
  0
LINE
  5
ED
100
AcDbEntity
  8
1
  6
CONTINUOUS
 62
     7
100
AcDbLine
 10
212.9999999999999
 20
367.9999999999999
 30
0.0
 11
195.9999999999999
 21
369.9999999999999
 31
0.0
  0
LINE
  5
EE
100
AcDbEntity
  8
1
  6
CONTINUOUS
 62
     7
100
AcDbLine
 10
211.9999999999999
 20
352.0
 30
0.0
 11
182.9999999999999
 21
360.9999999999999
 31
0.0
  0
LINE
  5
EF
100
AcDbEntity
  8
1
  6
CONTINUOUS
 62
     7
100
AcDbLine
 10
74.0
 20
304.0
 30
0.0
 11
82.00000000000001
 21
262.9999999999999
 31
0.0
  0
LINE
  5
F0
100
AcDbEntity
  8
1
  6
CONTINUOUS
 62
     7
100
AcDbLine
 10
83.0
 20
308.0
 30
0.0
 11
89.0
 21
272.9999999999999
 31
0.0
  0
LINE
  5
F1
100
AcDbEntity
  8
1
  6
CONTINUOUS
 62
     7
100
AcDbLine
 10
76.0
 20
380.0
 30
0.0
 11
100.0
 21
266.9999999999999
 31
0.0
  0
LINE
  5
F2
100
AcDbEntity
  8
1
  6
CONTINUOUS
 62
     7
100
AcDbLine
 10
175.9999999999999
 20
358.9999999999999
 30
0.0
 11
111.0
 21
272.9999999999999
 31
0.0
  0
LINE
  5
F3
100
AcDbEntity
  8
1
  6
CONTINUOUS
 62
     7
100
AcDbLine
 10
199.0
 20
347.0
 30
0.0
 11
131.9999999999999
 21
281.0
 31
0.0
  0
LINE
  5
F4
100
AcDbEntity
  8
1
  6
CONTINUOUS
 62
     7
100
AcDbLine
 10
205.9999999999999
 20
342.9999999999999
 30
0.0
 11
140.0
 21
274.0
 31
0.0
  0
MTEXT
  5
F5
100
AcDbEntity
  8
1
  6
CONTINUOUS
 62
     7
100
AcDbMText
 10
140.9999999999999
 20
269.9999999999999
 30
0.0
 40
2.499999999999999
 41
0.0
 71
     7
 72
     1
  1
blue\P(in lo)
  7
ARIALB
  0
MTEXT
  5
F6
100
AcDbEntity
  8
1
  6
CONTINUOUS
 62
     7
100
AcDbMText
 10
124.7869999999999
 20
272.75
 30
0.0
 40
2.499999999999999
 41
0.0
 71
     7
 72
     1
  1
yellow\P(in hi)
  7
ARIALB
  0
MTEXT
  5
F7
100
AcDbEntity
  8
1
  6
CONTINUOUS
 62
     7
100
AcDbMText
 10
112.7869999999999
 20
267.75
 30
0.0
 40
2.499999999999999
 41
0.0
 71
     7
 72
     1
  1
red\P(ref-ve)
  7
ARIALB
  0
MTEXT
  5
F8
100
AcDbEntity
  8
1
  6
CONTINUOUS
 62
     7
100
AcDbMText
 10
98.78700000000002
 20
259.75
 30
0.0
 40
2.499999999999999
 41
0.0
 71
     7
 72
     1
  1
brown\P(battery +9V)
  7
ARIALB
  0
MTEXT
  5
F9
100
AcDbEntity
  8
1
  6
CONTINUOUS
 62
     7
100
AcDbMText
 10
85.78700000000001
 20
268.75
 30
0.0
 40
2.499999999999999
 41
0.0
 71
     7
 72
     1
  1
white\P(ref +ve)
  7
ARIALB
  0
MTEXT
  5
FA
100
AcDbEntity
  8
1
  6
CONTINUOUS
 62
     7
100
AcDbMText
 10
77.787
 20
258.7499999999999
 30
0.0
 40
2.499999999999999
 41
0.0
 71
     7
 72
     1
  1
black\P(battery -ve)
  7
ARIALB
  0
LINE
  5
FB
100
AcDbEntity
  8
1
  6
CONTINUOUS
 62
     7
100
AcDbLine
 10
111.0
 20
255.9999999999999
 30
0.0
 11
126.0
 21
146.9999999999999
 31
0.0
  0
LINE
  5
FC
100
AcDbEntity
  8
1
  6
CONTINUOUS
 62
     7
100
AcDbLine
 10
126.0
 20
146.9999999999999
 30
0.0
 11
106.9999999999999
 21
161.0
 31
0.0
  0
LINE
  5
FD
100
AcDbEntity
  8
1
  6
CONTINUOUS
 62
     7
100
AcDbLine
 10
126.0
 20
146.9999999999999
 30
0.0
 11
132.9999999999999
 21
166.0
 31
0.0
  0
MTEXT
  5
FE
100
AcDbEntity
  8
1
  6
CONTINUOUS
 62
     7
100
AcDbMText
 10
125.0
 20
247.0
 30
0.0
 40
4.999999999999999
 41
0.0
 71
     7
 72
     1
  1
flying leads\Pto DVM card
  7
ARIALB
  0
LINE
  5
FF
100
AcDbEntity
  8
1
  6
CONTINUOUS
 62
     7
100
AcDbLine
 10
56.0
 20
360.0
 30
0.0
 11
39.99999999999999
 21
360.0
 31
0.0
  0
LINE
  5
100
100
AcDbEntity
  8
1
  6
HIDDEN
 62
     7
100
AcDbLine
 10
48.0
 20
358.0
 30
0.0
 11
48.0
 21
338.9999999999999
 31
0.0
  0
LINE
  5
101
100
AcDbEntity
  8
1
  6
CONTINUOUS
 62
     7
100
AcDbLine
 10
55.0
 20
335.0
 30
0.0
 11
41.0
 21
335.0
 31
0.0
  0
TEXT
  5
102
100
AcDbEntity
  8
1
  6
CONTINUOUS
 62
     7
100
AcDbText
 10
45.0
 20
360.9999999999999
 30
0.0
 40
2.499999999999999
  1
brown
  7
ARIALB
100
AcDbText
  0
TEXT
  5
103
100
AcDbEntity
  8
1
  6
CONTINUOUS
 62
     7
100
AcDbText
 10
45.0
 20
335.9999999999999
 30
0.0
 40
2.499999999999999
  1
blue
  7
ARIALB
100
AcDbText
  0
LINE
  5
104
100
AcDbEntity
  8
1
  6
CONTINUOUS
 62
     7
100
AcDbLine
 10
95.0
 20
521.9999999999999
 30
0.0
 11
22.99999999999999
 21
372.9999999999999
 31
0.0
  0
LINE
  5
105
100
AcDbEntity
  8
1
  6
CONTINUOUS
 62
     7
100
AcDbLine
 10
22.99999999999999
 20
372.9999999999999
 30
0.0
 11
35.0
 21
352.0
 31
0.0
  0
LINE
  5
106
100
AcDbEntity
  8
1
  6
CONTINUOUS
 62
     7
100
AcDbLine
 10
35.0
 20
352.0
 30
0.0
 11
35.0
 21
358.9999999999999
 31
0.0
  0
LINE
  5
107
100
AcDbEntity
  8
1
  6
CONTINUOUS
 62
     7
100
AcDbLine
 10
35.0
 20
352.0
 30
0.0
 11
30.0
 21
349.0
 31
0.0
  0
LWPOLYLINE
  5
108
100
AcDbEntity
  8
1
  6
CONTINUOUS
 62
     7
100
AcDbPolyline
 90
        4
 70
     1
 43
0.0
 10
180.0
 20
272.0
 10
189.9999999999999
 20
272.0
 10
189.9999999999999
 20
270.0
 10
180.0
 20
270.0
  0
LWPOLYLINE
  5
109
100
AcDbEntity
  8
1
  6
CONTINUOUS
 62
     7
100
AcDbPolyline
 90
        4
 70
     1
 43
0.0
 10
180.0
 20
281.9999999999999
 10
189.9999999999999
 20
281.9999999999999
 10
189.9999999999999
 20
280.0
 10
180.0
 20
280.0
  0
LINE
  5
10A
100
AcDbEntity
  8
1
  6
CONTINUOUS
 62
     7
100
AcDbLine
 10
180.0
 20
281.0
 30
0.0
 11
175.9999999999999
 21
281.0
 31
0.0
  0
LINE
  5
10B
100
AcDbEntity
  8
1
  6
CONTINUOUS
 62
     7
100
AcDbLine
 10
180.0
 20
270.9999999999999
 30
0.0
 11
175.9999999999999
 21
270.9999999999999
 31
0.0
  0
LINE
  5
10C
100
AcDbEntity
  8
1
  6
CONTINUOUS
 62
     7
100
AcDbLine
 10
175.9999999999999
 20
270.9999999999999
 30
0.0
 11
175.9999999999999
 21
300.0
 31
0.0
  0
LINE
  5
10D
100
AcDbEntity
  8
1
  6
CONTINUOUS
 62
     7
100
AcDbLine
 10
175.9999999999999
 20
300.0
 30
0.0
 11
144.9999999999999
 21
340.9999999999999
 31
0.0
  0
LINE
  5
10E
100
AcDbEntity
  8
1
  6
CONTINUOUS
 62
     7
100
AcDbLine
 10
190.0
 20
270.9999999999999
 30
0.0
 11
192.9999999999999
 21
270.9999999999999
 31
0.0
  0
LINE
  5
10F
100
AcDbEntity
  8
1
  6
CONTINUOUS
 62
     7
100
AcDbLine
 10
190.0
 20
281.0
 30
0.0
 11
192.9999999999999
 21
281.0
 31
0.0
  0
LINE
  5
110
100
AcDbEntity
  8
1
  6
CONTINUOUS
 62
     7
100
AcDbLine
 10
192.9999999999999
 20
270.9999999999999
 30
0.0
 11
192.9999999999999
 21
300.0
 31
0.0
  0
LINE
  5
111
100
AcDbEntity
  8
1
  6
CONTINUOUS
 62
     7
100
AcDbLine
 10
192.9999999999999
 20
300.0
 30
0.0
 11
150.0
 21
340.9999999999999
 31
0.0
  0
LINE
  5
112
100
AcDbEntity
  8
1
  6
CONTINUOUS
 62
     7
100
AcDbLine
 10
183.9999999999999
 20
283.0
 30
0.0
 11
184.9999999999999
 21
281.9999999999999
 31
0.0
  0
LINE
  5
113
100
AcDbEntity
  8
1
  6
CONTINUOUS
 62
     7
100
AcDbLine
 10
186.0
 20
283.0
 30
0.0
 11
184.9999999999999
 21
281.9999999999999
 31
0.0
  0
LINE
  5
114
100
AcDbEntity
  8
1
  6
CONTINUOUS
 62
     7
100
AcDbLine
 10
184.9999999999999
 20
272.0
 30
0.0
 11
186.0
 21
272.9999999999999
 31
0.0
  0
LINE
  5
115
100
AcDbEntity
  8
1
  6
CONTINUOUS
 62
     7
100
AcDbLine
 10
184.9999999999999
 20
272.0
 30
0.0
 11
183.9999999999999
 21
272.9999999999999
 31
0.0
  0
LINE
  5
116
100
AcDbEntity
  8
1
  6
CONTINUOUS
 62
     7
100
AcDbLine
 10
184.9999999999999
 20
272.0
 30
0.0
 11
184.9999999999999
 21
275.0
 31
0.0
  0
LINE
  5
117
100
AcDbEntity
  8
1
  6
CONTINUOUS
 62
     7
100
AcDbLine
 10
184.9999999999999
 20
275.0
 30
0.0
 11
209.9999999999999
 21
275.0
 31
0.0
  0
LINE
  5
118
100
AcDbEntity
  8
1
  6
CONTINUOUS
 62
     7
100
AcDbLine
 10
184.9999999999999
 20
281.9999999999999
 30
0.0
 11
184.9999999999999
 21
285.0
 31
0.0
  0
LINE
  5
119
100
AcDbEntity
  8
1
  6
CONTINUOUS
 62
     7
100
AcDbLine
 10
184.9999999999999
 20
285.0
 30
0.0
 11
209.9999999999999
 21
285.0
 31
0.0
  0
CIRCLE
  5
11A
100
AcDbEntity
  8
1
  6
CONTINUOUS
 62
     7
100
AcDbCircle
 10
210.9999999999999
 20
285.0
 30
0.0
 40
0.999999999999998
  0
CIRCLE
  5
11B
100
AcDbEntity
  8
1
  6
CONTINUOUS
 62
     7
100
AcDbCircle
 10
210.9999999999999
 20
275.0
 30
0.0
 40
0.999999999999998
  0
CIRCLE
  5
11C
100
AcDbEntity
  8
1
  6
CONTINUOUS
 62
     7
100
AcDbCircle
 10
220.0
 20
280.0
 30
0.0
 40
0.999999999999998
  0
LINE
  5
11D
100
AcDbEntity
  8
1
  6
CONTINUOUS
 62
     7
100
AcDbLine
 10
220.9999999999999
 20
280.0
 30
0.0
 11
222.9999999999999
 21
280.0
 31
0.0
  0
LINE
  5
11E
100
AcDbEntity
  8
1
  6
CONTINUOUS
 62
     7
100
AcDbLine
 10
222.9999999999999
 20
280.0
 30
0.0
 11
222.9999999999999
 21
300.0
 31
0.0
  0
LINE
  5
11F
100
AcDbEntity
  8
1
  6
CONTINUOUS
 62
     7
100
AcDbLine
 10
222.9999999999999
 20
300.0
 30
0.0
 11
155.0
 21
340.9999999999999
 31
0.0
  0
CIRCLE
  5
120
100
AcDbEntity
  8
1
  6
CONTINUOUS
 62
     7
100
AcDbCircle
 10
229.9999999999999
 20
289.9999999999999
 30
0.0
 40
0.999999999999998
  0
CIRCLE
  5
121
100
AcDbEntity
  8
1
  6
CONTINUOUS
 62
     7
100
AcDbCircle
 10
239.9999999999999
 20
289.9999999999999
 30
0.0
 40
0.999999999999998
  0
CIRCLE
  5
122
100
AcDbEntity
  8
1
  6
CONTINUOUS
 62
     7
100
AcDbCircle
 10
250.0
 20
289.9999999999999
 30
0.0
 40
0.999999999999998
  0
CIRCLE
  5
123
100
AcDbEntity
  8
1
  6
CONTINUOUS
 62
     7
100
AcDbCircle
 10
260.0
 20
289.9999999999999
 30
0.0
 40
0.999999999999998
  0
CIRCLE
  5
124
100
AcDbEntity
  8
1
  6
CONTINUOUS
 62
     7
100
AcDbCircle
 10
234.9999999999999
 20
300.0
 30
0.0
 40
0.999999999999998
  0
CIRCLE
  5
125
100
AcDbEntity
  8
1
  6
CONTINUOUS
 62
     7
100
AcDbCircle
 10
255.9999999999999
 20
300.0
 30
0.0
 40
0.999999999999998
  0
LINE
  5
126
100
AcDbEntity
  8
1
  6
CONTINUOUS
 62
     7
100
AcDbLine
 10
255.9999999999999
 20
301.0
 30
0.0
 11
255.9999999999999
 21
319.9999999999999
 31
0.0
  0
LINE
  5
127
100
AcDbEntity
  8
1
  6
CONTINUOUS
 62
     7
100
AcDbLine
 10
255.9999999999999
 20
319.9999999999999
 30
0.0
 11
184.9999999999999
 21
340.9999999999999
 31
0.0
  0
LINE
  5
128
100
AcDbEntity
  8
1
  6
CONTINUOUS
 62
     7
100
AcDbLine
 10
190.0
 20
340.9999999999999
 30
0.0
 11
264.9999999999999
 21
319.9999999999999
 31
0.0
  0
LINE
  5
129
100
AcDbEntity
  8
1
  6
CONTINUOUS
 62
     7
100
AcDbLine
 10
264.9999999999999
 20
319.9999999999999
 30
0.0
 11
264.9999999999999
 21
289.9999999999999
 31
0.0
  0
LINE
  5
12A
100
AcDbEntity
  8
1
  6
CONTINUOUS
 62
     7
100
AcDbLine
 10
264.9999999999999
 20
289.9999999999999
 30
0.0
 11
260.9999999999999
 21
289.9999999999999
 31
0.0
  0
LINE
  5
12B
100
AcDbEntity
  8
1
  6
CONTINUOUS
 62
     7
100
AcDbLine
 10
249.0
 20
289.9999999999999
 30
0.0
 11
247.0
 21
289.9999999999999
 31
0.0
  0
LINE
  5
12C
100
AcDbEntity
  8
1
  6
CONTINUOUS
 62
     7
100
AcDbLine
 10
240.9999999999999
 20
289.9999999999999
 30
0.0
 11
242.9999999999999
 21
289.9999999999999
 31
0.0
  0
LINE
  5
12D
100
AcDbEntity
  8
1
  6
CONTINUOUS
 62
     7
100
AcDbLine
 10
229.0
 20
289.9999999999999
 30
0.0
 11
227.0
 21
289.9999999999999
 31
0.0
  0
LINE
  5
12E
100
AcDbEntity
  8
1
  6
CONTINUOUS
 62
     7
100
AcDbLine
 10
234.9999999999999
 20
301.0
 30
0.0
 11
234.9999999999999
 21
319.9999999999999
 31
0.0
  0
LINE
  5
12F
100
AcDbEntity
  8
1
  6
CONTINUOUS
 62
     7
100
AcDbLine
 10
234.9999999999999
 20
319.9999999999999
 30
0.0
 11
180.0
 21
340.9999999999999
 31
0.0
  0
LINE
  5
130
100
AcDbEntity
  8
1
  6
CONTINUOUS
 62
     7
100
AcDbLine
 10
218.9999999999999
 20
280.0
 30
0.0
 11
210.9999999999999
 21
280.0
 31
0.0
  0
LINE
  5
131
100
AcDbEntity
  8
1
  6
CONTINUOUS
 62
     7
100
AcDbLine
 10
234.9999999999999
 20
299.0
 30
0.0
 11
234.9999999999999
 21
289.9999999999999
 31
0.0
  0
LINE
  5
132
100
AcDbEntity
  8
1
  6
CONTINUOUS
 62
     7
100
AcDbLine
 10
255.9999999999999
 20
299.0
 30
0.0
 11
255.9999999999999
 21
289.9999999999999
 31
0.0
  0
LINE
  5
133
100
AcDbEntity
  8
1
  6
CONTINUOUS
 62
     7
100
AcDbLine
 10
247.0
 20
289.9999999999999
 30
0.0
 11
247.0
 21
310.0
 31
0.0
  0
LINE
  5
134
100
AcDbEntity
  8
1
  6
CONTINUOUS
 62
     7
100
AcDbLine
 10
247.0
 20
310.0
 30
0.0
 11
165.0
 21
340.9999999999999
 31
0.0
  0
LINE
  5
135
100
AcDbEntity
  8
1
  6
CONTINUOUS
 62
     7
100
AcDbLine
 10
242.9999999999999
 20
289.9999999999999
 30
0.0
 11
242.9999999999999
 21
314.9999999999999
 31
0.0
  0
LINE
  5
136
100
AcDbEntity
  8
1
  6
CONTINUOUS
 62
     7
100
AcDbLine
 10
242.9999999999999
 20
314.9999999999999
 30
0.0
 11
175.0
 21
340.9999999999999
 31
0.0
  0
LINE
  5
137
100
AcDbEntity
  8
1
  6
CONTINUOUS
 62
     7
100
AcDbLine
 10
227.0
 20
289.9999999999999
 30
0.0
 11
227.0
 21
318.9999999999999
 31
0.0
  0
LINE
  5
138
100
AcDbEntity
  8
1
  6
CONTINUOUS
 62
     7
100
AcDbLine
 10
227.0
 20
318.9999999999999
 30
0.0
 11
169.9999999999999
 21
340.9999999999999
 31
0.0
  0
TEXT
  5
139
100
AcDbEntity
  8
1
  6
CONTINUOUS
 62
     7
100
AcDbText
 10
195.9999999999999
 20
339.9999999999999
 30
0.0
 40
2.499999999999999
  1
10
  7
ARIALB
100
AcDbText
  0
TEXT
  5
13A
100
AcDbEntity
  8
1
  6
CONTINUOUS
 62
     7
100
AcDbText
 10
135.11
 20
339.7499999999999
 30
0.0
 40
2.499999999999999
  1
1
  7
ARIALB
100
AcDbText
  0
CIRCLE
  5
13B
100
AcDbEntity
  8
1
  6
CONTINUOUS
 62
     7
100
AcDbCircle
 10
175.9999999999999
 20
281.0
 30
0.0
 40
0.999999999999998
  0
CIRCLE
  5
13C
100
AcDbEntity
  8
1
  6
CONTINUOUS
 62
     7
100
AcDbCircle
 10
175.9999999999999
 20
270.9999999999999
 30
0.0
 40
0.999999999999998
  0
CIRCLE
  5
13D
100
AcDbEntity
  8
1
  6
CONTINUOUS
 62
     7
100
AcDbCircle
 10
192.9999999999999
 20
281.0
 30
0.0
 40
0.999999999999998
  0
TEXT
  5
13E
100
AcDbEntity
  8
1
  6
CONTINUOUS
 62
     7
100
AcDbText
 10
268.9999999999999
 20
293.9999999999999
 30
0.0
 40
2.499999999999999
  1
brown
 50
90.00000000000005
  7
ARIALB
100
AcDbText
  0
TEXT
  5
13F
100
AcDbEntity
  8
1
  6
CONTINUOUS
 62
     7
100
AcDbText
 10
254.9999999999999
 20
308.9999999999999
 30
0.0
 40
2.499999999999999
  1
red
 50
90.00000000000005
  7
ARIALB
100
AcDbText
  0
TEXT
  5
140
100
AcDbEntity
  8
1
  6
CONTINUOUS
 62
     7
100
AcDbText
 10
251.0
 20
300.0
 30
0.0
 40
2.499999999999999
  1
white
 50
90.00000000000005
  7
ARIALB
100
AcDbText
  0
TEXT
  5
141
100
AcDbEntity
  8
1
  6
CONTINUOUS
 62
     7
100
AcDbText
 10
241.9999999999999
 20
296.9999999999999
 30
0.0
 40
2.499999999999999
  1
blue
 50
90.00000000000005
  7
ARIALB
100
AcDbText
  0
TEXT
  5
142
100
AcDbEntity
  8
1
  6
CONTINUOUS
 62
     7
100
AcDbText
 10
233.9999999999999
 20
303.0
 30
0.0
 40
2.499999999999999
  1
black
 50
90.00000000000005
  7
ARIALB
100
AcDbText
  0
TEXT
  5
143
100
AcDbEntity
  8
1
  6
CONTINUOUS
 62
     7
100
AcDbText
 10
226.0
 20
303.0
 30
0.0
 40
2.499999999999999
  1
yellow
 50
90.00000000000005
  7
ARIALB
100
AcDbText
  0
TEXT
  5
144
100
AcDbEntity
  8
1
  6
CONTINUOUS
 62
     7
100
AcDbText
 10
222.0
 20
288.9999999999999
 30
0.0
 40
2.499999999999999
  1
yellow
 50
90.00000000000005
  7
ARIALB
100
AcDbText
  0
TEXT
  5
145
100
AcDbEntity
  8
1
  6
CONTINUOUS
 62
     7
100
AcDbText
 10
191.9999999999999
 20
291.9999999999999
 30
0.0
 40
2.499999999999999
  1
red
 50
90.00000000000005
  7
ARIALB
100
AcDbText
  0
TEXT
  5
146
100
AcDbEntity
  8
1
  6
CONTINUOUS
 62
     7
100
AcDbText
 10
173.9999999999999
 20
288.9999999999999
 30
0.0
 40
2.499999999999999
  1
black
 50
90.00000000000005
  7
ARIALB
100
AcDbText
  0
TEXT
  5
147
100
AcDbEntity
  8
1
  6
CONTINUOUS
 62
     7
100
AcDbText
 10
179.0
 20
265.9999999999999
 30
0.0
 40
2.499999999999999
  1
alti zero
  7
ARIALB
100
AcDbText
  0
TEXT
  5
148
100
AcDbEntity
  8
1
  6
CONTINUOUS
 62
     7
100
AcDbText
 10
179.0419999999999
 20
276.75
 30
0.0
 40
2.499999999999999
  1
QNE pot
  7
ARIALB
100
AcDbText
  0
TEXT
  5
149
100
AcDbEntity
  8
1
  6
CONTINUOUS
 62
     7
100
AcDbText
 10
210.9999999999999
 20
267.9999999999999
 30
0.0
 40
2.499999999999999
  1
QNE switch
  7
ARIALB
100
AcDbText
  0
TEXT
  5
14A
100
AcDbEntity
  8
1
  6
CONTINUOUS
 62
     7
100
AcDbText
 10
236.9999999999999
 20
283.0
 30
0.0
 40
2.499999999999999
  1
QNH switch
  7
ARIALB
100
AcDbText
  0
LINE
  5
14B
100
AcDbEntity
  8
1
  6
HIDDEN
 62
     7
100
AcDbLine
 10
235.9999999999999
 20
301.0
 30
0.0
 11
240.4736842105262
 21
317.9999999999999
 31
0.0
  0
LINE
  5
14C
100
AcDbEntity
  8
1
  6
HIDDEN
 62
     7
100
AcDbLine
 10
256.4999999999999
 20
300.4999999999999
 30
0.0
 11
261.1052631578946
 21
317.9999999999999
 31
0.0
  0
LINE
  5
14D
100
AcDbEntity
  8
1
  6
HIDDEN
 62
     7
100
AcDbLine
 10
240.9999999999999
 20
317.9999999999999
 30
0.0
 11
260.9999999999999
 21
317.9999999999999
 31
0.0
  0
MTEXT
  5
14E
100
AcDbEntity
  8
1
  6
CONTINUOUS
 62
     7
100
AcDbMText
 10
166.9999999999999
 20
276.0
 30
0.0
 40
2.499999999999999
 41
0.0
 71
     7
 72
     1
  1
ccw\Pend
  7
ARIALB
  0
TEXT
  5
14F
100
AcDbEntity
  8
1
  6
CONTINUOUS
 62
     7
100
AcDbText
 10
175.0
 20
36.99999999999997
 30
0.0
 40
9.999999999999998
  1
LR2 PCBs, layouts and interconnects
  7
ARIALB
100
AcDbText
  0
ENDSEC
  0
SECTION
  2
OBJECTS
  0
DICTIONARY
  5
C
100
AcDbDictionary
  3
ACAD_GROUP
350
D
  3
ACAD_MLINESTYLE
350
1B
  0
DICTIONARY
  5
D
102
{ACAD_REACTORS
330
C
102
}
100
AcDbDictionary
  3
*A1
350
4D
  3
*A2
350
50
  3
*A3
350
53
  3
*A4
350
56
  3
*A5
350
59
  3
*A6
350
5C
  3
*A7
350
E2
  3
*A8
350
E5
  0
DICTIONARY
  5
1B
102
{ACAD_REACTORS
330
C
102
}
100
AcDbDictionary
  3
STANDARD
350
1C
  0
GROUP
  5
4D
102
{ACAD_REACTORS
330
D
102
}
100
AcDbGroup
300

 70
     0
 71
     1
340
4E
340
4F
  0
GROUP
  5
50
102
{ACAD_REACTORS
330
D
102
}
100
AcDbGroup
300

 70
     0
 71
     1
340
51
340
52
  0
GROUP
  5
53
102
{ACAD_REACTORS
330
D
102
}
100
AcDbGroup
300

 70
     0
 71
     1
340
54
340
55
  0
GROUP
  5
56
102
{ACAD_REACTORS
330
D
102
}
100
AcDbGroup
300

 70
     0
 71
     1
340
57
340
58
  0
GROUP
  5
59
102
{ACAD_REACTORS
330
D
102
}
100
AcDbGroup
300

 70
     0
 71
     1
340
5A
340
5B
  0
GROUP
  5
5C
102
{ACAD_REACTORS
330
D
102
}
100
AcDbGroup
300

 70
     0
 71
     1
340
5D
340
5E
  0
GROUP
  5
E2
102
{ACAD_REACTORS
330
D
102
}
100
AcDbGroup
300

 70
     0
 71
     1
340
E3
340
E4
  0
GROUP
  5
E5
102
{ACAD_REACTORS
330
D
102
}
100
AcDbGroup
300

 70
     0
 71
     1
340
E6
340
E7
  0
MLINESTYLE
  5
1C
102
{ACAD_REACTORS
330
1B
102
}
100
AcDbMlineStyle
  2
STANDARD
 70
     0
  3

 62
   256
 51
90.0
 52
90.0
 71
     2
 49
0.5
 62
   256
  6
BYLAYER
 49
-0.5
 62
   256
  6
BYLAYER
  0
ENDSEC
  0
EOF
