  0
SECTION
  2
HEADER
  9
$ACADVER
  1
AC1014
  9
$ACADMAINTVER
 70
     5
  9
$DWGCODEPAGE
  3
ANSI_1252
  9
$INSBASE
 10
0.0
 20
0.0
 30
0.0
  9
$EXTMIN
 10
1.000000000000000E+20
 20
1.000000000000000E+20
 30
1.000000000000000E+20
  9
$EXTMAX
 10
-1.000000000000000E+20
 20
-1.000000000000000E+20
 30
-1.000000000000000E+20
  9
$LIMMIN
 10
0.0
 20
0.0
  9
$LIMMAX
 10
12.0
 20
9.0
  9
$ORTHOMODE
 70
     0
  9
$REGENMODE
 70
     1
  9
$FILLMODE
 70
     1
  9
$QTEXTMODE
 70
     0
  9
$MIRRTEXT
 70
     1
  9
$DRAGMODE
 70
     2
  9
$LTSCALE
 40
1.0
  9
$OSMODE
 70
     0
  9
$ATTMODE
 70
     1
  9
$TEXTSIZE
 40
9.999999999999998
  9
$TRACEWID
 40
0.05
  9
$TEXTSTYLE
  7
STANDARD
  9
$CLAYER
  8
0
  9
$CELTYPE
  6
BYLAYER
  9
$CECOLOR
 62
   256
  9
$CELTSCALE
 40
1.0
  9
$DELOBJ
 70
     1
  9
$DISPSILH
 70
     0
  9
$DIMSCALE
 40
1.0
  9
$DIMASZ
 40
0.18
  9
$DIMEXO
 40
0.0625
  9
$DIMDLI
 40
0.38
  9
$DIMRND
 40
0.0
  9
$DIMDLE
 40
0.0
  9
$DIMEXE
 40
0.18
  9
$DIMTP
 40
0.0
  9
$DIMTM
 40
0.0
  9
$DIMTXT
 40
0.1574803149606299
  9
$DIMCEN
 40
0.09
  9
$DIMTSZ
 40
0.0
  9
$DIMTOL
 70
     0
  9
$DIMLIM
 70
     0
  9
$DIMTIH
 70
     1
  9
$DIMTOH
 70
     1
  9
$DIMSE1
 70
     0
  9
$DIMSE2
 70
     0
  9
$DIMTAD
 70
     0
  9
$DIMZIN
 70
     0
  9
$DIMBLK
  1

  9
$DIMASO
 70
     1
  9
$DIMSHO
 70
     1
  9
$DIMPOST
  1

  9
$DIMAPOST
  1

  9
$DIMALT
 70
     0
  9
$DIMALTD
 70
     2
  9
$DIMALTF
 40
25.4
  9
$DIMLFAC
 40
1.0
  9
$DIMTOFL
 70
     0
  9
$DIMTVP
 40
0.0
  9
$DIMTIX
 70
     0
  9
$DIMSOXD
 70
     0
  9
$DIMSAH
 70
     0
  9
$DIMBLK1
  1

  9
$DIMBLK2
  1

  9
$DIMSTYLE
  2
STANDARD
  9
$DIMCLRD
 70
     0
  9
$DIMCLRE
 70
     0
  9
$DIMCLRT
 70
     0
  9
$DIMTFAC
 40
1.0
  9
$DIMGAP
 40
0.09
  9
$DIMJUST
 70
     0
  9
$DIMSD1
 70
     0
  9
$DIMSD2
 70
     0
  9
$DIMTOLJ
 70
     1
  9
$DIMTZIN
 70
     0
  9
$DIMALTZ
 70
     0
  9
$DIMALTTZ
 70
     0
  9
$DIMFIT
 70
     3
  9
$DIMUPT
 70
     0
  9
$DIMUNIT
 70
     4
  9
$DIMDEC
 70
     2
  9
$DIMTDEC
 70
     4
  9
$DIMALTU
 70
     2
  9
$DIMALTTD
 70
     2
  9
$DIMTXSTY
  7
STANDARD
  9
$DIMAUNIT
 70
     1
  9
$LUNITS
 70
     2
  9
$LUPREC
 70
     2
  9
$SKETCHINC
 40
0.1
  9
$FILLETRAD
 40
0.9999999999999998
  9
$AUNITS
 70
     0
  9
$AUPREC
 70
     2
  9
$MENU
  1
.
  9
$ELEVATION
 40
0.0
  9
$PELEVATION
 40
0.0
  9
$THICKNESS
 40
0.0
  9
$LIMCHECK
 70
     0
  9
$BLIPMODE
 70
     0
  9
$CHAMFERA
 40
4.999999999999999
  9
$CHAMFERB
 40
4.999999999999999
  9
$CHAMFERC
 40
0.0
  9
$CHAMFERD
 40
0.0
  9
$SKPOLY
 70
     0
  9
$TDCREATE
 40
0.0000000000
  9
$TDUPDATE
 40
0.0000000000
  9
$TDINDWG
 40
0.0000000000
  9
$TDUSRTIMER
 40
0.0000000000
  9
$USRTIMER
 70
     1
  9
$ANGBASE
 50
0.0
  9
$ANGDIR
 70
     0
  9
$PDMODE
 70
     0
  9
$PDSIZE
 40
0.0
  9
$PLINEWID
 40
0.0
  9
$COORDS
 70
     1
  9
$SPLFRAME
 70
     0
  9
$SPLINETYPE
 70
     6
  9
$SPLINESEGS
 70
     8
  9
$ATTDIA
 70
     0
  9
$ATTREQ
 70
     1
  9
$HANDLING
 70
     1
  9
$HANDSEED
  5
24C
  9
$SURFTAB1
 70
     6
  9
$SURFTAB2
 70
     6
  9
$SURFTYPE
 70
     6
  9
$SURFU
 70
     6
  9
$SURFV
 70
     6
  9
$UCSNAME
  2

  9
$UCSORG
 10
0.0
 20
0.0
 30
0.0
  9
$UCSXDIR
 10
1.0
 20
0.0
 30
0.0
  9
$UCSYDIR
 10
0.0
 20
1.0
 30
0.0
  9
$PUCSNAME
  2

  9
$PUCSORG
 10
0.0
 20
0.0
 30
0.0
  9
$PUCSXDIR
 10
1.0
 20
0.0
 30
0.0
  9
$PUCSYDIR
 10
0.0
 20
1.0
 30
0.0
  9
$USERI1
 70
     0
  9
$USERI2
 70
     0
  9
$USERI3
 70
     0
  9
$USERI4
 70
     0
  9
$USERI5
 70
     0
  9
$USERR1
 40
0.0
  9
$USERR2
 40
0.0
  9
$USERR3
 40
0.0
  9
$USERR4
 40
0.0
  9
$USERR5
 40
0.0
  9
$WORLDVIEW
 70
     1
  9
$SHADEDGE
 70
     3
  9
$SHADEDIF
 70
    70
  9
$TILEMODE
 70
     1
  9
$MAXACTVP
 70
    48
  9
$PINSBASE
 10
0.0
 20
0.0
 30
0.0
  9
$PLIMCHECK
 70
     0
  9
$PEXTMIN
 10
1.000000000000000E+20
 20
1.000000000000000E+20
 30
1.000000000000000E+20
  9
$PEXTMAX
 10
-1.000000000000000E+20
 20
-1.000000000000000E+20
 30
-1.000000000000000E+20
  9
$PLIMMIN
 10
0.0
 20
0.0
  9
$PLIMMAX
 10
12.0
 20
9.0
  9
$UNITMODE
 70
     0
  9
$VISRETAIN
 70
     1
  9
$PLINEGEN
 70
     0
  9
$PSLTSCALE
 70
     1
  9
$TREEDEPTH
 70
  3020
  9
$PICKSTYLE
 70
     1
  9
$CMLSTYLE
  2
STANDARD
  9
$CMLJUST
 70
     0
  9
$CMLSCALE
 40
1.0
  9
$PROXYGRAPHICS
 70
     1
  9
$MEASUREMENT
 70
     1
  0
ENDSEC
  0
SECTION
  2
CLASSES
  0
CLASS
  1
LWPOLYLINE
  2
AcDbPolyline
  3
"AutoCAD"
 90
        0
280
     0
281
     1
  0
CLASS
  1
HATCH
  2
AcDbHatch
  3
"ACAD_SEDONA"
 90
        0
280
     0
281
     1
  0
ENDSEC
  0
SECTION
  2
TABLES
  0
TABLE
  2
VPORT
  5
8
100
AcDbSymbolTable
 70
     1
  0
VPORT
  5
11
100
AcDbSymbolTableRecord
100
AcDbViewportTableRecord
  2
*ACTIVE
 70
     0
 10
0.0
 20
0.0
 11
1.0
 21
1.0
 12
3.6
 22
4.5
 13
0.0
 23
0.0
 14
1.0
 24
1.0
 15
0.0
 25
0.0
 16
0.0
 26
0.0
 36
1.0
 17
0.0
 27
0.0
 37
0.0
 40
15.0
 41
0.8
 42
50.0
 43
0.0
 44
0.0
 50
0.0
 51
0.0
 71
     0
 72
   100
 73
     1
 74
     1
 75
     0
 76
     0
 77
     0
 78
     0
  0
ENDTAB
  0
TABLE
  2
LTYPE
  5
5
100
AcDbSymbolTable
 70
    40
  0
LTYPE
  5
12
100
AcDbSymbolTableRecord
100
AcDbLinetypeTableRecord
  2
BYBLOCK
 70
     0
  3

 72
    65
 73
     0
 40
0.0
  0
LTYPE
  5
13
100
AcDbSymbolTableRecord
100
AcDbLinetypeTableRecord
  2
BYLAYER
 70
     0
  3

 72
    65
 73
     0
 40
0.0
  0
LTYPE
  5
14
100
AcDbSymbolTableRecord
100
AcDbLinetypeTableRecord
  2
CONTINUOUS
 70
     0
  3
Solid line
 72
    65
 73
     0
 40
0.0
  0
LTYPE
  5
1E
100
AcDbSymbolTableRecord
100
AcDbLinetypeTableRecord
  2
HIDDEN
 70
     0
  3
_ _ _ _ _ _ _ _ _ _ _ _ _ _ 
 72
    65
 73
     2
 40
9.524999999999998
 49
6.349999999999999
 74
     0
 49
-3.174999999999999
 74
     0
  0
LTYPE
  5
1F
100
AcDbSymbolTableRecord
100
AcDbLinetypeTableRecord
  2
DASHED
 70
     0
  3
__ __ __ __ __ __ __ __ __ 
 72
    65
 73
     2
 40
19.04999999999999
 49
12.7
 74
     0
 49
-6.349999999999999
 74
     0
  0
LTYPE
  5
20
100
AcDbSymbolTableRecord
100
AcDbLinetypeTableRecord
  2
CENTER
 70
     0
  3
____ _ ____ _ ____ _ ____ _ 
 72
    65
 73
     4
 40
50.8
 49
31.75
 74
     0
 49
-6.349999999999999
 74
     0
 49
6.349999999999999
 74
     0
 49
-6.349999999999999
 74
     0
  0
LTYPE
  5
21
100
AcDbSymbolTableRecord
100
AcDbLinetypeTableRecord
  2
PHANTOM
 70
     0
  3
_____ _ _ _____ _ _ _____ _ _ 
 72
    65
 73
     6
 40
63.50000000000001
 49
31.75
 74
     0
 49
-6.349999999999999
 74
     0
 49
6.349999999999999
 74
     0
 49
-6.349999999999999
 74
     0
 49
6.349999999999999
 74
     0
 49
-6.349999999999999
 74
     0
  0
LTYPE
  5
22
100
AcDbSymbolTableRecord
100
AcDbLinetypeTableRecord
  2
DOT
 70
     0
  3
...........................
 72
    65
 73
     2
 40
6.349999999999999
 49
0.0
 74
     0
 49
-6.349999999999999
 74
     0
  0
LTYPE
  5
23
100
AcDbSymbolTableRecord
100
AcDbLinetypeTableRecord
  2
DASHDOT
 70
     0
  3
__ . __ . __ . __ . __ . __ . 
 72
    65
 73
     4
 40
25.4
 49
12.7
 74
     0
 49
-6.349999999999999
 74
     0
 49
0.0
 74
     0
 49
-6.349999999999999
 74
     0
  0
LTYPE
  5
24
100
AcDbSymbolTableRecord
100
AcDbLinetypeTableRecord
  2
DIVIDE
 70
     0
  3
__ . . __ . . __ . . __ . . 
 72
    65
 73
     6
 40
31.75
 49
12.7
 74
     0
 49
-6.349999999999999
 74
     0
 49
0.0
 74
     0
 49
-6.349999999999999
 74
     0
 49
0.0
 74
     0
 49
-6.349999999999999
 74
     0
  0
LTYPE
  5
25
100
AcDbSymbolTableRecord
100
AcDbLinetypeTableRecord
  2
BORDER
 70
     0
  3
__ __ . __ __ . __ __ . __ __ .
 72
    65
 73
     6
 40
44.44999999999999
 49
12.7
 74
     0
 49
-6.349999999999999
 74
     0
 49
12.7
 74
     0
 49
-6.349999999999999
 74
     0
 49
0.0
 74
     0
 49
-6.349999999999999
 74
     0
  0
LTYPE
  5
26
100
AcDbSymbolTableRecord
100
AcDbLinetypeTableRecord
  2
BORDER2
 70
     0
  3
Border (.5x) __.__.__.__.__.__.
 72
    65
 73
     6
 40
0.875
 49
0.25
 74
     0
 49
-0.125
 74
     0
 49
0.25
 74
     0
 49
-0.125
 74
     0
 49
0.0
 74
     0
 49
-0.125
 74
     0
  0
LTYPE
  5
27
100
AcDbSymbolTableRecord
100
AcDbLinetypeTableRecord
  2
BORDERX2
 70
     0
  3
Border (2x) ____  ____  .  ____
 72
    65
 73
     6
 40
3.5
 49
1.0
 74
     0
 49
-0.5
 74
     0
 49
1.0
 74
     0
 49
-0.5
 74
     0
 49
0.0
 74
     0
 49
-0.5
 74
     0
  0
LTYPE
  5
28
100
AcDbSymbolTableRecord
100
AcDbLinetypeTableRecord
  2
CENTER2
 70
     0
  3
Center (.5x) ___ _ ___ _ ___ _ 
 72
    65
 73
     4
 40
1.125
 49
0.7500000000000001
 74
     0
 49
-0.125
 74
     0
 49
0.125
 74
     0
 49
-0.125
 74
     0
  0
LTYPE
  5
29
100
AcDbSymbolTableRecord
100
AcDbLinetypeTableRecord
  2
CENTERX2
 70
     0
  3
Center (2x) ________  __  _____
 72
    65
 73
     4
 40
4.0
 49
2.5
 74
     0
 49
-0.5
 74
     0
 49
0.5
 74
     0
 49
-0.5
 74
     0
  0
LTYPE
  5
2A
100
AcDbSymbolTableRecord
100
AcDbLinetypeTableRecord
  2
DASHDOT2
 70
     0
  3
Dash dot (.5x) _._._._._._._._.
 72
    65
 73
     4
 40
0.5
 49
0.25
 74
     0
 49
-0.125
 74
     0
 49
0.0
 74
     0
 49
-0.125
 74
     0
  0
LTYPE
  5
2B
100
AcDbSymbolTableRecord
100
AcDbLinetypeTableRecord
  2
DASHDOTX2
 70
     0
  3
Dash dot (2x) ____  .  ____  . 
 72
    65
 73
     4
 40
2.0
 49
1.0
 74
     0
 49
-0.5
 74
     0
 49
0.0
 74
     0
 49
-0.5
 74
     0
  0
LTYPE
  5
2C
100
AcDbSymbolTableRecord
100
AcDbLinetypeTableRecord
  2
DASHED2
 70
     0
  3
Dashed (.5x) _ _ _ _ _ _ _ _ _ 
 72
    65
 73
     2
 40
0.375
 49
0.25
 74
     0
 49
-0.125
 74
     0
  0
LTYPE
  5
2D
100
AcDbSymbolTableRecord
100
AcDbLinetypeTableRecord
  2
DASHEDX2
 70
     0
  3
Dashed (2x) ____  ____  ____  _
 72
    65
 73
     2
 40
1.5
 49
1.0
 74
     0
 49
-0.5
 74
     0
  0
LTYPE
  5
2E
100
AcDbSymbolTableRecord
100
AcDbLinetypeTableRecord
  2
DIVIDE2
 70
     0
  3
Divide (.5x) __..__..__..__..__
 72
    65
 73
     6
 40
0.625
 49
0.25
 74
     0
 49
-0.125
 74
     0
 49
0.0
 74
     0
 49
-0.125
 74
     0
 49
0.0
 74
     0
 49
-0.125
 74
     0
  0
LTYPE
  5
2F
100
AcDbSymbolTableRecord
100
AcDbLinetypeTableRecord
  2
DIVIDEX2
 70
     0
  3
Divide (2x) ________  .  .  ___
 72
    65
 73
     6
 40
2.5
 49
1.0
 74
     0
 49
-0.5
 74
     0
 49
0.0
 74
     0
 49
-0.5
 74
     0
 49
0.0
 74
     0
 49
-0.5
 74
     0
  0
LTYPE
  5
30
100
AcDbSymbolTableRecord
100
AcDbLinetypeTableRecord
  2
DOT2
 70
     0
  3
Dot (.5x) .....................
 72
    65
 73
     2
 40
0.125
 49
0.0
 74
     0
 49
-0.125
 74
     0
  0
LTYPE
  5
31
100
AcDbSymbolTableRecord
100
AcDbLinetypeTableRecord
  2
DOTX2
 70
     0
  3
Dot (2x) .  .  .  .  .  .  .  .
 72
    65
 73
     2
 40
0.5
 49
0.0
 74
     0
 49
-0.5
 74
     0
  0
LTYPE
  5
32
100
AcDbSymbolTableRecord
100
AcDbLinetypeTableRecord
  2
HIDDEN2
 70
     0
  3
Hidden (.5x) _ _ _ _ _ _ _ _ _ 
 72
    65
 73
     2
 40
0.1875
 49
0.125
 74
     0
 49
-0.0625
 74
     0
  0
LTYPE
  5
33
100
AcDbSymbolTableRecord
100
AcDbLinetypeTableRecord
  2
HIDDENX2
 70
     0
  3
Hidden (2x) ____ ____ ____ ____
 72
    65
 73
     2
 40
0.75
 49
0.5
 74
     0
 49
-0.25
 74
     0
  0
LTYPE
  5
34
100
AcDbSymbolTableRecord
100
AcDbLinetypeTableRecord
  2
PHANTOM2
 70
     0
  3
Phantom (.5x) ___ _ _ ___ _ _ _
 72
    65
 73
     6
 40
1.25
 49
0.6250000000000001
 74
     0
 49
-0.125
 74
     0
 49
0.125
 74
     0
 49
-0.125
 74
     0
 49
0.125
 74
     0
 49
-0.125
 74
     0
  0
LTYPE
  5
35
100
AcDbSymbolTableRecord
100
AcDbLinetypeTableRecord
  2
PHANTOMX2
 70
     0
  3
Phantom (2x) ____________    __
 72
    65
 73
     6
 40
5.0
 49
2.5
 74
     0
 49
-0.5
 74
     0
 49
0.5
 74
     0
 49
-0.5
 74
     0
 49
0.5
 74
     0
 49
-0.5
 74
     0
  0
LTYPE
  5
36
100
AcDbSymbolTableRecord
100
AcDbLinetypeTableRecord
  2
DOTS
 70
     0
  3
Dots - - - - - - - - - - - - - 
 72
    65
 73
     2
 40
0.1
 49
0.05
 74
     0
 49
-0.05
 74
     0
  0
LTYPE
  5
37
100
AcDbSymbolTableRecord
100
AcDbLinetypeTableRecord
  2
ACAD_ISO02W100
 70
     0
  3
__ __ __ __ __ __ __ __ __ __ _
 72
    65
 73
     2
 40
15.0
 49
12.0
 74
     0
 49
-3.0
 74
     0
  0
LTYPE
  5
38
100
AcDbSymbolTableRecord
100
AcDbLinetypeTableRecord
  2
ACAD_ISO03W100
 70
     0
  3
__    __    __    __    __    _
 72
    65
 73
     2
 40
30.0
 49
12.0
 74
     0
 49
-18.0
 74
     0
  0
LTYPE
  5
39
100
AcDbSymbolTableRecord
100
AcDbLinetypeTableRecord
  2
ACAD_ISO04W100
 70
     0
  3
____ . ____ . ____ . ____ . ___
 72
    65
 73
     4
 40
30.5
 49
24.0
 74
     0
 49
-3.0
 74
     0
 49
0.5
 74
     0
 49
-3.0
 74
     0
  0
LTYPE
  5
3A
100
AcDbSymbolTableRecord
100
AcDbLinetypeTableRecord
  2
ACAD_ISO05W100
 70
     0
  3
____ .. ____ .. ____ .. ____ ..
 72
    65
 73
     6
 40
34.0
 49
24.0
 74
     0
 49
-3.0
 74
     0
 49
0.5
 74
     0
 49
-3.0
 74
     0
 49
0.5
 74
     0
 49
-3.0
 74
     0
  0
LTYPE
  5
3B
100
AcDbSymbolTableRecord
100
AcDbLinetypeTableRecord
  2
ACAD_ISO06W100
 70
     0
  3
____ ... ____ ... ____ ... ____
 72
    65
 73
     6
 40
34.0
 49
24.0
 74
     0
 49
-3.0
 74
     0
 49
0.5
 74
     0
 49
-3.0
 74
     0
 49
0.5
 74
     0
 49
-3.0
 74
     0
  0
LTYPE
  5
3C
100
AcDbSymbolTableRecord
100
AcDbLinetypeTableRecord
  2
ACAD_ISO07W100
 70
     0
  3
. . . . . . . . . . . . . . . .
 72
    65
 73
     2
 40
3.5
 49
0.5
 74
     0
 49
-3.0
 74
     0
  0
LTYPE
  5
3D
100
AcDbSymbolTableRecord
100
AcDbLinetypeTableRecord
  2
ACAD_ISO08W100
 70
     0
  3
____ __ ____ __ ____ __ ____ __
 72
    65
 73
     4
 40
36.0
 49
24.0
 74
     0
 49
-3.0
 74
     0
 49
6.0
 74
     0
 49
-3.0
 74
     0
  0
LTYPE
  5
3E
100
AcDbSymbolTableRecord
100
AcDbLinetypeTableRecord
  2
ACAD_ISO09W100
 70
     0
  3
____ __ __ ____ __ __ ____ __ _
 72
    65
 73
     6
 40
45.0
 49
24.0
 74
     0
 49
-3.0
 74
     0
 49
6.0
 74
     0
 49
-3.0
 74
     0
 49
6.0
 74
     0
 49
-3.0
 74
     0
  0
LTYPE
  5
3F
100
AcDbSymbolTableRecord
100
AcDbLinetypeTableRecord
  2
ACAD_ISO10W100
 70
     0
  3
__ . __ . __ . __ . __ . __ . _
 72
    65
 73
     4
 40
18.5
 49
12.0
 74
     0
 49
-3.0
 74
     0
 49
0.5
 74
     0
 49
-3.0
 74
     0
  0
LTYPE
  5
40
100
AcDbSymbolTableRecord
100
AcDbLinetypeTableRecord
  2
ACAD_ISO11W100
 70
     0
  3
__ __ . __ __ . __ __ . __ __ .
 72
    65
 73
     6
 40
33.5
 49
12.0
 74
     0
 49
-3.0
 74
     0
 49
12.0
 74
     0
 49
-3.0
 74
     0
 49
0.5
 74
     0
 49
-3.0
 74
     0
  0
LTYPE
  5
41
100
AcDbSymbolTableRecord
100
AcDbLinetypeTableRecord
  2
ACAD_ISO12W100
 70
     0
  3
__ . . __ . . __ . . __ . . __ 
 72
    65
 73
     6
 40
22.0
 49
12.0
 74
     0
 49
-3.0
 74
     0
 49
0.5
 74
     0
 49
-3.0
 74
     0
 49
0.5
 74
     0
 49
-3.0
 74
     0
  0
LTYPE
  5
42
100
AcDbSymbolTableRecord
100
AcDbLinetypeTableRecord
  2
ACAD_ISO13W100
 70
     0
  3
__ __ . . __ __ . . __ __ . . _
 72
    65
 73
     6
 40
33.5
 49
12.0
 74
     0
 49
-3.0
 74
     0
 49
12.0
 74
     0
 49
-3.0
 74
     0
 49
0.5
 74
     0
 49
-3.0
 74
     0
  0
LTYPE
  5
43
100
AcDbSymbolTableRecord
100
AcDbLinetypeTableRecord
  2
ACAD_ISO14W100
 70
     0
  3
__ . . . __ . . . __ . . . __ .
 72
    65
 73
     6
 40
22.0
 49
12.0
 74
     0
 49
-3.0
 74
     0
 49
0.5
 74
     0
 49
-3.0
 74
     0
 49
0.5
 74
     0
 49
-3.0
 74
     0
  0
LTYPE
  5
44
100
AcDbSymbolTableRecord
100
AcDbLinetypeTableRecord
  2
ACAD_ISO15W100
 70
     0
  3
__ __ . . . __ __ . . . __ __ .
 72
    65
 73
     6
 40
33.5
 49
12.0
 74
     0
 49
-3.0
 74
     0
 49
12.0
 74
     0
 49
-3.0
 74
     0
 49
0.5
 74
     0
 49
-3.0
 74
     0
  0
ENDTAB
  0
TABLE
  2
LAYER
  5
2
100
AcDbSymbolTable
 70
     2
  0
LAYER
  5
E
100
AcDbSymbolTableRecord
100
AcDbLayerTableRecord
  2
0
 70
     0
 62
     7
  6
CONTINUOUS
  0
LAYER
  5
45
100
AcDbSymbolTableRecord
100
AcDbLayerTableRecord
  2
1
 70
     0
 62
     7
  6
CONTINUOUS
  0
ENDTAB
  0
TABLE
  2
STYLE
  5
3
100
AcDbSymbolTable
 70
     6
  0
STYLE
  5
F
100
AcDbSymbolTableRecord
100
AcDbTextStyleTableRecord
  2
STANDARD
 70
     0
 40
0.0
 41
1.0
 50
0.0
 71
     0
 42
9.999999999999998
  3
txt
  4

  0
STYLE
  5
46
100
AcDbSymbolTableRecord
100
AcDbTextStyleTableRecord
  2
ITALIC
 70
     0
 40
0.0
 41
1.0
 50
0.0
 71
     0
 42
9.999999999999998
  3
ITALIC
  4

  0
STYLE
  5
47
100
AcDbSymbolTableRecord
100
AcDbTextStyleTableRecord
  2
SIMPLEX
 70
     0
 40
0.0
 41
1.0
 50
0.0
 71
     0
 42
9.999999999999998
  3
SIMPLEX
  4

  0
STYLE
  5
48
100
AcDbSymbolTableRecord
100
AcDbTextStyleTableRecord
  2
COMPLEX
 70
     0
 40
0.0
 41
1.0
 50
0.0
 71
     0
 42
9.999999999999998
  3
COMPLEX
  4

  0
STYLE
  5
49
100
AcDbSymbolTableRecord
100
AcDbTextStyleTableRecord
  2
ARIALB
 70
     0
 40
0.0
 41
1.0
 50
0.0
 71
     0
 42
9.999999999999998
  3
ARIALBD.TTF
  4

1001
ACAD
1000
Arial
1071
 33554432
  0
STYLE
  5
23A
100
AcDbSymbolTableRecord
100
AcDbTextStyleTableRecord
  2
ARIAL
 70
     0
 40
0.0
 41
1.0
 50
0.0
 71
     0
 42
9.999999999999998
  3
ARIAL.TTF
  4

1001
ACAD
1000
Arial
1071
        0
  0
ENDTAB
  0
TABLE
  2
VIEW
  5
6
100
AcDbSymbolTable
 70
     0
  0
ENDTAB
  0
TABLE
  2
UCS
  5
7
100
AcDbSymbolTable
 70
     0
  0
ENDTAB
  0
TABLE
  2
APPID
  5
9
100
AcDbSymbolTable
 70
     1
  0
APPID
  5
10
100
AcDbSymbolTableRecord
100
AcDbRegAppTableRecord
  2
ACAD
 70
     0
  0
ENDTAB
  0
TABLE
  2
DIMSTYLE
  5
A
100
AcDbSymbolTable
 70
     1
  0
DIMSTYLE
105
1D
100
AcDbSymbolTableRecord
100
AcDbDimStyleTableRecord
  2
STANDARD
 70
     0
  3

  4

  5

  6

  7

 40
1.0
 41
0.18
 42
0.0625
 43
0.38
 44
0.18
 45
0.0
 46
0.0
 47
0.0
 48
0.0
140
0.18
141
0.09
142
0.0
143
25.4
144
1.0
145
0.0
146
1.0
147
0.09
 71
     0
 72
     0
 73
     1
 74
     1
 75
     0
 76
     0
 77
     0
 78
     0
170
     0
171
     2
172
     0
173
     0
174
     0
175
     0
176
     0
177
     0
178
     0
270
     2
271
     4
272
     4
273
     2
274
     2
340
F
275
     0
280
     0
281
     0
282
     0
283
     1
284
     0
285
     0
286
     0
287
     3
288
     0
  0
ENDTAB
  0
TABLE
  2
BLOCK_RECORD
  5
1
100
AcDbSymbolTable
 70
     0
  0
BLOCK_RECORD
  5
18
100
AcDbSymbolTableRecord
100
AcDbBlockTableRecord
  2
*MODEL_SPACE
  0
BLOCK_RECORD
  5
15
100
AcDbSymbolTableRecord
100
AcDbBlockTableRecord
  2
*PAPER_SPACE
  0
ENDTAB
  0
ENDSEC
  0
SECTION
  2
BLOCKS
  0
BLOCK
  5
19
100
AcDbEntity
  8
0
100
AcDbBlockBegin
  2
*MODEL_SPACE
 70
     0
 10
0.0
 20
0.0
 30
0.0
  3
*MODEL_SPACE
  1

  0
ENDBLK
  5
1A
100
AcDbEntity
  8
0
100
AcDbBlockEnd
  0
BLOCK
  5
16
100
AcDbEntity
 67
     1
  8
0
100
AcDbBlockBegin
  2
*PAPER_SPACE
 70
     0
 10
0.0
 20
0.0
 30
0.0
  3
*PAPER_SPACE
  1

  0
ENDBLK
  5
17
100
AcDbEntity
 67
     1
  8
0
100
AcDbBlockEnd
  0
ENDSEC
  0
SECTION
  2
ENTITIES
  0
TEXT
  5
4A
100
AcDbEntity
  8
1
  6
CONTINUOUS
 62
     7
100
AcDbText
 10
12.99999999999999
 20
199.9999999999999
 30
0.0
 40
1.249999999999999
  1
X7/2
  7
ARIALB
100
AcDbText
  0
LINE
  5
4B
100
AcDbEntity
  8
1
  6
CONTINUOUS
 62
     7
100
AcDbLine
 10
36.00000000000001
 20
187.9999999999999
 30
0.0
 11
36.00000000000001
 21
175.9999999999999
 31
0.0
  0
LINE
  5
4C
100
AcDbEntity
  8
1
  6
CONTINUOUS
 62
     7
100
AcDbLine
 10
36.00000000000001
 20
187.9999999999999
 30
0.0
 11
48.00000000000001
 21
181.9999999999999
 31
0.0
  0
LINE
  5
4D
100
AcDbEntity
  8
1
  6
CONTINUOUS
 62
     7
100
AcDbLine
 10
36.00000000000001
 20
175.9999999999999
 30
0.0
 11
48.00000000000001
 21
181.9999999999999
 31
0.0
  0
LINE
  5
4E
100
AcDbEntity
  8
1
  6
CONTINUOUS
 62
     7
100
AcDbLine
 10
36.00000000000001
 20
179.0
 30
0.0
 11
32.99999999999999
 21
179.0
 31
0.0
  0
LINE
  5
4F
100
AcDbEntity
  8
1
  6
CONTINUOUS
 62
     7
100
AcDbLine
 10
48.00000000000001
 20
181.9999999999999
 30
0.0
 11
51.00000000000001
 21
181.9999999999999
 31
0.0
  0
TEXT
  5
50
100
AcDbEntity
  8
1
  6
CONTINUOUS
 62
     7
100
AcDbText
 10
33.99999999999999
 20
180.0
 30
0.0
 40
1.249999999999999
  1
8
  7
ARIALB
100
AcDbText
  0
TEXT
  5
51
100
AcDbEntity
  8
1
  6
CONTINUOUS
 62
     7
100
AcDbText
 10
49.00000000000002
 20
183.0
 30
0.0
 40
1.249999999999999
  1
1
  7
ARIALB
100
AcDbText
  0
LINE
  5
52
100
AcDbEntity
  8
1
  6
CONTINUOUS
 62
     7
100
AcDbLine
 10
69.0
 20
184.9999999999999
 30
0.0
 11
69.0
 21
172.9999999999999
 31
0.0
  0
LINE
  5
53
100
AcDbEntity
  8
1
  6
CONTINUOUS
 62
     7
100
AcDbLine
 10
69.0
 20
184.9999999999999
 30
0.0
 11
81.00000000000001
 21
178.9999999999999
 31
0.0
  0
LINE
  5
54
100
AcDbEntity
  8
1
  6
CONTINUOUS
 62
     7
100
AcDbLine
 10
69.0
 20
172.9999999999999
 30
0.0
 11
81.00000000000001
 21
178.9999999999999
 31
0.0
  0
LINE
  5
55
100
AcDbEntity
  8
1
  6
CONTINUOUS
 62
     7
100
AcDbLine
 10
69.0
 20
181.9999999999999
 30
0.0
 11
65.99999999999998
 21
181.9999999999999
 31
0.0
  0
TEXT
  5
56
100
AcDbEntity
  8
1
  6
CONTINUOUS
 62
     7
100
AcDbText
 10
66.99999999999999
 20
182.9999999999999
 30
0.0
 40
1.249999999999999
  1
3
  7
ARIALB
100
AcDbText
  0
TEXT
  5
57
100
AcDbEntity
  8
1
  6
CONTINUOUS
 62
     7
100
AcDbText
 10
66.99999999999999
 20
176.9999999999999
 30
0.0
 40
1.249999999999999
  1
2
  7
ARIALB
100
AcDbText
  0
LINE
  5
58
100
AcDbEntity
  8
1
  6
CONTINUOUS
 62
     7
100
AcDbLine
 10
115.9999999999999
 20
192.9999999999999
 30
0.0
 11
115.9999999999999
 21
181.0
 31
0.0
  0
LINE
  5
59
100
AcDbEntity
  8
1
  6
CONTINUOUS
 62
     7
100
AcDbLine
 10
115.9999999999999
 20
192.9999999999999
 30
0.0
 11
127.9999999999999
 21
187.0
 31
0.0
  0
LINE
  5
5A
100
AcDbEntity
  8
1
  6
CONTINUOUS
 62
     7
100
AcDbLine
 10
115.9999999999999
 20
181.0
 30
0.0
 11
127.9999999999999
 21
187.0
 31
0.0
  0
LINE
  5
5B
100
AcDbEntity
  8
1
  6
CONTINUOUS
 62
     7
100
AcDbLine
 10
115.9999999999999
 20
190.0
 30
0.0
 11
112.9999999999999
 21
190.0
 31
0.0
  0
LINE
  5
5C
100
AcDbEntity
  8
1
  6
CONTINUOUS
 62
     7
100
AcDbLine
 10
115.9999999999999
 20
184.0
 30
0.0
 11
112.9999999999999
 21
184.0
 31
0.0
  0
LINE
  5
5D
100
AcDbEntity
  8
1
  6
CONTINUOUS
 62
     7
100
AcDbLine
 10
127.9999999999999
 20
187.0
 30
0.0
 11
130.9999999999999
 21
187.0
 31
0.0
  0
TEXT
  5
5E
100
AcDbEntity
  8
1
  6
CONTINUOUS
 62
     7
100
AcDbText
 10
113.9999999999999
 20
191.0
 30
0.0
 40
1.249999999999999
  1
2
  7
ARIALB
100
AcDbText
  0
TEXT
  5
5F
100
AcDbEntity
  8
1
  6
CONTINUOUS
 62
     7
100
AcDbText
 10
113.9999999999999
 20
185.0
 30
0.0
 40
1.249999999999999
  1
3
  7
ARIALB
100
AcDbText
  0
TEXT
  5
60
100
AcDbEntity
  8
1
  6
CONTINUOUS
 62
     7
100
AcDbText
 10
129.0
 20
188.0
 30
0.0
 40
1.249999999999999
  1
6
  7
ARIALB
100
AcDbText
  0
LINE
  5
61
100
AcDbEntity
  8
1
  6
CONTINUOUS
 62
     7
100
AcDbLine
 10
52.00000000000001
 20
170.9999999999999
 30
0.0
 11
54.00000000000002
 21
170.9999999999999
 31
0.0
  0
LINE
  5
62
100
AcDbEntity
  8
1
  6
CONTINUOUS
 62
     7
100
AcDbLine
 10
54.00000000000002
 20
177.0
 30
0.0
 11
54.00000000000002
 21
170.9999999999999
 31
0.0
  0
LINE
  5
63
100
AcDbEntity
  8
1
  6
CONTINUOUS
 62
     7
100
AcDbLine
 10
52.00000000000001
 20
170.9999999999999
 30
0.0
 11
52.00000000000001
 21
177.0
 31
0.0
  0
LINE
  5
64
100
AcDbEntity
  8
1
  6
CONTINUOUS
 62
     7
100
AcDbLine
 10
52.00000000000001
 20
177.0
 30
0.0
 11
54.00000000000002
 21
177.0
 31
0.0
  0
LINE
  5
65
100
AcDbEntity
  8
1
  6
CONTINUOUS
 62
     7
100
AcDbLine
 10
25.00000000000002
 20
194.9999999999999
 30
0.0
 11
29.00000000000001
 21
194.9999999999999
 31
0.0
  0
LINE
  5
66
100
AcDbEntity
  8
1
  6
CONTINUOUS
 62
     7
100
AcDbLine
 10
27.00000000000001
 20
195.9999999999999
 30
0.0
 11
27.00000000000001
 21
198.0
 31
0.0
  0
LINE
  5
67
100
AcDbEntity
  8
1
  6
CONTINUOUS
 62
     7
100
AcDbLine
 10
27.00000000000001
 20
192.9999999999999
 30
0.0
 11
27.00000000000001
 21
191.0
 31
0.0
  0
LINE
  5
68
100
AcDbEntity
  8
1
  6
CONTINUOUS
 62
     7
100
AcDbLine
 10
25.00000000000002
 20
194.9999999999999
 30
0.0
 11
25.00000000000002
 21
195.9999999999999
 31
0.0
  0
LINE
  5
69
100
AcDbEntity
  8
1
  6
CONTINUOUS
 62
     7
100
AcDbLine
 10
25.00000000000002
 20
195.9999999999999
 30
0.0
 11
29.00000000000001
 21
195.9999999999999
 31
0.0
  0
LINE
  5
6A
100
AcDbEntity
  8
1
  6
CONTINUOUS
 62
     7
100
AcDbLine
 10
29.00000000000001
 20
195.9999999999999
 30
0.0
 11
29.00000000000001
 21
194.9999999999999
 31
0.0
  0
LWPOLYLINE
  5
6B
102
{ACAD_REACTORS
330
6C
102
}
100
AcDbEntity
  8
1
  6
CONTINUOUS
 62
     7
100
AcDbPolyline
 90
        4
 70
     1
 43
0.0
 10
25.00000000000002
 20
193.9999999999999
 10
29.00000000000001
 20
193.9999999999999
 10
29.00000000000001
 20
192.9999999999999
 10
25.00000000000002
 20
192.9999999999999
  0
HATCH
  5
6C
100
AcDbEntity
  8
1
  6
CONTINUOUS
 62
    19
100
AcDbHatch
 10
0.0
 20
0.0
 30
0.0
210
0.0
220
0.0
230
1.0
  2
SOLID
 70
     1
 71
     1
 91
        1
 92
        1
 93
        4
 72
     1
 10
25.00000000000002
 20
193.9999999999999
 11
29.00000000000001
 21
193.9999999999999
 72
     1
 10
29.00000000000001
 20
193.9999999999999
 11
29.00000000000001
 21
192.9999999999999
 72
     1
 10
29.00000000000001
 20
192.9999999999999
 11
25.00000000000002
 21
192.9999999999999
 72
     1
 10
25.00000000000002
 20
192.9999999999999
 11
25.00000000000002
 21
193.9999999999999
 97
        1
330
6B
 75
     0
 76
     1
 98
        1
 10
0.0
 20
0.0
  0
LINE
  5
6D
100
AcDbEntity
  8
1
  6
CONTINUOUS
 62
     7
100
AcDbLine
 10
51.99999999999999
 20
160.9999999999999
 30
0.0
 11
53.99999999999999
 21
160.9999999999999
 31
0.0
  0
LINE
  5
6E
100
AcDbEntity
  8
1
  6
CONTINUOUS
 62
     7
100
AcDbLine
 10
53.99999999999999
 20
166.9999999999999
 30
0.0
 11
53.99999999999999
 21
160.9999999999999
 31
0.0
  0
LINE
  5
6F
100
AcDbEntity
  8
1
  6
CONTINUOUS
 62
     7
100
AcDbLine
 10
51.99999999999999
 20
160.9999999999999
 30
0.0
 11
51.99999999999999
 21
166.9999999999999
 31
0.0
  0
LINE
  5
70
100
AcDbEntity
  8
1
  6
CONTINUOUS
 62
     7
100
AcDbLine
 10
51.99999999999999
 20
166.9999999999999
 30
0.0
 11
53.99999999999999
 21
166.9999999999999
 31
0.0
  0
LINE
  5
71
100
AcDbEntity
  8
1
  6
CONTINUOUS
 62
     7
100
AcDbLine
 10
19.99999999999999
 20
200.0
 30
0.0
 11
136.0
 21
200.0
 31
0.0
  0
LINE
  5
72
100
AcDbEntity
  8
1
  6
CONTINUOUS
 62
     7
100
AcDbLine
 10
26.99999999999999
 20
200.0
 30
0.0
 11
26.99999999999999
 21
197.9999999999999
 31
0.0
  0
LINE
  5
73
100
AcDbEntity
  8
1
  6
CONTINUOUS
 62
     7
100
AcDbLine
 10
26.99999999999999
 20
191.0
 30
0.0
 11
26.99999999999999
 21
187.0
 31
0.0
  0
LINE
  5
74
100
AcDbEntity
  8
1
  6
CONTINUOUS
 62
     7
100
AcDbLine
 10
25.0
 20
187.0
 30
0.0
 11
29.0
 21
187.0
 31
0.0
  0
CIRCLE
  5
75
100
AcDbEntity
  8
1
  6
CONTINUOUS
 62
     7
100
AcDbCircle
 10
26.99999999999999
 20
187.0
 30
0.0
 40
0.4
  0
CIRCLE
  5
76
100
AcDbEntity
  8
1
  6
CONTINUOUS
 62
     7
100
AcDbCircle
 10
26.99999999999999
 20
200.0
 30
0.0
 40
0.4
  0
LINE
  5
77
100
AcDbEntity
  8
1
  6
CONTINUOUS
 62
     7
100
AcDbLine
 10
69.0
 20
175.9999999999999
 30
0.0
 11
65.99999999999998
 21
175.9999999999999
 31
0.0
  0
LINE
  5
78
100
AcDbEntity
  8
1
  6
CONTINUOUS
 62
     7
100
AcDbLine
 10
51.0
 20
181.9999999999999
 30
0.0
 11
52.99999999999999
 21
181.9999999999999
 31
0.0
  0
LINE
  5
79
100
AcDbEntity
  8
1
  6
CONTINUOUS
 62
     7
100
AcDbLine
 10
52.99999999999999
 20
181.9999999999999
 30
0.0
 11
52.99999999999999
 21
177.0
 31
0.0
  0
LINE
  5
7A
100
AcDbEntity
  8
1
  6
CONTINUOUS
 62
     7
100
AcDbLine
 10
52.99999999999999
 20
170.9999999999999
 30
0.0
 11
52.99999999999999
 21
166.9999999999999
 31
0.0
  0
LINE
  5
7B
100
AcDbEntity
  8
1
  6
CONTINUOUS
 62
     7
100
AcDbLine
 10
52.99999999999999
 20
161.0
 30
0.0
 11
52.99999999999999
 21
156.9999999999999
 31
0.0
  0
LINE
  5
7C
100
AcDbEntity
  8
1
  6
CONTINUOUS
 62
     7
100
AcDbLine
 10
19.99999999999999
 20
156.9999999999999
 30
0.0
 11
57.0
 21
156.9999999999999
 31
0.0
  0
LINE
  5
7D
100
AcDbEntity
  8
1
  6
CONTINUOUS
 62
     7
100
AcDbLine
 10
52.99999999999999
 20
168.9999999999999
 30
0.0
 11
31.0
 21
168.9999999999999
 31
0.0
  0
LINE
  5
7E
100
AcDbEntity
  8
1
  6
CONTINUOUS
 62
     7
100
AcDbLine
 10
31.0
 20
168.9999999999999
 30
0.0
 11
31.0
 21
179.0
 31
0.0
  0
LINE
  5
7F
100
AcDbEntity
  8
1
  6
CONTINUOUS
 62
     7
100
AcDbLine
 10
31.0
 20
168.9999999999999
 30
0.0
 11
31.0
 21
179.0
 31
0.0
  0
LINE
  5
80
100
AcDbEntity
  8
1
  6
CONTINUOUS
 62
     7
100
AcDbLine
 10
32.99999999999999
 20
179.0
 30
0.0
 11
31.0
 21
179.0
 31
0.0
  0
CIRCLE
  5
81
100
AcDbEntity
  8
1
  6
CONTINUOUS
 62
     7
100
AcDbCircle
 10
52.99999999999999
 20
168.9999999999999
 30
0.0
 40
0.4
  0
CIRCLE
  5
82
100
AcDbEntity
  8
1
  6
CONTINUOUS
 62
     7
100
AcDbCircle
 10
52.99999999999999
 20
156.9999999999999
 30
0.0
 40
0.4
  0
LINE
  5
83
100
AcDbEntity
  8
1
  6
CONTINUOUS
 62
     7
100
AcDbLine
 10
52.99999999999999
 20
181.9999999999999
 30
0.0
 11
65.99999999999998
 21
181.9999999999999
 31
0.0
  0
LINE
  5
84
100
AcDbEntity
  8
1
  6
CONTINUOUS
 62
     7
100
AcDbLine
 10
86.00000000000001
 20
167.9999999999999
 30
0.0
 11
88.00000000000002
 21
167.9999999999999
 31
0.0
  0
LINE
  5
85
100
AcDbEntity
  8
1
  6
CONTINUOUS
 62
     7
100
AcDbLine
 10
88.00000000000002
 20
174.0
 30
0.0
 11
88.00000000000002
 21
167.9999999999999
 31
0.0
  0
LINE
  5
86
100
AcDbEntity
  8
1
  6
CONTINUOUS
 62
     7
100
AcDbLine
 10
86.00000000000001
 20
167.9999999999999
 30
0.0
 11
86.00000000000001
 21
174.0
 31
0.0
  0
LINE
  5
87
100
AcDbEntity
  8
1
  6
CONTINUOUS
 62
     7
100
AcDbLine
 10
86.00000000000001
 20
174.0
 30
0.0
 11
88.00000000000002
 21
174.0
 31
0.0
  0
LINE
  5
88
100
AcDbEntity
  8
1
  6
CONTINUOUS
 62
     7
100
AcDbLine
 10
82.99999999999998
 20
167.9999999999999
 30
0.0
 11
84.99999999999998
 21
167.9999999999999
 31
0.0
  0
LINE
  5
89
100
AcDbEntity
  8
1
  6
CONTINUOUS
 62
     7
100
AcDbLine
 10
84.99999999999998
 20
174.0
 30
0.0
 11
84.99999999999998
 21
167.9999999999999
 31
0.0
  0
LINE
  5
8A
100
AcDbEntity
  8
1
  6
CONTINUOUS
 62
     7
100
AcDbLine
 10
82.99999999999998
 20
167.9999999999999
 30
0.0
 11
82.99999999999998
 21
174.0
 31
0.0
  0
LINE
  5
8B
100
AcDbEntity
  8
1
  6
CONTINUOUS
 62
     7
100
AcDbLine
 10
82.99999999999998
 20
174.0
 30
0.0
 11
84.99999999999998
 21
174.0
 31
0.0
  0
LINE
  5
8C
100
AcDbEntity
  8
1
  6
CONTINUOUS
 62
     7
100
AcDbLine
 10
86.99999999999999
 20
167.9999999999999
 30
0.0
 11
86.99999999999999
 21
164.0
 31
0.0
  0
LINE
  5
8D
100
AcDbEntity
  8
1
  6
CONTINUOUS
 62
     7
100
AcDbLine
 10
98.00000000000002
 20
186.0
 30
0.0
 11
100.0
 21
186.0
 31
0.0
  0
LINE
  5
8E
100
AcDbEntity
  8
1
  6
CONTINUOUS
 62
     7
100
AcDbLine
 10
100.0
 20
191.9999999999999
 30
0.0
 11
100.0
 21
186.0
 31
0.0
  0
LINE
  5
8F
100
AcDbEntity
  8
1
  6
CONTINUOUS
 62
     7
100
AcDbLine
 10
98.00000000000002
 20
186.0
 30
0.0
 11
98.00000000000002
 21
191.9999999999999
 31
0.0
  0
LINE
  5
90
100
AcDbEntity
  8
1
  6
CONTINUOUS
 62
     7
100
AcDbLine
 10
98.00000000000002
 20
191.9999999999999
 30
0.0
 11
100.0
 21
191.9999999999999
 31
0.0
  0
LINE
  5
91
100
AcDbEntity
  8
1
  6
CONTINUOUS
 62
     7
100
AcDbLine
 10
97.99999999999998
 20
175.9999999999999
 30
0.0
 11
100.0
 21
175.9999999999999
 31
0.0
  0
LINE
  5
92
100
AcDbEntity
  8
1
  6
CONTINUOUS
 62
     7
100
AcDbLine
 10
100.0
 20
182.0
 30
0.0
 11
100.0
 21
175.9999999999999
 31
0.0
  0
LINE
  5
93
100
AcDbEntity
  8
1
  6
CONTINUOUS
 62
     7
100
AcDbLine
 10
97.99999999999998
 20
175.9999999999999
 30
0.0
 11
97.99999999999998
 21
182.0
 31
0.0
  0
LINE
  5
94
100
AcDbEntity
  8
1
  6
CONTINUOUS
 62
     7
100
AcDbLine
 10
97.99999999999998
 20
182.0
 30
0.0
 11
100.0
 21
182.0
 31
0.0
  0
LINE
  5
95
100
AcDbEntity
  8
1
  6
CONTINUOUS
 62
     7
100
AcDbLine
 10
98.99999999999998
 20
186.0
 30
0.0
 11
98.99999999999998
 21
182.0
 31
0.0
  0
CIRCLE
  5
96
100
AcDbEntity
  8
1
  6
CONTINUOUS
 62
     7
100
AcDbCircle
 10
98.99999999999998
 20
184.0
 30
0.0
 40
0.4
  0
LINE
  5
97
100
AcDbEntity
  8
1
  6
CONTINUOUS
 62
     7
100
AcDbLine
 10
80.99999999999999
 20
179.0
 30
0.0
 11
87.00000000000001
 21
179.0
 31
0.0
  0
LINE
  5
98
100
AcDbEntity
  8
1
  6
CONTINUOUS
 62
     7
100
AcDbLine
 10
87.00000000000001
 20
179.0
 30
0.0
 11
87.00000000000001
 21
173.9999999999999
 31
0.0
  0
LINE
  5
99
100
AcDbEntity
  8
1
  6
CONTINUOUS
 62
     7
100
AcDbLine
 10
83.99999999999998
 20
167.9999999999999
 30
0.0
 11
83.99999999999998
 21
164.0
 31
0.0
  0
LINE
  5
9A
100
AcDbEntity
  8
1
  6
CONTINUOUS
 62
     7
100
AcDbLine
 10
65.99999999999998
 20
175.9999999999999
 30
0.0
 11
65.99999999999998
 21
168.9999999999999
 31
0.0
  0
LINE
  5
9B
100
AcDbEntity
  8
1
  6
CONTINUOUS
 62
     7
100
AcDbLine
 10
65.99999999999998
 20
160.9999999999999
 30
0.0
 11
87.00000000000001
 21
160.9999999999999
 31
0.0
  0
LINE
  5
9C
100
AcDbEntity
  8
1
  6
CONTINUOUS
 62
     7
100
AcDbLine
 10
87.00000000000001
 20
179.0
 30
0.0
 11
87.00000000000001
 21
196.9999999999999
 31
0.0
  0
LINE
  5
9D
100
AcDbEntity
  8
1
  6
CONTINUOUS
 62
     7
100
AcDbLine
 10
87.00000000000001
 20
196.9999999999999
 30
0.0
 11
156.9999999999999
 21
196.9999999999999
 31
0.0
  0
LINE
  5
9E
100
AcDbEntity
  8
1
  6
CONTINUOUS
 62
     7
100
AcDbLine
 10
156.9999999999999
 20
196.9999999999999
 30
0.0
 11
155.9999999999999
 21
197.9999999999999
 31
0.0
  0
LINE
  5
9F
100
AcDbEntity
  8
1
  6
CONTINUOUS
 62
     7
100
AcDbLine
 10
156.9999999999999
 20
196.9999999999999
 30
0.0
 11
155.9999999999999
 21
195.9999999999999
 31
0.0
  0
LINE
  5
A0
100
AcDbEntity
  8
1
  6
CONTINUOUS
 62
     7
100
AcDbLine
 10
130.9999999999999
 20
187.0
 30
0.0
 11
138.9999999999999
 21
187.0
 31
0.0
  0
LINE
  5
A1
100
AcDbEntity
  8
1
  6
CONTINUOUS
 62
     7
100
AcDbLine
 10
139.0
 20
187.0
 30
0.0
 11
138.0
 21
188.0
 31
0.0
  0
LINE
  5
A2
100
AcDbEntity
  8
1
  6
CONTINUOUS
 62
     7
100
AcDbLine
 10
139.0
 20
187.0
 30
0.0
 11
138.0
 21
186.0
 31
0.0
  0
LINE
  5
A3
100
AcDbEntity
  8
1
  6
CONTINUOUS
 62
     7
100
AcDbLine
 10
110.0
 20
190.0
 30
0.0
 11
113.0
 21
190.0
 31
0.0
  0
LINE
  5
A4
100
AcDbEntity
  8
1
  6
CONTINUOUS
 62
     7
100
AcDbLine
 10
113.0
 20
183.9999999999999
 30
0.0
 11
98.99999999999998
 21
183.9999999999999
 31
0.0
  0
LINE
  5
A5
100
AcDbEntity
  8
1
  6
CONTINUOUS
 62
     7
100
AcDbLine
 10
98.99999999999998
 20
191.9999999999999
 30
0.0
 11
98.99999999999998
 21
193.9999999999999
 31
0.0
  0
LINE
  5
A6
100
AcDbEntity
  8
1
  6
CONTINUOUS
 62
     7
100
AcDbLine
 10
98.99999999999998
 20
193.9999999999999
 30
0.0
 11
87.00000000000001
 21
193.9999999999999
 31
0.0
  0
LINE
  5
A7
100
AcDbEntity
  8
1
  6
CONTINUOUS
 62
     7
100
AcDbLine
 10
98.99999999999998
 20
175.9999999999999
 30
0.0
 11
98.99999999999998
 21
169.9999999999999
 31
0.0
  0
LINE
  5
A8
100
AcDbEntity
  8
1
  6
CONTINUOUS
 62
     7
100
AcDbLine
 10
96.99999999999999
 20
169.9999999999999
 30
0.0
 11
101.0
 21
169.9999999999999
 31
0.0
  0
LINE
  5
A9
100
AcDbEntity
  8
1
  6
CONTINUOUS
 62
     7
100
AcDbLine
 10
121.9999999999999
 20
190.0
 30
0.0
 11
121.9999999999999
 21
196.9999999999999
 31
0.0
  0
LINE
  5
AA
100
AcDbEntity
  8
1
  6
CONTINUOUS
 62
     7
100
AcDbLine
 10
121.9999999999999
 20
183.9999999999999
 30
0.0
 11
121.9999999999999
 21
175.0
 31
0.0
  0
LINE
  5
AB
100
AcDbEntity
  8
1
  6
CONTINUOUS
 62
     7
100
AcDbLine
 10
119.9999999999999
 20
175.0
 30
0.0
 11
123.9999999999999
 21
175.0
 31
0.0
  0
CIRCLE
  5
AC
100
AcDbEntity
  8
1
  6
CONTINUOUS
 62
     7
100
AcDbCircle
 10
87.00000000000001
 20
193.9999999999999
 30
0.0
 40
0.4
  0
CIRCLE
  5
AD
100
AcDbEntity
  8
1
  6
CONTINUOUS
 62
     7
100
AcDbCircle
 10
131.9999999999999
 20
187.0
 30
0.0
 40
0.4
  0
CIRCLE
  5
AE
100
AcDbEntity
  8
1
  6
CONTINUOUS
 62
     7
100
AcDbCircle
 10
121.9999999999999
 20
175.0
 30
0.0
 40
0.4
  0
CIRCLE
  5
AF
100
AcDbEntity
  8
1
  6
CONTINUOUS
 62
     7
100
AcDbCircle
 10
121.9999999999999
 20
196.9999999999999
 30
0.0
 40
0.4
  0
CIRCLE
  5
B0
100
AcDbEntity
  8
1
  6
CONTINUOUS
 62
     7
100
AcDbCircle
 10
98.99999999999998
 20
169.9999999999999
 30
0.0
 40
0.4
  0
CIRCLE
  5
B1
100
AcDbEntity
  8
1
  6
CONTINUOUS
 62
     7
100
AcDbCircle
 10
52.99999999999999
 20
181.9999999999999
 30
0.0
 40
0.4
  0
LINE
  5
B2
100
AcDbEntity
  8
1
  6
CONTINUOUS
 62
     7
100
AcDbLine
 10
136.0
 20
200.0
 30
0.0
 11
135.0
 21
201.0
 31
0.0
  0
LINE
  5
B3
100
AcDbEntity
  8
1
  6
CONTINUOUS
 62
     7
100
AcDbLine
 10
136.0
 20
200.0
 30
0.0
 11
135.0
 21
199.0
 31
0.0
  0
TEXT
  5
B4
100
AcDbEntity
  8
1
  6
CONTINUOUS
 62
     7
100
AcDbText
 10
13.99999999999999
 20
156.9999999999999
 30
0.0
 40
1.249999999999999
  1
X7/1
  7
ARIALB
100
AcDbText
  0
TEXT
  5
B5
100
AcDbEntity
  8
1
  6
CONTINUOUS
 62
     7
100
AcDbText
 10
138.0
 20
200.0
 30
0.0
 40
1.249999999999999
  1
+9V (batt +ve)
  7
ARIALB
100
AcDbText
  0
TEXT
  5
B6
100
AcDbEntity
  8
1
  6
CONTINUOUS
 62
     7
100
AcDbText
 10
11.99999999999999
 20
196.9999999999999
 30
0.0
 40
1.249999999999999
  1
+9V (batt +ve)
  7
ARIALB
100
AcDbText
  0
TEXT
  5
B7
100
AcDbEntity
  8
1
  6
CONTINUOUS
 62
     7
100
AcDbText
 10
13.99999999999999
 20
153.9999999999999
 30
0.0
 40
1.249999999999999
  1
Batt -ve
  7
ARIALB
100
AcDbText
  0
TEXT
  5
B8
100
AcDbEntity
  8
1
  6
CONTINUOUS
 62
     7
100
AcDbText
 10
34.99999999999999
 20
147.9999999999999
 30
0.0
 40
1.999999999999999
  1
LM10CN selected for lowest 1/f noise
  7
ARIALB
100
AcDbText
  0
MTEXT
  5
B9
100
AcDbEntity
  8
1
  6
CONTINUOUS
 62
     7
100
AcDbMText
 10
112.9999999999999
 20
164.9999999999999
 30
0.0
 40
1.999999999999999
 41
0.0
 71
     7
 72
     1
  1
OP77\Psupply splitter
  7
ARIALB
  0
TEXT
  5
BA
100
AcDbEntity
  8
1
  6
CONTINUOUS
 62
     7
100
AcDbText
 10
57.0
 20
153.0
 30
0.0
 40
1.249999999999999
  1
Batt -ve
  7
ARIALB
100
AcDbText
  0
LINE
  5
BB
100
AcDbEntity
  8
1
  6
CONTINUOUS
 62
     7
100
AcDbLine
 10
57.0
 20
156.9999999999999
 30
0.0
 11
56.0
 21
157.9999999999999
 31
0.0
  0
LINE
  5
BC
100
AcDbEntity
  8
1
  6
CONTINUOUS
 62
     7
100
AcDbLine
 10
57.0
 20
156.9999999999999
 30
0.0
 11
56.0
 21
155.9999999999999
 31
0.0
  0
TEXT
  5
BD
100
AcDbEntity
  8
1
  6
CONTINUOUS
 62
     7
100
AcDbText
 10
96.99999999999999
 20
166.9999999999999
 30
0.0
 40
1.249999999999999
  1
Batt -ve
  7
ARIALB
100
AcDbText
  0
TEXT
  5
BE
100
AcDbEntity
  8
1
  6
CONTINUOUS
 62
     7
100
AcDbText
 10
122.9999999999999
 20
171.9999999999999
 30
0.0
 40
1.249999999999999
  1
Batt -ve
  7
ARIALB
100
AcDbText
  0
TEXT
  5
BF
100
AcDbEntity
  8
1
  6
CONTINUOUS
 62
     7
100
AcDbText
 10
55.0
 20
174.0
 30
0.0
 40
1.249999999999999
  1
47k
  7
ARIALB
100
AcDbText
  0
TEXT
  5
C0
100
AcDbEntity
  8
1
  6
CONTINUOUS
 62
     7
100
AcDbText
 10
55.0
 20
163.0
 30
0.0
 40
1.249999999999999
  1
2k
  7
ARIALB
100
AcDbText
  0
TEXT
  5
C1
100
AcDbEntity
  8
1
  6
CONTINUOUS
 62
     7
100
AcDbText
 10
89.0
 20
170.0
 30
0.0
 40
1.249999999999999
  1
24k
  7
ARIALB
100
AcDbText
  0
MTEXT
  5
C2
100
AcDbEntity
  8
1
  6
CONTINUOUS
 62
     7
100
AcDbMText
 10
78.99999999999998
 20
168.9999999999999
 30
0.0
 40
1.249999999999999
 41
0.0
 71
     7
 72
     1
  1
SOT\Pfor\P7.1V
  7
ARIALB
  0
TEXT
  5
C3
100
AcDbEntity
  8
1
  6
CONTINUOUS
 62
     7
100
AcDbText
 10
101.0
 20
188.0
 30
0.0
 40
1.249999999999999
  1
47k
  7
ARIALB
100
AcDbText
  0
TEXT
  5
C4
100
AcDbEntity
  8
1
  6
CONTINUOUS
 62
     7
100
AcDbText
 10
101.0
 20
178.0
 30
0.0
 40
1.249999999999999
  1
47k
  7
ARIALB
100
AcDbText
  0
TEXT
  5
C5
100
AcDbEntity
  8
1
  6
CONTINUOUS
 62
     7
100
AcDbText
 10
141.9999999999999
 20
186.0
 30
0.0
 40
1.249999999999999
  1
+3.55V
  7
ARIALB
100
AcDbText
  0
TEXT
  5
C6
100
AcDbEntity
  8
1
  6
CONTINUOUS
 62
     7
100
AcDbText
 10
158.9999999999999
 20
195.9999999999999
 30
0.0
 40
1.249999999999999
  1
+7.1V
  7
ARIALB
100
AcDbText
  0
TEXT
  5
C7
100
AcDbEntity
  8
1
  6
CONTINUOUS
 62
     7
100
AcDbText
 10
123.9999999999999
 20
191.0
 30
0.0
 40
1.249999999999999
  1
7
  7
ARIALB
100
AcDbText
  0
TEXT
  5
C8
100
AcDbEntity
  8
1
  6
CONTINUOUS
 62
     7
100
AcDbText
 10
123.9999999999999
 20
181.9999999999999
 30
0.0
 40
1.249999999999999
  1
4
  7
ARIALB
100
AcDbText
  0
TEXT
  5
C9
100
AcDbEntity
  8
1
  6
CONTINUOUS
 62
     7
100
AcDbText
 10
116.9999999999999
 20
189.0
 30
0.0
 40
1.249999999999999
  1
-
  7
ARIALB
100
AcDbText
  0
TEXT
  5
CA
100
AcDbEntity
  8
1
  6
CONTINUOUS
 62
     7
100
AcDbText
 10
116.9999999999999
 20
183.9999999999999
 30
0.0
 40
1.249999999999999
  1
+
  7
ARIALB
100
AcDbText
  0
TEXT
  5
CB
100
AcDbEntity
  8
1
  6
CONTINUOUS
 62
     7
100
AcDbText
 10
70.0
 20
180.9999999999999
 30
0.0
 40
1.249999999999999
  1
+
  7
ARIALB
100
AcDbText
  0
TEXT
  5
CC
100
AcDbEntity
  8
1
  6
CONTINUOUS
 62
     7
100
AcDbText
 10
70.0
 20
175.9999999999999
 30
0.0
 40
1.249999999999999
  1
-
  7
ARIALB
100
AcDbText
  0
TEXT
  5
CD
100
AcDbEntity
  8
1
  6
CONTINUOUS
 62
     7
100
AcDbText
 10
20.99999999999999
 20
183.9999999999999
 30
0.0
 40
1.249999999999999
  1
Batt -ve
  7
ARIALB
100
AcDbText
  0
TEXT
  5
CE
100
AcDbEntity
  8
1
  6
CONTINUOUS
 62
     7
100
AcDbText
 10
31.0
 20
193.9999999999999
 30
0.0
 40
1.249999999999999
  1
10u, 16V
  7
ARIALB
100
AcDbText
  0
TEXT
  5
CF
100
AcDbEntity
  8
1
  6
CONTINUOUS
 62
     7
100
AcDbText
 10
82.00000000000001
 20
180.0
 30
0.0
 40
1.249999999999999
  1
6
  7
ARIALB
100
AcDbText
  0
LINE
  5
D0
100
AcDbEntity
  8
1
  6
CONTINUOUS
 62
     7
100
AcDbLine
 10
75.0
 20
181.9999999999999
 30
0.0
 11
75.0
 21
200.0
 31
0.0
  0
LINE
  5
D1
100
AcDbEntity
  8
1
  6
CONTINUOUS
 62
     7
100
AcDbLine
 10
75.0
 20
175.9999999999999
 30
0.0
 11
75.0
 21
166.0
 31
0.0
  0
LINE
  5
D2
100
AcDbEntity
  8
1
  6
CONTINUOUS
 62
     7
100
AcDbLine
 10
72.99999999999998
 20
165.9999999999999
 30
0.0
 11
77.0
 21
165.9999999999999
 31
0.0
  0
LINE
  5
D3
100
AcDbEntity
  8
1
  6
CONTINUOUS
 62
     7
100
AcDbLine
 10
72.99999999999998
 20
165.9999999999999
 30
0.0
 11
77.0
 21
165.9999999999999
 31
0.0
  0
LINE
  5
D4
100
AcDbEntity
  8
1
  6
CONTINUOUS
 62
     7
100
AcDbLine
 10
72.99999999999998
 20
200.0
 30
0.0
 11
77.0
 21
200.0
 31
0.0
  0
LINE
  5
D5
100
AcDbEntity
  8
1
  6
CONTINUOUS
 62
     7
100
AcDbLine
 10
72.99999999999998
 20
165.9999999999999
 30
0.0
 11
77.0
 21
165.9999999999999
 31
0.0
  0
LINE
  5
D6
100
AcDbEntity
  8
1
  6
CONTINUOUS
 62
     7
100
AcDbLine
 10
72.99999999999998
 20
165.9999999999999
 30
0.0
 11
77.0
 21
165.9999999999999
 31
0.0
  0
CIRCLE
  5
D7
100
AcDbEntity
  8
1
  6
CONTINUOUS
 62
     7
100
AcDbCircle
 10
75.0
 20
165.9999999999999
 30
0.0
 40
0.4
  0
CIRCLE
  5
D8
100
AcDbEntity
  8
1
  6
CONTINUOUS
 62
     7
100
AcDbCircle
 10
75.0
 20
200.0
 30
0.0
 40
0.4
  0
LINE
  5
D9
100
AcDbEntity
  8
1
  6
CONTINUOUS
 62
     7
100
AcDbLine
 10
87.00000000000001
 20
164.0
 30
0.0
 11
87.00000000000001
 21
161.0
 31
0.0
  0
LINE
  5
DA
100
AcDbEntity
  8
1
  6
CONTINUOUS
 62
     7
100
AcDbLine
 10
83.99999999999998
 20
175.9999999999999
 30
0.0
 11
83.99999999999998
 21
174.0
 31
0.0
  0
LINE
  5
DB
100
AcDbEntity
  8
1
  6
CONTINUOUS
 62
     7
100
AcDbLine
 10
65.99999999999998
 20
168.9999999999999
 30
0.0
 11
65.99999999999998
 21
161.0
 31
0.0
  0
TEXT
  5
DC
100
AcDbEntity
  8
1
  6
CONTINUOUS
 62
     7
100
AcDbText
 10
72.99999999999998
 20
163.0
 30
0.0
 40
1.249999999999999
  1
Batt -ve
  7
ARIALB
100
AcDbText
  0
CIRCLE
  5
DD
100
AcDbEntity
  8
1
  6
CONTINUOUS
 62
     7
100
AcDbCircle
 10
87.00000000000001
 20
179.0
 30
0.0
 40
0.4
  0
LINE
  5
DE
100
AcDbEntity
  8
1
  6
CONTINUOUS
 62
     7
100
AcDbLine
 10
10.99999999999997
 20
203.0
 30
0.0
 11
283.0
 21
203.0
 31
0.0
  0
LINE
  5
DF
100
AcDbEntity
  8
1
  6
CONTINUOUS
 62
     7
100
AcDbLine
 10
283.0
 20
203.0
 30
0.0
 11
283.0
 21
13.99999999999999
 31
0.0
  0
LINE
  5
E0
100
AcDbEntity
  8
1
  6
CONTINUOUS
 62
     7
100
AcDbLine
 10
283.0
 20
14.0
 30
0.0
 11
10.99999999999996
 21
14.0
 31
0.0
  0
LINE
  5
E1
100
AcDbEntity
  8
1
  6
CONTINUOUS
 62
     7
100
AcDbLine
 10
11.0
 20
14.0
 30
0.0
 11
11.0
 21
203.0
 31
0.0
  0
MTEXT
  5
E2
100
AcDbEntity
  8
1
  6
CONTINUOUS
 62
     7
100
AcDbMText
 10
129.9999999999999
 20
19.99999999999999
 30
0.0
 40
4.999999999999999
 41
0.0
 71
     7
 72
     1
  1
LR3 schematics\PPower supply, pressure sensor and first amplifier
  7
ARIALB
  0
ARC
  5
E3
100
AcDbEntity
  8
1
  6
CONTINUOUS
 62
     7
100
AcDbCircle
 10
19.0
 20
156.9999999999999
 30
0.0
 40
1.000000000000003
100
AcDbArc
 50
270.0
 51
90.00000000000007
  0
ARC
  5
E4
100
AcDbEntity
  8
1
  6
CONTINUOUS
 62
     7
100
AcDbCircle
 10
19.0
 20
200.0
 30
0.0
 40
1.000000000000003
100
AcDbArc
 50
270.0
 51
90.00000000000007
  0
TEXT
  5
E5
100
AcDbEntity
  8
1
  6
CONTINUOUS
 62
     7
100
AcDbText
 10
76.0
 20
182.9999999999999
 30
0.0
 40
1.249999999999999
  1
7
  7
ARIALB
100
AcDbText
  0
TEXT
  5
E6
100
AcDbEntity
  8
1
  6
CONTINUOUS
 62
     7
100
AcDbText
 10
76.0
 20
174.0
 30
0.0
 40
1.249999999999999
  1
4
  7
ARIALB
100
AcDbText
  0
LINE
  5
E7
100
AcDbEntity
  8
1
  6
CONTINUOUS
 62
     7
100
AcDbLine
 10
131.9999999999999
 20
187.0
 30
0.0
 11
131.9999999999999
 21
193.9999999999999
 31
0.0
  0
LINE
  5
E8
100
AcDbEntity
  8
1
  6
CONTINUOUS
 62
     7
100
AcDbLine
 10
110.0
 20
193.9999999999999
 30
0.0
 11
110.0
 21
190.0
 31
0.0
  0
LINE
  5
E9
100
AcDbEntity
  8
1
  6
CONTINUOUS
 62
     7
100
AcDbLine
 10
131.9999999999999
 20
193.9999999999999
 30
0.0
 11
110.0
 21
193.9999999999999
 31
0.0
  0
LINE
  5
EA
100
AcDbEntity
  8
1
  6
CONTINUOUS
 62
     7
100
AcDbLine
 10
24.0
 20
200.0
 30
0.0
 11
24.0
 21
193.9999999999999
 31
0.0
  0
LINE
  5
EB
100
AcDbEntity
  8
1
  6
CONTINUOUS
 62
     7
100
AcDbLine
 10
24.0
 20
193.9999999999999
 30
0.0
 11
19.99999999999999
 21
193.9999999999999
 31
0.0
  0
ARC
  5
EC
100
AcDbEntity
  8
1
  6
CONTINUOUS
 62
     7
100
AcDbCircle
 10
19.0
 20
193.9999999999999
 30
0.0
 40
1.000000000000003
100
AcDbArc
 50
270.0
 51
90.00000000000007
  0
TEXT
  5
ED
100
AcDbEntity
  8
1
  6
CONTINUOUS
 62
     7
100
AcDbText
 10
14.0
 20
192.9999999999999
 30
0.0
 40
1.249999999999999
  1
X6/8
  7
ARIALB
100
AcDbText
  0
TEXT
  5
EE
100
AcDbEntity
  8
1
  6
CONTINUOUS
 62
     7
100
AcDbText
 10
12.99999999999999
 20
191.0
 30
0.0
 40
1.249999999999999
  1
to display card
  7
ARIALB
100
AcDbText
  0
LINE
  5
EF
100
AcDbEntity
  8
1
  6
CONTINUOUS
 62
     7
100
AcDbLine
 10
24.0
 20
164.0
 30
0.0
 11
20.0
 21
164.0
 31
0.0
  0
ARC
  5
F0
100
AcDbEntity
  8
1
  6
CONTINUOUS
 62
     7
100
AcDbCircle
 10
19.0
 20
164.0
 30
0.0
 40
1.000000000000003
100
AcDbArc
 50
270.0
 51
90.00000000000007
  0
TEXT
  5
F1
100
AcDbEntity
  8
1
  6
CONTINUOUS
 62
     7
100
AcDbText
 10
13.0
 20
167.9999999999999
 30
0.0
 40
1.249999999999999
  1
X6/5 and 7
  7
ARIALB
100
AcDbText
  0
TEXT
  5
F2
100
AcDbEntity
  8
1
  6
CONTINUOUS
 62
     7
100
AcDbText
 10
13.0
 20
166.0
 30
0.0
 40
1.249999999999999
  1
to display card
  7
ARIALB
100
AcDbText
  0
LINE
  5
F3
100
AcDbEntity
  8
1
  6
CONTINUOUS
 62
     7
100
AcDbLine
 10
24.0
 20
164.0
 30
0.0
 11
24.0
 21
156.9999999999999
 31
0.0
  0
CIRCLE
  5
F4
100
AcDbEntity
  8
1
  6
CONTINUOUS
 62
     7
100
AcDbCircle
 10
24.0
 20
200.0
 30
0.0
 40
0.4
  0
CIRCLE
  5
F5
100
AcDbEntity
  8
1
  6
CONTINUOUS
 62
     7
100
AcDbCircle
 10
24.0
 20
156.9999999999999
 30
0.0
 40
0.4
  0
TEXT
  5
F6
100
AcDbEntity
  8
1
  6
CONTINUOUS
 62
     7
100
AcDbText
 10
31.99999999999999
 20
170.9999999999999
 30
0.0
 40
1.249999999999999
  1
200mV
  7
ARIALB
100
AcDbText
  0
TEXT
  5
F7
100
AcDbEntity
  8
1
  6
CONTINUOUS
 62
     7
100
AcDbText
 10
55.0
 20
182.9999999999999
 30
0.0
 40
1.249999999999999
  1
4.9V
  7
ARIALB
100
AcDbText
  0
LINE
  5
F8
100
AcDbEntity
  8
1
  6
CONTINUOUS
 62
     7
100
AcDbLine
 10
83.99999999999998
 20
175.9999999999999
 30
0.0
 11
87.00000000000001
 21
175.9999999999999
 31
0.0
  0
LINE
  5
F9
100
AcDbEntity
  8
1
  6
CONTINUOUS
 62
     7
100
AcDbLine
 10
83.99999999999998
 20
164.0
 30
0.0
 11
87.00000000000001
 21
164.0
 31
0.0
  0
CIRCLE
  5
FA
100
AcDbEntity
  8
1
  6
CONTINUOUS
 62
     7
100
AcDbCircle
 10
87.00000000000001
 20
175.9999999999999
 30
0.0
 40
0.4
  0
CIRCLE
  5
FB
100
AcDbEntity
  8
1
  6
CONTINUOUS
 62
     7
100
AcDbCircle
 10
87.00000000000001
 20
164.0
 30
0.0
 40
0.4
  0
LINE
  5
FC
100
AcDbEntity
  8
1
  6
CONTINUOUS
 62
     7
100
AcDbLine
 10
85.99999999999999
 20
152.0
 30
0.0
 11
87.99999999999998
 21
152.0
 31
0.0
  0
LINE
  5
FD
100
AcDbEntity
  8
1
  6
CONTINUOUS
 62
     7
100
AcDbLine
 10
87.99999999999998
 20
158.0
 30
0.0
 11
87.99999999999998
 21
152.0
 31
0.0
  0
LINE
  5
FE
100
AcDbEntity
  8
1
  6
CONTINUOUS
 62
     7
100
AcDbLine
 10
85.99999999999999
 20
152.0
 30
0.0
 11
85.99999999999999
 21
158.0
 31
0.0
  0
LINE
  5
FF
100
AcDbEntity
  8
1
  6
CONTINUOUS
 62
     7
100
AcDbLine
 10
85.99999999999999
 20
158.0
 30
0.0
 11
87.99999999999998
 21
158.0
 31
0.0
  0
LINE
  5
100
100
AcDbEntity
  8
1
  6
CONTINUOUS
 62
     7
100
AcDbLine
 10
86.99999999999999
 20
152.0
 30
0.0
 11
86.99999999999999
 21
145.9999999999999
 31
0.0
  0
LINE
  5
101
100
AcDbEntity
  8
1
  6
CONTINUOUS
 62
     7
100
AcDbLine
 10
84.99999999999998
 20
145.9999999999999
 30
0.0
 11
89.0
 21
145.9999999999999
 31
0.0
  0
CIRCLE
  5
102
100
AcDbEntity
  8
1
  6
CONTINUOUS
 62
     7
100
AcDbCircle
 10
86.99999999999999
 20
145.9999999999999
 30
0.0
 40
0.4
  0
TEXT
  5
103
100
AcDbEntity
  8
1
  6
CONTINUOUS
 62
     7
100
AcDbText
 10
84.99999999999998
 20
142.9999999999999
 30
0.0
 40
1.249999999999999
  1
Batt -ve
  7
ARIALB
100
AcDbText
  0
TEXT
  5
104
100
AcDbEntity
  8
1
  6
CONTINUOUS
 62
     7
100
AcDbText
 10
89.0
 20
154.0
 30
0.0
 40
1.249999999999999
  1
47k
  7
ARIALB
100
AcDbText
  0
LINE
  5
105
100
AcDbEntity
  8
1
  6
CONTINUOUS
 62
     7
100
AcDbLine
 10
87.00000000000001
 20
161.0
 30
0.0
 11
87.00000000000001
 21
157.9999999999999
 31
0.0
  0
CIRCLE
  5
106
100
AcDbEntity
  8
1
  6
CONTINUOUS
 62
     7
100
AcDbCircle
 10
87.00000000000001
 20
161.0
 30
0.0
 40
0.4
  0
LINE
  5
107
100
AcDbEntity
  8
1
  6
CONTINUOUS
 62
     7
100
AcDbLine
 10
129.0
 20
161.0
 30
0.0
 11
125.0
 21
161.0
 31
0.0
  0
ARC
  5
108
100
AcDbEntity
  8
1
  6
CONTINUOUS
 62
     7
100
AcDbCircle
 10
124.0
 20
161.0
 30
0.0
 40
1.000000000000003
100
AcDbArc
 50
270.0
 51
90.00000000000007
  0
LINE
  5
109
100
AcDbEntity
  8
1
  6
CONTINUOUS
 62
     7
100
AcDbLine
 10
133.9999999999999
 20
187.0
 30
0.0
 11
133.9999999999999
 21
161.0
 31
0.0
  0
LINE
  5
10A
100
AcDbEntity
  8
1
  6
CONTINUOUS
 62
     7
100
AcDbLine
 10
133.9999999999999
 20
161.0
 30
0.0
 11
129.0
 21
161.0
 31
0.0
  0
TEXT
  5
10B
100
AcDbEntity
  8
1
  6
CONTINUOUS
 62
     7
100
AcDbText
 10
117.9999999999999
 20
157.9999999999999
 30
0.0
 40
1.249999999999999
  1
X6/4
  7
ARIALB
100
AcDbText
  0
TEXT
  5
10C
100
AcDbEntity
  8
1
  6
CONTINUOUS
 62
     7
100
AcDbText
 10
117.9999999999999
 20
155.9999999999999
 30
0.0
 40
1.249999999999999
  1
to display card
  7
ARIALB
100
AcDbText
  0
LINE
  5
10D
100
AcDbEntity
  8
1
  6
CONTINUOUS
 62
     7
100
AcDbLine
 10
146.0
 20
154.0
 30
0.0
 11
142.0
 21
154.0
 31
0.0
  0
ARC
  5
10E
100
AcDbEntity
  8
1
  6
CONTINUOUS
 62
     7
100
AcDbCircle
 10
141.0
 20
154.0
 30
0.0
 40
1.000000000000003
100
AcDbArc
 50
270.0
 51
90.00000000000007
  0
LINE
  5
10F
100
AcDbEntity
  8
1
  6
CONTINUOUS
 62
     7
100
AcDbLine
 10
150.9999999999999
 20
154.0
 30
0.0
 11
145.9999999999999
 21
154.0
 31
0.0
  0
TEXT
  5
110
100
AcDbEntity
  8
1
  6
CONTINUOUS
 62
     7
100
AcDbText
 10
135.0
 20
150.9999999999999
 30
0.0
 40
1.249999999999999
  1
X6/6
  7
ARIALB
100
AcDbText
  0
TEXT
  5
111
100
AcDbEntity
  8
1
  6
CONTINUOUS
 62
     7
100
AcDbText
 10
135.0
 20
149.0
 30
0.0
 40
1.249999999999999
  1
to display card
  7
ARIALB
100
AcDbText
  0
LINE
  5
112
100
AcDbEntity
  8
1
  6
CONTINUOUS
 62
     7
100
AcDbLine
 10
150.9999999999999
 20
154.0
 30
0.0
 11
150.9999999999999
 21
196.9999999999999
 31
0.0
  0
CIRCLE
  5
113
100
AcDbEntity
  8
1
  6
CONTINUOUS
 62
     7
100
AcDbCircle
 10
133.9999999999999
 20
187.0
 30
0.0
 40
0.4
  0
CIRCLE
  5
114
100
AcDbEntity
  8
1
  6
CONTINUOUS
 62
     7
100
AcDbCircle
 10
150.9999999999999
 20
196.9999999999999
 30
0.0
 40
0.4
  0
LINE
  5
115
100
AcDbEntity
  8
1
  6
CONTINUOUS
 62
     7
100
AcDbLine
 10
121.9999999999999
 20
88.99999999999998
 30
0.0
 11
123.9999999999999
 21
88.99999999999998
 31
0.0
  0
LINE
  5
116
100
AcDbEntity
  8
1
  6
CONTINUOUS
 62
     7
100
AcDbLine
 10
123.9999999999999
 20
95.0
 30
0.0
 11
123.9999999999999
 21
88.99999999999998
 31
0.0
  0
LINE
  5
117
100
AcDbEntity
  8
1
  6
CONTINUOUS
 62
     7
100
AcDbLine
 10
121.9999999999999
 20
88.99999999999998
 30
0.0
 11
121.9999999999999
 21
95.0
 31
0.0
  0
LINE
  5
118
100
AcDbEntity
  8
1
  6
CONTINUOUS
 62
     7
100
AcDbLine
 10
121.9999999999999
 20
95.0
 30
0.0
 11
123.9999999999999
 21
95.0
 31
0.0
  0
LINE
  5
119
100
AcDbEntity
  8
1
  6
CONTINUOUS
 62
     7
100
AcDbLine
 10
136.9999999999999
 20
79.99999999999997
 30
0.0
 11
138.9999999999999
 21
79.99999999999997
 31
0.0
  0
LINE
  5
11A
100
AcDbEntity
  8
1
  6
CONTINUOUS
 62
     7
100
AcDbLine
 10
138.9999999999999
 20
85.99999999999999
 30
0.0
 11
138.9999999999999
 21
79.99999999999997
 31
0.0
  0
LINE
  5
11B
100
AcDbEntity
  8
1
  6
CONTINUOUS
 62
     7
100
AcDbLine
 10
136.9999999999999
 20
79.99999999999997
 30
0.0
 11
136.9999999999999
 21
85.99999999999999
 31
0.0
  0
LINE
  5
11C
100
AcDbEntity
  8
1
  6
CONTINUOUS
 62
     7
100
AcDbLine
 10
136.9999999999999
 20
85.99999999999999
 30
0.0
 11
138.9999999999999
 21
85.99999999999999
 31
0.0
  0
LINE
  5
11D
100
AcDbEntity
  8
1
  6
CONTINUOUS
 62
     7
100
AcDbLine
 10
137.9999999999999
 20
89.99999999999998
 30
0.0
 11
137.9999999999999
 21
85.99999999999999
 31
0.0
  0
LINE
  5
11E
100
AcDbEntity
  8
1
  6
CONTINUOUS
 62
     7
100
AcDbLine
 10
137.9999999999999
 20
80.0
 30
0.0
 11
137.9999999999999
 21
75.99999999999998
 31
0.0
  0
LINE
  5
11F
100
AcDbEntity
  8
1
  6
CONTINUOUS
 62
     7
100
AcDbLine
 10
139.9999999999999
 20
72.99999999999998
 30
0.0
 11
139.9999999999999
 21
71.0
 31
0.0
  0
LINE
  5
120
100
AcDbEntity
  8
1
  6
CONTINUOUS
 62
     7
100
AcDbLine
 10
139.9999999999999
 20
71.0
 30
0.0
 11
145.9999999999999
 21
71.0
 31
0.0
  0
LINE
  5
121
100
AcDbEntity
  8
1
  6
CONTINUOUS
 62
     7
100
AcDbLine
 10
145.9999999999999
 20
72.99999999999998
 30
0.0
 11
139.9999999999999
 21
72.99999999999998
 31
0.0
  0
LINE
  5
122
100
AcDbEntity
  8
1
  6
CONTINUOUS
 62
     7
100
AcDbLine
 10
145.9999999999999
 20
72.99999999999998
 30
0.0
 11
145.9999999999999
 21
71.0
 31
0.0
  0
LINE
  5
123
100
AcDbEntity
  8
1
  6
CONTINUOUS
 62
     7
100
AcDbLine
 10
145.9999999999999
 20
71.99999999999999
 30
0.0
 11
149.9999999999999
 21
71.99999999999999
 31
0.0
  0
TEXT
  5
124
100
AcDbEntity
  8
1
  6
CONTINUOUS
 62
     7
100
AcDbText
 10
141.9999999999999
 20
73.99999999999998
 30
0.0
 40
1.249999999999999
  1
R4
  7
ARIALB
100
AcDbText
  0
LINE
  5
125
100
AcDbEntity
  8
1
  6
CONTINUOUS
 62
     7
100
AcDbLine
 10
137.9999999999999
 20
96.00000000000001
 30
0.0
 11
137.9999999999999
 21
100.0
 31
0.0
  0
LINE
  5
126
100
AcDbEntity
  8
1
  6
CONTINUOUS
 62
     7
100
AcDbLine
 10
146.9999999999999
 20
89.99999999999998
 30
0.0
 11
149.0
 21
89.99999999999998
 31
0.0
  0
LINE
  5
127
100
AcDbEntity
  8
1
  6
CONTINUOUS
 62
     7
100
AcDbLine
 10
149.0
 20
96.00000000000001
 30
0.0
 11
149.0
 21
89.99999999999998
 31
0.0
  0
LINE
  5
128
100
AcDbEntity
  8
1
  6
CONTINUOUS
 62
     7
100
AcDbLine
 10
146.9999999999999
 20
89.99999999999998
 30
0.0
 11
146.9999999999999
 21
96.00000000000001
 31
0.0
  0
LINE
  5
129
100
AcDbEntity
  8
1
  6
CONTINUOUS
 62
     7
100
AcDbLine
 10
146.9999999999999
 20
96.00000000000001
 30
0.0
 11
149.0
 21
96.00000000000001
 31
0.0
  0
LINE
  5
12A
100
AcDbEntity
  8
1
  6
CONTINUOUS
 62
     7
100
AcDbLine
 10
146.9999999999999
 20
79.99999999999997
 30
0.0
 11
148.9999999999999
 21
79.99999999999997
 31
0.0
  0
LINE
  5
12B
100
AcDbEntity
  8
1
  6
CONTINUOUS
 62
     7
100
AcDbLine
 10
148.9999999999999
 20
85.99999999999999
 30
0.0
 11
148.9999999999999
 21
79.99999999999997
 31
0.0
  0
LINE
  5
12C
100
AcDbEntity
  8
1
  6
CONTINUOUS
 62
     7
100
AcDbLine
 10
146.9999999999999
 20
79.99999999999997
 30
0.0
 11
146.9999999999999
 21
85.99999999999999
 31
0.0
  0
LINE
  5
12D
100
AcDbEntity
  8
1
  6
CONTINUOUS
 62
     7
100
AcDbLine
 10
146.9999999999999
 20
85.99999999999999
 30
0.0
 11
148.9999999999999
 21
85.99999999999999
 31
0.0
  0
LINE
  5
12E
100
AcDbEntity
  8
1
  6
CONTINUOUS
 62
     7
100
AcDbLine
 10
147.9999999999999
 20
89.99999999999998
 30
0.0
 11
147.9999999999999
 21
85.99999999999999
 31
0.0
  0
LINE
  5
12F
100
AcDbEntity
  8
1
  6
CONTINUOUS
 62
     7
100
AcDbLine
 10
147.9999999999999
 20
80.0
 30
0.0
 11
147.9999999999999
 21
75.99999999999998
 31
0.0
  0
LINE
  5
130
100
AcDbEntity
  8
1
  6
CONTINUOUS
 62
     7
100
AcDbLine
 10
147.9999999999999
 20
96.00000000000001
 30
0.0
 11
147.9999999999999
 21
100.0
 31
0.0
  0
LINE
  5
131
100
AcDbEntity
  8
1
  6
CONTINUOUS
 62
     7
100
AcDbLine
 10
154.129
 20
89.99999999999998
 30
0.0
 11
156.129
 21
89.99999999999998
 31
0.0
  0
LINE
  5
132
100
AcDbEntity
  8
1
  6
CONTINUOUS
 62
     7
100
AcDbLine
 10
156.129
 20
96.00000000000001
 30
0.0
 11
156.129
 21
89.99999999999998
 31
0.0
  0
LINE
  5
133
100
AcDbEntity
  8
1
  6
CONTINUOUS
 62
     7
100
AcDbLine
 10
154.129
 20
89.99999999999998
 30
0.0
 11
154.129
 21
96.00000000000001
 31
0.0
  0
LINE
  5
134
100
AcDbEntity
  8
1
  6
CONTINUOUS
 62
     7
100
AcDbLine
 10
154.129
 20
96.00000000000001
 30
0.0
 11
156.129
 21
96.00000000000001
 31
0.0
  0
LINE
  5
135
100
AcDbEntity
  8
1
  6
CONTINUOUS
 62
     7
100
AcDbLine
 10
155.1289999999999
 20
96.00000000000001
 30
0.0
 11
155.1289999999999
 21
97.99999999999998
 31
0.0
  0
LINE
  5
136
100
AcDbEntity
  8
1
  6
CONTINUOUS
 62
     7
100
AcDbLine
 10
155.1289999999999
 20
89.99999999999998
 30
0.0
 11
155.1289999999999
 21
87.99999999999998
 31
0.0
  0
TEXT
  5
137
100
AcDbEntity
  8
1
  6
CONTINUOUS
 62
     7
100
AcDbText
 10
157.1289999999999
 20
93.0
 30
0.0
 40
1.249999999999999
  1
R2
  7
ARIALB
100
AcDbText
  0
LINE
  5
138
100
AcDbEntity
  8
1
  6
CONTINUOUS
 62
     7
100
AcDbLine
 10
130.129
 20
89.99999999999998
 30
0.0
 11
132.129
 21
89.99999999999998
 31
0.0
  0
LINE
  5
139
100
AcDbEntity
  8
1
  6
CONTINUOUS
 62
     7
100
AcDbLine
 10
132.129
 20
96.00000000000001
 30
0.0
 11
132.129
 21
89.99999999999998
 31
0.0
  0
LINE
  5
13A
100
AcDbEntity
  8
1
  6
CONTINUOUS
 62
     7
100
AcDbLine
 10
130.129
 20
89.99999999999998
 30
0.0
 11
130.129
 21
96.00000000000001
 31
0.0
  0
LINE
  5
13B
100
AcDbEntity
  8
1
  6
CONTINUOUS
 62
     7
100
AcDbLine
 10
130.129
 20
96.00000000000001
 30
0.0
 11
132.129
 21
96.00000000000001
 31
0.0
  0
LINE
  5
13C
100
AcDbEntity
  8
1
  6
CONTINUOUS
 62
     7
100
AcDbLine
 10
131.1289999999999
 20
96.00000000000001
 30
0.0
 11
131.1289999999999
 21
97.99999999999998
 31
0.0
  0
LINE
  5
13D
100
AcDbEntity
  8
1
  6
CONTINUOUS
 62
     7
100
AcDbLine
 10
131.1289999999999
 20
89.99999999999998
 30
0.0
 11
131.1289999999999
 21
87.99999999999998
 31
0.0
  0
TEXT
  5
13E
100
AcDbEntity
  8
1
  6
CONTINUOUS
 62
     7
100
AcDbText
 10
127.1289999999999
 20
93.0
 30
0.0
 40
1.249999999999999
  1
R1
  7
ARIALB
100
AcDbText
  0
LINE
  5
13F
100
AcDbEntity
  8
1
  6
CONTINUOUS
 62
     7
100
AcDbLine
 10
139.9999999999999
 20
71.99999999999999
 30
0.0
 11
135.9999999999999
 21
71.99999999999999
 31
0.0
  0
LINE
  5
140
100
AcDbEntity
  8
1
  6
CONTINUOUS
 62
     7
100
AcDbLine
 10
130.9999999999999
 20
97.99999999999998
 30
0.0
 11
137.9999999999999
 21
97.99999999999998
 31
0.0
  0
LINE
  5
141
100
AcDbEntity
  8
1
  6
CONTINUOUS
 62
     7
100
AcDbLine
 10
130.9999999999999
 20
87.99999999999998
 30
0.0
 11
137.9999999999999
 21
87.99999999999998
 31
0.0
  0
LINE
  5
142
100
AcDbEntity
  8
1
  6
CONTINUOUS
 62
     7
100
AcDbLine
 10
147.9999999999999
 20
97.99999999999998
 30
0.0
 11
155.0
 21
97.99999999999998
 31
0.0
  0
LINE
  5
143
100
AcDbEntity
  8
1
  6
CONTINUOUS
 62
     7
100
AcDbLine
 10
147.9999999999999
 20
87.99999999999998
 30
0.0
 11
155.0
 21
87.99999999999998
 31
0.0
  0
LINE
  5
144
100
AcDbEntity
  8
1
  6
CONTINUOUS
 62
     7
100
AcDbLine
 10
140.0
 20
104.9999999999999
 30
0.0
 11
140.0
 21
102.9999999999999
 31
0.0
  0
LINE
  5
145
100
AcDbEntity
  8
1
  6
CONTINUOUS
 62
     7
100
AcDbLine
 10
140.0
 20
102.9999999999999
 30
0.0
 11
145.9999999999999
 21
102.9999999999999
 31
0.0
  0
LINE
  5
146
100
AcDbEntity
  8
1
  6
CONTINUOUS
 62
     7
100
AcDbLine
 10
145.9999999999999
 20
104.9999999999999
 30
0.0
 11
140.0
 21
104.9999999999999
 31
0.0
  0
LINE
  5
147
100
AcDbEntity
  8
1
  6
CONTINUOUS
 62
     7
100
AcDbLine
 10
145.9999999999999
 20
104.9999999999999
 30
0.0
 11
145.9999999999999
 21
102.9999999999999
 31
0.0
  0
LINE
  5
148
100
AcDbEntity
  8
1
  6
CONTINUOUS
 62
     7
100
AcDbLine
 10
145.9999999999999
 20
103.9999999999999
 30
0.0
 11
148.9999999999999
 21
103.9999999999999
 31
0.0
  0
TEXT
  5
149
100
AcDbEntity
  8
1
  6
CONTINUOUS
 62
     7
100
AcDbText
 10
140.9999999999999
 20
105.9999999999999
 30
0.0
 40
1.249999999999999
  1
R3
  7
ARIALB
100
AcDbText
  0
LINE
  5
14A
100
AcDbEntity
  8
1
  6
CONTINUOUS
 62
     7
100
AcDbLine
 10
140.0
 20
103.9999999999999
 30
0.0
 11
135.9999999999999
 21
103.9999999999999
 31
0.0
  0
LINE
  5
14B
100
AcDbEntity
  8
1
  6
CONTINUOUS
 62
     7
100
AcDbLine
 10
135.9999999999999
 20
103.9999999999999
 30
0.0
 11
135.9999999999999
 21
102.0
 31
0.0
  0
LINE
  5
14C
100
AcDbEntity
  8
1
  6
CONTINUOUS
 62
     7
100
AcDbLine
 10
135.9999999999999
 20
102.0
 30
0.0
 11
137.9999999999999
 21
102.0
 31
0.0
  0
LINE
  5
14D
100
AcDbEntity
  8
1
  6
CONTINUOUS
 62
     7
100
AcDbLine
 10
137.9999999999999
 20
102.0
 30
0.0
 11
137.9999999999999
 21
100.0
 31
0.0
  0
LINE
  5
14E
100
AcDbEntity
  8
1
  6
CONTINUOUS
 62
     7
100
AcDbLine
 10
147.9999999999999
 20
102.0
 30
0.0
 11
147.9999999999999
 21
100.0
 31
0.0
  0
LINE
  5
14F
100
AcDbEntity
  8
1
  6
CONTINUOUS
 62
     7
100
AcDbLine
 10
147.9999999999999
 20
102.0
 30
0.0
 11
150.0
 21
102.0
 31
0.0
  0
LINE
  5
150
100
AcDbEntity
  8
1
  6
CONTINUOUS
 62
     7
100
AcDbLine
 10
150.0
 20
102.0
 30
0.0
 11
150.0
 21
103.9999999999999
 31
0.0
  0
LINE
  5
151
100
AcDbEntity
  8
1
  6
CONTINUOUS
 62
     7
100
AcDbLine
 10
150.0
 20
103.9999999999999
 30
0.0
 11
149.0
 21
103.9999999999999
 31
0.0
  0
LINE
  5
152
100
AcDbEntity
  8
1
  6
CONTINUOUS
 62
     7
100
AcDbLine
 10
135.9999999999999
 20
71.99999999999999
 30
0.0
 11
135.9999999999999
 21
73.99999999999998
 31
0.0
  0
LINE
  5
153
100
AcDbEntity
  8
1
  6
CONTINUOUS
 62
     7
100
AcDbLine
 10
135.9999999999999
 20
73.99999999999998
 30
0.0
 11
137.9999999999999
 21
73.99999999999998
 31
0.0
  0
LINE
  5
154
100
AcDbEntity
  8
1
  6
CONTINUOUS
 62
     7
100
AcDbLine
 10
137.9999999999999
 20
73.99999999999998
 30
0.0
 11
137.9999999999999
 21
75.99999999999998
 31
0.0
  0
LINE
  5
155
100
AcDbEntity
  8
1
  6
CONTINUOUS
 62
     7
100
AcDbLine
 10
147.9999999999999
 20
75.99999999999998
 30
0.0
 11
147.9999999999999
 21
73.99999999999998
 31
0.0
  0
LINE
  5
156
100
AcDbEntity
  8
1
  6
CONTINUOUS
 62
     7
100
AcDbLine
 10
147.9999999999999
 20
73.99999999999998
 30
0.0
 11
150.0
 21
73.99999999999998
 31
0.0
  0
LINE
  5
157
100
AcDbEntity
  8
1
  6
CONTINUOUS
 62
     7
100
AcDbLine
 10
150.0
 20
73.99999999999998
 30
0.0
 11
150.0
 21
71.99999999999999
 31
0.0
  0
LINE
  5
158
100
AcDbEntity
  8
1
  6
CONTINUOUS
 62
     7
100
AcDbLine
 10
155.0
 20
87.99999999999998
 30
0.0
 11
174.0
 21
87.99999999999998
 31
0.0
  0
LINE
  5
159
100
AcDbEntity
  8
1
  6
CONTINUOUS
 62
     7
100
AcDbLine
 10
191.9999999999999
 20
82.00000000000001
 30
0.0
 11
191.9999999999999
 21
67.99999999999997
 31
0.0
  0
LINE
  5
15A
100
AcDbEntity
  8
1
  6
CONTINUOUS
 62
     7
100
AcDbLine
 10
160.9999999999999
 20
67.99999999999997
 30
0.0
 11
127.0
 21
67.99999999999997
 31
0.0
  0
LINE
  5
15B
100
AcDbEntity
  8
1
  6
CONTINUOUS
 62
     7
100
AcDbLine
 10
127.0
 20
67.99999999999997
 30
0.0
 11
127.0
 21
87.99999999999998
 31
0.0
  0
LINE
  5
15C
100
AcDbEntity
  8
1
  6
CONTINUOUS
 62
     7
100
AcDbLine
 10
127.0
 20
87.99999999999998
 30
0.0
 11
130.9999999999999
 21
87.99999999999998
 31
0.0
  0
LINE
  5
15D
100
AcDbEntity
  8
1
  6
CONTINUOUS
 62
     7
100
AcDbLine
 10
147.9999999999999
 20
100.0
 30
0.0
 11
177.0
 21
100.0
 31
0.0
  0
LINE
  5
15E
100
AcDbEntity
  8
1
  6
CONTINUOUS
 62
     7
100
AcDbLine
 10
147.9999999999999
 20
75.99999999999998
 30
0.0
 11
161.0
 21
75.99999999999998
 31
0.0
  0
LINE
  5
15F
100
AcDbEntity
  8
1
  6
CONTINUOUS
 62
     7
100
AcDbLine
 10
137.9999999999999
 20
100.0
 30
0.0
 11
122.9999999999999
 21
100.0
 31
0.0
  0
LINE
  5
160
100
AcDbEntity
  8
1
  6
CONTINUOUS
 62
     7
100
AcDbLine
 10
122.9999999999999
 20
100.0
 30
0.0
 11
122.9999999999999
 21
95.0
 31
0.0
  0
LINE
  5
161
100
AcDbEntity
  8
1
  6
CONTINUOUS
 62
     7
100
AcDbLine
 10
122.9999999999999
 20
88.99999999999998
 30
0.0
 11
122.9999999999999
 21
76.99999999999999
 31
0.0
  0
LINE
  5
162
100
AcDbEntity
  8
1
  6
CONTINUOUS
 62
     7
100
AcDbLine
 10
122.9999999999999
 20
76.99999999999999
 30
0.0
 11
137.9999999999999
 21
76.99999999999999
 31
0.0
  0
TEXT
  5
163
100
AcDbEntity
  8
1
  6
CONTINUOUS
 62
     7
100
AcDbText
 10
118.9999999999999
 20
94.0
 30
0.0
 40
1.249999999999999
  1
R5
  7
ARIALB
100
AcDbText
  0
LINE
  5
164
100
AcDbEntity
  8
1
  6
CONTINUOUS
 62
     7
100
AcDbLine
 10
136.9999999999999
 20
89.99999999999998
 30
0.0
 11
138.9999999999999
 21
89.99999999999998
 31
0.0
  0
LINE
  5
165
100
AcDbEntity
  8
1
  6
CONTINUOUS
 62
     7
100
AcDbLine
 10
138.9999999999999
 20
96.00000000000001
 30
0.0
 11
138.9999999999999
 21
89.99999999999998
 31
0.0
  0
LINE
  5
166
100
AcDbEntity
  8
1
  6
CONTINUOUS
 62
     7
100
AcDbLine
 10
136.9999999999999
 20
89.99999999999998
 30
0.0
 11
136.9999999999999
 21
96.00000000000001
 31
0.0
  0
LINE
  5
167
100
AcDbEntity
  8
1
  6
CONTINUOUS
 62
     7
100
AcDbLine
 10
136.9999999999999
 20
96.00000000000001
 30
0.0
 11
138.9999999999999
 21
96.00000000000001
 31
0.0
  0
MTEXT
  5
168
100
AcDbEntity
  8
1
  6
CONTINUOUS
 62
     7
100
AcDbMText
 10
131.9999999999999
 20
62.99999999999998
 30
0.0
 40
1.249999999999999
 41
0.0
 71
     7
 72
     1
  1
IC Sensors Model 10A\P(Silicon pressure sensor bridge)
  7
ARIALB
  0
TEXT
  5
169
100
AcDbEntity
  8
1
  6
CONTINUOUS
 62
     7
100
AcDbText
 10
167.9999999999999
 20
88.99999999999998
 30
0.0
 40
1.249999999999999
  1
bridge out +
  7
ARIALB
100
AcDbText
  0
TEXT
  5
16A
100
AcDbEntity
  8
1
  6
CONTINUOUS
 62
     7
100
AcDbText
 10
169.9999999999999
 20
68.99999999999997
 30
0.0
 40
1.249999999999999
  1
bridge out -
  7
ARIALB
100
AcDbText
  0
CIRCLE
  5
16B
100
AcDbEntity
  8
1
  6
CONTINUOUS
 62
     7
100
AcDbCircle
 10
147.9999999999999
 20
100.0
 30
0.0
 40
0.4
  0
CIRCLE
  5
16C
100
AcDbEntity
  8
1
  6
CONTINUOUS
 62
     7
100
AcDbCircle
 10
147.9999999999999
 20
97.99999999999998
 30
0.0
 40
0.4
  0
CIRCLE
  5
16D
100
AcDbEntity
  8
1
  6
CONTINUOUS
 62
     7
100
AcDbCircle
 10
137.9999999999999
 20
100.0
 30
0.0
 40
0.4
  0
CIRCLE
  5
16E
100
AcDbEntity
  8
1
  6
CONTINUOUS
 62
     7
100
AcDbCircle
 10
137.9999999999999
 20
97.99999999999998
 30
0.0
 40
0.4
  0
CIRCLE
  5
16F
100
AcDbEntity
  8
1
  6
CONTINUOUS
 62
     7
100
AcDbCircle
 10
130.9999999999999
 20
87.99999999999998
 30
0.0
 40
0.4
  0
CIRCLE
  5
170
100
AcDbEntity
  8
1
  6
CONTINUOUS
 62
     7
100
AcDbCircle
 10
137.9999999999999
 20
87.99999999999998
 30
0.0
 40
0.4
  0
CIRCLE
  5
171
100
AcDbEntity
  8
1
  6
CONTINUOUS
 62
     7
100
AcDbCircle
 10
147.9999999999999
 20
87.99999999999998
 30
0.0
 40
0.4
  0
CIRCLE
  5
172
100
AcDbEntity
  8
1
  6
CONTINUOUS
 62
     7
100
AcDbCircle
 10
155.0
 20
87.99999999999998
 30
0.0
 40
0.4
  0
CIRCLE
  5
173
100
AcDbEntity
  8
1
  6
CONTINUOUS
 62
     7
100
AcDbCircle
 10
147.9999999999999
 20
75.99999999999998
 30
0.0
 40
0.4
  0
CIRCLE
  5
174
100
AcDbEntity
  8
1
  6
CONTINUOUS
 62
     7
100
AcDbCircle
 10
137.9999999999999
 20
76.99999999999999
 30
0.0
 40
0.4
  0
TEXT
  5
175
100
AcDbEntity
  8
1
  6
CONTINUOUS
 62
     7
100
AcDbText
 10
121.9999999999999
 20
58.99999999999999
 30
0.0
 40
1.249999999999999
  1
R1 to R5 are for temperature compensation
  7
ARIALB
100
AcDbText
  0
LINE
  5
176
100
AcDbEntity
  8
1
  6
CONTINUOUS
 62
     7
100
AcDbLine
 10
38.0
 20
139.9999999999999
 30
0.0
 11
38.0
 21
127.9999999999999
 31
0.0
  0
LINE
  5
177
100
AcDbEntity
  8
1
  6
CONTINUOUS
 62
     7
100
AcDbLine
 10
38.0
 20
139.9999999999999
 30
0.0
 11
50.0
 21
133.9999999999999
 31
0.0
  0
LINE
  5
178
100
AcDbEntity
  8
1
  6
CONTINUOUS
 62
     7
100
AcDbLine
 10
38.0
 20
127.9999999999999
 30
0.0
 11
50.0
 21
133.9999999999999
 31
0.0
  0
LINE
  5
179
100
AcDbEntity
  8
1
  6
CONTINUOUS
 62
     7
100
AcDbLine
 10
38.0
 20
130.9999999999999
 30
0.0
 11
34.99999999999999
 21
130.9999999999999
 31
0.0
  0
LINE
  5
17A
100
AcDbEntity
  8
1
  6
CONTINUOUS
 62
     7
100
AcDbLine
 10
50.0
 20
133.9999999999999
 30
0.0
 11
53.0
 21
133.9999999999999
 31
0.0
  0
TEXT
  5
17B
100
AcDbEntity
  8
1
  6
CONTINUOUS
 62
     7
100
AcDbText
 10
35.99999999999999
 20
131.9999999999999
 30
0.0
 40
1.249999999999999
  1
8
  7
ARIALB
100
AcDbText
  0
TEXT
  5
17C
100
AcDbEntity
  8
1
  6
CONTINUOUS
 62
     7
100
AcDbText
 10
51.00000000000001
 20
135.0
 30
0.0
 40
1.249999999999999
  1
1
  7
ARIALB
100
AcDbText
  0
LINE
  5
17D
100
AcDbEntity
  8
1
  6
CONTINUOUS
 62
     7
100
AcDbLine
 10
71.0
 20
136.9999999999999
 30
0.0
 11
71.0
 21
125.0
 31
0.0
  0
LINE
  5
17E
100
AcDbEntity
  8
1
  6
CONTINUOUS
 62
     7
100
AcDbLine
 10
71.0
 20
136.9999999999999
 30
0.0
 11
83.00000000000002
 21
130.9999999999999
 31
0.0
  0
LINE
  5
17F
100
AcDbEntity
  8
1
  6
CONTINUOUS
 62
     7
100
AcDbLine
 10
71.0
 20
125.0
 30
0.0
 11
83.00000000000002
 21
130.9999999999999
 31
0.0
  0
LINE
  5
180
100
AcDbEntity
  8
1
  6
CONTINUOUS
 62
     7
100
AcDbLine
 10
71.0
 20
133.9999999999999
 30
0.0
 11
67.99999999999998
 21
133.9999999999999
 31
0.0
  0
TEXT
  5
181
100
AcDbEntity
  8
1
  6
CONTINUOUS
 62
     7
100
AcDbText
 10
68.99999999999998
 20
134.9999999999999
 30
0.0
 40
1.249999999999999
  1
3
  7
ARIALB
100
AcDbText
  0
TEXT
  5
182
100
AcDbEntity
  8
1
  6
CONTINUOUS
 62
     7
100
AcDbText
 10
68.99999999999998
 20
129.0
 30
0.0
 40
1.249999999999999
  1
2
  7
ARIALB
100
AcDbText
  0
LINE
  5
183
100
AcDbEntity
  8
1
  6
CONTINUOUS
 62
     7
100
AcDbLine
 10
71.0
 20
127.9999999999999
 30
0.0
 11
67.99999999999998
 21
127.9999999999999
 31
0.0
  0
LINE
  5
184
100
AcDbEntity
  8
1
  6
CONTINUOUS
 62
     7
100
AcDbLine
 10
52.99999999999999
 20
133.9999999999999
 30
0.0
 11
55.0
 21
133.9999999999999
 31
0.0
  0
LINE
  5
185
100
AcDbEntity
  8
1
  6
CONTINUOUS
 62
     7
100
AcDbLine
 10
55.0
 20
120.9999999999999
 30
0.0
 11
32.99999999999999
 21
120.9999999999999
 31
0.0
  0
LINE
  5
186
100
AcDbEntity
  8
1
  6
CONTINUOUS
 62
     7
100
AcDbLine
 10
32.99999999999999
 20
120.9999999999999
 30
0.0
 11
32.99999999999999
 21
130.9999999999999
 31
0.0
  0
LINE
  5
187
100
AcDbEntity
  8
1
  6
CONTINUOUS
 62
     7
100
AcDbLine
 10
32.99999999999999
 20
120.9999999999999
 30
0.0
 11
32.99999999999999
 21
130.9999999999999
 31
0.0
  0
LINE
  5
188
100
AcDbEntity
  8
1
  6
CONTINUOUS
 62
     7
100
AcDbLine
 10
34.99999999999999
 20
130.9999999999999
 30
0.0
 11
32.99999999999999
 21
130.9999999999999
 31
0.0
  0
LINE
  5
189
100
AcDbEntity
  8
1
  6
CONTINUOUS
 62
     7
100
AcDbLine
 10
55.0
 20
133.9999999999999
 30
0.0
 11
67.99999999999998
 21
133.9999999999999
 31
0.0
  0
LINE
  5
18A
100
AcDbEntity
  8
1
  6
CONTINUOUS
 62
     7
100
AcDbLine
 10
83.0
 20
130.9999999999999
 30
0.0
 11
89.0
 21
130.9999999999999
 31
0.0
  0
LINE
  5
18B
100
AcDbEntity
  8
1
  6
CONTINUOUS
 62
     7
100
AcDbLine
 10
67.99999999999998
 20
127.9999999999999
 30
0.0
 11
67.99999999999998
 21
120.9999999999999
 31
0.0
  0
LINE
  5
18C
100
AcDbEntity
  8
1
  6
CONTINUOUS
 62
     7
100
AcDbLine
 10
67.99999999999998
 20
112.9999999999999
 30
0.0
 11
89.0
 21
112.9999999999999
 31
0.0
  0
TEXT
  5
18D
100
AcDbEntity
  8
1
  6
CONTINUOUS
 62
     7
100
AcDbText
 10
36.99999999999998
 20
100.0
 30
0.0
 40
1.999999999999999
  1
LM10CN selected for lowest 1/f noise
  7
ARIALB
100
AcDbText
  0
TEXT
  5
18E
100
AcDbEntity
  8
1
  6
CONTINUOUS
 62
     7
100
AcDbText
 10
71.99999999999999
 20
132.9999999999999
 30
0.0
 40
1.249999999999999
  1
+
  7
ARIALB
100
AcDbText
  0
TEXT
  5
18F
100
AcDbEntity
  8
1
  6
CONTINUOUS
 62
     7
100
AcDbText
 10
71.99999999999999
 20
127.9999999999999
 30
0.0
 40
1.249999999999999
  1
-
  7
ARIALB
100
AcDbText
  0
TEXT
  5
190
100
AcDbEntity
  8
1
  6
CONTINUOUS
 62
     7
100
AcDbText
 10
83.99999999999998
 20
131.9999999999999
 30
0.0
 40
1.249999999999999
  1
6
  7
ARIALB
100
AcDbText
  0
LINE
  5
191
100
AcDbEntity
  8
1
  6
CONTINUOUS
 62
     7
100
AcDbLine
 10
77.0
 20
127.9999999999999
 30
0.0
 11
77.0
 21
118.0
 31
0.0
  0
LINE
  5
192
100
AcDbEntity
  8
1
  6
CONTINUOUS
 62
     7
100
AcDbLine
 10
74.99999999999999
 20
117.9999999999999
 30
0.0
 11
78.99999999999998
 21
117.9999999999999
 31
0.0
  0
LINE
  5
193
100
AcDbEntity
  8
1
  6
CONTINUOUS
 62
     7
100
AcDbLine
 10
74.99999999999999
 20
117.9999999999999
 30
0.0
 11
78.99999999999998
 21
117.9999999999999
 31
0.0
  0
LINE
  5
194
100
AcDbEntity
  8
1
  6
CONTINUOUS
 62
     7
100
AcDbLine
 10
74.99999999999999
 20
117.9999999999999
 30
0.0
 11
78.99999999999998
 21
117.9999999999999
 31
0.0
  0
LINE
  5
195
100
AcDbEntity
  8
1
  6
CONTINUOUS
 62
     7
100
AcDbLine
 10
74.99999999999999
 20
117.9999999999999
 30
0.0
 11
78.99999999999998
 21
117.9999999999999
 31
0.0
  0
CIRCLE
  5
196
100
AcDbEntity
  8
1
  6
CONTINUOUS
 62
     7
100
AcDbCircle
 10
77.0
 20
117.9999999999999
 30
0.0
 40
0.4
  0
LINE
  5
197
100
AcDbEntity
  8
1
  6
CONTINUOUS
 62
     7
100
AcDbLine
 10
67.99999999999998
 20
120.9999999999999
 30
0.0
 11
67.99999999999998
 21
113.0
 31
0.0
  0
TEXT
  5
198
100
AcDbEntity
  8
1
  6
CONTINUOUS
 62
     7
100
AcDbText
 10
74.99999999999999
 20
115.0
 30
0.0
 40
1.249999999999999
  1
Batt -ve
  7
ARIALB
100
AcDbText
  0
TEXT
  5
199
100
AcDbEntity
  8
1
  6
CONTINUOUS
 62
     7
100
AcDbText
 10
77.99999999999998
 20
134.9999999999999
 30
0.0
 40
1.249999999999999
  1
7
  7
ARIALB
100
AcDbText
  0
TEXT
  5
19A
100
AcDbEntity
  8
1
  6
CONTINUOUS
 62
     7
100
AcDbText
 10
77.99999999999998
 20
126.0
 30
0.0
 40
1.249999999999999
  1
4
  7
ARIALB
100
AcDbText
  0
TEXT
  5
19B
100
AcDbEntity
  8
1
  6
CONTINUOUS
 62
     7
100
AcDbText
 10
33.99999999999999
 20
122.9999999999999
 30
0.0
 40
1.249999999999999
  1
200mV
  7
ARIALB
100
AcDbText
  0
LINE
  5
19C
100
AcDbEntity
  8
1
  6
CONTINUOUS
 62
     7
100
AcDbLine
 10
87.99999999999998
 20
103.9999999999999
 30
0.0
 11
89.99999999999998
 21
103.9999999999999
 31
0.0
  0
LINE
  5
19D
100
AcDbEntity
  8
1
  6
CONTINUOUS
 62
     7
100
AcDbLine
 10
89.99999999999998
 20
110.0
 30
0.0
 11
89.99999999999998
 21
103.9999999999999
 31
0.0
  0
LINE
  5
19E
100
AcDbEntity
  8
1
  6
CONTINUOUS
 62
     7
100
AcDbLine
 10
87.99999999999998
 20
103.9999999999999
 30
0.0
 11
87.99999999999998
 21
110.0
 31
0.0
  0
LINE
  5
19F
100
AcDbEntity
  8
1
  6
CONTINUOUS
 62
     7
100
AcDbLine
 10
87.99999999999998
 20
110.0
 30
0.0
 11
89.99999999999998
 21
110.0
 31
0.0
  0
LINE
  5
1A0
100
AcDbEntity
  8
1
  6
CONTINUOUS
 62
     7
100
AcDbLine
 10
88.99999999999998
 20
103.9999999999999
 30
0.0
 11
88.99999999999998
 21
97.99999999999998
 31
0.0
  0
LINE
  5
1A1
100
AcDbEntity
  8
1
  6
CONTINUOUS
 62
     7
100
AcDbLine
 10
86.99999999999999
 20
97.99999999999998
 30
0.0
 11
90.99999999999999
 21
97.99999999999998
 31
0.0
  0
CIRCLE
  5
1A2
100
AcDbEntity
  8
1
  6
CONTINUOUS
 62
     7
100
AcDbCircle
 10
88.99999999999998
 20
97.99999999999998
 30
0.0
 40
0.4
  0
TEXT
  5
1A3
100
AcDbEntity
  8
1
  6
CONTINUOUS
 62
     7
100
AcDbText
 10
86.99999999999999
 20
95.0
 30
0.0
 40
1.249999999999999
  1
Batt -ve
  7
ARIALB
100
AcDbText
  0
TEXT
  5
1A4
100
AcDbEntity
  8
1
  6
CONTINUOUS
 62
     7
100
AcDbText
 10
90.99999999999999
 20
105.9999999999999
 30
0.0
 40
1.249999999999999
  1
180R
  7
ARIALB
100
AcDbText
  0
LINE
  5
1A5
100
AcDbEntity
  8
1
  6
CONTINUOUS
 62
     7
100
AcDbLine
 10
89.0
 20
113.0
 30
0.0
 11
89.0
 21
109.9999999999999
 31
0.0
  0
CIRCLE
  5
1A6
100
AcDbEntity
  8
1
  6
CONTINUOUS
 62
     7
100
AcDbCircle
 10
89.0
 20
113.0
 30
0.0
 40
0.4
  0
LINE
  5
1A7
100
AcDbEntity
  8
1
  6
CONTINUOUS
 62
     7
100
AcDbLine
 10
55.0
 20
120.9999999999999
 30
0.0
 11
55.0
 21
133.9999999999999
 31
0.0
  0
LINE
  5
1A8
100
AcDbEntity
  8
1
  6
CONTINUOUS
 62
     7
100
AcDbLine
 10
77.0
 20
133.9999999999999
 30
0.0
 11
77.0
 21
140.0
 31
0.0
  0
LINE
  5
1A9
100
AcDbEntity
  8
1
  6
CONTINUOUS
 62
     7
100
AcDbLine
 10
75.0
 20
140.0
 30
0.0
 11
78.99999999999998
 21
140.0
 31
0.0
  0
TEXT
  5
1AA
100
AcDbEntity
  8
1
  6
CONTINUOUS
 62
     7
100
AcDbText
 10
74.0
 20
141.9999999999999
 30
0.0
 40
1.249999999999999
  1
+7.1V
  7
ARIALB
100
AcDbText
  0
CIRCLE
  5
1AB
100
AcDbEntity
  8
1
  6
CONTINUOUS
 62
     7
100
AcDbCircle
 10
77.0
 20
140.0
 30
0.0
 40
0.4
  0
CIRCLE
  5
1AC
100
AcDbEntity
  8
1
  6
CONTINUOUS
 62
     7
100
AcDbCircle
 10
55.0
 20
133.9999999999999
 30
0.0
 40
0.4
  0
LINE
  5
1AD
100
AcDbEntity
  8
1
  6
CONTINUOUS
 62
     7
100
AcDbLine
 10
100.0
 20
113.0
 30
0.0
 11
89.0
 21
113.0
 31
0.0
  0
LINE
  5
1AE
100
AcDbEntity
  8
1
  6
CONTINUOUS
 62
     7
100
AcDbLine
 10
89.0
 20
130.9999999999999
 30
0.0
 11
96.99999999999999
 21
130.9999999999999
 31
0.0
  0
TEXT
  5
1AF
100
AcDbEntity
  8
1
  6
CONTINUOUS
 62
     7
100
AcDbText
 10
31.99999999999999
 20
115.0
 30
0.0
 40
1.999999999999999
  1
constant current excitation
  7
ARIALB
100
AcDbText
  0
LINE
  5
1B0
100
AcDbEntity
  8
1
  6
CONTINUOUS
 62
     7
100
AcDbLine
 10
200.9999999999999
 20
83.0
 30
0.0
 11
200.9999999999999
 21
80.99999999999999
 31
0.0
  0
LINE
  5
1B1
100
AcDbEntity
  8
1
  6
CONTINUOUS
 62
     7
100
AcDbLine
 10
200.9999999999999
 20
80.99999999999999
 30
0.0
 11
206.9999999999999
 21
80.99999999999999
 31
0.0
  0
LINE
  5
1B2
100
AcDbEntity
  8
1
  6
CONTINUOUS
 62
     7
100
AcDbLine
 10
206.9999999999999
 20
83.0
 30
0.0
 11
200.9999999999999
 21
83.0
 31
0.0
  0
LINE
  5
1B3
100
AcDbEntity
  8
1
  6
CONTINUOUS
 62
     7
100
AcDbLine
 10
206.9999999999999
 20
83.0
 30
0.0
 11
206.9999999999999
 21
80.99999999999999
 31
0.0
  0
LINE
  5
1B4
100
AcDbEntity
  8
1
  6
CONTINUOUS
 62
     7
100
AcDbLine
 10
206.9999999999999
 20
82.00000000000001
 30
0.0
 11
209.9999999999999
 21
82.00000000000001
 31
0.0
  0
TEXT
  5
1B5
100
AcDbEntity
  8
1
  6
CONTINUOUS
 62
     7
100
AcDbText
 10
201.9999999999999
 20
83.99999999999998
 30
0.0
 40
1.249999999999999
  1
SOT
  7
ARIALB
100
AcDbText
  0
LINE
  5
1B6
100
AcDbEntity
  8
1
  6
CONTINUOUS
 62
     7
100
AcDbLine
 10
200.9999999999999
 20
82.00000000000001
 30
0.0
 11
196.9999999999999
 21
82.00000000000001
 31
0.0
  0
LINE
  5
1B7
100
AcDbEntity
  8
1
  6
CONTINUOUS
 62
     7
100
AcDbLine
 10
218.9999999999999
 20
93.0
 30
0.0
 11
218.9999999999999
 21
76.99999999999999
 31
0.0
  0
LINE
  5
1B8
100
AcDbEntity
  8
1
  6
CONTINUOUS
 62
     7
100
AcDbLine
 10
218.9999999999999
 20
92.99999999999995
 30
0.0
 11
234.9999999999999
 21
84.99999999999998
 31
0.0
  0
LINE
  5
1B9
100
AcDbEntity
  8
1
  6
CONTINUOUS
 62
     7
100
AcDbLine
 10
218.9999999999999
 20
76.99999999999999
 30
0.0
 11
234.9999999999999
 21
84.99999999999994
 31
0.0
  0
LINE
  5
1BA
100
AcDbEntity
  8
1
  6
CONTINUOUS
 62
     7
100
AcDbLine
 10
218.9999999999999
 20
87.99999999999995
 30
0.0
 11
216.0
 21
87.99999999999995
 31
0.0
  0
TEXT
  5
1BB
100
AcDbEntity
  8
1
  6
CONTINUOUS
 62
     7
100
AcDbText
 10
216.9999999999999
 20
88.99999999999996
 30
0.0
 40
1.249999999999999
  1
2
  7
ARIALB
100
AcDbText
  0
TEXT
  5
1BC
100
AcDbEntity
  8
1
  6
CONTINUOUS
 62
     7
100
AcDbText
 10
216.9999999999999
 20
82.99999999999997
 30
0.0
 40
1.249999999999999
  1
3
  7
ARIALB
100
AcDbText
  0
LINE
  5
1BD
100
AcDbEntity
  8
1
  6
CONTINUOUS
 62
     7
100
AcDbLine
 10
218.9999999999999
 20
81.99999999999997
 30
0.0
 11
216.0
 21
81.99999999999997
 31
0.0
  0
TEXT
  5
1BE
100
AcDbEntity
  8
1
  6
CONTINUOUS
 62
     7
100
AcDbText
 10
220.0
 20
86.99999999999997
 30
0.0
 40
1.249999999999999
  1
-
  7
ARIALB
100
AcDbText
  0
TEXT
  5
1BF
100
AcDbEntity
  8
1
  6
CONTINUOUS
 62
     7
100
AcDbText
 10
220.0
 20
81.99999999999997
 30
0.0
 40
1.249999999999999
  1
+
  7
ARIALB
100
AcDbText
  0
TEXT
  5
1C0
100
AcDbEntity
  8
1
  6
CONTINUOUS
 62
     7
100
AcDbText
 10
236.0
 20
85.99999999999997
 30
0.0
 40
1.249999999999999
  1
6
  7
ARIALB
100
AcDbText
  0
TEXT
  5
1C1
100
AcDbEntity
  8
1
  6
CONTINUOUS
 62
     7
100
AcDbText
 10
226.0
 20
89.99999999999996
 30
0.0
 40
1.249999999999999
  1
7
  7
ARIALB
100
AcDbText
  0
TEXT
  5
1C2
100
AcDbEntity
  8
1
  6
CONTINUOUS
 62
     7
100
AcDbText
 10
226.0
 20
78.99999999999998
 30
0.0
 40
1.249999999999999
  1
4
  7
ARIALB
100
AcDbText
  0
LINE
  5
1C3
100
AcDbEntity
  8
1
  6
CONTINUOUS
 62
     7
100
AcDbLine
 10
173.9999999999999
 20
87.99999999999998
 30
0.0
 11
196.9999999999999
 21
87.99999999999998
 31
0.0
  0
LINE
  5
1C4
100
AcDbEntity
  8
1
  6
CONTINUOUS
 62
     7
100
AcDbLine
 10
209.9999999999999
 20
87.99999999999998
 30
0.0
 11
215.9999999999999
 21
87.99999999999998
 31
0.0
  0
LINE
  5
1C5
100
AcDbEntity
  8
1
  6
CONTINUOUS
 62
     7
100
AcDbLine
 10
215.9999999999999
 20
82.00000000000001
 30
0.0
 11
209.9999999999999
 21
82.00000000000001
 31
0.0
  0
LINE
  5
1C6
100
AcDbEntity
  8
1
  6
CONTINUOUS
 62
     7
100
AcDbLine
 10
201.0
 20
88.99999999999998
 30
0.0
 11
201.0
 21
86.99999999999999
 31
0.0
  0
LINE
  5
1C7
100
AcDbEntity
  8
1
  6
CONTINUOUS
 62
     7
100
AcDbLine
 10
201.0
 20
86.99999999999999
 30
0.0
 11
206.9999999999999
 21
86.99999999999999
 31
0.0
  0
LINE
  5
1C8
100
AcDbEntity
  8
1
  6
CONTINUOUS
 62
     7
100
AcDbLine
 10
206.9999999999999
 20
88.99999999999998
 30
0.0
 11
201.0
 21
88.99999999999998
 31
0.0
  0
LINE
  5
1C9
100
AcDbEntity
  8
1
  6
CONTINUOUS
 62
     7
100
AcDbLine
 10
206.9999999999999
 20
88.99999999999998
 30
0.0
 11
206.9999999999999
 21
86.99999999999999
 31
0.0
  0
LINE
  5
1CA
100
AcDbEntity
  8
1
  6
CONTINUOUS
 62
     7
100
AcDbLine
 10
206.9999999999999
 20
87.99999999999998
 30
0.0
 11
209.9999999999999
 21
87.99999999999998
 31
0.0
  0
TEXT
  5
1CB
100
AcDbEntity
  8
1
  6
CONTINUOUS
 62
     7
100
AcDbText
 10
201.9999999999999
 20
89.99999999999998
 30
0.0
 40
1.249999999999999
  1
SOT
  7
ARIALB
100
AcDbText
  0
LINE
  5
1CC
100
AcDbEntity
  8
1
  6
CONTINUOUS
 62
     7
100
AcDbLine
 10
201.0
 20
87.99999999999998
 30
0.0
 11
196.9999999999999
 21
87.99999999999998
 31
0.0
  0
LINE
  5
1CD
100
AcDbEntity
  8
1
  6
CONTINUOUS
 62
     7
100
AcDbLine
 10
196.9999999999999
 20
82.00000000000001
 30
0.0
 11
191.9999999999999
 21
82.00000000000001
 31
0.0
  0
LINE
  5
1CE
100
AcDbEntity
  8
1
  6
CONTINUOUS
 62
     7
100
AcDbLine
 10
220.0
 20
97.99999999999998
 30
0.0
 11
220.0
 21
96.00000000000001
 31
0.0
  0
LINE
  5
1CF
100
AcDbEntity
  8
1
  6
CONTINUOUS
 62
     7
100
AcDbLine
 10
220.0
 20
96.00000000000001
 30
0.0
 11
226.0
 21
96.00000000000001
 31
0.0
  0
LINE
  5
1D0
100
AcDbEntity
  8
1
  6
CONTINUOUS
 62
     7
100
AcDbLine
 10
226.0
 20
97.99999999999998
 30
0.0
 11
220.0
 21
97.99999999999998
 31
0.0
  0
LINE
  5
1D1
100
AcDbEntity
  8
1
  6
CONTINUOUS
 62
     7
100
AcDbLine
 10
226.0
 20
97.99999999999998
 30
0.0
 11
226.0
 21
96.00000000000001
 31
0.0
  0
LINE
  5
1D2
100
AcDbEntity
  8
1
  6
CONTINUOUS
 62
     7
100
AcDbLine
 10
226.0
 20
96.99999999999999
 30
0.0
 11
228.9999999999999
 21
96.99999999999999
 31
0.0
  0
TEXT
  5
1D3
100
AcDbEntity
  8
1
  6
CONTINUOUS
 62
     7
100
AcDbText
 10
220.9999999999999
 20
98.99999999999998
 30
0.0
 40
1.249999999999999
  1
680k
  7
ARIALB
100
AcDbText
  0
LINE
  5
1D4
100
AcDbEntity
  8
1
  6
CONTINUOUS
 62
     7
100
AcDbLine
 10
220.0
 20
96.99999999999999
 30
0.0
 11
215.9999999999999
 21
96.99999999999999
 31
0.0
  0
LINE
  5
1D5
100
AcDbEntity
  8
1
  6
CONTINUOUS
 62
     7
100
AcDbLine
 10
220.0
 20
69.0
 30
0.0
 11
220.0
 21
66.99999999999999
 31
0.0
  0
LINE
  5
1D6
100
AcDbEntity
  8
1
  6
CONTINUOUS
 62
     7
100
AcDbLine
 10
220.0
 20
66.99999999999999
 30
0.0
 11
226.0
 21
66.99999999999999
 31
0.0
  0
LINE
  5
1D7
100
AcDbEntity
  8
1
  6
CONTINUOUS
 62
     7
100
AcDbLine
 10
226.0
 20
69.0
 30
0.0
 11
220.0
 21
69.0
 31
0.0
  0
LINE
  5
1D8
100
AcDbEntity
  8
1
  6
CONTINUOUS
 62
     7
100
AcDbLine
 10
226.0
 20
69.0
 30
0.0
 11
226.0
 21
66.99999999999999
 31
0.0
  0
LINE
  5
1D9
100
AcDbEntity
  8
1
  6
CONTINUOUS
 62
     7
100
AcDbLine
 10
226.0
 20
67.99999999999998
 30
0.0
 11
228.9999999999999
 21
67.99999999999998
 31
0.0
  0
TEXT
  5
1DA
100
AcDbEntity
  8
1
  6
CONTINUOUS
 62
     7
100
AcDbText
 10
222.9999999999999
 20
64.99999999999999
 30
0.0
 40
1.249999999999999
  1
680k
  7
ARIALB
100
AcDbText
  0
LINE
  5
1DB
100
AcDbEntity
  8
1
  6
CONTINUOUS
 62
     7
100
AcDbLine
 10
220.0
 20
67.99999999999998
 30
0.0
 11
215.9999999999999
 21
67.99999999999998
 31
0.0
  0
LINE
  5
1DC
100
AcDbEntity
  8
1
  6
CONTINUOUS
 62
     7
100
AcDbLine
 10
241.9999999999999
 20
71.99999999999999
 30
0.0
 11
243.9999999999999
 21
71.99999999999999
 31
0.0
  0
LINE
  5
1DD
100
AcDbEntity
  8
1
  6
CONTINUOUS
 62
     7
100
AcDbLine
 10
243.9999999999999
 20
78.00000000000003
 30
0.0
 11
243.9999999999999
 21
71.99999999999999
 31
0.0
  0
LINE
  5
1DE
100
AcDbEntity
  8
1
  6
CONTINUOUS
 62
     7
100
AcDbLine
 10
241.9999999999999
 20
71.99999999999999
 30
0.0
 11
241.9999999999999
 21
78.00000000000003
 31
0.0
  0
LINE
  5
1DF
100
AcDbEntity
  8
1
  6
CONTINUOUS
 62
     7
100
AcDbLine
 10
241.9999999999999
 20
78.00000000000003
 30
0.0
 11
243.9999999999999
 21
78.00000000000003
 31
0.0
  0
LINE
  5
1E0
100
AcDbEntity
  8
1
  6
CONTINUOUS
 62
     7
100
AcDbLine
 10
241.9999999999999
 20
58.99999999999999
 30
0.0
 11
243.9999999999999
 21
58.99999999999999
 31
0.0
  0
LINE
  5
1E1
100
AcDbEntity
  8
1
  6
CONTINUOUS
 62
     7
100
AcDbLine
 10
243.9999999999999
 20
65.00000000000003
 30
0.0
 11
243.9999999999999
 21
58.99999999999999
 31
0.0
  0
LINE
  5
1E2
100
AcDbEntity
  8
1
  6
CONTINUOUS
 62
     7
100
AcDbLine
 10
241.9999999999999
 20
58.99999999999999
 30
0.0
 11
241.9999999999999
 21
65.00000000000003
 31
0.0
  0
LINE
  5
1E3
100
AcDbEntity
  8
1
  6
CONTINUOUS
 62
     7
100
AcDbLine
 10
241.9999999999999
 20
65.00000000000003
 30
0.0
 11
243.9999999999999
 21
65.00000000000003
 31
0.0
  0
LINE
  5
1E4
100
AcDbEntity
  8
1
  6
CONTINUOUS
 62
     7
100
AcDbLine
 10
200.9999999999999
 20
68.0
 30
0.0
 11
203.0
 21
68.0
 31
0.0
  0
LINE
  5
1E5
100
AcDbEntity
  8
1
  6
CONTINUOUS
 62
     7
100
AcDbLine
 10
203.0
 20
74.00000000000003
 30
0.0
 11
203.0
 21
68.0
 31
0.0
  0
LINE
  5
1E6
100
AcDbEntity
  8
1
  6
CONTINUOUS
 62
     7
100
AcDbLine
 10
200.9999999999999
 20
68.0
 30
0.0
 11
200.9999999999999
 21
74.00000000000003
 31
0.0
  0
LINE
  5
1E7
100
AcDbEntity
  8
1
  6
CONTINUOUS
 62
     7
100
AcDbLine
 10
200.9999999999999
 20
74.00000000000003
 30
0.0
 11
203.0
 21
74.00000000000003
 31
0.0
  0
LINE
  5
1E8
100
AcDbEntity
  8
1
  6
CONTINUOUS
 62
     7
100
AcDbLine
 10
200.9999999999999
 20
55.0
 30
0.0
 11
203.0
 21
55.0
 31
0.0
  0
LINE
  5
1E9
100
AcDbEntity
  8
1
  6
CONTINUOUS
 62
     7
100
AcDbLine
 10
203.0
 20
61.00000000000004
 30
0.0
 11
203.0
 21
55.0
 31
0.0
  0
LINE
  5
1EA
100
AcDbEntity
  8
1
  6
CONTINUOUS
 62
     7
100
AcDbLine
 10
200.9999999999999
 20
55.0
 30
0.0
 11
200.9999999999999
 21
61.00000000000004
 31
0.0
  0
LINE
  5
1EB
100
AcDbEntity
  8
1
  6
CONTINUOUS
 62
     7
100
AcDbLine
 10
200.9999999999999
 20
61.00000000000004
 30
0.0
 11
203.0
 21
61.00000000000004
 31
0.0
  0
LINE
  5
1EC
100
AcDbEntity
  8
1
  6
CONTINUOUS
 62
     7
100
AcDbLine
 10
214.9999999999999
 20
87.99999999999998
 30
0.0
 11
214.9999999999999
 21
96.99999999999999
 31
0.0
  0
LINE
  5
1ED
100
AcDbEntity
  8
1
  6
CONTINUOUS
 62
     7
100
AcDbLine
 10
214.9999999999999
 20
96.99999999999999
 30
0.0
 11
215.9999999999999
 21
96.99999999999999
 31
0.0
  0
LINE
  5
1EE
100
AcDbEntity
  8
1
  6
CONTINUOUS
 62
     7
100
AcDbLine
 10
229.9999999999999
 20
96.99999999999999
 30
0.0
 11
239.9999999999999
 21
96.99999999999999
 31
0.0
  0
LINE
  5
1EF
100
AcDbEntity
  8
1
  6
CONTINUOUS
 62
     7
100
AcDbLine
 10
239.9999999999999
 20
96.99999999999999
 30
0.0
 11
239.9999999999999
 21
84.99999999999998
 31
0.0
  0
LINE
  5
1F0
100
AcDbEntity
  8
1
  6
CONTINUOUS
 62
     7
100
AcDbLine
 10
239.9999999999999
 20
96.99999999999999
 30
0.0
 11
239.9999999999999
 21
84.99999999999998
 31
0.0
  0
LINE
  5
1F1
100
AcDbEntity
  8
1
  6
CONTINUOUS
 62
     7
100
AcDbLine
 10
234.9999999999999
 20
84.99999999999998
 30
0.0
 11
270.0
 21
84.99999999999998
 31
0.0
  0
LINE
  5
1F2
100
AcDbEntity
  8
1
  6
CONTINUOUS
 62
     7
100
AcDbLine
 10
243.0
 20
82.00000000000001
 30
0.0
 11
243.0
 21
77.99999999999998
 31
0.0
  0
LINE
  5
1F3
100
AcDbEntity
  8
1
  6
CONTINUOUS
 62
     7
100
AcDbLine
 10
243.0
 20
71.99999999999999
 30
0.0
 11
243.0
 21
64.99999999999999
 31
0.0
  0
LINE
  5
1F4
100
AcDbEntity
  8
1
  6
CONTINUOUS
 62
     7
100
AcDbLine
 10
243.0
 20
58.99999999999999
 30
0.0
 11
243.0
 21
52.99999999999998
 31
0.0
  0
LINE
  5
1F5
100
AcDbEntity
  8
1
  6
CONTINUOUS
 62
     7
100
AcDbLine
 10
240.9999999999999
 20
52.99999999999998
 30
0.0
 11
245.0
 21
52.99999999999998
 31
0.0
  0
LINE
  5
1F6
100
AcDbEntity
  8
1
  6
CONTINUOUS
 62
     7
100
AcDbLine
 10
214.9999999999999
 20
82.00000000000001
 30
0.0
 11
214.9999999999999
 21
68.0
 31
0.0
  0
LINE
  5
1F7
100
AcDbEntity
  8
1
  6
CONTINUOUS
 62
     7
100
AcDbLine
 10
214.9999999999999
 20
68.0
 30
0.0
 11
215.9999999999999
 21
68.0
 31
0.0
  0
LINE
  5
1F8
100
AcDbEntity
  8
1
  6
CONTINUOUS
 62
     7
100
AcDbLine
 10
228.9999999999999
 20
68.0
 30
0.0
 11
243.0
 21
68.0
 31
0.0
  0
CIRCLE
  5
1F9
100
AcDbEntity
  8
1
  6
CONTINUOUS
 62
     7
100
AcDbCircle
 10
214.9999999999999
 20
87.99999999999998
 30
0.0
 40
0.4
  0
CIRCLE
  5
1FA
100
AcDbEntity
  8
1
  6
CONTINUOUS
 62
     7
100
AcDbCircle
 10
239.9999999999999
 20
84.99999999999998
 30
0.0
 40
0.4
  0
CIRCLE
  5
1FB
100
AcDbEntity
  8
1
  6
CONTINUOUS
 62
     7
100
AcDbCircle
 10
243.0
 20
67.99999999999997
 30
0.0
 40
0.4
  0
CIRCLE
  5
1FC
100
AcDbEntity
  8
1
  6
CONTINUOUS
 62
     7
100
AcDbCircle
 10
243.0
 20
52.99999999999998
 30
0.0
 40
0.4
  0
CIRCLE
  5
1FD
100
AcDbEntity
  8
1
  6
CONTINUOUS
 62
     7
100
AcDbCircle
 10
214.9999999999999
 20
82.00000000000001
 30
0.0
 40
0.4
  0
LINE
  5
1FE
100
AcDbEntity
  8
1
  6
CONTINUOUS
 62
     7
100
AcDbLine
 10
228.9999999999999
 20
96.99999999999999
 30
0.0
 11
229.9999999999999
 21
96.99999999999999
 31
0.0
  0
LINE
  5
1FF
100
AcDbEntity
  8
1
  6
CONTINUOUS
 62
     7
100
AcDbLine
 10
224.9999999999999
 20
89.99999999999998
 30
0.0
 11
224.9999999999999
 21
94.0
 31
0.0
  0
LINE
  5
200
100
AcDbEntity
  8
1
  6
CONTINUOUS
 62
     7
100
AcDbLine
 10
222.9999999999999
 20
94.0
 30
0.0
 11
226.9999999999999
 21
94.0
 31
0.0
  0
LINE
  5
201
100
AcDbEntity
  8
1
  6
CONTINUOUS
 62
     7
100
AcDbLine
 10
224.9999999999999
 20
80.0
 30
0.0
 11
224.9999999999999
 21
77.99999999999998
 31
0.0
  0
LINE
  5
202
100
AcDbEntity
  8
1
  6
CONTINUOUS
 62
     7
100
AcDbLine
 10
222.9999999999999
 20
77.99999999999998
 30
0.0
 11
226.9999999999999
 21
77.99999999999998
 31
0.0
  0
CIRCLE
  5
203
100
AcDbEntity
  8
1
  6
CONTINUOUS
 62
     7
100
AcDbCircle
 10
224.9999999999999
 20
94.0
 30
0.0
 40
0.4
  0
CIRCLE
  5
204
100
AcDbEntity
  8
1
  6
CONTINUOUS
 62
     7
100
AcDbCircle
 10
224.9999999999999
 20
77.99999999999998
 30
0.0
 40
0.4
  0
TEXT
  5
205
100
AcDbEntity
  8
1
  6
CONTINUOUS
 62
     7
100
AcDbText
 10
226.9999999999999
 20
92.00000000000001
 30
0.0
 40
1.249999999999999
  1
+7.1V
  7
ARIALB
100
AcDbText
  0
TEXT
  5
206
100
AcDbEntity
  8
1
  6
CONTINUOUS
 62
     7
100
AcDbText
 10
228.0
 20
77.0
 30
0.0
 40
1.249999999999999
  1
Batt -ve
  7
ARIALB
100
AcDbText
  0
LINE
  5
207
100
AcDbEntity
  8
1
  6
CONTINUOUS
 62
     7
100
AcDbLine
 10
201.9999999999999
 20
76.99999999999999
 30
0.0
 11
201.9999999999999
 21
73.99999999999998
 31
0.0
  0
LINE
  5
208
100
AcDbEntity
  8
1
  6
CONTINUOUS
 62
     7
100
AcDbLine
 10
201.9999999999999
 20
68.0
 30
0.0
 11
201.9999999999999
 21
60.99999999999999
 31
0.0
  0
LINE
  5
209
100
AcDbEntity
  8
1
  6
CONTINUOUS
 62
     7
100
AcDbLine
 10
201.9999999999999
 20
55.0
 30
0.0
 11
201.9999999999999
 21
51.99999999999999
 31
0.0
  0
LINE
  5
20A
100
AcDbEntity
  8
1
  6
CONTINUOUS
 62
     7
100
AcDbLine
 10
199.9999999999999
 20
51.99999999999999
 30
0.0
 11
204.0
 21
51.99999999999999
 31
0.0
  0
TEXT
  5
20B
100
AcDbEntity
  8
1
  6
CONTINUOUS
 62
     7
100
AcDbText
 10
204.9999999999999
 20
70.0
 30
0.0
 40
1.249999999999999
  1
200k
  7
ARIALB
100
AcDbText
  0
TEXT
  5
20C
100
AcDbEntity
  8
1
  6
CONTINUOUS
 62
     7
100
AcDbText
 10
204.9999999999999
 20
57.0
 30
0.0
 40
1.249999999999999
  1
120k
  7
ARIALB
100
AcDbText
  0
LINE
  5
20D
100
AcDbEntity
  8
1
  6
CONTINUOUS
 62
     7
100
AcDbLine
 10
199.9999999999999
 20
76.99999999999999
 30
0.0
 11
204.0
 21
76.99999999999999
 31
0.0
  0
LINE
  5
20E
100
AcDbEntity
  8
1
  6
CONTINUOUS
 62
     7
100
AcDbLine
 10
209.9999999999999
 20
79.0
 30
0.0
 11
209.9999999999999
 21
65.0
 31
0.0
  0
LINE
  5
20F
100
AcDbEntity
  8
1
  6
CONTINUOUS
 62
     7
100
AcDbLine
 10
209.9999999999999
 20
65.0
 30
0.0
 11
201.9999999999999
 21
65.0
 31
0.0
  0
CIRCLE
  5
210
100
AcDbEntity
  8
1
  6
CONTINUOUS
 62
     7
100
AcDbCircle
 10
201.9999999999999
 20
76.99999999999999
 30
0.0
 40
0.4
  0
CIRCLE
  5
211
100
AcDbEntity
  8
1
  6
CONTINUOUS
 62
     7
100
AcDbCircle
 10
201.9999999999999
 20
65.0
 30
0.0
 40
0.4
  0
CIRCLE
  5
212
100
AcDbEntity
  8
1
  6
CONTINUOUS
 62
     7
100
AcDbCircle
 10
201.9999999999999
 20
51.99999999999999
 30
0.0
 40
0.4
  0
LINE
  5
213
100
AcDbEntity
  8
1
  6
CONTINUOUS
 62
     7
100
AcDbLine
 10
160.9999999999999
 20
68.0
 30
0.0
 11
191.9999999999999
 21
68.0
 31
0.0
  0
TEXT
  5
214
100
AcDbEntity
  8
1
  6
CONTINUOUS
 62
     7
100
AcDbText
 10
245.0
 20
73.99999999999998
 30
0.0
 40
1.249999999999999
  1
10k
  7
ARIALB
100
AcDbText
  0
TEXT
  5
215
100
AcDbEntity
  8
1
  6
CONTINUOUS
 62
     7
100
AcDbText
 10
245.0
 20
61.99999999999999
 30
0.0
 40
1.249999999999999
  1
4k7
  7
ARIALB
100
AcDbText
  0
LINE
  5
216
100
AcDbEntity
  8
1
  6
CONTINUOUS
 62
     7
100
AcDbLine
 10
240.9999999999999
 20
82.00000000000001
 30
0.0
 11
245.0
 21
82.00000000000001
 31
0.0
  0
TEXT
  5
217
100
AcDbEntity
  8
1
  6
CONTINUOUS
 62
     7
100
AcDbText
 10
195.9999999999999
 20
77.99999999999998
 30
0.0
 40
1.249999999999999
  1
+7.1V
  7
ARIALB
100
AcDbText
  0
TEXT
  5
218
100
AcDbEntity
  8
1
  6
CONTINUOUS
 62
     7
100
AcDbText
 10
247.0
 20
80.99999999999999
 30
0.0
 40
1.249999999999999
  1
+7.1V
  7
ARIALB
100
AcDbText
  0
TEXT
  5
219
100
AcDbEntity
  8
1
  6
CONTINUOUS
 62
     7
100
AcDbText
 10
204.9999999999999
 20
51.99999999999999
 30
0.0
 40
1.249999999999999
  1
Batt -ve
  7
ARIALB
100
AcDbText
  0
TEXT
  5
21A
100
AcDbEntity
  8
1
  6
CONTINUOUS
 62
     7
100
AcDbText
 10
245.9999999999999
 20
52.99999999999999
 30
0.0
 40
1.249999999999999
  1
+3.55V
  7
ARIALB
100
AcDbText
  0
LINE
  5
21B
100
AcDbEntity
  8
1
  6
CONTINUOUS
 62
     7
100
AcDbLine
 10
220.0
 20
90.99999999999999
 30
0.0
 11
209.9999999999999
 21
90.99999999999999
 31
0.0
  0
LINE
  5
21C
100
AcDbEntity
  8
1
  6
CONTINUOUS
 62
     7
100
AcDbLine
 10
208.9999999999999
 20
89.99999999999998
 30
0.0
 11
208.9999999999999
 21
79.99999999999997
 31
0.0
  0
LINE
  5
21D
100
AcDbEntity
  8
1
  6
CONTINUOUS
 62
     7
100
AcDbLine
 10
209.9999999999999
 20
78.99999999999998
 30
0.0
 11
220.0
 21
78.99999999999998
 31
0.0
  0
LINE
  5
21E
100
AcDbEntity
  8
1
  6
CONTINUOUS
 62
     7
100
AcDbLine
 10
220.9999999999999
 20
79.99999999999997
 30
0.0
 11
220.9999999999999
 21
89.99999999999998
 31
0.0
  0
CIRCLE
  5
21F
100
AcDbEntity
  8
1
  6
CONTINUOUS
 62
     7
100
AcDbCircle
 10
209.9999999999999
 20
79.0
 30
0.0
 40
0.4
  0
ARC
  5
220
100
AcDbEntity
  8
1
  6
CONTINUOUS
 62
     7
100
AcDbCircle
 10
209.9999999999999
 20
89.99999999999998
 30
0.0
 40
0.9999999999999998
100
AcDbArc
 50
90.00000000000005
 51
180.0
  0
ARC
  5
221
100
AcDbEntity
  8
1
  6
CONTINUOUS
 62
     7
100
AcDbCircle
 10
209.9999999999999
 20
79.99999999999997
 30
0.0
 40
0.9999999999999998
100
AcDbArc
 50
180.0
 51
270.0
  0
ARC
  5
222
100
AcDbEntity
  8
1
  6
CONTINUOUS
 62
     7
100
AcDbCircle
 10
220.0
 20
79.99999999999997
 30
0.0
 40
0.9999999999999998
100
AcDbArc
 50
270.0
 51
0.0
  0
ARC
  5
223
100
AcDbEntity
  8
1
  6
CONTINUOUS
 62
     7
100
AcDbCircle
 10
220.0
 20
89.99999999999998
 30
0.0
 40
0.9999999999999998
100
AcDbArc
 50
0.0
 51
90.00000000000005
  0
CIRCLE
  5
224
100
AcDbEntity
  8
1
  6
CONTINUOUS
 62
     7
100
AcDbCircle
 10
243.0
 20
82.00000000000001
 30
0.0
 40
0.4
  0
MTEXT
  5
225
100
AcDbEntity
  8
1
  6
CONTINUOUS
 62
     7
100
AcDbMText
 10
185.9999999999999
 20
91.99999999999997
 30
0.0
 40
1.249999999999999
 41
0.0
 71
     7
 72
     1
  1
SOT resistors selected \Pto match pressure \Psensor sensitivity\P(typical value 33k)
  7
ARIALB
  0
MTEXT
  5
226
100
AcDbEntity
  8
1
  6
CONTINUOUS
 62
     7
100
AcDbMText
 10
209.9999999999999
 20
57.0
 30
0.0
 40
1.249999999999999
 41
0.0
 71
     7
 72
     1
  1
guard track - reduces \Pcircuit sensitivity to PCB \Psurface conduction \Pfrom condensation
  7
ARIALB
  0
LINE
  5
227
100
AcDbEntity
  8
1
  6
CONTINUOUS
 62
     7
100
AcDbLine
 10
212.9999999999999
 20
65.0
 30
0.0
 11
211.9999999999999
 21
77.99999999999998
 31
0.0
  0
LINE
  5
228
100
AcDbEntity
  8
1
  6
CONTINUOUS
 62
     7
100
AcDbLine
 10
211.9999999999999
 20
77.99999999999998
 30
0.0
 11
210.9999999999999
 21
76.99999999999999
 31
0.0
  0
LINE
  5
229
100
AcDbEntity
  8
1
  6
CONTINUOUS
 62
     7
100
AcDbLine
 10
211.9999999999999
 20
77.99999999999998
 30
0.0
 11
212.9999999999999
 21
76.99999999999999
 31
0.0
  0
LINE
  5
22A
100
AcDbEntity
  8
1
  6
CONTINUOUS
 62
     7
100
AcDbLine
 10
192.9999999999999
 20
90.99999999999999
 30
0.0
 11
198.9999999999999
 21
88.99999999999998
 31
0.0
  0
LINE
  5
22B
100
AcDbEntity
  8
1
  6
CONTINUOUS
 62
     7
100
AcDbLine
 10
198.9999999999999
 20
88.99999999999998
 30
0.0
 11
198.9999999999999
 21
89.99999999999998
 31
0.0
  0
LINE
  5
22C
100
AcDbEntity
  8
1
  6
CONTINUOUS
 62
     7
100
AcDbLine
 10
198.9999999999999
 20
88.99999999999998
 30
0.0
 11
197.9999999999999
 21
88.99999999999998
 31
0.0
  0
LINE
  5
22D
100
AcDbEntity
  8
1
  6
CONTINUOUS
 62
     7
100
AcDbLine
 10
191.9999999999999
 20
90.99999999999999
 30
0.0
 11
198.9999999999999
 21
83.99999999999998
 31
0.0
  0
LINE
  5
22E
100
AcDbEntity
  8
1
  6
CONTINUOUS
 62
     7
100
AcDbLine
 10
198.9999999999999
 20
83.99999999999998
 30
0.0
 11
198.9999999999999
 21
84.99999999999998
 31
0.0
  0
LINE
  5
22F
100
AcDbEntity
  8
1
  6
CONTINUOUS
 62
     7
100
AcDbLine
 10
198.9999999999999
 20
83.99999999999998
 30
0.0
 11
197.9999999999999
 21
83.99999999999998
 31
0.0
  0
CIRCLE
  5
230
100
AcDbEntity
  8
1
  6
CONTINUOUS
 62
     7
100
AcDbCircle
 10
170.9999999999999
 20
52.99999999999999
 30
0.0
 40
4.472135954999584
  0
CIRCLE
  5
231
100
AcDbEntity
  8
1
  6
CONTINUOUS
 62
     7
100
AcDbCircle
 10
171.3353726208292
 20
55.6166206522348
 30
0.0
 40
0.3235690040154893
  0
CIRCLE
  5
232
100
AcDbEntity
  8
1
  6
CONTINUOUS
 62
     7
100
AcDbCircle
 10
170.0040916101906
 20
54.45898499080993
 30
0.0
 40
0.3235690040154893
  0
CIRCLE
  5
233
100
AcDbEntity
  8
1
  6
CONTINUOUS
 62
     7
100
AcDbCircle
 10
168.7017514910877
 20
53.01194041402883
 30
0.0
 40
0.3235690040154893
  0
CIRCLE
  5
234
100
AcDbEntity
  8
1
  6
CONTINUOUS
 62
     7
100
AcDbCircle
 10
173.882171075964
 20
53.15664487170693
 30
0.0
 40
0.3235690040154893
  0
CIRCLE
  5
235
100
AcDbEntity
  8
1
  6
CONTINUOUS
 62
     7
100
AcDbCircle
 10
172.6377127399322
 20
51.70960029492584
 30
0.0
 40
0.3235690040154893
  0
CIRCLE
  5
236
100
AcDbEntity
  8
1
  6
CONTINUOUS
 62
     7
100
AcDbCircle
 10
171.277490837758
 20
50.37831928428723
 30
0.0
 40
0.3235690040154893
  0
LINE
  5
237
100
AcDbEntity
  8
1
  6
CONTINUOUS
 62
     7
100
AcDbLine
 10
171.1038454885443
 20
57.49777860205022
 30
0.0
 11
171.1327863800799
 21
59.03164585343819
 31
0.0
  0
LINE
  5
238
100
AcDbEntity
  8
1
  6
CONTINUOUS
 62
     7
100
AcDbLine
 10
171.1327863800799
 20
59.03164585343819
 30
0.0
 11
172.9271216552884
 21
58.97376407036695
 31
0.0
  0
LINE
  5
239
100
AcDbEntity
  8
1
  6
CONTINUOUS
 62
     7
100
AcDbLine
 10
172.6087718483966
 20
57.208369686694
 30
0.0
 11
172.9271216552884
 21
58.9158822872957
 31
0.0
  0
TEXT
  5
23B
100
AcDbEntity
  8
1
  6
CONTINUOUS
 62
     7
100
AcDbText
 10
169.8593871525125
 20
56.05073402526913
 30
0.0
 40
0.9999999999999998
  1
12
  7
ARIAL
100
AcDbText
  0
TEXT
  5
23C
100
AcDbEntity
  8
1
  6
CONTINUOUS
 62
     7
100
AcDbText
 10
168.2930421895151
 20
54.94297530302107
 30
0.0
 40
0.9999999999999998
  1
11
  7
ARIAL
100
AcDbText
  0
TEXT
  5
23D
100
AcDbEntity
  8
1
  6
CONTINUOUS
 62
     7
100
AcDbText
 10
167.077524745019
 20
53.69851696698933
 30
0.0
 40
0.9999999999999998
  1
10
  7
ARIAL
100
AcDbText
  0
TEXT
  5
23E
100
AcDbEntity
  8
1
  6
CONTINUOUS
 62
     7
100
AcDbText
 10
172.6920577029297
 20
53.35122626856187
 30
0.0
 40
0.9999999999999998
  1
4
  7
ARIAL
100
AcDbText
  0
TEXT
  5
23F
100
AcDbEntity
  8
1
  6
CONTINUOUS
 62
     7
100
AcDbText
 10
171.4186584753623
 20
51.90418169178077
 30
0.0
 40
0.9999999999999998
  1
5
  7
ARIAL
100
AcDbText
  0
TEXT
  5
240
100
AcDbEntity
  8
1
  6
CONTINUOUS
 62
     7
100
AcDbText
 10
170.0005547901168
 20
50.6307824642134
 30
0.0
 40
0.9999999999999998
  1
6
  7
ARIAL
100
AcDbText
  0
TEXT
  5
241
100
AcDbEntity
  8
1
  6
CONTINUOUS
 62
     7
100
AcDbText
 10
163.7782631099581
 20
47.18681637147439
 30
0.0
 40
0.9999999999999998
  1
pin view pressure sensor
  7
ARIAL
100
AcDbText
  0
TEXT
  5
242
100
AcDbEntity
  8
1
  6
CONTINUOUS
 62
     7
100
AcDbText
 10
218.1877465392946
 20
44.86772910448073
 30
0.0
 40
1.999999999999999
  1
OP97FZ (selected for low 1/f noise)
  7
ARIALB
100
AcDbText
  0
TEXT
  5
243
100
AcDbEntity
  8
1
  6
CONTINUOUS
 62
     7
100
AcDbText
 10
210.2332888268477
 20
103.0130184149158
 30
0.0
 40
1.999999999999999
  1
first amplifier
  7
ARIALB
100
AcDbText
  0
LINE
  5
244
100
AcDbEntity
  8
1
  6
CONTINUOUS
 62
     7
100
AcDbLine
 10
177.0
 20
100.0
 30
0.0
 11
179.0
 21
100.0
 31
0.0
  0
LINE
  5
245
100
AcDbEntity
  8
1
  6
CONTINUOUS
 62
     7
100
AcDbLine
 10
96.00000000000001
 20
130.9999999999999
 30
0.0
 11
179.0
 21
130.9999999999999
 31
0.0
  0
LINE
  5
246
100
AcDbEntity
  8
1
  6
CONTINUOUS
 62
     7
100
AcDbLine
 10
179.0
 20
130.9999999999999
 30
0.0
 11
179.0
 21
100.0
 31
0.0
  0
LINE
  5
247
100
AcDbEntity
  8
1
  6
CONTINUOUS
 62
     7
100
AcDbLine
 10
100.0
 20
113.0
 30
0.0
 11
161.0
 21
113.0
 31
0.0
  0
LINE
  5
248
100
AcDbEntity
  8
1
  6
CONTINUOUS
 62
     7
100
AcDbLine
 10
161.0
 20
113.0
 30
0.0
 11
161.0
 21
76.0
 31
0.0
  0
LINE
  5
249
100
AcDbEntity
  8
1
  6
CONTINUOUS
 62
     7
100
AcDbLine
 10
270.0
 20
84.99999999999998
 30
0.0
 11
268.9999999999999
 21
85.99999999999999
 31
0.0
  0
LINE
  5
24A
100
AcDbEntity
  8
1
  6
CONTINUOUS
 62
     7
100
AcDbLine
 10
270.0
 20
84.99999999999998
 30
0.0
 11
268.9999999999999
 21
83.99999999999998
 31
0.0
  0
TEXT
  5
24B
100
AcDbEntity
  8
1
  6
CONTINUOUS
 62
     7
100
AcDbText
 10
263.9999999999999
 20
79.99999999999999
 30
0.0
 40
1.999999999999999
  1
to lineariser
  7
ARIALB
100
AcDbText
  0
ENDSEC
  0
SECTION
  2
OBJECTS
  0
DICTIONARY
  5
C
100
AcDbDictionary
  3
ACAD_GROUP
350
D
  3
ACAD_MLINESTYLE
350
1B
  0
DICTIONARY
  5
D
102
{ACAD_REACTORS
330
C
102
}
100
AcDbDictionary
  0
DICTIONARY
  5
1B
102
{ACAD_REACTORS
330
C
102
}
100
AcDbDictionary
  3
STANDARD
350
1C
  0
MLINESTYLE
  5
1C
102
{ACAD_REACTORS
330
1B
102
}
100
AcDbMlineStyle
  2
STANDARD
 70
     0
  3

 62
   256
 51
90.0
 52
90.0
 71
     2
 49
0.5
 62
   256
  6
BYLAYER
 49
-0.5
 62
   256
  6
BYLAYER
  0
ENDSEC
  0
EOF
