  0
SECTION
  2
HEADER
  9
$ACADVER
  1
AC1014
  9
$ACADMAINTVER
 70
     5
  9
$DWGCODEPAGE
  3
ANSI_1252
  9
$INSBASE
 10
0.0
 20
0.0
 30
0.0
  9
$EXTMIN
 10
1.000000000000000E+20
 20
1.000000000000000E+20
 30
1.000000000000000E+20
  9
$EXTMAX
 10
-1.000000000000000E+20
 20
-1.000000000000000E+20
 30
-1.000000000000000E+20
  9
$LIMMIN
 10
0.0
 20
0.0
  9
$LIMMAX
 10
12.0
 20
9.0
  9
$ORTHOMODE
 70
     0
  9
$REGENMODE
 70
     1
  9
$FILLMODE
 70
     1
  9
$QTEXTMODE
 70
     0
  9
$MIRRTEXT
 70
     1
  9
$DRAGMODE
 70
     2
  9
$LTSCALE
 40
1.0
  9
$OSMODE
 70
     8
  9
$ATTMODE
 70
     1
  9
$TEXTSIZE
 40
9.999999999999998
  9
$TRACEWID
 40
0.05
  9
$TEXTSTYLE
  7
STANDARD
  9
$CLAYER
  8
0
  9
$CELTYPE
  6
BYLAYER
  9
$CECOLOR
 62
   256
  9
$CELTSCALE
 40
1.0
  9
$DELOBJ
 70
     1
  9
$DISPSILH
 70
     0
  9
$DIMSCALE
 40
1.0
  9
$DIMASZ
 40
0.18
  9
$DIMEXO
 40
0.0625
  9
$DIMDLI
 40
0.38
  9
$DIMRND
 40
0.0
  9
$DIMDLE
 40
0.0
  9
$DIMEXE
 40
0.18
  9
$DIMTP
 40
0.0
  9
$DIMTM
 40
0.0
  9
$DIMTXT
 40
0.1574803149606299
  9
$DIMCEN
 40
0.09
  9
$DIMTSZ
 40
0.0
  9
$DIMTOL
 70
     0
  9
$DIMLIM
 70
     0
  9
$DIMTIH
 70
     1
  9
$DIMTOH
 70
     1
  9
$DIMSE1
 70
     0
  9
$DIMSE2
 70
     0
  9
$DIMTAD
 70
     0
  9
$DIMZIN
 70
     0
  9
$DIMBLK
  1

  9
$DIMASO
 70
     1
  9
$DIMSHO
 70
     1
  9
$DIMPOST
  1

  9
$DIMAPOST
  1

  9
$DIMALT
 70
     0
  9
$DIMALTD
 70
     2
  9
$DIMALTF
 40
25.4
  9
$DIMLFAC
 40
1.0
  9
$DIMTOFL
 70
     0
  9
$DIMTVP
 40
0.0
  9
$DIMTIX
 70
     0
  9
$DIMSOXD
 70
     0
  9
$DIMSAH
 70
     0
  9
$DIMBLK1
  1

  9
$DIMBLK2
  1

  9
$DIMSTYLE
  2
STANDARD
  9
$DIMCLRD
 70
     0
  9
$DIMCLRE
 70
     0
  9
$DIMCLRT
 70
     0
  9
$DIMTFAC
 40
1.0
  9
$DIMGAP
 40
0.09
  9
$DIMJUST
 70
     0
  9
$DIMSD1
 70
     0
  9
$DIMSD2
 70
     0
  9
$DIMTOLJ
 70
     1
  9
$DIMTZIN
 70
     0
  9
$DIMALTZ
 70
     0
  9
$DIMALTTZ
 70
     0
  9
$DIMFIT
 70
     3
  9
$DIMUPT
 70
     0
  9
$DIMUNIT
 70
     4
  9
$DIMDEC
 70
     2
  9
$DIMTDEC
 70
     4
  9
$DIMALTU
 70
     2
  9
$DIMALTTD
 70
     2
  9
$DIMTXSTY
  7
STANDARD
  9
$DIMAUNIT
 70
     1
  9
$LUNITS
 70
     2
  9
$LUPREC
 70
     2
  9
$SKETCHINC
 40
0.1
  9
$FILLETRAD
 40
4.999999999999999
  9
$AUNITS
 70
     0
  9
$AUPREC
 70
     2
  9
$MENU
  1
.
  9
$ELEVATION
 40
0.0
  9
$PELEVATION
 40
0.0
  9
$THICKNESS
 40
0.0
  9
$LIMCHECK
 70
     0
  9
$BLIPMODE
 70
     0
  9
$CHAMFERA
 40
4.999999999999999
  9
$CHAMFERB
 40
4.999999999999999
  9
$CHAMFERC
 40
0.0
  9
$CHAMFERD
 40
0.0
  9
$SKPOLY
 70
     0
  9
$TDCREATE
 40
0.0000000000
  9
$TDUPDATE
 40
0.0000000000
  9
$TDINDWG
 40
0.0000000000
  9
$TDUSRTIMER
 40
0.0000000000
  9
$USRTIMER
 70
     1
  9
$ANGBASE
 50
0.0
  9
$ANGDIR
 70
     0
  9
$PDMODE
 70
     0
  9
$PDSIZE
 40
0.0
  9
$PLINEWID
 40
0.0
  9
$COORDS
 70
     1
  9
$SPLFRAME
 70
     0
  9
$SPLINETYPE
 70
     6
  9
$SPLINESEGS
 70
     8
  9
$ATTDIA
 70
     0
  9
$ATTREQ
 70
     1
  9
$HANDLING
 70
     1
  9
$HANDSEED
  5
26F
  9
$SURFTAB1
 70
     6
  9
$SURFTAB2
 70
     6
  9
$SURFTYPE
 70
     6
  9
$SURFU
 70
     6
  9
$SURFV
 70
     6
  9
$UCSNAME
  2

  9
$UCSORG
 10
0.0
 20
0.0
 30
0.0
  9
$UCSXDIR
 10
1.0
 20
0.0
 30
0.0
  9
$UCSYDIR
 10
0.0
 20
1.0
 30
0.0
  9
$PUCSNAME
  2

  9
$PUCSORG
 10
0.0
 20
0.0
 30
0.0
  9
$PUCSXDIR
 10
1.0
 20
0.0
 30
0.0
  9
$PUCSYDIR
 10
0.0
 20
1.0
 30
0.0
  9
$USERI1
 70
     0
  9
$USERI2
 70
     0
  9
$USERI3
 70
     0
  9
$USERI4
 70
     0
  9
$USERI5
 70
     0
  9
$USERR1
 40
0.0
  9
$USERR2
 40
0.0
  9
$USERR3
 40
0.0
  9
$USERR4
 40
0.0
  9
$USERR5
 40
0.0
  9
$WORLDVIEW
 70
     1
  9
$SHADEDGE
 70
     3
  9
$SHADEDIF
 70
    70
  9
$TILEMODE
 70
     1
  9
$MAXACTVP
 70
    48
  9
$PINSBASE
 10
0.0
 20
0.0
 30
0.0
  9
$PLIMCHECK
 70
     0
  9
$PEXTMIN
 10
1.000000000000000E+20
 20
1.000000000000000E+20
 30
1.000000000000000E+20
  9
$PEXTMAX
 10
-1.000000000000000E+20
 20
-1.000000000000000E+20
 30
-1.000000000000000E+20
  9
$PLIMMIN
 10
0.0
 20
0.0
  9
$PLIMMAX
 10
12.0
 20
9.0
  9
$UNITMODE
 70
     0
  9
$VISRETAIN
 70
     1
  9
$PLINEGEN
 70
     0
  9
$PSLTSCALE
 70
     1
  9
$TREEDEPTH
 70
  3020
  9
$PICKSTYLE
 70
     1
  9
$CMLSTYLE
  2
STANDARD
  9
$CMLJUST
 70
     0
  9
$CMLSCALE
 40
1.0
  9
$PROXYGRAPHICS
 70
     1
  9
$MEASUREMENT
 70
     1
  0
ENDSEC
  0
SECTION
  2
CLASSES
  0
CLASS
  1
LWPOLYLINE
  2
AcDbPolyline
  3
"AutoCAD"
 90
        0
280
     0
281
     1
  0
ENDSEC
  0
SECTION
  2
TABLES
  0
TABLE
  2
VPORT
  5
8
100
AcDbSymbolTable
 70
     1
  0
VPORT
  5
11
100
AcDbSymbolTableRecord
100
AcDbViewportTableRecord
  2
*ACTIVE
 70
     0
 10
0.0
 20
0.0
 11
1.0
 21
1.0
 12
3.6
 22
4.5
 13
0.0
 23
0.0
 14
1.0
 24
1.0
 15
0.0
 25
0.0
 16
0.0
 26
0.0
 36
1.0
 17
0.0
 27
0.0
 37
0.0
 40
15.0
 41
0.8
 42
50.0
 43
0.0
 44
0.0
 50
0.0
 51
0.0
 71
     0
 72
   100
 73
     1
 74
     1
 75
     0
 76
     0
 77
     0
 78
     0
  0
ENDTAB
  0
TABLE
  2
LTYPE
  5
5
100
AcDbSymbolTable
 70
    40
  0
LTYPE
  5
12
100
AcDbSymbolTableRecord
100
AcDbLinetypeTableRecord
  2
BYBLOCK
 70
     0
  3

 72
    65
 73
     0
 40
0.0
  0
LTYPE
  5
13
100
AcDbSymbolTableRecord
100
AcDbLinetypeTableRecord
  2
BYLAYER
 70
     0
  3

 72
    65
 73
     0
 40
0.0
  0
LTYPE
  5
14
100
AcDbSymbolTableRecord
100
AcDbLinetypeTableRecord
  2
CONTINUOUS
 70
     0
  3
Solid line
 72
    65
 73
     0
 40
0.0
  0
LTYPE
  5
1E
100
AcDbSymbolTableRecord
100
AcDbLinetypeTableRecord
  2
HIDDEN
 70
     0
  3
_ _ _ _ _ _ _ _ _ _ _ _ _ _ 
 72
    65
 73
     2
 40
9.524999999999998
 49
6.349999999999999
 74
     0
 49
-3.174999999999999
 74
     0
  0
LTYPE
  5
1F
100
AcDbSymbolTableRecord
100
AcDbLinetypeTableRecord
  2
DASHED
 70
     0
  3
__ __ __ __ __ __ __ __ __ 
 72
    65
 73
     2
 40
19.04999999999999
 49
12.7
 74
     0
 49
-6.349999999999999
 74
     0
  0
LTYPE
  5
20
100
AcDbSymbolTableRecord
100
AcDbLinetypeTableRecord
  2
CENTER
 70
     0
  3
____ _ ____ _ ____ _ ____ _ 
 72
    65
 73
     4
 40
50.8
 49
31.75
 74
     0
 49
-6.349999999999999
 74
     0
 49
6.349999999999999
 74
     0
 49
-6.349999999999999
 74
     0
  0
LTYPE
  5
21
100
AcDbSymbolTableRecord
100
AcDbLinetypeTableRecord
  2
PHANTOM
 70
     0
  3
_____ _ _ _____ _ _ _____ _ _ 
 72
    65
 73
     6
 40
63.50000000000001
 49
31.75
 74
     0
 49
-6.349999999999999
 74
     0
 49
6.349999999999999
 74
     0
 49
-6.349999999999999
 74
     0
 49
6.349999999999999
 74
     0
 49
-6.349999999999999
 74
     0
  0
LTYPE
  5
22
100
AcDbSymbolTableRecord
100
AcDbLinetypeTableRecord
  2
DOT
 70
     0
  3
...........................
 72
    65
 73
     2
 40
6.349999999999999
 49
0.0
 74
     0
 49
-6.349999999999999
 74
     0
  0
LTYPE
  5
23
100
AcDbSymbolTableRecord
100
AcDbLinetypeTableRecord
  2
DASHDOT
 70
     0
  3
__ . __ . __ . __ . __ . __ . 
 72
    65
 73
     4
 40
25.4
 49
12.7
 74
     0
 49
-6.349999999999999
 74
     0
 49
0.0
 74
     0
 49
-6.349999999999999
 74
     0
  0
LTYPE
  5
24
100
AcDbSymbolTableRecord
100
AcDbLinetypeTableRecord
  2
DIVIDE
 70
     0
  3
__ . . __ . . __ . . __ . . 
 72
    65
 73
     6
 40
31.75
 49
12.7
 74
     0
 49
-6.349999999999999
 74
     0
 49
0.0
 74
     0
 49
-6.349999999999999
 74
     0
 49
0.0
 74
     0
 49
-6.349999999999999
 74
     0
  0
LTYPE
  5
25
100
AcDbSymbolTableRecord
100
AcDbLinetypeTableRecord
  2
BORDER
 70
     0
  3
__ __ . __ __ . __ __ . __ __ .
 72
    65
 73
     6
 40
44.44999999999999
 49
12.7
 74
     0
 49
-6.349999999999999
 74
     0
 49
12.7
 74
     0
 49
-6.349999999999999
 74
     0
 49
0.0
 74
     0
 49
-6.349999999999999
 74
     0
  0
LTYPE
  5
26
100
AcDbSymbolTableRecord
100
AcDbLinetypeTableRecord
  2
BORDER2
 70
     0
  3
Border (.5x) __.__.__.__.__.__.
 72
    65
 73
     6
 40
0.875
 49
0.25
 74
     0
 49
-0.125
 74
     0
 49
0.25
 74
     0
 49
-0.125
 74
     0
 49
0.0
 74
     0
 49
-0.125
 74
     0
  0
LTYPE
  5
27
100
AcDbSymbolTableRecord
100
AcDbLinetypeTableRecord
  2
BORDERX2
 70
     0
  3
Border (2x) ____  ____  .  ____
 72
    65
 73
     6
 40
3.5
 49
1.0
 74
     0
 49
-0.5
 74
     0
 49
1.0
 74
     0
 49
-0.5
 74
     0
 49
0.0
 74
     0
 49
-0.5
 74
     0
  0
LTYPE
  5
28
100
AcDbSymbolTableRecord
100
AcDbLinetypeTableRecord
  2
CENTER2
 70
     0
  3
Center (.5x) ___ _ ___ _ ___ _ 
 72
    65
 73
     4
 40
1.125
 49
0.7500000000000001
 74
     0
 49
-0.125
 74
     0
 49
0.125
 74
     0
 49
-0.125
 74
     0
  0
LTYPE
  5
29
100
AcDbSymbolTableRecord
100
AcDbLinetypeTableRecord
  2
CENTERX2
 70
     0
  3
Center (2x) ________  __  _____
 72
    65
 73
     4
 40
4.0
 49
2.5
 74
     0
 49
-0.5
 74
     0
 49
0.5
 74
     0
 49
-0.5
 74
     0
  0
LTYPE
  5
2A
100
AcDbSymbolTableRecord
100
AcDbLinetypeTableRecord
  2
DASHDOT2
 70
     0
  3
Dash dot (.5x) _._._._._._._._.
 72
    65
 73
     4
 40
0.5
 49
0.25
 74
     0
 49
-0.125
 74
     0
 49
0.0
 74
     0
 49
-0.125
 74
     0
  0
LTYPE
  5
2B
100
AcDbSymbolTableRecord
100
AcDbLinetypeTableRecord
  2
DASHDOTX2
 70
     0
  3
Dash dot (2x) ____  .  ____  . 
 72
    65
 73
     4
 40
2.0
 49
1.0
 74
     0
 49
-0.5
 74
     0
 49
0.0
 74
     0
 49
-0.5
 74
     0
  0
LTYPE
  5
2C
100
AcDbSymbolTableRecord
100
AcDbLinetypeTableRecord
  2
DASHED2
 70
     0
  3
Dashed (.5x) _ _ _ _ _ _ _ _ _ 
 72
    65
 73
     2
 40
0.375
 49
0.25
 74
     0
 49
-0.125
 74
     0
  0
LTYPE
  5
2D
100
AcDbSymbolTableRecord
100
AcDbLinetypeTableRecord
  2
DASHEDX2
 70
     0
  3
Dashed (2x) ____  ____  ____  _
 72
    65
 73
     2
 40
1.5
 49
1.0
 74
     0
 49
-0.5
 74
     0
  0
LTYPE
  5
2E
100
AcDbSymbolTableRecord
100
AcDbLinetypeTableRecord
  2
DIVIDE2
 70
     0
  3
Divide (.5x) __..__..__..__..__
 72
    65
 73
     6
 40
0.625
 49
0.25
 74
     0
 49
-0.125
 74
     0
 49
0.0
 74
     0
 49
-0.125
 74
     0
 49
0.0
 74
     0
 49
-0.125
 74
     0
  0
LTYPE
  5
2F
100
AcDbSymbolTableRecord
100
AcDbLinetypeTableRecord
  2
DIVIDEX2
 70
     0
  3
Divide (2x) ________  .  .  ___
 72
    65
 73
     6
 40
2.5
 49
1.0
 74
     0
 49
-0.5
 74
     0
 49
0.0
 74
     0
 49
-0.5
 74
     0
 49
0.0
 74
     0
 49
-0.5
 74
     0
  0
LTYPE
  5
30
100
AcDbSymbolTableRecord
100
AcDbLinetypeTableRecord
  2
DOT2
 70
     0
  3
Dot (.5x) .....................
 72
    65
 73
     2
 40
0.125
 49
0.0
 74
     0
 49
-0.125
 74
     0
  0
LTYPE
  5
31
100
AcDbSymbolTableRecord
100
AcDbLinetypeTableRecord
  2
DOTX2
 70
     0
  3
Dot (2x) .  .  .  .  .  .  .  .
 72
    65
 73
     2
 40
0.5
 49
0.0
 74
     0
 49
-0.5
 74
     0
  0
LTYPE
  5
32
100
AcDbSymbolTableRecord
100
AcDbLinetypeTableRecord
  2
HIDDEN2
 70
     0
  3
Hidden (.5x) _ _ _ _ _ _ _ _ _ 
 72
    65
 73
     2
 40
0.1875
 49
0.125
 74
     0
 49
-0.0625
 74
     0
  0
LTYPE
  5
33
100
AcDbSymbolTableRecord
100
AcDbLinetypeTableRecord
  2
HIDDENX2
 70
     0
  3
Hidden (2x) ____ ____ ____ ____
 72
    65
 73
     2
 40
0.75
 49
0.5
 74
     0
 49
-0.25
 74
     0
  0
LTYPE
  5
34
100
AcDbSymbolTableRecord
100
AcDbLinetypeTableRecord
  2
PHANTOM2
 70
     0
  3
Phantom (.5x) ___ _ _ ___ _ _ _
 72
    65
 73
     6
 40
1.25
 49
0.6250000000000001
 74
     0
 49
-0.125
 74
     0
 49
0.125
 74
     0
 49
-0.125
 74
     0
 49
0.125
 74
     0
 49
-0.125
 74
     0
  0
LTYPE
  5
35
100
AcDbSymbolTableRecord
100
AcDbLinetypeTableRecord
  2
PHANTOMX2
 70
     0
  3
Phantom (2x) ____________    __
 72
    65
 73
     6
 40
5.0
 49
2.5
 74
     0
 49
-0.5
 74
     0
 49
0.5
 74
     0
 49
-0.5
 74
     0
 49
0.5
 74
     0
 49
-0.5
 74
     0
  0
LTYPE
  5
36
100
AcDbSymbolTableRecord
100
AcDbLinetypeTableRecord
  2
DOTS
 70
     0
  3
Dots - - - - - - - - - - - - - 
 72
    65
 73
     2
 40
0.1
 49
0.05
 74
     0
 49
-0.05
 74
     0
  0
LTYPE
  5
37
100
AcDbSymbolTableRecord
100
AcDbLinetypeTableRecord
  2
ACAD_ISO02W100
 70
     0
  3
__ __ __ __ __ __ __ __ __ __ _
 72
    65
 73
     2
 40
15.0
 49
12.0
 74
     0
 49
-3.0
 74
     0
  0
LTYPE
  5
38
100
AcDbSymbolTableRecord
100
AcDbLinetypeTableRecord
  2
ACAD_ISO03W100
 70
     0
  3
__    __    __    __    __    _
 72
    65
 73
     2
 40
30.0
 49
12.0
 74
     0
 49
-18.0
 74
     0
  0
LTYPE
  5
39
100
AcDbSymbolTableRecord
100
AcDbLinetypeTableRecord
  2
ACAD_ISO04W100
 70
     0
  3
____ . ____ . ____ . ____ . ___
 72
    65
 73
     4
 40
30.5
 49
24.0
 74
     0
 49
-3.0
 74
     0
 49
0.5
 74
     0
 49
-3.0
 74
     0
  0
LTYPE
  5
3A
100
AcDbSymbolTableRecord
100
AcDbLinetypeTableRecord
  2
ACAD_ISO05W100
 70
     0
  3
____ .. ____ .. ____ .. ____ ..
 72
    65
 73
     6
 40
34.0
 49
24.0
 74
     0
 49
-3.0
 74
     0
 49
0.5
 74
     0
 49
-3.0
 74
     0
 49
0.5
 74
     0
 49
-3.0
 74
     0
  0
LTYPE
  5
3B
100
AcDbSymbolTableRecord
100
AcDbLinetypeTableRecord
  2
ACAD_ISO06W100
 70
     0
  3
____ ... ____ ... ____ ... ____
 72
    65
 73
     6
 40
34.0
 49
24.0
 74
     0
 49
-3.0
 74
     0
 49
0.5
 74
     0
 49
-3.0
 74
     0
 49
0.5
 74
     0
 49
-3.0
 74
     0
  0
LTYPE
  5
3C
100
AcDbSymbolTableRecord
100
AcDbLinetypeTableRecord
  2
ACAD_ISO07W100
 70
     0
  3
. . . . . . . . . . . . . . . .
 72
    65
 73
     2
 40
3.5
 49
0.5
 74
     0
 49
-3.0
 74
     0
  0
LTYPE
  5
3D
100
AcDbSymbolTableRecord
100
AcDbLinetypeTableRecord
  2
ACAD_ISO08W100
 70
     0
  3
____ __ ____ __ ____ __ ____ __
 72
    65
 73
     4
 40
36.0
 49
24.0
 74
     0
 49
-3.0
 74
     0
 49
6.0
 74
     0
 49
-3.0
 74
     0
  0
LTYPE
  5
3E
100
AcDbSymbolTableRecord
100
AcDbLinetypeTableRecord
  2
ACAD_ISO09W100
 70
     0
  3
____ __ __ ____ __ __ ____ __ _
 72
    65
 73
     6
 40
45.0
 49
24.0
 74
     0
 49
-3.0
 74
     0
 49
6.0
 74
     0
 49
-3.0
 74
     0
 49
6.0
 74
     0
 49
-3.0
 74
     0
  0
LTYPE
  5
3F
100
AcDbSymbolTableRecord
100
AcDbLinetypeTableRecord
  2
ACAD_ISO10W100
 70
     0
  3
__ . __ . __ . __ . __ . __ . _
 72
    65
 73
     4
 40
18.5
 49
12.0
 74
     0
 49
-3.0
 74
     0
 49
0.5
 74
     0
 49
-3.0
 74
     0
  0
LTYPE
  5
40
100
AcDbSymbolTableRecord
100
AcDbLinetypeTableRecord
  2
ACAD_ISO11W100
 70
     0
  3
__ __ . __ __ . __ __ . __ __ .
 72
    65
 73
     6
 40
33.5
 49
12.0
 74
     0
 49
-3.0
 74
     0
 49
12.0
 74
     0
 49
-3.0
 74
     0
 49
0.5
 74
     0
 49
-3.0
 74
     0
  0
LTYPE
  5
41
100
AcDbSymbolTableRecord
100
AcDbLinetypeTableRecord
  2
ACAD_ISO12W100
 70
     0
  3
__ . . __ . . __ . . __ . . __ 
 72
    65
 73
     6
 40
22.0
 49
12.0
 74
     0
 49
-3.0
 74
     0
 49
0.5
 74
     0
 49
-3.0
 74
     0
 49
0.5
 74
     0
 49
-3.0
 74
     0
  0
LTYPE
  5
42
100
AcDbSymbolTableRecord
100
AcDbLinetypeTableRecord
  2
ACAD_ISO13W100
 70
     0
  3
__ __ . . __ __ . . __ __ . . _
 72
    65
 73
     6
 40
33.5
 49
12.0
 74
     0
 49
-3.0
 74
     0
 49
12.0
 74
     0
 49
-3.0
 74
     0
 49
0.5
 74
     0
 49
-3.0
 74
     0
  0
LTYPE
  5
43
100
AcDbSymbolTableRecord
100
AcDbLinetypeTableRecord
  2
ACAD_ISO14W100
 70
     0
  3
__ . . . __ . . . __ . . . __ .
 72
    65
 73
     6
 40
22.0
 49
12.0
 74
     0
 49
-3.0
 74
     0
 49
0.5
 74
     0
 49
-3.0
 74
     0
 49
0.5
 74
     0
 49
-3.0
 74
     0
  0
LTYPE
  5
44
100
AcDbSymbolTableRecord
100
AcDbLinetypeTableRecord
  2
ACAD_ISO15W100
 70
     0
  3
__ __ . . . __ __ . . . __ __ .
 72
    65
 73
     6
 40
33.5
 49
12.0
 74
     0
 49
-3.0
 74
     0
 49
12.0
 74
     0
 49
-3.0
 74
     0
 49
0.5
 74
     0
 49
-3.0
 74
     0
  0
ENDTAB
  0
TABLE
  2
LAYER
  5
2
100
AcDbSymbolTable
 70
     2
  0
LAYER
  5
E
100
AcDbSymbolTableRecord
100
AcDbLayerTableRecord
  2
0
 70
     0
 62
     7
  6
CONTINUOUS
  0
LAYER
  5
45
100
AcDbSymbolTableRecord
100
AcDbLayerTableRecord
  2
1
 70
     0
 62
     7
  6
CONTINUOUS
  0
ENDTAB
  0
TABLE
  2
STYLE
  5
3
100
AcDbSymbolTable
 70
     6
  0
STYLE
  5
F
100
AcDbSymbolTableRecord
100
AcDbTextStyleTableRecord
  2
STANDARD
 70
     0
 40
0.0
 41
1.0
 50
0.0
 71
     0
 42
9.999999999999998
  3
txt
  4

  0
STYLE
  5
46
100
AcDbSymbolTableRecord
100
AcDbTextStyleTableRecord
  2
ITALIC
 70
     0
 40
0.0
 41
1.0
 50
0.0
 71
     0
 42
9.999999999999998
  3
ITALIC
  4

  0
STYLE
  5
47
100
AcDbSymbolTableRecord
100
AcDbTextStyleTableRecord
  2
SIMPLEX
 70
     0
 40
0.0
 41
1.0
 50
0.0
 71
     0
 42
9.999999999999998
  3
SIMPLEX
  4

  0
STYLE
  5
48
100
AcDbSymbolTableRecord
100
AcDbTextStyleTableRecord
  2
COMPLEX
 70
     0
 40
0.0
 41
1.0
 50
0.0
 71
     0
 42
9.999999999999998
  3
COMPLEX
  4

  0
STYLE
  5
54
100
AcDbSymbolTableRecord
100
AcDbTextStyleTableRecord
  2
ARIALB
 70
     0
 40
0.0
 41
1.0
 50
0.0
 71
     0
 42
9.999999999999998
  3
ARIALBD.TTF
  4

1001
ACAD
1000
Arial
1071
 33554432
  0
STYLE
  5
EA
100
AcDbSymbolTableRecord
100
AcDbTextStyleTableRecord
  2
ARIAL
 70
     0
 40
0.0
 41
1.0
 50
0.0
 71
     0
 42
9.999999999999998
  3
ARIAL.TTF
  4

1001
ACAD
1000
Arial
1071
        0
  0
ENDTAB
  0
TABLE
  2
VIEW
  5
6
100
AcDbSymbolTable
 70
     0
  0
ENDTAB
  0
TABLE
  2
UCS
  5
7
100
AcDbSymbolTable
 70
     0
  0
ENDTAB
  0
TABLE
  2
APPID
  5
9
100
AcDbSymbolTable
 70
     1
  0
APPID
  5
10
100
AcDbSymbolTableRecord
100
AcDbRegAppTableRecord
  2
ACAD
 70
     0
  0
ENDTAB
  0
TABLE
  2
DIMSTYLE
  5
A
100
AcDbSymbolTable
 70
     1
  0
DIMSTYLE
105
1D
100
AcDbSymbolTableRecord
100
AcDbDimStyleTableRecord
  2
STANDARD
 70
     0
  3

  4

  5

  6

  7

 40
1.0
 41
0.18
 42
0.0625
 43
0.38
 44
0.18
 45
0.0
 46
0.0
 47
0.0
 48
0.0
140
0.18
141
0.09
142
0.0
143
25.4
144
1.0
145
0.0
146
1.0
147
0.09
 71
     0
 72
     0
 73
     1
 74
     1
 75
     0
 76
     0
 77
     0
 78
     0
170
     0
171
     2
172
     0
173
     0
174
     0
175
     0
176
     0
177
     0
178
     0
270
     2
271
     4
272
     4
273
     2
274
     2
340
F
275
     0
280
     0
281
     0
282
     0
283
     1
284
     0
285
     0
286
     0
287
     3
288
     0
  0
ENDTAB
  0
TABLE
  2
BLOCK_RECORD
  5
1
100
AcDbSymbolTable
 70
     0
  0
BLOCK_RECORD
  5
18
100
AcDbSymbolTableRecord
100
AcDbBlockTableRecord
  2
*MODEL_SPACE
  0
BLOCK_RECORD
  5
15
100
AcDbSymbolTableRecord
100
AcDbBlockTableRecord
  2
*PAPER_SPACE
  0
ENDTAB
  0
ENDSEC
  0
SECTION
  2
BLOCKS
  0
BLOCK
  5
19
100
AcDbEntity
  8
0
100
AcDbBlockBegin
  2
*MODEL_SPACE
 70
     0
 10
0.0
 20
0.0
 30
0.0
  3
*MODEL_SPACE
  1

  0
ENDBLK
  5
1A
100
AcDbEntity
  8
0
100
AcDbBlockEnd
  0
BLOCK
  5
16
100
AcDbEntity
 67
     1
  8
0
100
AcDbBlockBegin
  2
*PAPER_SPACE
 70
     0
 10
0.0
 20
0.0
 30
0.0
  3
*PAPER_SPACE
  1

  0
ENDBLK
  5
17
100
AcDbEntity
 67
     1
  8
0
100
AcDbBlockEnd
  0
ENDSEC
  0
SECTION
  2
ENTITIES
  0
LINE
  5
49
100
AcDbEntity
  8
1
  6
CONTINUOUS
 62
     7
100
AcDbLine
 10
60.0
 20
53.99999999999998
 30
0.0
 11
60.0
 21
41.99999999999998
 31
0.0
  0
LINE
  5
4A
100
AcDbEntity
  8
1
  6
CONTINUOUS
 62
     7
100
AcDbLine
 10
60.0
 20
53.99999999999998
 30
0.0
 11
71.99999999999999
 21
47.99999999999997
 31
0.0
  0
LINE
  5
4B
100
AcDbEntity
  8
1
  6
CONTINUOUS
 62
     7
100
AcDbLine
 10
60.0
 20
41.99999999999998
 30
0.0
 11
71.99999999999999
 21
47.99999999999997
 31
0.0
  0
LINE
  5
4C
100
AcDbEntity
  8
1
  6
CONTINUOUS
 62
     7
100
AcDbLine
 10
59.99999999999998
 20
50.99999999999998
 30
0.0
 11
30.99999999999999
 21
50.99999999999998
 31
0.0
  0
LINE
  5
4D
100
AcDbEntity
  8
1
  6
CONTINUOUS
 62
     7
100
AcDbLine
 10
71.99999999999999
 20
47.99999999999997
 30
0.0
 11
75.00000000000001
 21
47.99999999999997
 31
0.0
  0
LINE
  5
4E
100
AcDbEntity
  8
1
  6
CONTINUOUS
 62
     7
100
AcDbLine
 10
77.99999999999997
 20
47.99999999999999
 30
0.0
 11
81.00000000000001
 21
47.99999999999999
 31
0.0
  0
LINE
  5
4F
100
AcDbEntity
  8
1
  6
CONTINUOUS
 62
     7
100
AcDbLine
 10
81.00000000000001
 20
49.0
 30
0.0
 11
81.00000000000001
 21
46.99999999999999
 31
0.0
  0
LINE
  5
50
100
AcDbEntity
  8
1
  6
CONTINUOUS
 62
     7
100
AcDbLine
 10
81.00000000000001
 20
46.99999999999999
 30
0.0
 11
87.00000000000001
 21
46.99999999999999
 31
0.0
  0
LINE
  5
51
100
AcDbEntity
  8
1
  6
CONTINUOUS
 62
     7
100
AcDbLine
 10
87.00000000000001
 20
49.0
 30
0.0
 11
81.00000000000001
 21
49.0
 31
0.0
  0
LINE
  5
52
100
AcDbEntity
  8
1
  6
CONTINUOUS
 62
     7
100
AcDbLine
 10
87.00000000000001
 20
49.0
 30
0.0
 11
87.00000000000001
 21
46.99999999999999
 31
0.0
  0
LINE
  5
53
100
AcDbEntity
  8
1
  6
CONTINUOUS
 62
     7
100
AcDbLine
 10
75.00000000000001
 20
47.99999999999999
 30
0.0
 11
77.99999999999997
 21
47.99999999999999
 31
0.0
  0
TEXT
  5
55
100
AcDbEntity
  8
1
  6
CONTINUOUS
 62
     7
100
AcDbText
 10
81.99999999999995
 20
50.0
 30
0.0
 40
1.249999999999999
  1
1M
  7
ARIALB
100
AcDbText
  0
LINE
  5
56
100
AcDbEntity
  8
1
  6
CONTINUOUS
 62
     7
100
AcDbLine
 10
65.99999999999998
 20
45.0
 30
0.0
 11
65.99999999999998
 21
41.99999999999999
 31
0.0
  0
LINE
  5
57
100
AcDbEntity
  8
1
  6
CONTINUOUS
 62
     7
100
AcDbLine
 10
63.99999999999999
 20
51.99999999999999
 30
0.0
 11
63.99999999999999
 21
55.0
 31
0.0
  0
LINE
  5
58
100
AcDbEntity
  8
1
  6
CONTINUOUS
 62
     7
100
AcDbLine
 10
67.99999999999998
 20
50.0
 30
0.0
 11
67.99999999999998
 21
55.0
 31
0.0
  0
LINE
  5
59
100
AcDbEntity
  8
1
  6
CONTINUOUS
 62
     7
100
AcDbLine
 10
62.0
 20
55.0
 30
0.0
 11
69.99999999999999
 21
55.0
 31
0.0
  0
CIRCLE
  5
5A
100
AcDbEntity
  8
1
  6
CONTINUOUS
 62
     7
100
AcDbCircle
 10
63.99999999999999
 20
55.0
 30
0.0
 40
0.4
  0
CIRCLE
  5
5B
100
AcDbEntity
  8
1
  6
CONTINUOUS
 62
     7
100
AcDbCircle
 10
67.99999999999998
 20
55.0
 30
0.0
 40
0.4
  0
CIRCLE
  5
5C
100
AcDbEntity
  8
1
  6
CONTINUOUS
 62
     7
100
AcDbCircle
 10
65.99999999999998
 20
41.99999999999999
 30
0.0
 40
0.4
  0
LINE
  5
5D
100
AcDbEntity
  8
1
  6
CONTINUOUS
 62
     7
100
AcDbLine
 10
63.99999999999999
 20
41.99999999999999
 30
0.0
 11
67.99999999999998
 21
41.99999999999999
 31
0.0
  0
TEXT
  5
5E
100
AcDbEntity
  8
1
  6
CONTINUOUS
 62
     7
100
AcDbText
 10
63.99999999999999
 20
57.0
 30
0.0
 40
1.249999999999999
  1
+9V (batt +ve)
  7
ARIALB
100
AcDbText
  0
TEXT
  5
5F
100
AcDbEntity
  8
1
  6
CONTINUOUS
 62
     7
100
AcDbText
 10
63.99999999999999
 20
38.99999999999999
 30
0.0
 40
1.249999999999999
  1
Batt -ve
  7
ARIALB
100
AcDbText
  0
TEXT
  5
60
100
AcDbEntity
  8
1
  6
CONTINUOUS
 62
     7
100
AcDbText
 10
58.0
 20
51.99999999999999
 30
0.0
 40
1.249999999999999
  1
2
  7
ARIALB
100
AcDbText
  0
TEXT
  5
61
100
AcDbEntity
  8
1
  6
CONTINUOUS
 62
     7
100
AcDbText
 10
58.0
 20
45.99999999999999
 30
0.0
 40
1.249999999999999
  1
3
  7
ARIALB
100
AcDbText
  0
TEXT
  5
62
100
AcDbEntity
  8
1
  6
CONTINUOUS
 62
     7
100
AcDbText
 10
64.99999999999994
 20
51.99999999999999
 30
0.0
 40
1.249999999999999
  1
8
  7
ARIALB
100
AcDbText
  0
TEXT
  5
63
100
AcDbEntity
  8
1
  6
CONTINUOUS
 62
     7
100
AcDbText
 10
68.99999999999995
 20
50.0
 30
0.0
 40
1.249999999999999
  1
7
  7
ARIALB
100
AcDbText
  0
TEXT
  5
64
100
AcDbEntity
  8
1
  6
CONTINUOUS
 62
     7
100
AcDbText
 10
67.00000000000002
 20
42.99999999999999
 30
0.0
 40
1.249999999999999
  1
4
  7
ARIALB
100
AcDbText
  0
TEXT
  5
65
100
AcDbEntity
  8
1
  6
CONTINUOUS
 62
     7
100
AcDbText
 10
73.00000000000003
 20
49.0
 30
0.0
 40
1.249999999999999
  1
6
  7
ARIALB
100
AcDbText
  0
LINE
  5
66
100
AcDbEntity
  8
1
  6
CONTINUOUS
 62
     7
100
AcDbLine
 10
58.0
 20
60.99999999999997
 30
0.0
 11
60.99999999999996
 21
60.99999999999997
 31
0.0
  0
LINE
  5
67
100
AcDbEntity
  8
1
  6
CONTINUOUS
 62
     7
100
AcDbLine
 10
60.99999999999996
 20
61.99999999999999
 30
0.0
 11
60.99999999999996
 21
59.99999999999998
 31
0.0
  0
LINE
  5
68
100
AcDbEntity
  8
1
  6
CONTINUOUS
 62
     7
100
AcDbLine
 10
60.99999999999996
 20
59.99999999999998
 30
0.0
 11
67.00000000000002
 21
59.99999999999998
 31
0.0
  0
LINE
  5
69
100
AcDbEntity
  8
1
  6
CONTINUOUS
 62
     7
100
AcDbLine
 10
67.00000000000002
 20
61.99999999999999
 30
0.0
 11
60.99999999999996
 21
61.99999999999999
 31
0.0
  0
LINE
  5
6A
100
AcDbEntity
  8
1
  6
CONTINUOUS
 62
     7
100
AcDbLine
 10
67.00000000000002
 20
61.99999999999999
 30
0.0
 11
67.00000000000002
 21
59.99999999999998
 31
0.0
  0
LINE
  5
6B
100
AcDbEntity
  8
1
  6
CONTINUOUS
 62
     7
100
AcDbLine
 10
67.00000000000002
 20
60.99999999999997
 30
0.0
 11
69.99999999999999
 21
60.99999999999997
 31
0.0
  0
LINE
  5
6C
100
AcDbEntity
  8
1
  6
CONTINUOUS
 62
     7
100
AcDbLine
 10
54.00000000000002
 20
60.99999999999997
 30
0.0
 11
58.0
 21
60.99999999999997
 31
0.0
  0
LINE
  5
6D
100
AcDbEntity
  8
1
  6
CONTINUOUS
 62
     7
100
AcDbLine
 10
69.99999999999999
 20
60.99999999999997
 30
0.0
 11
77.00000000000001
 21
60.99999999999997
 31
0.0
  0
TEXT
  5
6E
100
AcDbEntity
  8
1
  6
CONTINUOUS
 62
     7
100
AcDbText
 10
62.0
 20
62.99999999999998
 30
0.0
 40
1.249999999999999
  1
10M
  7
ARIALB
100
AcDbText
  0
LINE
  5
6F
100
AcDbEntity
  8
1
  6
CONTINUOUS
 62
     7
100
AcDbLine
 10
40.0
 20
45.0
 30
0.0
 11
42.99999999999995
 21
45.0
 31
0.0
  0
LINE
  5
70
100
AcDbEntity
  8
1
  6
CONTINUOUS
 62
     7
100
AcDbLine
 10
42.99999999999995
 20
46.0
 30
0.0
 11
42.99999999999995
 21
44.0
 31
0.0
  0
LINE
  5
71
100
AcDbEntity
  8
1
  6
CONTINUOUS
 62
     7
100
AcDbLine
 10
42.99999999999995
 20
44.0
 30
0.0
 11
48.99999999999994
 21
44.0
 31
0.0
  0
LINE
  5
72
100
AcDbEntity
  8
1
  6
CONTINUOUS
 62
     7
100
AcDbLine
 10
48.99999999999994
 20
46.0
 30
0.0
 11
42.99999999999995
 21
46.0
 31
0.0
  0
LINE
  5
73
100
AcDbEntity
  8
1
  6
CONTINUOUS
 62
     7
100
AcDbLine
 10
48.99999999999994
 20
46.0
 30
0.0
 11
48.99999999999994
 21
44.0
 31
0.0
  0
LINE
  5
74
100
AcDbEntity
  8
1
  6
CONTINUOUS
 62
     7
100
AcDbLine
 10
48.99999999999998
 20
45.0
 30
0.0
 11
60.0
 21
45.0
 31
0.0
  0
TEXT
  5
75
100
AcDbEntity
  8
1
  6
CONTINUOUS
 62
     7
100
AcDbText
 10
44.99999999999999
 20
47.00000000000001
 30
0.0
 40
1.249999999999999
  1
47k
  7
ARIALB
100
AcDbText
  0
LINE
  5
76
100
AcDbEntity
  8
1
  6
CONTINUOUS
 62
     7
100
AcDbLine
 10
54.00000000000002
 20
60.99999999999999
 30
0.0
 11
54.00000000000002
 21
45.0
 31
0.0
  0
LINE
  5
77
100
AcDbEntity
  8
1
  6
CONTINUOUS
 62
     7
100
AcDbLine
 10
77.00000000000001
 20
60.99999999999999
 30
0.0
 11
77.00000000000001
 21
47.99999999999999
 31
0.0
  0
CIRCLE
  5
78
100
AcDbEntity
  8
1
  6
CONTINUOUS
 62
     7
100
AcDbCircle
 10
54.00000000000002
 20
45.0
 30
0.0
 40
0.4
  0
CIRCLE
  5
79
100
AcDbEntity
  8
1
  6
CONTINUOUS
 62
     7
100
AcDbCircle
 10
77.00000000000001
 20
47.99999999999999
 30
0.0
 40
0.4
  0
LINE
  5
7A
100
AcDbEntity
  8
1
  6
CONTINUOUS
 62
     7
100
AcDbLine
 10
30.00000000000004
 20
53.00000000000001
 30
0.0
 11
32.00000000000004
 21
53.00000000000001
 31
0.0
  0
LINE
  5
7B
100
AcDbEntity
  8
1
  6
CONTINUOUS
 62
     7
100
AcDbLine
 10
32.00000000000004
 20
59.00000000000003
 30
0.0
 11
32.00000000000004
 21
53.00000000000001
 31
0.0
  0
LINE
  5
7C
100
AcDbEntity
  8
1
  6
CONTINUOUS
 62
     7
100
AcDbLine
 10
30.00000000000004
 20
53.00000000000001
 30
0.0
 11
30.00000000000004
 21
59.00000000000003
 31
0.0
  0
LINE
  5
7D
100
AcDbEntity
  8
1
  6
CONTINUOUS
 62
     7
100
AcDbLine
 10
30.00000000000004
 20
59.00000000000003
 30
0.0
 11
32.00000000000004
 21
59.00000000000003
 31
0.0
  0
LINE
  5
7E
100
AcDbEntity
  8
1
  6
CONTINUOUS
 62
     7
100
AcDbLine
 10
30.0
 20
43.00000000000001
 30
0.0
 11
31.99999999999999
 21
43.00000000000001
 31
0.0
  0
LINE
  5
7F
100
AcDbEntity
  8
1
  6
CONTINUOUS
 62
     7
100
AcDbLine
 10
31.99999999999999
 20
49.00000000000002
 30
0.0
 11
31.99999999999999
 21
43.00000000000001
 31
0.0
  0
LINE
  5
80
100
AcDbEntity
  8
1
  6
CONTINUOUS
 62
     7
100
AcDbLine
 10
30.0
 20
43.00000000000001
 30
0.0
 11
30.0
 21
49.00000000000002
 31
0.0
  0
LINE
  5
81
100
AcDbEntity
  8
1
  6
CONTINUOUS
 62
     7
100
AcDbLine
 10
30.0
 20
49.00000000000002
 30
0.0
 11
31.99999999999999
 21
49.00000000000002
 31
0.0
  0
LINE
  5
82
100
AcDbEntity
  8
1
  6
CONTINUOUS
 62
     7
100
AcDbLine
 10
31.0
 20
53.00000000000001
 30
0.0
 11
31.0
 21
49.00000000000002
 31
0.0
  0
LINE
  5
83
100
AcDbEntity
  8
1
  6
CONTINUOUS
 62
     7
100
AcDbLine
 10
31.0
 20
59.00000000000001
 30
0.0
 11
31.0
 21
62.0
 31
0.0
  0
LINE
  5
84
100
AcDbEntity
  8
1
  6
CONTINUOUS
 62
     7
100
AcDbLine
 10
31.0
 20
43.00000000000001
 30
0.0
 11
31.0
 21
37.0
 31
0.0
  0
LINE
  5
85
100
AcDbEntity
  8
1
  6
CONTINUOUS
 62
     7
100
AcDbLine
 10
29.0
 20
37.0
 30
0.0
 11
32.99999999999999
 21
37.0
 31
0.0
  0
CIRCLE
  5
86
100
AcDbEntity
  8
1
  6
CONTINUOUS
 62
     7
100
AcDbCircle
 10
31.0
 20
37.0
 30
0.0
 40
0.4
  0
TEXT
  5
87
100
AcDbEntity
  8
1
  6
CONTINUOUS
 62
     7
100
AcDbText
 10
25.99999999999999
 20
55.00000000000001
 30
0.0
 40
1.249999999999999
  1
20k
  7
ARIALB
100
AcDbText
  0
TEXT
  5
88
100
AcDbEntity
  8
1
  6
CONTINUOUS
 62
     7
100
AcDbText
 10
25.0
 20
45.0
 30
0.0
 40
1.249999999999999
  1
360k
  7
ARIALB
100
AcDbText
  0
CIRCLE
  5
89
100
AcDbEntity
  8
1
  6
CONTINUOUS
 62
     7
100
AcDbCircle
 10
31.0
 20
51.0
 30
0.0
 40
0.4
  0
LINE
  5
8A
100
AcDbEntity
  8
1
  6
CONTINUOUS
 62
     7
100
AcDbLine
 10
10.99999999999997
 20
203.0
 30
0.0
 11
283.0
 21
203.0
 31
0.0
  0
LINE
  5
8B
100
AcDbEntity
  8
1
  6
CONTINUOUS
 62
     7
100
AcDbLine
 10
283.0
 20
203.0
 30
0.0
 11
283.0
 21
13.99999999999999
 31
0.0
  0
LINE
  5
8C
100
AcDbEntity
  8
1
  6
CONTINUOUS
 62
     7
100
AcDbLine
 10
283.0
 20
14.0
 30
0.0
 11
10.99999999999996
 21
14.0
 31
0.0
  0
LINE
  5
8D
100
AcDbEntity
  8
1
  6
CONTINUOUS
 62
     7
100
AcDbLine
 10
11.0
 20
14.0
 30
0.0
 11
11.0
 21
203.0
 31
0.0
  0
MTEXT
  5
8E
100
AcDbEntity
  8
1
  6
CONTINUOUS
 62
     7
100
AcDbMText
 10
215.9999999999999
 20
19.99999999999999
 30
0.0
 40
4.999999999999999
 41
0.0
 71
     7
 72
     1
  1
LR2 schematics\PDVM card
  7
ARIALB
  0
TEXT
  5
8F
100
AcDbEntity
  8
1
  6
CONTINUOUS
 62
     7
100
AcDbText
 10
31.99999999999999
 20
38.0
 30
0.0
 40
1.249999999999999
  1
Batt -ve
  7
ARIALB
100
AcDbText
  0
LINE
  5
90
100
AcDbEntity
  8
1
  6
CONTINUOUS
 62
     7
100
AcDbLine
 10
30.0
 20
61.99999999999999
 30
0.0
 11
31.99999999999999
 21
61.99999999999999
 31
0.0
  0
LINE
  5
91
100
AcDbEntity
  8
1
  6
CONTINUOUS
 62
     7
100
AcDbLine
 10
31.99999999999999
 20
68.0
 30
0.0
 11
31.99999999999999
 21
61.99999999999999
 31
0.0
  0
LINE
  5
92
100
AcDbEntity
  8
1
  6
CONTINUOUS
 62
     7
100
AcDbLine
 10
30.0
 20
61.99999999999999
 30
0.0
 11
30.0
 21
68.0
 31
0.0
  0
LINE
  5
93
100
AcDbEntity
  8
1
  6
CONTINUOUS
 62
     7
100
AcDbLine
 10
30.0
 20
68.0
 30
0.0
 11
31.99999999999999
 21
68.0
 31
0.0
  0
LINE
  5
94
100
AcDbEntity
  8
1
  6
CONTINUOUS
 62
     7
100
AcDbLine
 10
31.0
 20
68.0
 30
0.0
 11
31.0
 21
71.0
 31
0.0
  0
LINE
  5
95
100
AcDbEntity
  8
1
  6
CONTINUOUS
 62
     7
100
AcDbLine
 10
29.0
 20
71.0
 30
0.0
 11
32.99999999999999
 21
71.0
 31
0.0
  0
TEXT
  5
96
100
AcDbEntity
  8
1
  6
CONTINUOUS
 62
     7
100
AcDbText
 10
25.99999999999999
 20
63.99999999999999
 30
0.0
 40
1.249999999999999
  1
390k
  7
ARIALB
100
AcDbText
  0
CIRCLE
  5
97
100
AcDbEntity
  8
1
  6
CONTINUOUS
 62
     7
100
AcDbCircle
 10
31.0
 20
71.0
 30
0.0
 40
0.4
  0
TEXT
  5
98
100
AcDbEntity
  8
1
  6
CONTINUOUS
 62
     7
100
AcDbText
 10
34.0
 20
71.0
 30
0.0
 40
1.249999999999999
  1
9V Batt +ve
  7
ARIALB
100
AcDbText
  0
TEXT
  5
99
100
AcDbEntity
  8
1
  6
CONTINUOUS
 62
     7
100
AcDbText
 10
51.0
 20
69.0
 30
0.0
 40
1.249999999999999
  1
3.6V at battery voltage 7.7V
  7
ARIALB
100
AcDbText
  0
LINE
  5
9A
100
AcDbEntity
  8
1
  6
CONTINUOUS
 62
     7
100
AcDbLine
 10
48.99999999999999
 20
68.0
 30
0.0
 11
35.99999999999999
 21
52.99999999999999
 31
0.0
  0
LINE
  5
9B
100
AcDbEntity
  8
1
  6
CONTINUOUS
 62
     7
100
AcDbLine
 10
35.99999999999999
 20
52.99999999999999
 30
0.0
 11
35.99999999999999
 21
53.99999999999999
 31
0.0
  0
LINE
  5
9C
100
AcDbEntity
  8
1
  6
CONTINUOUS
 62
     7
100
AcDbLine
 10
35.99999999999999
 20
52.99999999999999
 30
0.0
 11
37.0
 21
52.99999999999999
 31
0.0
  0
LINE
  5
9D
100
AcDbEntity
  8
1
  6
CONTINUOUS
 62
     7
100
AcDbLine
 10
39.99999999999999
 20
45.0
 30
0.0
 11
39.99999999999999
 21
39.99999999999999
 31
0.0
  0
LINE
  5
9E
100
AcDbEntity
  8
1
  6
CONTINUOUS
 62
     7
100
AcDbLine
 10
38.0
 20
39.99999999999999
 30
0.0
 11
41.99999999999999
 21
39.99999999999999
 31
0.0
  0
CIRCLE
  5
9F
100
AcDbEntity
  8
1
  6
CONTINUOUS
 62
     7
100
AcDbCircle
 10
39.99999999999999
 20
39.99999999999999
 30
0.0
 40
0.4
  0
TEXT
  5
A0
100
AcDbEntity
  8
1
  6
CONTINUOUS
 62
     7
100
AcDbText
 10
62.0
 20
50.0
 30
0.0
 40
1.999999999999999
  1
-
  7
ARIALB
100
AcDbText
  0
TEXT
  5
A1
100
AcDbEntity
  8
1
  6
CONTINUOUS
 62
     7
100
AcDbText
 10
62.0
 20
44.0
 30
0.0
 40
1.999999999999999
  1
+
  7
ARIALB
100
AcDbText
  0
TEXT
  5
A2
100
AcDbEntity
  8
1
  6
CONTINUOUS
 62
     7
100
AcDbText
 10
42.99999999999999
 20
38.0
 30
0.0
 40
1.249999999999999
  1
+3.6V
  7
ARIALB
100
AcDbText
  0
ARC
  5
A3
100
AcDbEntity
  8
1
  6
CONTINUOUS
 62
     7
100
AcDbCircle
 10
96.28571428571426
 20
31.14285714285703
 30
0.0
 40
23.91865466150494
100
AcDbArc
 50
52.03497591043126
 51
85.89000203872517
  0
ARC
  5
A4
100
AcDbEntity
  8
1
  6
CONTINUOUS
 62
     7
100
AcDbCircle
 10
92.74999999999998
 20
50.0
 30
0.0
 40
7.25000000000001
100
AcDbArc
 50
316.3971810272964
 51
43.60281897270352
  0
ARC
  5
A5
100
AcDbEntity
  8
1
  6
CONTINUOUS
 62
     7
100
AcDbCircle
 10
96.28571428571419
 20
68.8571428571431
 30
0.0
 40
23.91865466150508
100
AcDbArc
 50
274.1099979612749
 51
307.9650240895687
  0
ARC
  5
A6
100
AcDbEntity
  8
1
  6
CONTINUOUS
 62
     7
100
AcDbCircle
 10
90.99999999999999
 20
50.0
 30
0.0
 40
7.25000000000001
100
AcDbArc
 50
316.3971810272964
 51
43.60281897270352
  0
LINE
  5
A7
100
AcDbEntity
  8
1
  6
CONTINUOUS
 62
     7
100
AcDbLine
 10
87.00000000000001
 20
48.0
 30
0.0
 11
97.99999999999998
 21
48.0
 31
0.0
  0
LINE
  5
A8
100
AcDbEntity
  8
1
  6
CONTINUOUS
 62
     7
100
AcDbLine
 10
90.0
 20
51.99999999999999
 30
0.0
 11
97.99999999999998
 21
51.99999999999999
 31
0.0
  0
ARC
  5
A9
100
AcDbEntity
  8
1
  6
CONTINUOUS
 62
     7
100
AcDbCircle
 10
96.28571428571426
 20
57.14285714285702
 30
0.0
 40
23.91865466150494
100
AcDbArc
 50
52.03497591043126
 51
85.89000203872517
  0
ARC
  5
AA
100
AcDbEntity
  8
1
  6
CONTINUOUS
 62
     7
100
AcDbCircle
 10
92.74999999999998
 20
76.0
 30
0.0
 40
7.25000000000001
100
AcDbArc
 50
316.3971810272964
 51
43.60281897270352
  0
ARC
  5
AB
100
AcDbEntity
  8
1
  6
CONTINUOUS
 62
     7
100
AcDbCircle
 10
96.28571428571419
 20
94.8571428571431
 30
0.0
 40
23.91865466150508
100
AcDbArc
 50
274.1099979612749
 51
307.9650240895687
  0
ARC
  5
AC
100
AcDbEntity
  8
1
  6
CONTINUOUS
 62
     7
100
AcDbCircle
 10
90.99999999999999
 20
76.0
 30
0.0
 40
7.25000000000001
100
AcDbArc
 50
316.3971810272964
 51
43.60281897270352
  0
LINE
  5
AD
100
AcDbEntity
  8
1
  6
CONTINUOUS
 62
     7
100
AcDbLine
 10
90.0
 20
74.0
 30
0.0
 11
97.99999999999998
 21
74.0
 31
0.0
  0
LINE
  5
AE
100
AcDbEntity
  8
1
  6
CONTINUOUS
 62
     7
100
AcDbLine
 10
88.0
 20
77.99999999999998
 30
0.0
 11
97.99999999999998
 21
77.99999999999998
 31
0.0
  0
LINE
  5
AF
100
AcDbEntity
  8
1
  6
CONTINUOUS
 62
     7
100
AcDbLine
 10
90.0
 20
74.0
 30
0.0
 11
90.0
 21
51.99999999999999
 31
0.0
  0
LINE
  5
B0
100
AcDbEntity
  8
1
  6
CONTINUOUS
 62
     7
100
AcDbLine
 10
85.99999999999999
 20
85.99999999999999
 30
0.0
 11
90.0
 21
85.99999999999999
 31
0.0
  0
LINE
  5
B1
100
AcDbEntity
  8
1
  6
CONTINUOUS
 62
     7
100
AcDbLine
 10
88.0
 20
85.99999999999999
 30
0.0
 11
88.0
 21
77.99999999999998
 31
0.0
  0
LINE
  5
B2
100
AcDbEntity
  8
1
  6
CONTINUOUS
 62
     7
100
AcDbLine
 10
90.0
 20
74.0
 30
0.0
 11
70.0
 21
74.0
 31
0.0
  0
LINE
  5
B3
100
AcDbEntity
  8
1
  6
CONTINUOUS
 62
     7
100
AcDbLine
 10
70.0
 20
74.0
 30
0.0
 11
70.0
 21
94.0
 31
0.0
  0
LINE
  5
B4
100
AcDbEntity
  8
1
  6
CONTINUOUS
 62
     7
100
AcDbLine
 10
103.9999999999999
 20
79.99999999999999
 30
0.0
 11
103.9999999999999
 21
84.99999999999998
 31
0.0
  0
LINE
  5
B5
100
AcDbEntity
  8
1
  6
CONTINUOUS
 62
     7
100
AcDbLine
 10
102.0
 20
84.99999999999998
 30
0.0
 11
105.9999999999999
 21
84.99999999999998
 31
0.0
  0
LINE
  5
B6
100
AcDbEntity
  8
1
  6
CONTINUOUS
 62
     7
100
AcDbLine
 10
103.9999999999999
 20
71.99999999999999
 30
0.0
 11
103.9999999999999
 21
68.0
 31
0.0
  0
LINE
  5
B7
100
AcDbEntity
  8
1
  6
CONTINUOUS
 62
     7
100
AcDbLine
 10
102.0
 20
68.0
 30
0.0
 11
105.9999999999999
 21
68.0
 31
0.0
  0
CIRCLE
  5
B8
100
AcDbEntity
  8
1
  6
CONTINUOUS
 62
     7
100
AcDbCircle
 10
90.0
 20
74.0
 30
0.0
 40
0.4
  0
CIRCLE
  5
B9
100
AcDbEntity
  8
1
  6
CONTINUOUS
 62
     7
100
AcDbCircle
 10
103.9999999999999
 20
68.0
 30
0.0
 40
0.4
  0
CIRCLE
  5
BA
100
AcDbEntity
  8
1
  6
CONTINUOUS
 62
     7
100
AcDbCircle
 10
103.9999999999999
 20
84.99999999999998
 30
0.0
 40
0.4
  0
CIRCLE
  5
BB
100
AcDbEntity
  8
1
  6
CONTINUOUS
 62
     7
100
AcDbCircle
 10
88.0
 20
85.99999999999999
 30
0.0
 40
0.4
  0
LINE
  5
BC
100
AcDbEntity
  8
1
  6
CONTINUOUS
 62
     7
100
AcDbLine
 10
111.0
 20
76.0
 30
0.0
 11
130.0
 21
76.0
 31
0.0
  0
LINE
  5
BD
100
AcDbEntity
  8
1
  6
CONTINUOUS
 62
     7
100
AcDbLine
 10
111.0
 20
50.0
 30
0.0
 11
130.0
 21
50.0
 31
0.0
  0
TEXT
  5
BE
100
AcDbEntity
  8
1
  6
CONTINUOUS
 62
     7
100
AcDbText
 10
112.0
 20
77.0
 30
0.0
 40
1.249999999999999
  1
11
  7
ARIALB
100
AcDbText
  0
TEXT
  5
BF
100
AcDbEntity
  8
1
  6
CONTINUOUS
 62
     7
100
AcDbText
 10
94.0
 20
78.99999999999998
 30
0.0
 40
1.249999999999999
  1
13
  7
ARIALB
100
AcDbText
  0
TEXT
  5
C0
100
AcDbEntity
  8
1
  6
CONTINUOUS
 62
     7
100
AcDbText
 10
94.0
 20
75.0
 30
0.0
 40
1.249999999999999
  1
12
  7
ARIALB
100
AcDbText
  0
TEXT
  5
C1
100
AcDbEntity
  8
1
  6
CONTINUOUS
 62
     7
100
AcDbText
 10
94.0
 20
52.99999999999999
 30
0.0
 40
1.249999999999999
  1
9
  7
ARIALB
100
AcDbText
  0
TEXT
  5
C2
100
AcDbEntity
  8
1
  6
CONTINUOUS
 62
     7
100
AcDbText
 10
94.0
 20
48.99999999999999
 30
0.0
 40
1.249999999999999
  1
8
  7
ARIALB
100
AcDbText
  0
TEXT
  5
C3
100
AcDbEntity
  8
1
  6
CONTINUOUS
 62
     7
100
AcDbText
 10
112.0
 20
51.0
 30
0.0
 40
1.249999999999999
  1
10
  7
ARIALB
100
AcDbText
  0
TEXT
  5
C4
100
AcDbEntity
  8
1
  6
CONTINUOUS
 62
     7
100
AcDbText
 10
105.9999999999999
 20
79.99999999999999
 30
0.0
 40
1.249999999999999
  1
14
  7
ARIALB
100
AcDbText
  0
TEXT
  5
C5
100
AcDbEntity
  8
1
  6
CONTINUOUS
 62
     7
100
AcDbText
 10
105.9999999999999
 20
70.0
 30
0.0
 40
1.249999999999999
  1
7
  7
ARIALB
100
AcDbText
  0
TEXT
  5
C6
100
AcDbEntity
  8
1
  6
CONTINUOUS
 62
     7
100
AcDbText
 10
103.9999999999999
 20
65.0
 30
0.0
 40
1.249999999999999
  1
7136 digital ground
  7
ARIALB
100
AcDbText
  0
TEXT
  5
C7
100
AcDbEntity
  8
1
  6
CONTINUOUS
 62
     7
100
AcDbText
 10
105.9999999999999
 20
87.00000000000001
 30
0.0
 40
1.249999999999999
  1
9V Batt +ve
  7
ARIALB
100
AcDbText
  0
TEXT
  5
C8
100
AcDbEntity
  8
1
  6
CONTINUOUS
 62
     7
100
AcDbText
 10
85.57800000000002
 20
87.375
 30
0.0
 40
1.249999999999999
  1
9V Batt +ve
  7
ARIALB
100
AcDbText
  0
TEXT
  5
C9
100
AcDbEntity
  8
1
  6
CONTINUOUS
 62
     7
100
AcDbText
 10
68.0
 20
31.99999999999999
 30
0.0
 40
1.999999999999999
  1
Low battery detection
  7
ARIALB
100
AcDbText
  0
TEXT
  5
CA
100
AcDbEntity
  8
1
  6
CONTINUOUS
 62
     7
100
AcDbText
 10
118.9999999999999
 20
50.99999999999998
 30
0.0
 40
1.249999999999999
  1
NOT low batt BP
  7
ARIALB
100
AcDbText
  0
TEXT
  5
CB
100
AcDbEntity
  8
1
  6
CONTINUOUS
 62
     7
100
AcDbText
 10
119.9999999999999
 20
77.0
 30
0.0
 40
1.249999999999999
  1
NOT BP for RHS fixed zero
  7
ARIALB
100
AcDbText
  0
TEXT
  5
CC
100
AcDbEntity
  8
1
  6
CONTINUOUS
 62
     7
100
AcDbText
 10
71.99999999999999
 20
75.0
 30
0.0
 40
1.249999999999999
  1
14Hz BP
  7
ARIALB
100
AcDbText
  0
TEXT
  5
CD
100
AcDbEntity
  8
1
  6
CONTINUOUS
 62
     7
100
AcDbText
 10
113.0
 20
71.0
 30
0.0
 40
1.999999999999999
  1
RHS fixed zero drive
  7
ARIALB
100
AcDbText
  0
LINE
  5
CE
100
AcDbEntity
  8
1
  6
CONTINUOUS
 62
     7
100
AcDbLine
 10
209.9999999999999
 20
159.9999999999999
 30
0.0
 11
209.9999999999999
 21
59.99999999999998
 31
0.0
  0
LINE
  5
CF
100
AcDbEntity
  8
1
  6
CONTINUOUS
 62
     7
100
AcDbLine
 10
209.9999999999999
 20
59.99999999999998
 30
0.0
 11
180.0
 21
59.99999999999998
 31
0.0
  0
LINE
  5
D0
100
AcDbEntity
  8
1
  6
CONTINUOUS
 62
     7
100
AcDbLine
 10
180.0
 20
59.99999999999998
 30
0.0
 11
180.0
 21
159.9999999999999
 31
0.0
  0
TEXT
  5
D1
100
AcDbEntity
  8
1
  6
CONTINUOUS
 62
     7
100
AcDbText
 10
187.9999999999999
 20
130.9999999999999
 30
0.0
 40
1.999999999999999
  1
ICL7136
  7
ARIALB
100
AcDbText
  0
LINE
  5
D2
100
AcDbEntity
  8
1
  6
CONTINUOUS
 62
     7
100
AcDbLine
 10
209.9999999999999
 20
136.9999999999999
 30
0.0
 11
229.9999999999999
 21
136.9999999999999
 31
0.0
  0
LINE
  5
D3
100
AcDbEntity
  8
1
  6
CONTINUOUS
 62
     7
100
AcDbLine
 10
209.9999999999999
 20
133.9999999999999
 30
0.0
 11
229.9999999999999
 21
134.0
 31
0.0
  0
LINE
  5
D4
100
AcDbEntity
  8
1
  6
CONTINUOUS
 62
     7
100
AcDbLine
 10
209.9999999999999
 20
130.9999999999999
 30
0.0
 11
229.9999999999999
 21
130.9999999999999
 31
0.0
  0
LINE
  5
D5
100
AcDbEntity
  8
1
  6
CONTINUOUS
 62
     7
100
AcDbLine
 10
209.9999999999999
 20
127.9999999999999
 30
0.0
 11
229.9999999999999
 21
127.9999999999999
 31
0.0
  0
LINE
  5
D6
100
AcDbEntity
  8
1
  6
CONTINUOUS
 62
     7
100
AcDbLine
 10
209.9999999999999
 20
125.0
 30
0.0
 11
229.9999999999999
 21
125.0
 31
0.0
  0
LINE
  5
D7
100
AcDbEntity
  8
1
  6
CONTINUOUS
 62
     7
100
AcDbLine
 10
209.9999999999999
 20
121.9999999999999
 30
0.0
 11
229.9999999999999
 21
121.9999999999999
 31
0.0
  0
LINE
  5
D8
100
AcDbEntity
  8
1
  6
CONTINUOUS
 62
     7
100
AcDbLine
 10
209.9999999999999
 20
119.0
 30
0.0
 11
229.9999999999999
 21
119.0
 31
0.0
  0
LINE
  5
D9
100
AcDbEntity
  8
1
  6
CONTINUOUS
 62
     7
100
AcDbLine
 10
209.9999999999999
 20
113.0
 30
0.0
 11
229.9999999999999
 21
113.0
 31
0.0
  0
LINE
  5
DA
100
AcDbEntity
  8
1
  6
CONTINUOUS
 62
     7
100
AcDbLine
 10
209.9999999999999
 20
110.0
 30
0.0
 11
229.9999999999999
 21
110.0
 31
0.0
  0
LINE
  5
DB
100
AcDbEntity
  8
1
  6
CONTINUOUS
 62
     7
100
AcDbLine
 10
209.9999999999999
 20
107.0
 30
0.0
 11
229.9999999999999
 21
107.0
 31
0.0
  0
LINE
  5
DC
100
AcDbEntity
  8
1
  6
CONTINUOUS
 62
     7
100
AcDbLine
 10
209.9999999999999
 20
104.0
 30
0.0
 11
229.9999999999999
 21
104.0
 31
0.0
  0
LINE
  5
DD
100
AcDbEntity
  8
1
  6
CONTINUOUS
 62
     7
100
AcDbLine
 10
209.9999999999999
 20
101.0
 30
0.0
 11
229.9999999999999
 21
101.0
 31
0.0
  0
LINE
  5
DE
100
AcDbEntity
  8
1
  6
CONTINUOUS
 62
     7
100
AcDbLine
 10
209.9999999999999
 20
98.00000000000004
 30
0.0
 11
229.9999999999999
 21
98.00000000000004
 31
0.0
  0
LINE
  5
DF
100
AcDbEntity
  8
1
  6
CONTINUOUS
 62
     7
100
AcDbLine
 10
209.9999999999999
 20
95.00000000000005
 30
0.0
 11
229.9999999999999
 21
95.00000000000005
 31
0.0
  0
LINE
  5
E0
100
AcDbEntity
  8
1
  6
CONTINUOUS
 62
     7
100
AcDbLine
 10
209.9999999999999
 20
89.00000000000005
 30
0.0
 11
229.9999999999999
 21
89.00000000000005
 31
0.0
  0
LINE
  5
E1
100
AcDbEntity
  8
1
  6
CONTINUOUS
 62
     7
100
AcDbLine
 10
209.9999999999999
 20
86.00000000000006
 30
0.0
 11
229.9999999999999
 21
86.00000000000006
 31
0.0
  0
LINE
  5
E2
100
AcDbEntity
  8
1
  6
CONTINUOUS
 62
     7
100
AcDbLine
 10
209.9999999999999
 20
83.00000000000007
 30
0.0
 11
229.9999999999999
 21
83.00000000000007
 31
0.0
  0
LINE
  5
E3
100
AcDbEntity
  8
1
  6
CONTINUOUS
 62
     7
100
AcDbLine
 10
209.9999999999999
 20
80.00000000000008
 30
0.0
 11
229.9999999999999
 21
80.00000000000008
 31
0.0
  0
LINE
  5
E4
100
AcDbEntity
  8
1
  6
CONTINUOUS
 62
     7
100
AcDbLine
 10
209.9999999999999
 20
77.00000000000009
 30
0.0
 11
229.9999999999999
 21
77.00000000000009
 31
0.0
  0
LINE
  5
E5
100
AcDbEntity
  8
1
  6
CONTINUOUS
 62
     7
100
AcDbLine
 10
209.9999999999999
 20
74.00000000000009
 30
0.0
 11
229.9999999999999
 21
74.00000000000009
 31
0.0
  0
LINE
  5
E6
100
AcDbEntity
  8
1
  6
CONTINUOUS
 62
     7
100
AcDbLine
 10
209.9999999999999
 20
71.0000000000001
 30
0.0
 11
229.9999999999999
 21
71.0000000000001
 31
0.0
  0
LINE
  5
E7
100
AcDbEntity
  8
1
  6
CONTINUOUS
 62
     7
100
AcDbLine
 10
209.9999999999999
 20
142.9999999999999
 30
0.0
 11
229.9999999999999
 21
142.9999999999999
 31
0.0
  0
LWPOLYLINE
  5
E8
100
AcDbEntity
  8
1
  6
CONTINUOUS
 62
     7
100
AcDbPolyline
 90
        5
 70
     0
 43
0.0
 10
229.9999999999999
 20
189.9999999999999
 10
250.0
 20
189.9999999999999
 10
250.0
 20
34.00000000000001
 10
229.9999999999999
 20
34.00000000000001
 10
229.9999999999999
 20
189.9999999999999
  0
TEXT
  5
E9
100
AcDbEntity
  8
1
  6
CONTINUOUS
 62
     7
100
AcDbText
 10
238.9999999999999
 20
139.9999999999999
 30
0.0
 40
1.999999999999999
  1
LCD
  7
ARIALB
100
AcDbText
  0
TEXT
  5
EB
100
AcDbEntity
  8
1
  6
CONTINUOUS
 62
     7
100
AcDbText
 10
210.9999999999999
 20
133.9999999999999
 30
0.0
 40
1.5
  1
16
  7
ARIAL
100
AcDbText
  0
TEXT
  5
EC
100
AcDbEntity
  8
1
  6
CONTINUOUS
 62
     7
100
AcDbText
 10
210.9999999999999
 20
136.9999999999999
 30
0.0
 40
1.5
  1
23
  7
ARIAL
100
AcDbText
  0
TEXT
  5
ED
100
AcDbEntity
  8
1
  6
CONTINUOUS
 62
     7
100
AcDbText
 10
210.9999999999999
 20
142.9999999999999
 30
0.0
 40
1.5
  1
19
  7
ARIAL
100
AcDbText
  0
TEXT
  5
EE
100
AcDbEntity
  8
1
  6
CONTINUOUS
 62
     7
100
AcDbText
 10
210.9999999999999
 20
130.9999999999999
 30
0.0
 40
1.5
  1
24
  7
ARIAL
100
AcDbText
  0
TEXT
  5
EF
100
AcDbEntity
  8
1
  6
CONTINUOUS
 62
     7
100
AcDbText
 10
210.9999999999999
 20
127.9999999999999
 30
0.0
 40
1.5
  1
15
  7
ARIAL
100
AcDbText
  0
TEXT
  5
F0
100
AcDbEntity
  8
1
  6
CONTINUOUS
 62
     7
100
AcDbText
 10
210.9999999999999
 20
124.9999999999999
 30
0.0
 40
1.5
  1
18
  7
ARIAL
100
AcDbText
  0
TEXT
  5
F1
100
AcDbEntity
  8
1
  6
CONTINUOUS
 62
     7
100
AcDbText
 10
210.9999999999999
 20
121.9999999999999
 30
0.0
 40
1.5
  1
17
  7
ARIAL
100
AcDbText
  0
TEXT
  5
F2
100
AcDbEntity
  8
1
  6
CONTINUOUS
 62
     7
100
AcDbText
 10
210.9999999999999
 20
118.9999999999999
 30
0.0
 40
1.5
  1
22
  7
ARIAL
100
AcDbText
  0
TEXT
  5
F3
100
AcDbEntity
  8
1
  6
CONTINUOUS
 62
     7
100
AcDbText
 10
210.9999999999999
 20
112.9999999999999
 30
0.0
 40
1.5
  1
12
  7
ARIAL
100
AcDbText
  0
TEXT
  5
F4
100
AcDbEntity
  8
1
  6
CONTINUOUS
 62
     7
100
AcDbText
 10
210.9999999999999
 20
109.9999999999999
 30
0.0
 40
1.5
  1
11
  7
ARIAL
100
AcDbText
  0
TEXT
  5
F5
100
AcDbEntity
  8
1
  6
CONTINUOUS
 62
     7
100
AcDbText
 10
210.9999999999999
 20
106.9999999999999
 30
0.0
 40
1.5
  1
10
  7
ARIAL
100
AcDbText
  0
TEXT
  5
F6
100
AcDbEntity
  8
1
  6
CONTINUOUS
 62
     7
100
AcDbText
 10
210.9999999999999
 20
103.9999999999999
 30
0.0
 40
1.5
  1
9
  7
ARIAL
100
AcDbText
  0
TEXT
  5
F7
100
AcDbEntity
  8
1
  6
CONTINUOUS
 62
     7
100
AcDbText
 10
210.9999999999999
 20
100.9999999999999
 30
0.0
 40
1.5
  1
14
  7
ARIAL
100
AcDbText
  0
TEXT
  5
F8
100
AcDbEntity
  8
1
  6
CONTINUOUS
 62
     7
100
AcDbText
 10
210.9999999999999
 20
97.99999999999997
 30
0.0
 40
1.5
  1
13
  7
ARIAL
100
AcDbText
  0
TEXT
  5
F9
100
AcDbEntity
  8
1
  6
CONTINUOUS
 62
     7
100
AcDbText
 10
210.9999999999999
 20
94.99999999999998
 30
0.0
 40
1.5
  1
25
  7
ARIAL
100
AcDbText
  0
TEXT
  5
FA
100
AcDbEntity
  8
1
  6
CONTINUOUS
 62
     7
100
AcDbText
 10
218.0
 20
142.9999999999999
 30
0.0
 40
1.5
  1
B/C
  7
ARIAL
100
AcDbText
  0
TEXT
  5
FB
100
AcDbEntity
  8
1
  6
CONTINUOUS
 62
     7
100
AcDbText
 10
220.0
 20
136.9999999999999
 30
0.0
 40
1.5
  1
A
  7
ARIAL
100
AcDbText
  0
TEXT
  5
FC
100
AcDbEntity
  8
1
  6
CONTINUOUS
 62
     7
100
AcDbText
 10
220.0
 20
133.9999999999999
 30
0.0
 40
1.5
  1
B
  7
ARIAL
100
AcDbText
  0
TEXT
  5
FD
100
AcDbEntity
  8
1
  6
CONTINUOUS
 62
     7
100
AcDbText
 10
220.0
 20
130.9999999999999
 30
0.0
 40
1.5
  1
C
  7
ARIAL
100
AcDbText
  0
TEXT
  5
FE
100
AcDbEntity
  8
1
  6
CONTINUOUS
 62
     7
100
AcDbText
 10
220.0
 20
127.9999999999999
 30
0.0
 40
1.5
  1
D
  7
ARIAL
100
AcDbText
  0
TEXT
  5
FF
100
AcDbEntity
  8
1
  6
CONTINUOUS
 62
     7
100
AcDbText
 10
220.0
 20
124.9999999999999
 30
0.0
 40
1.5
  1
E
  7
ARIAL
100
AcDbText
  0
TEXT
  5
100
100
AcDbEntity
  8
1
  6
CONTINUOUS
 62
     7
100
AcDbText
 10
220.0
 20
121.9999999999999
 30
0.0
 40
1.5
  1
F
  7
ARIAL
100
AcDbText
  0
TEXT
  5
101
100
AcDbEntity
  8
1
  6
CONTINUOUS
 62
     7
100
AcDbText
 10
220.0
 20
118.9999999999999
 30
0.0
 40
1.5
  1
G
  7
ARIAL
100
AcDbText
  0
TEXT
  5
102
100
AcDbEntity
  8
1
  6
CONTINUOUS
 62
     7
100
AcDbText
 10
222.9999999999999
 20
142.9999999999999
 30
0.0
 40
1.5
  1
10,000
  7
ARIAL
100
AcDbText
  0
TEXT
  5
103
100
AcDbEntity
  8
1
  6
CONTINUOUS
 62
     7
100
AcDbText
 10
222.9999999999999
 20
136.9999999999999
 30
0.0
 40
1.5
  1
1000's
  7
ARIAL
100
AcDbText
  0
TEXT
  5
104
100
AcDbEntity
  8
1
  6
CONTINUOUS
 62
     7
100
AcDbText
 10
224.0
 20
112.9999999999999
 30
0.0
 40
1.5
  1
100's
  7
ARIAL
100
AcDbText
  0
TEXT
  5
105
100
AcDbEntity
  8
1
  6
CONTINUOUS
 62
     7
100
AcDbText
 10
230.9999999999999
 20
142.9999999999999
 30
0.0
 40
1.5
  1
3  K
  7
ARIAL
100
AcDbText
  0
TEXT
  5
106
100
AcDbEntity
  8
1
  6
CONTINUOUS
 62
     7
100
AcDbText
 10
230.9999999999999
 20
136.9999999999999
 30
0.0
 40
1.5
  1
35
  7
ARIAL
100
AcDbText
  0
TEXT
  5
107
100
AcDbEntity
  8
1
  6
CONTINUOUS
 62
     7
100
AcDbText
 10
230.9999999999999
 20
133.9999999999999
 30
0.0
 40
1.5
  1
34
  7
ARIAL
100
AcDbText
  0
TEXT
  5
108
100
AcDbEntity
  8
1
  6
CONTINUOUS
 62
     7
100
AcDbText
 10
230.9999999999999
 20
130.9999999999999
 30
0.0
 40
1.5
  1
7
  7
ARIAL
100
AcDbText
  0
TEXT
  5
109
100
AcDbEntity
  8
1
  6
CONTINUOUS
 62
     7
100
AcDbText
 10
230.9999999999999
 20
127.9999999999999
 30
0.0
 40
1.5
  1
6
  7
ARIAL
100
AcDbText
  0
TEXT
  5
10A
100
AcDbEntity
  8
1
  6
CONTINUOUS
 62
     7
100
AcDbText
 10
230.9999999999999
 20
124.9999999999999
 30
0.0
 40
1.5
  1
5
  7
ARIAL
100
AcDbText
  0
TEXT
  5
10B
100
AcDbEntity
  8
1
  6
CONTINUOUS
 62
     7
100
AcDbText
 10
230.9999999999999
 20
121.9999999999999
 30
0.0
 40
1.5
  1
36
  7
ARIAL
100
AcDbText
  0
TEXT
  5
10C
100
AcDbEntity
  8
1
  6
CONTINUOUS
 62
     7
100
AcDbText
 10
230.9999999999999
 20
118.9999999999999
 30
0.0
 40
1.5
  1
37
  7
ARIAL
100
AcDbText
  0
TEXT
  5
10D
100
AcDbEntity
  8
1
  6
CONTINUOUS
 62
     7
100
AcDbText
 10
230.9999999999999
 20
112.9999999999999
 30
0.0
 40
1.5
  1
30
  7
ARIAL
100
AcDbText
  0
TEXT
  5
10E
100
AcDbEntity
  8
1
  6
CONTINUOUS
 62
     7
100
AcDbText
 10
230.9999999999999
 20
109.9999999999999
 30
0.0
 40
1.5
  1
29
  7
ARIAL
100
AcDbText
  0
TEXT
  5
10F
100
AcDbEntity
  8
1
  6
CONTINUOUS
 62
     7
100
AcDbText
 10
230.9999999999999
 20
106.9999999999999
 30
0.0
 40
1.5
  1
11
  7
ARIAL
100
AcDbText
  0
TEXT
  5
110
100
AcDbEntity
  8
1
  6
CONTINUOUS
 62
     7
100
AcDbText
 10
230.9999999999999
 20
103.9999999999999
 30
0.0
 40
1.5
  1
10
  7
ARIAL
100
AcDbText
  0
TEXT
  5
111
100
AcDbEntity
  8
1
  6
CONTINUOUS
 62
     7
100
AcDbText
 10
230.9999999999999
 20
100.9999999999999
 30
0.0
 40
1.5
  1
9
  7
ARIAL
100
AcDbText
  0
TEXT
  5
112
100
AcDbEntity
  8
1
  6
CONTINUOUS
 62
     7
100
AcDbText
 10
230.9999999999999
 20
97.99999999999997
 30
0.0
 40
1.5
  1
31
  7
ARIAL
100
AcDbText
  0
TEXT
  5
113
100
AcDbEntity
  8
1
  6
CONTINUOUS
 62
     7
100
AcDbText
 10
230.9999999999999
 20
94.99999999999998
 30
0.0
 40
1.5
  1
32
  7
ARIAL
100
AcDbText
  0
LINE
  5
114
100
AcDbEntity
  8
1
  6
CONTINUOUS
 62
     7
100
AcDbLine
 10
209.9999999999999
 20
148.9999999999999
 30
0.0
 11
229.9999999999999
 21
148.9999999999999
 31
0.0
  0
LINE
  5
115
100
AcDbEntity
  8
1
  6
CONTINUOUS
 62
     7
100
AcDbLine
 10
209.9999999999999
 20
151.9999999999999
 30
0.0
 11
229.9999999999999
 21
151.9999999999999
 31
0.0
  0
TEXT
  5
116
100
AcDbEntity
  8
1
  6
CONTINUOUS
 62
     7
100
AcDbText
 10
210.9999999999999
 20
152.0
 30
0.0
 40
1.5
  1
21
  7
ARIAL
100
AcDbText
  0
TEXT
  5
117
100
AcDbEntity
  8
1
  6
CONTINUOUS
 62
     7
100
AcDbText
 10
210.9999999999999
 20
148.9999999999999
 30
0.0
 40
1.5
  1
20
  7
ARIAL
100
AcDbText
  0
TEXT
  5
118
100
AcDbEntity
  8
1
  6
CONTINUOUS
 62
     7
100
AcDbText
 10
230.9999999999999
 20
148.9999999999999
 30
0.0
 40
1.5
  1
2  Y
  7
ARIAL
100
AcDbText
  0
TEXT
  5
119
100
AcDbEntity
  8
1
  6
CONTINUOUS
 62
     7
100
AcDbText
 10
230.9999999999999
 20
151.9999999999999
 30
0.0
 40
1.5
  1
1  BP
  7
ARIAL
100
AcDbText
  0
TEXT
  5
11A
100
AcDbEntity
  8
1
  6
CONTINUOUS
 62
     7
100
AcDbText
 10
210.9999999999999
 20
88.99999999999996
 30
0.0
 40
1.5
  1
5
  7
ARIAL
100
AcDbText
  0
TEXT
  5
11B
100
AcDbEntity
  8
1
  6
CONTINUOUS
 62
     7
100
AcDbText
 10
210.9999999999999
 20
85.99999999999997
 30
0.0
 40
1.5
  1
4
  7
ARIAL
100
AcDbText
  0
TEXT
  5
11C
100
AcDbEntity
  8
1
  6
CONTINUOUS
 62
     7
100
AcDbText
 10
210.9999999999999
 20
82.99999999999998
 30
0.0
 40
1.5
  1
3
  7
ARIAL
100
AcDbText
  0
TEXT
  5
11D
100
AcDbEntity
  8
1
  6
CONTINUOUS
 62
     7
100
AcDbText
 10
210.9999999999999
 20
79.99999999999999
 30
0.0
 40
1.5
  1
2
  7
ARIAL
100
AcDbText
  0
TEXT
  5
11E
100
AcDbEntity
  8
1
  6
CONTINUOUS
 62
     7
100
AcDbText
 10
210.9999999999999
 20
76.99999999999997
 30
0.0
 40
1.5
  1
8
  7
ARIAL
100
AcDbText
  0
TEXT
  5
11F
100
AcDbEntity
  8
1
  6
CONTINUOUS
 62
     7
100
AcDbText
 10
210.9999999999999
 20
73.99999999999997
 30
0.0
 40
1.5
  1
6
  7
ARIAL
100
AcDbText
  0
TEXT
  5
120
100
AcDbEntity
  8
1
  6
CONTINUOUS
 62
     7
100
AcDbText
 10
210.9999999999999
 20
70.99999999999998
 30
0.0
 40
1.5
  1
7
  7
ARIAL
100
AcDbText
  0
TEXT
  5
121
100
AcDbEntity
  8
1
  6
CONTINUOUS
 62
     7
100
AcDbText
 10
230.9999999999999
 20
88.99999999999996
 30
0.0
 40
1.5
  1
25
  7
ARIAL
100
AcDbText
  0
TEXT
  5
122
100
AcDbEntity
  8
1
  6
CONTINUOUS
 62
     7
100
AcDbText
 10
230.9999999999999
 20
85.99999999999997
 30
0.0
 40
1.5
  1
24
  7
ARIAL
100
AcDbText
  0
TEXT
  5
123
100
AcDbEntity
  8
1
  6
CONTINUOUS
 62
     7
100
AcDbText
 10
230.9999999999999
 20
82.99999999999998
 30
0.0
 40
1.5
  1
15
  7
ARIAL
100
AcDbText
  0
TEXT
  5
124
100
AcDbEntity
  8
1
  6
CONTINUOUS
 62
     7
100
AcDbText
 10
230.9999999999999
 20
79.99999999999999
 30
0.0
 40
1.5
  1
14
  7
ARIAL
100
AcDbText
  0
TEXT
  5
125
100
AcDbEntity
  8
1
  6
CONTINUOUS
 62
     7
100
AcDbText
 10
230.9999999999999
 20
76.99999999999997
 30
0.0
 40
1.5
  1
13
  7
ARIAL
100
AcDbText
  0
TEXT
  5
126
100
AcDbEntity
  8
1
  6
CONTINUOUS
 62
     7
100
AcDbText
 10
230.9999999999999
 20
73.99999999999997
 30
0.0
 40
1.5
  1
26
  7
ARIAL
100
AcDbText
  0
TEXT
  5
127
100
AcDbEntity
  8
1
  6
CONTINUOUS
 62
     7
100
AcDbText
 10
230.9999999999999
 20
70.99999999999998
 30
0.0
 40
1.5
  1
27
  7
ARIAL
100
AcDbText
  0
TEXT
  5
128
100
AcDbEntity
  8
1
  6
CONTINUOUS
 62
     7
100
AcDbText
 10
220.0
 20
112.9999999999999
 30
0.0
 40
1.5
  1
A
  7
ARIAL
100
AcDbText
  0
TEXT
  5
129
100
AcDbEntity
  8
1
  6
CONTINUOUS
 62
     7
100
AcDbText
 10
220.0
 20
109.9999999999999
 30
0.0
 40
1.5
  1
B
  7
ARIAL
100
AcDbText
  0
TEXT
  5
12A
100
AcDbEntity
  8
1
  6
CONTINUOUS
 62
     7
100
AcDbText
 10
220.0
 20
106.9999999999999
 30
0.0
 40
1.5
  1
C
  7
ARIAL
100
AcDbText
  0
TEXT
  5
12B
100
AcDbEntity
  8
1
  6
CONTINUOUS
 62
     7
100
AcDbText
 10
220.0
 20
103.9999999999999
 30
0.0
 40
1.5
  1
D
  7
ARIAL
100
AcDbText
  0
TEXT
  5
12C
100
AcDbEntity
  8
1
  6
CONTINUOUS
 62
     7
100
AcDbText
 10
220.0
 20
100.9999999999999
 30
0.0
 40
1.5
  1
E
  7
ARIAL
100
AcDbText
  0
TEXT
  5
12D
100
AcDbEntity
  8
1
  6
CONTINUOUS
 62
     7
100
AcDbText
 10
220.0
 20
97.99999999999997
 30
0.0
 40
1.5
  1
F
  7
ARIAL
100
AcDbText
  0
TEXT
  5
12E
100
AcDbEntity
  8
1
  6
CONTINUOUS
 62
     7
100
AcDbText
 10
220.0
 20
94.99999999999998
 30
0.0
 40
1.5
  1
G
  7
ARIAL
100
AcDbText
  0
TEXT
  5
12F
100
AcDbEntity
  8
1
  6
CONTINUOUS
 62
     7
100
AcDbText
 10
220.0
 20
88.99999999999996
 30
0.0
 40
1.5
  1
A
  7
ARIAL
100
AcDbText
  0
TEXT
  5
130
100
AcDbEntity
  8
1
  6
CONTINUOUS
 62
     7
100
AcDbText
 10
220.0
 20
85.99999999999997
 30
0.0
 40
1.5
  1
B
  7
ARIAL
100
AcDbText
  0
TEXT
  5
131
100
AcDbEntity
  8
1
  6
CONTINUOUS
 62
     7
100
AcDbText
 10
220.0
 20
82.99999999999998
 30
0.0
 40
1.5
  1
C
  7
ARIAL
100
AcDbText
  0
TEXT
  5
132
100
AcDbEntity
  8
1
  6
CONTINUOUS
 62
     7
100
AcDbText
 10
220.0
 20
79.99999999999997
 30
0.0
 40
1.5
  1
D
  7
ARIAL
100
AcDbText
  0
TEXT
  5
133
100
AcDbEntity
  8
1
  6
CONTINUOUS
 62
     7
100
AcDbText
 10
220.0
 20
76.99999999999997
 30
0.0
 40
1.5
  1
E
  7
ARIAL
100
AcDbText
  0
TEXT
  5
134
100
AcDbEntity
  8
1
  6
CONTINUOUS
 62
     7
100
AcDbText
 10
220.0
 20
73.99999999999997
 30
0.0
 40
1.5
  1
F
  7
ARIAL
100
AcDbText
  0
TEXT
  5
135
100
AcDbEntity
  8
1
  6
CONTINUOUS
 62
     7
100
AcDbText
 10
220.0
 20
70.99999999999998
 30
0.0
 40
1.5
  1
G
  7
ARIAL
100
AcDbText
  0
TEXT
  5
136
100
AcDbEntity
  8
1
  6
CONTINUOUS
 62
     7
100
AcDbText
 10
225.0
 20
88.99999999999996
 30
0.0
 40
1.5
  1
10's
  7
ARIAL
100
AcDbText
  0
LINE
  5
137
100
AcDbEntity
  8
1
  6
CONTINUOUS
 62
     7
100
AcDbLine
 10
229.9999999999999
 20
155.0
 30
0.0
 11
227.0
 21
155.0
 31
0.0
  0
LINE
  5
138
100
AcDbEntity
  8
1
  6
CONTINUOUS
 62
     7
100
AcDbLine
 10
229.9999999999999
 20
158.0
 30
0.0
 11
227.0
 21
158.0
 31
0.0
  0
LINE
  5
139
100
AcDbEntity
  8
1
  6
CONTINUOUS
 62
     7
100
AcDbLine
 10
229.9999999999999
 20
161.0
 30
0.0
 11
227.0
 21
161.0
 31
0.0
  0
LINE
  5
13A
100
AcDbEntity
  8
1
  6
CONTINUOUS
 62
     7
100
AcDbLine
 10
229.9999999999999
 20
164.0
 30
0.0
 11
227.0
 21
164.0
 31
0.0
  0
LINE
  5
13B
100
AcDbEntity
  8
1
  6
CONTINUOUS
 62
     7
100
AcDbLine
 10
229.9999999999999
 20
166.9999999999999
 30
0.0
 11
227.0
 21
166.9999999999999
 31
0.0
  0
LINE
  5
13C
100
AcDbEntity
  8
1
  6
CONTINUOUS
 62
     7
100
AcDbLine
 10
229.9999999999999
 20
170.0
 30
0.0
 11
227.0
 21
170.0
 31
0.0
  0
LINE
  5
13D
100
AcDbEntity
  8
1
  6
CONTINUOUS
 62
     7
100
AcDbLine
 10
227.0
 20
169.9999999999999
 30
0.0
 11
227.0
 21
152.0
 31
0.0
  0
LINE
  5
13E
100
AcDbEntity
  8
1
  6
CONTINUOUS
 62
     7
100
AcDbLine
 10
229.9999999999999
 20
65.0
 30
0.0
 11
227.0
 21
65.0
 31
0.0
  0
LINE
  5
13F
100
AcDbEntity
  8
1
  6
CONTINUOUS
 62
     7
100
AcDbLine
 10
227.0
 20
62.0
 30
0.0
 11
229.9999999999999
 21
62.0
 31
0.0
  0
LINE
  5
140
100
AcDbEntity
  8
1
  6
CONTINUOUS
 62
     7
100
AcDbLine
 10
229.9999999999999
 20
58.99999999999999
 30
0.0
 11
227.0
 21
58.99999999999999
 31
0.0
  0
LINE
  5
141
100
AcDbEntity
  8
1
  6
CONTINUOUS
 62
     7
100
AcDbLine
 10
227.0
 20
56.0
 30
0.0
 11
229.9999999999999
 21
56.0
 31
0.0
  0
LINE
  5
142
100
AcDbEntity
  8
1
  6
CONTINUOUS
 62
     7
100
AcDbLine
 10
229.9999999999999
 20
52.99999999999999
 30
0.0
 11
227.0
 21
52.99999999999999
 31
0.0
  0
LINE
  5
143
100
AcDbEntity
  8
1
  6
CONTINUOUS
 62
     7
100
AcDbLine
 10
229.9999999999999
 20
50.0
 30
0.0
 11
227.0
 21
50.0
 31
0.0
  0
LINE
  5
144
100
AcDbEntity
  8
1
  6
CONTINUOUS
 62
     7
100
AcDbLine
 10
227.0
 20
47.0
 30
0.0
 11
229.9999999999999
 21
47.0
 31
0.0
  0
LINE
  5
145
100
AcDbEntity
  8
1
  6
CONTINUOUS
 62
     7
100
AcDbLine
 10
229.9999999999999
 20
44.0
 30
0.0
 11
227.0
 21
44.0
 31
0.0
  0
LINE
  5
146
100
AcDbEntity
  8
1
  6
CONTINUOUS
 62
     7
100
AcDbLine
 10
227.0
 20
41.0
 30
0.0
 11
229.9999999999999
 21
41.0
 31
0.0
  0
LINE
  5
147
100
AcDbEntity
  8
1
  6
CONTINUOUS
 62
     7
100
AcDbLine
 10
229.9999999999999
 20
38.0
 30
0.0
 11
227.0
 21
38.0
 31
0.0
  0
LINE
  5
148
100
AcDbEntity
  8
1
  6
CONTINUOUS
 62
     7
100
AcDbLine
 10
227.0
 20
38.0
 30
0.0
 11
227.0
 21
47.0
 31
0.0
  0
LINE
  5
149
100
AcDbEntity
  8
1
  6
CONTINUOUS
 62
     7
100
AcDbLine
 10
227.0
 20
65.0
 30
0.0
 11
227.0
 21
50.0
 31
0.0
  0
LINE
  5
14A
100
AcDbEntity
  8
1
  6
CONTINUOUS
 62
     7
100
AcDbLine
 10
227.0
 20
47.0
 30
0.0
 11
140.0
 21
47.0
 31
0.0
  0
LINE
  5
14B
100
AcDbEntity
  8
1
  6
CONTINUOUS
 62
     7
100
AcDbLine
 10
140.0
 20
47.0
 30
0.0
 11
140.0
 21
50.0
 31
0.0
  0
LINE
  5
14C
100
AcDbEntity
  8
1
  6
CONTINUOUS
 62
     7
100
AcDbLine
 10
140.0
 20
50.0
 30
0.0
 11
130.0
 21
50.0
 31
0.0
  0
TEXT
  5
14D
100
AcDbEntity
  8
1
  6
CONTINUOUS
 62
     7
100
AcDbText
 10
230.9999999999999
 20
65.0
 30
0.0
 40
1.5
  1
17  E
  7
ARIAL
100
AcDbText
  0
TEXT
  5
14E
100
AcDbEntity
  8
1
  6
CONTINUOUS
 62
     7
100
AcDbText
 10
230.9999999999999
 20
62.0
 30
0.0
 40
1.5
  1
18  D
  7
ARIAL
100
AcDbText
  0
TEXT
  5
14F
100
AcDbEntity
  8
1
  6
CONTINUOUS
 62
     7
100
AcDbText
 10
230.9999999999999
 20
58.99999999999999
 30
0.0
 40
1.5
  1
19  C
  7
ARIAL
100
AcDbText
  0
TEXT
  5
150
100
AcDbEntity
  8
1
  6
CONTINUOUS
 62
     7
100
AcDbText
 10
230.9999999999999
 20
56.0
 30
0.0
 40
1.5
  1
20  B
  7
ARIAL
100
AcDbText
  0
TEXT
  5
151
100
AcDbEntity
  8
1
  6
CONTINUOUS
 62
     7
100
AcDbText
 10
230.9999999999999
 20
52.99999999999999
 30
0.0
 40
1.5
  1
21  A
  7
ARIAL
100
AcDbText
  0
TEXT
  5
152
100
AcDbEntity
  8
1
  6
CONTINUOUS
 62
     7
100
AcDbText
 10
230.9999999999999
 20
50.0
 30
0.0
 40
1.5
  1
22  F
  7
ARIAL
100
AcDbText
  0
TEXT
  5
153
100
AcDbEntity
  8
1
  6
CONTINUOUS
 62
     7
100
AcDbText
 10
230.9999999999999
 20
47.0
 30
0.0
 40
1.5
  1
16  DP1
  7
ARIAL
100
AcDbText
  0
TEXT
  5
154
100
AcDbEntity
  8
1
  6
CONTINUOUS
 62
     7
100
AcDbText
 10
230.9999999999999
 20
44.0
 30
0.0
 40
1.5
  1
12  DP2
  7
ARIAL
100
AcDbText
  0
TEXT
  5
155
100
AcDbEntity
  8
1
  6
CONTINUOUS
 62
     7
100
AcDbText
 10
230.9999999999999
 20
41.0
 30
0.0
 40
1.5
  1
8  DP3
  7
ARIAL
100
AcDbText
  0
TEXT
  5
156
100
AcDbEntity
  8
1
  6
CONTINUOUS
 62
     7
100
AcDbText
 10
230.9999999999999
 20
38.0
 30
0.0
 40
1.5
  1
4  DP4
  7
ARIAL
100
AcDbText
  0
CIRCLE
  5
157
100
AcDbEntity
  8
1
  6
CONTINUOUS
 62
     7
100
AcDbCircle
 10
227.0
 20
38.0
 30
0.0
 40
0.4
  0
CIRCLE
  5
158
100
AcDbEntity
  8
1
  6
CONTINUOUS
 62
     7
100
AcDbCircle
 10
227.0
 20
41.0
 30
0.0
 40
0.4
  0
CIRCLE
  5
159
100
AcDbEntity
  8
1
  6
CONTINUOUS
 62
     7
100
AcDbCircle
 10
227.0
 20
44.0
 30
0.0
 40
0.4
  0
CIRCLE
  5
15A
100
AcDbEntity
  8
1
  6
CONTINUOUS
 62
     7
100
AcDbCircle
 10
227.0
 20
47.0
 30
0.0
 40
0.4
  0
CIRCLE
  5
15B
100
AcDbEntity
  8
1
  6
CONTINUOUS
 62
     7
100
AcDbCircle
 10
227.0
 20
52.99999999999999
 30
0.0
 40
0.4
  0
CIRCLE
  5
15C
100
AcDbEntity
  8
1
  6
CONTINUOUS
 62
     7
100
AcDbCircle
 10
227.0
 20
56.0
 30
0.0
 40
0.4
  0
CIRCLE
  5
15D
100
AcDbEntity
  8
1
  6
CONTINUOUS
 62
     7
100
AcDbCircle
 10
227.0
 20
58.99999999999999
 30
0.0
 40
0.4
  0
CIRCLE
  5
15E
100
AcDbEntity
  8
1
  6
CONTINUOUS
 62
     7
100
AcDbCircle
 10
227.0
 20
62.0
 30
0.0
 40
0.4
  0
MTEXT
  5
15F
100
AcDbEntity
  8
1
  6
CONTINUOUS
 62
     7
100
AcDbMText
 10
251.0
 20
39.0
 30
0.0
 40
1.5
 41
0.0
 71
     7
 72
     1
  1
DP 1 TO 4\PIS LOW\PBATTERY\PINDICATOR
  7
ARIAL
  0
MTEXT
  5
160
100
AcDbEntity
  8
1
  6
CONTINUOUS
 62
     7
100
AcDbMText
 10
239.0
 20
57.0
 30
0.0
 40
1.5
 41
0.0
 71
     7
 72
     1
  1
(FIXED \PZERO)
  7
ARIAL
  0
LINE
  5
161
100
AcDbEntity
  8
1
  6
CONTINUOUS
 62
     7
100
AcDbLine
 10
180.0
 20
38.99999999999999
 30
0.0
 11
179.0
 21
30.0
 31
0.0
  0
LINE
  5
162
100
AcDbEntity
  8
1
  6
CONTINUOUS
 62
     7
100
AcDbLine
 10
179.0
 20
28.0
 30
0.0
 11
178.0
 21
19.99999999999999
 31
0.0
  0
LINE
  5
163
100
AcDbEntity
  8
1
  6
CONTINUOUS
 62
     7
100
AcDbLine
 10
187.0
 20
28.0
 30
0.0
 11
186.0
 21
19.99999999999999
 31
0.0
  0
LINE
  5
164
100
AcDbEntity
  8
1
  6
CONTINUOUS
 62
     7
100
AcDbLine
 10
178.0
 20
19.0
 30
0.0
 11
186.0
 21
19.0
 31
0.0
  0
LINE
  5
165
100
AcDbEntity
  8
1
  6
CONTINUOUS
 62
     7
100
AcDbLine
 10
180.5129249992027
 20
39.80641590058679
 30
0.0
 11
188.5129249992027
 21
39.80641590058679
 31
0.0
  0
LINE
  5
166
100
AcDbEntity
  8
1
  6
CONTINUOUS
 62
     7
100
AcDbLine
 10
188.3877776417085
 20
38.73057240427289
 30
0.0
 11
187.3877776417085
 21
29.73057240427289
 31
0.0
  0
LINE
  5
167
100
AcDbEntity
  8
1
  6
CONTINUOUS
 62
     7
100
AcDbLine
 10
179.0455977633306
 20
29.09492707872062
 30
0.0
 11
187.0455977633306
 21
29.09492707872062
 31
0.0
  0
TEXT
  5
168
100
AcDbEntity
  8
1
  6
CONTINUOUS
 62
     7
100
AcDbText
 10
184.3661922756155
 20
40.54007951852283
 30
0.0
 40
1.5
  1
A
  7
ARIALB
100
AcDbText
  0
TEXT
  5
169
100
AcDbEntity
  8
1
  6
CONTINUOUS
 62
     7
100
AcDbText
 10
180.9913396331097
 20
19.85076549272653
 30
0.0
 40
1.5
  1
D
  7
ARIALB
100
AcDbText
  0
TEXT
  5
16A
100
AcDbEntity
  8
1
  6
CONTINUOUS
 62
     7
100
AcDbText
 10
189.2083721539933
 20
33.79037423351127
 30
0.0
 40
1.5
  1
B
  7
ARIALB
100
AcDbText
  0
TEXT
  5
16B
100
AcDbEntity
  8
1
  6
CONTINUOUS
 62
     7
100
AcDbText
 10
186.860648576598
 20
23.81254902958114
 30
0.0
 40
1.5
  1
C
  7
ARIALB
100
AcDbText
  0
TEXT
  5
16C
100
AcDbEntity
  8
1
  6
CONTINUOUS
 62
     7
100
AcDbText
 10
182.7521323161562
 20
29.68185797306945
 30
0.0
 40
1.5
  1
G
  7
ARIALB
100
AcDbText
  0
TEXT
  5
16D
100
AcDbEntity
  8
1
  6
CONTINUOUS
 62
     7
100
AcDbText
 10
177.1762888198423
 20
34.08383968068569
 30
0.0
 40
1.5
  1
F
  7
ARIALB
100
AcDbText
  0
TEXT
  5
16E
100
AcDbEntity
  8
1
  6
CONTINUOUS
 62
     7
100
AcDbText
 10
176.1491597547319
 20
23.95928175316835
 30
0.0
 40
1.5
  1
E
  7
ARIALB
100
AcDbText
  0
LWPOLYLINE
  5
16F
100
AcDbEntity
  8
1
  6
CONTINUOUS
 62
     7
100
AcDbPolyline
 90
        2
 70
     0
 43
0.0
 10
104.9999999999999
 20
39.99999999999999
 10
161.1461530826843
 20
39.99999999999999
  0
LWPOLYLINE
  5
170
100
AcDbEntity
  8
1
  6
CONTINUOUS
 62
     7
100
AcDbPolyline
 90
        4
 70
     0
 43
0.0
 10
104.9999999999999
 20
39.99999999999999
 10
104.9999999999999
 20
30.0
 10
161.1461530826843
 20
30.0
 10
161.1461530826843
 20
39.99999999999999
  0
LINE
  5
171
100
AcDbEntity
  8
1
  6
CONTINUOUS
 62
     7
100
AcDbLine
 10
111.6089120080862
 20
35.02498381644899
 30
0.0
 11
115.6089120080862
 21
35.02498381644899
 31
0.0
  0
LINE
  5
172
100
AcDbEntity
  8
1
  6
CONTINUOUS
 62
     7
100
AcDbLine
 10
116.9726568303038
 20
38.69776865570566
 30
0.0
 11
116.5873996793328
 21
35.35887334729051
 31
0.0
  0
LINE
  5
173
100
AcDbEntity
  8
1
  6
CONTINUOUS
 62
     7
100
AcDbLine
 10
116.5873996793328
 20
34.66541047554275
 30
0.0
 11
116.2021425283618
 21
31.32651516712759
 31
0.0
  0
LINE
  5
174
100
AcDbEntity
  8
1
  6
CONTINUOUS
 62
     7
100
AcDbLine
 10
127.0423061300179
 20
34.47264017401183
 30
0.0
 11
126.6570489790469
 21
31.13374486559668
 31
0.0
  0
LINE
  5
175
100
AcDbEntity
  8
1
  6
CONTINUOUS
 62
     7
100
AcDbLine
 10
122.454906450685
 20
38.80722969846909
 30
0.0
 11
127.454906450685
 21
38.80722969846909
 31
0.0
  0
LINE
  5
176
100
AcDbEntity
  8
1
  6
CONTINUOUS
 62
     7
100
AcDbLine
 10
121.8069803581239
 20
30.82553914481989
 30
0.0
 11
126.8069803581239
 21
30.82553914481989
 31
0.0
  0
LINE
  5
177
100
AcDbEntity
  8
1
  6
CONTINUOUS
 62
     7
100
AcDbLine
 10
122.0638184587712
 20
34.83221351491808
 30
0.0
 11
127.0638184587712
 21
34.83221351491808
 31
0.0
  0
LINE
  5
178
100
AcDbEntity
  8
1
  6
CONTINUOUS
 62
     7
100
AcDbLine
 10
122.3550107932043
 20
38.50499835417475
 30
0.0
 11
121.9697536422333
 21
35.1661030457596
 31
0.0
  0
LINE
  5
179
100
AcDbEntity
  8
1
  6
CONTINUOUS
 62
     7
100
AcDbLine
 10
127.4275632809888
 20
38.50499835417475
 30
0.0
 11
127.0423061300179
 21
35.1661030457596
 31
0.0
  0
LINE
  5
17A
100
AcDbEntity
  8
1
  6
CONTINUOUS
 62
     7
100
AcDbLine
 10
122.0082793573304
 20
34.4469563639471
 30
0.0
 11
121.6230222063594
 21
31.10806105553195
 31
0.0
  0
LINE
  5
17B
100
AcDbEntity
  8
1
  6
CONTINUOUS
 62
     7
100
AcDbLine
 10
137.2656449106691
 20
34.47264017401183
 30
0.0
 11
136.8803877596981
 21
31.13374486559668
 31
0.0
  0
LINE
  5
17C
100
AcDbEntity
  8
1
  6
CONTINUOUS
 62
     7
100
AcDbLine
 10
132.6782452313362
 20
38.80722969846909
 30
0.0
 11
137.6782452313362
 21
38.80722969846909
 31
0.0
  0
LINE
  5
17D
100
AcDbEntity
  8
1
  6
CONTINUOUS
 62
     7
100
AcDbLine
 10
132.0303191387751
 20
30.82553914481989
 30
0.0
 11
137.0303191387751
 21
30.82553914481989
 31
0.0
  0
LINE
  5
17E
100
AcDbEntity
  8
1
  6
CONTINUOUS
 62
     7
100
AcDbLine
 10
132.2871572394224
 20
34.83221351491808
 30
0.0
 11
137.2871572394224
 21
34.83221351491808
 31
0.0
  0
LINE
  5
17F
100
AcDbEntity
  8
1
  6
CONTINUOUS
 62
     7
100
AcDbLine
 10
132.5783495738555
 20
38.50499835417475
 30
0.0
 11
132.1930924228845
 21
35.1661030457596
 31
0.0
  0
LINE
  5
180
100
AcDbEntity
  8
1
  6
CONTINUOUS
 62
     7
100
AcDbLine
 10
137.6509020616401
 20
38.50499835417475
 30
0.0
 11
137.2656449106691
 21
35.1661030457596
 31
0.0
  0
LINE
  5
181
100
AcDbEntity
  8
1
  6
CONTINUOUS
 62
     7
100
AcDbLine
 10
132.2316181379816
 20
34.4469563639471
 30
0.0
 11
131.8463609870106
 21
31.10806105553195
 31
0.0
  0
LINE
  5
182
100
AcDbEntity
  8
1
  6
CONTINUOUS
 62
     7
100
AcDbLine
 10
147.2396339649629
 20
34.34796531083316
 30
0.0
 11
146.8543768139919
 21
31.009070002418
 31
0.0
  0
LINE
  5
183
100
AcDbEntity
  8
1
  6
CONTINUOUS
 62
     7
100
AcDbLine
 10
142.65223428563
 20
38.68255483529041
 30
0.0
 11
147.65223428563
 21
38.68255483529041
 31
0.0
  0
LINE
  5
184
100
AcDbEntity
  8
1
  6
CONTINUOUS
 62
     7
100
AcDbLine
 10
142.0043081930689
 20
30.70086428164121
 30
0.0
 11
147.004308193069
 21
30.70086428164121
 31
0.0
  0
LINE
  5
185
100
AcDbEntity
  8
1
  6
CONTINUOUS
 62
     7
100
AcDbLine
 10
142.2611462937163
 20
34.7075386517394
 30
0.0
 11
147.2611462937163
 21
34.7075386517394
 31
0.0
  0
LINE
  5
186
100
AcDbEntity
  8
1
  6
CONTINUOUS
 62
     7
100
AcDbLine
 10
142.5523386281493
 20
38.38032349099607
 30
0.0
 11
142.1670814771784
 21
35.04142818258092
 31
0.0
  0
LINE
  5
187
100
AcDbEntity
  8
1
  6
CONTINUOUS
 62
     7
100
AcDbLine
 10
147.6248911159339
 20
38.38032349099607
 30
0.0
 11
147.2396339649629
 21
35.04142818258092
 31
0.0
  0
LINE
  5
188
100
AcDbEntity
  8
1
  6
CONTINUOUS
 62
     7
100
AcDbLine
 10
142.2056071922755
 20
34.32228150076842
 30
0.0
 11
141.8203500413045
 21
30.98338619235327
 31
0.0
  0
LINE
  5
189
100
AcDbEntity
  8
1
  6
CONTINUOUS
 62
     7
100
AcDbLine
 10
156.8395984297208
 20
34.5973150371905
 30
0.0
 11
156.4543412787498
 21
31.25841972877535
 31
0.0
  0
LINE
  5
18A
100
AcDbEntity
  8
1
  6
CONTINUOUS
 62
     7
100
AcDbLine
 10
152.2521987503879
 20
38.93190456164775
 30
0.0
 11
157.2521987503879
 21
38.93190456164775
 31
0.0
  0
LINE
  5
18B
100
AcDbEntity
  8
1
  6
CONTINUOUS
 62
     7
100
AcDbLine
 10
151.6042726578268
 20
30.95021400799856
 30
0.0
 11
156.6042726578268
 21
30.95021400799856
 31
0.0
  0
LINE
  5
18C
100
AcDbEntity
  8
1
  6
CONTINUOUS
 62
     7
100
AcDbLine
 10
152.1523030929072
 20
38.62967321735343
 30
0.0
 11
151.7670459419362
 21
35.29077790893827
 31
0.0
  0
LINE
  5
18D
100
AcDbEntity
  8
1
  6
CONTINUOUS
 62
     7
100
AcDbLine
 10
157.2248555806917
 20
38.62967321735343
 30
0.0
 11
156.8395984297208
 21
35.29077790893827
 31
0.0
  0
LINE
  5
18E
100
AcDbEntity
  8
1
  6
CONTINUOUS
 62
     7
100
AcDbLine
 10
151.8055716570333
 20
34.57163122712577
 30
0.0
 11
151.4203145060623
 21
31.23273591871062
 31
0.0
  0
TEXT
  5
18F
100
AcDbEntity
  8
1
  6
CONTINUOUS
 62
     7
100
AcDbText
 10
116.2632023383619
 20
27.21121776774542
 30
0.0
 40
1.5
  1
DP4
  7
ARIALB
100
AcDbText
  0
TEXT
  5
190
100
AcDbEntity
  8
1
  6
CONTINUOUS
 62
     7
100
AcDbText
 10
127.7332897507998
 20
27.33589263092409
 30
0.0
 40
1.5
  1
DP3
  7
ARIALB
100
AcDbText
  0
TEXT
  5
191
100
AcDbEntity
  8
1
  6
CONTINUOUS
 62
     7
100
AcDbText
 10
137.582603941915
 20
27.46056749410276
 30
0.0
 40
1.5
  1
DP2
  7
ARIALB
100
AcDbText
  0
TEXT
  5
192
100
AcDbEntity
  8
1
  6
CONTINUOUS
 62
     7
100
AcDbText
 10
147.9306175857449
 20
27.08654290456674
 30
0.0
 40
1.5
  1
DP1
  7
ARIALB
100
AcDbText
  0
CIRCLE
  5
193
100
AcDbEntity
  8
1
  6
CONTINUOUS
 62
     7
100
AcDbCircle
 10
118.7566996019353
 20
31.69951284217765
 30
0.0
 40
0.3942565346144676
  0
CIRCLE
  5
194
100
AcDbEntity
  8
1
  6
CONTINUOUS
 62
     7
100
AcDbCircle
 10
129.2293881089439
 20
31.32548825264164
 30
0.0
 40
0.3942565346144676
  0
CIRCLE
  5
195
100
AcDbEntity
  8
1
  6
CONTINUOUS
 62
     7
100
AcDbCircle
 10
139.4527268895951
 20
31.20081338946296
 30
0.0
 40
0.3942565346144676
  0
CIRCLE
  5
196
100
AcDbEntity
  8
1
  6
CONTINUOUS
 62
     7
100
AcDbCircle
 10
149.0526913543529
 20
31.32548825264164
 30
0.0
 40
0.3942565346144676
  0
TEXT
  5
197
100
AcDbEntity
  8
1
  6
CONTINUOUS
 62
     7
100
AcDbText
 10
152.5435875233558
 20
21.97487351424114
 30
0.0
 40
1.5
  1
FIXED ZERO
  7
ARIALB
100
AcDbText
  0
LINE
  5
198
100
AcDbEntity
  8
1
  6
CONTINUOUS
 62
     7
100
AcDbLine
 10
155.4111093764653
 20
28.33329153635348
 30
0.0
 11
155.90980882918
 21
24.84239536735063
 31
0.0
  0
LINE
  5
199
100
AcDbEntity
  8
1
  6
CONTINUOUS
 62
     7
100
AcDbLine
 10
155.3746747132532
 20
28.39022069762228
 30
0.0
 11
154.9448595456738
 21
27.75982511850576
 31
0.0
  0
LINE
  5
19A
100
AcDbEntity
  8
1
  6
CONTINUOUS
 62
     7
100
AcDbLine
 10
155.3746747132532
 20
28.41887504212757
 30
0.0
 11
155.9477616033591
 21
28.2182946305905
 31
0.0
  0
LWPOLYLINE
  5
19B
100
AcDbEntity
  8
1
  6
CONTINUOUS
 62
     7
100
AcDbPolyline
 90
       11
 70
     0
 43
0.0
 10
33.99999999999999
 20
107.0
 10
50.0
 20
107.0
 10
50.0
 20
104.9999999999999
 10
51.99999999999999
 20
104.9999999999999
 10
51.99999999999999
 20
83.0
 10
48.99999999999999
 20
83.0
 10
48.99999999999999
 20
79.0
 10
38.99999999999999
 20
79.0
 10
38.99999999999999
 20
80.0
 10
33.99999999999999
 20
80.0
 10
33.99999999999999
 20
107.0
  0
LWPOLYLINE
  5
19C
100
AcDbEntity
  8
1
  6
CONTINUOUS
 62
     7
100
AcDbPolyline
 90
        5
 70
     0
 43
0.0
 10
25.0
 20
103.9999999999999
 10
27.0
 20
103.9999999999999
 10
27.0
 20
83.99999999999998
 10
25.0
 20
83.99999999999998
 10
25.0
 20
103.9999999999999
  0
MTEXT
  5
19D
100
AcDbEntity
  8
1
  6
CONTINUOUS
 62
     7
100
AcDbMText
 10
42.99999999999999
 20
92.00000000000001
 30
0.0
 40
1.249999999999999
 41
0.0
 71
     7
 72
     1
  1
7136 CHIP\PSIDE OF\Ppcb
  7
ARIALB
  0
TEXT
  5
19E
100
AcDbEntity
  8
1
  6
CONTINUOUS
 62
     7
100
AcDbText
 10
38.99999999999999
 20
102.0
 30
0.0
 40
1.249999999999999
  1
10
  7
ARIALB
100
AcDbText
  0
TEXT
  5
19F
100
AcDbEntity
  8
1
  6
CONTINUOUS
 62
     7
100
AcDbText
 10
38.99999999999999
 20
84.0
 30
0.0
 40
1.249999999999999
  1
1
  7
ARIALB
100
AcDbText
  0
MTEXT
  5
1A0
100
AcDbEntity
  8
1
  6
CONTINUOUS
 62
     7
100
AcDbMText
 10
55.99999999999998
 20
99.0
 30
0.0
 40
1.249999999999999
 41
0.0
 71
     7
 72
     1
  1
10 WAY\PCONNECTOR\P(SOCKET)
  7
ARIALB
  0
LINE
  5
1A1
100
AcDbEntity
  8
1
  6
CONTINUOUS
 62
     7
100
AcDbLine
 10
55.0
 20
102.0
 30
0.0
 11
38.99999999999999
 21
99.0
 31
0.0
  0
LINE
  5
1A2
100
AcDbEntity
  8
1
  6
CONTINUOUS
 62
     7
100
AcDbLine
 10
38.99999999999999
 20
99.0
 30
0.0
 11
38.99999999999999
 21
100.0
 31
0.0
  0
LINE
  5
1A3
100
AcDbEntity
  8
1
  6
CONTINUOUS
 62
     7
100
AcDbLine
 10
38.99999999999999
 20
99.0
 30
0.0
 11
39.99999999999999
 21
98.0
 31
0.0
  0
CIRCLE
  5
1A4
100
AcDbEntity
  8
1
  6
CONTINUOUS
 62
     7
100
AcDbCircle
 10
25.99999999999999
 20
102.9999999999999
 30
0.0
 40
0.1844528949358981
  0
CIRCLE
  5
1A5
100
AcDbEntity
  8
1
  6
CONTINUOUS
 62
     7
100
AcDbCircle
 10
25.99999999999999
 20
101.0
 30
0.0
 40
0.1844528949358981
  0
CIRCLE
  5
1A6
100
AcDbEntity
  8
1
  6
CONTINUOUS
 62
     7
100
AcDbCircle
 10
25.99999999999999
 20
98.99999999999998
 30
0.0
 40
0.1844528949358981
  0
CIRCLE
  5
1A7
100
AcDbEntity
  8
1
  6
CONTINUOUS
 62
     7
100
AcDbCircle
 10
25.99999999999999
 20
96.99999999999999
 30
0.0
 40
0.1844528949358981
  0
CIRCLE
  5
1A8
100
AcDbEntity
  8
1
  6
CONTINUOUS
 62
     7
100
AcDbCircle
 10
25.99999999999999
 20
95.0
 30
0.0
 40
0.1844528949358981
  0
CIRCLE
  5
1A9
100
AcDbEntity
  8
1
  6
CONTINUOUS
 62
     7
100
AcDbCircle
 10
25.99999999999999
 20
93.0
 30
0.0
 40
0.1844528949358981
  0
CIRCLE
  5
1AA
100
AcDbEntity
  8
1
  6
CONTINUOUS
 62
     7
100
AcDbCircle
 10
25.99999999999999
 20
90.99999999999999
 30
0.0
 40
0.1844528949358981
  0
CIRCLE
  5
1AB
100
AcDbEntity
  8
1
  6
CONTINUOUS
 62
     7
100
AcDbCircle
 10
25.99999999999999
 20
89.0
 30
0.0
 40
0.1844528949358981
  0
CIRCLE
  5
1AC
100
AcDbEntity
  8
1
  6
CONTINUOUS
 62
     7
100
AcDbCircle
 10
25.99999999999999
 20
87.00000000000001
 30
0.0
 40
0.1844528949358981
  0
CIRCLE
  5
1AD
100
AcDbEntity
  8
1
  6
CONTINUOUS
 62
     7
100
AcDbCircle
 10
25.99999999999999
 20
84.99999999999998
 30
0.0
 40
0.1844528949358981
  0
LWPOLYLINE
  5
1AE
100
AcDbEntity
  8
1
  6
CONTINUOUS
 62
     7
100
AcDbPolyline
 90
        5
 70
     0
 43
0.0
 10
36.0
 20
103.9999999999999
 10
38.0
 20
103.9999999999999
 10
38.0
 20
83.99999999999998
 10
36.0
 20
83.99999999999998
 10
36.0
 20
103.9999999999999
  0
CIRCLE
  5
1AF
100
AcDbEntity
  8
1
  6
CONTINUOUS
 62
     7
100
AcDbCircle
 10
37.0
 20
102.9999999999999
 30
0.0
 40
0.1844528949358981
  0
CIRCLE
  5
1B0
100
AcDbEntity
  8
1
  6
CONTINUOUS
 62
     7
100
AcDbCircle
 10
37.0
 20
101.0
 30
0.0
 40
0.1844528949358981
  0
CIRCLE
  5
1B1
100
AcDbEntity
  8
1
  6
CONTINUOUS
 62
     7
100
AcDbCircle
 10
37.0
 20
99.0
 30
0.0
 40
0.1844528949358981
  0
CIRCLE
  5
1B2
100
AcDbEntity
  8
1
  6
CONTINUOUS
 62
     7
100
AcDbCircle
 10
37.0
 20
97.00000000000001
 30
0.0
 40
0.1844528949358981
  0
CIRCLE
  5
1B3
100
AcDbEntity
  8
1
  6
CONTINUOUS
 62
     7
100
AcDbCircle
 10
37.0
 20
95.0
 30
0.0
 40
0.1844528949358981
  0
CIRCLE
  5
1B4
100
AcDbEntity
  8
1
  6
CONTINUOUS
 62
     7
100
AcDbCircle
 10
37.0
 20
93.00000000000002
 30
0.0
 40
0.1844528949358981
  0
CIRCLE
  5
1B5
100
AcDbEntity
  8
1
  6
CONTINUOUS
 62
     7
100
AcDbCircle
 10
37.0
 20
90.99999999999999
 30
0.0
 40
0.1844528949358981
  0
CIRCLE
  5
1B6
100
AcDbEntity
  8
1
  6
CONTINUOUS
 62
     7
100
AcDbCircle
 10
37.0
 20
89.0
 30
0.0
 40
0.1844528949358981
  0
CIRCLE
  5
1B7
100
AcDbEntity
  8
1
  6
CONTINUOUS
 62
     7
100
AcDbCircle
 10
37.0
 20
87.00000000000001
 30
0.0
 40
0.1844528949358981
  0
CIRCLE
  5
1B8
100
AcDbEntity
  8
1
  6
CONTINUOUS
 62
     7
100
AcDbCircle
 10
37.0
 20
85.0
 30
0.0
 40
0.1844528949358981
  0
LINE
  5
1B9
100
AcDbEntity
  8
1
  6
CONTINUOUS
 62
     7
100
AcDbLine
 10
25.99999999999999
 20
99.0
 30
0.0
 11
25.99999999999999
 21
96.99999999999999
 31
0.0
  0
LINE
  5
1BA
100
AcDbEntity
  8
1
  6
CONTINUOUS
 62
     7
100
AcDbLine
 10
25.99999999999999
 20
96.99999999999999
 30
0.0
 11
15.0
 21
96.99999999999999
 31
0.0
  0
LINE
  5
1BB
100
AcDbEntity
  8
1
  6
CONTINUOUS
 62
     7
100
AcDbLine
 10
25.99999999999999
 20
95.0
 30
0.0
 11
15.0
 21
95.0
 31
0.0
  0
LINE
  5
1BC
100
AcDbEntity
  8
1
  6
CONTINUOUS
 62
     7
100
AcDbLine
 10
25.99999999999999
 20
93.0
 30
0.0
 11
15.0
 21
93.0
 31
0.0
  0
LINE
  5
1BD
100
AcDbEntity
  8
1
  6
CONTINUOUS
 62
     7
100
AcDbLine
 10
15.0
 20
90.99999999999999
 30
0.0
 11
25.99999999999999
 21
90.99999999999999
 31
0.0
  0
LINE
  5
1BE
100
AcDbEntity
  8
1
  6
CONTINUOUS
 62
     7
100
AcDbLine
 10
25.99999999999999
 20
89.0
 30
0.0
 11
15.0
 21
89.0
 31
0.0
  0
LINE
  5
1BF
100
AcDbEntity
  8
1
  6
CONTINUOUS
 62
     7
100
AcDbLine
 10
15.0
 20
87.00000000000001
 30
0.0
 11
25.99999999999999
 21
87.00000000000001
 31
0.0
  0
TEXT
  5
1C0
100
AcDbEntity
  8
1
  6
CONTINUOUS
 62
     7
100
AcDbText
 10
15.99999999999999
 20
96.99999999999999
 30
0.0
 40
1.249999999999999
  1
WHITE
  7
ARIALB
100
AcDbText
  0
TEXT
  5
1C1
100
AcDbEntity
  8
1
  6
CONTINUOUS
 62
     7
100
AcDbText
 10
15.99999999999999
 20
95.0
 30
0.0
 40
1.249999999999999
  1
RED
  7
ARIALB
100
AcDbText
  0
TEXT
  5
1C2
100
AcDbEntity
  8
1
  6
CONTINUOUS
 62
     7
100
AcDbText
 10
15.99999999999999
 20
93.0
 30
0.0
 40
1.249999999999999
  1
BLACK
  7
ARIALB
100
AcDbText
  0
TEXT
  5
1C3
100
AcDbEntity
  8
1
  6
CONTINUOUS
 62
     7
100
AcDbText
 10
15.99999999999999
 20
90.99999999999999
 30
0.0
 40
1.249999999999999
  1
BLUE
  7
ARIALB
100
AcDbText
  0
TEXT
  5
1C4
100
AcDbEntity
  8
1
  6
CONTINUOUS
 62
     7
100
AcDbText
 10
15.99999999999999
 20
89.0
 30
0.0
 40
1.249999999999999
  1
YELLOW
  7
ARIALB
100
AcDbText
  0
TEXT
  5
1C5
100
AcDbEntity
  8
1
  6
CONTINUOUS
 62
     7
100
AcDbText
 10
15.99999999999999
 20
87.00000000000001
 30
0.0
 40
1.249999999999999
  1
BROWN
  7
ARIALB
100
AcDbText
  0
LINE
  5
1C6
100
AcDbEntity
  8
1
  6
CONTINUOUS
 62
     7
100
AcDbLine
 10
25.99999999999999
 20
87.00000000000001
 30
0.0
 11
25.99999999999999
 21
84.99999999999998
 31
0.0
  0
TEXT
  5
1C7
100
AcDbEntity
  8
1
  6
CONTINUOUS
 62
     7
100
AcDbText
 10
14.0
 20
79.99999999999999
 30
0.0
 40
1.249999999999999
  1
from Lineariser Card
  7
ARIALB
100
AcDbText
  0
LINE
  5
1C8
100
AcDbEntity
  8
1
  6
CONTINUOUS
 62
     7
100
AcDbLine
 10
200.0
 20
60.0
 30
0.0
 11
200.0
 21
53.99999999999999
 31
0.0
  0
LINE
  5
1C9
100
AcDbEntity
  8
1
  6
CONTINUOUS
 62
     7
100
AcDbLine
 10
197.9999999999999
 20
53.99999999999999
 30
0.0
 11
202.0
 21
53.99999999999999
 31
0.0
  0
CIRCLE
  5
1CA
100
AcDbEntity
  8
1
  6
CONTINUOUS
 62
     7
100
AcDbCircle
 10
200.0
 20
53.99999999999999
 30
0.0
 40
0.4
  0
TEXT
  5
1CB
100
AcDbEntity
  8
1
  6
CONTINUOUS
 62
     7
100
AcDbText
 10
197.9999999999999
 20
51.0
 30
0.0
 40
1.5
  1
7136 digital ground
  7
ARIAL
100
AcDbText
  0
TEXT
  5
1CC
100
AcDbEntity
  8
1
  6
CONTINUOUS
 62
     7
100
AcDbText
 10
200.0
 20
61.0
 30
0.0
 40
1.5
  1
test
  7
ARIAL
100
AcDbText
  0
TEXT
  5
1CD
100
AcDbEntity
  8
1
  6
CONTINUOUS
 62
     7
100
AcDbText
 10
201.0
 20
57.99999999999999
 30
0.0
 40
1.5
  1
37
  7
ARIAL
100
AcDbText
  0
LINE
  5
1CE
100
AcDbEntity
  8
1
  6
CONTINUOUS
 62
     7
100
AcDbLine
 10
186.0
 20
60.0
 30
0.0
 11
186.0
 21
53.99999999999999
 31
0.0
  0
LINE
  5
1CF
100
AcDbEntity
  8
1
  6
CONTINUOUS
 62
     7
100
AcDbLine
 10
183.9999999999999
 20
53.99999999999999
 30
0.0
 11
188.0
 21
53.99999999999999
 31
0.0
  0
CIRCLE
  5
1D0
100
AcDbEntity
  8
1
  6
CONTINUOUS
 62
     7
100
AcDbCircle
 10
186.0
 20
53.99999999999999
 30
0.0
 40
0.4
  0
TEXT
  5
1D1
100
AcDbEntity
  8
1
  6
CONTINUOUS
 62
     7
100
AcDbText
 10
183.9999999999999
 20
51.0
 30
0.0
 40
1.5
  1
Batt -ve
  7
ARIAL
100
AcDbText
  0
TEXT
  5
1D2
100
AcDbEntity
  8
1
  6
CONTINUOUS
 62
     7
100
AcDbText
 10
186.0
 20
61.0
 30
0.0
 40
1.5
  1
Batt -ve
  7
ARIAL
100
AcDbText
  0
TEXT
  5
1D3
100
AcDbEntity
  8
1
  6
CONTINUOUS
 62
     7
100
AcDbText
 10
187.0
 20
57.99999999999999
 30
0.0
 40
1.5
  1
26
  7
ARIAL
100
AcDbText
  0
LINE
  5
1D4
100
AcDbEntity
  8
1
  6
CONTINUOUS
 62
     7
100
AcDbLine
 10
130.0
 20
76.0
 30
0.0
 11
150.0
 21
76.0
 31
0.0
  0
LINE
  5
1D5
100
AcDbEntity
  8
1
  6
CONTINUOUS
 62
     7
100
AcDbLine
 10
150.0
 20
76.0
 30
0.0
 11
150.0
 21
50.0
 31
0.0
  0
LINE
  5
1D6
100
AcDbEntity
  8
1
  6
CONTINUOUS
 62
     7
100
AcDbLine
 10
150.0
 20
50.0
 30
0.0
 11
227.0
 21
50.0
 31
0.0
  0
CIRCLE
  5
1D7
100
AcDbEntity
  8
1
  6
CONTINUOUS
 62
     7
100
AcDbCircle
 10
227.0
 20
50.0
 30
0.0
 40
0.4
  0
TEXT
  5
1D8
100
AcDbEntity
  8
1
  6
CONTINUOUS
 62
     7
100
AcDbText
 10
239.9999999999999
 20
63.0
 30
0.0
 40
1.5
  1
units
  7
ARIAL
100
AcDbText
  0
TEXT
  5
1D9
100
AcDbEntity
  8
1
  6
CONTINUOUS
 62
     7
100
AcDbText
 10
205.9999999999999
 20
147.9999999999999
 30
0.0
 40
1.5
  1
pol
  7
ARIALB
100
AcDbText
  0
TEXT
  5
1DA
100
AcDbEntity
  8
1
  6
CONTINUOUS
 62
     7
100
AcDbText
 10
205.9999999999999
 20
152.0
 30
0.0
 40
1.5
  1
BP
  7
ARIALB
100
AcDbText
  0
TEXT
  5
1DB
100
AcDbEntity
  8
1
  6
CONTINUOUS
 62
     7
100
AcDbText
 10
230.9999999999999
 20
169.9999999999999
 30
0.0
 40
1.5
  1
23  G1
  7
ARIAL
100
AcDbText
  0
TEXT
  5
1DC
100
AcDbEntity
  8
1
  6
CONTINUOUS
 62
     7
100
AcDbText
 10
230.9999999999999
 20
166.9999999999999
 30
0.0
 40
1.5
  1
28  L1
  7
ARIAL
100
AcDbText
  0
TEXT
  5
1DD
100
AcDbEntity
  8
1
  6
CONTINUOUS
 62
     7
100
AcDbText
 10
230.9999999999999
 20
164.0
 30
0.0
 40
1.5
  1
33  L2
  7
ARIAL
100
AcDbText
  0
TEXT
  5
1DE
100
AcDbEntity
  8
1
  6
CONTINUOUS
 62
     7
100
AcDbText
 10
230.9999999999999
 20
161.0
 30
0.0
 40
1.5
  1
38  Z
  7
ARIAL
100
AcDbText
  0
TEXT
  5
1DF
100
AcDbEntity
  8
1
  6
CONTINUOUS
 62
     7
100
AcDbText
 10
230.9999999999999
 20
157.9999999999999
 30
0.0
 40
1.5
  1
39  X
  7
ARIAL
100
AcDbText
  0
TEXT
  5
1E0
100
AcDbEntity
  8
1
  6
CONTINUOUS
 62
     7
100
AcDbText
 10
230.9999999999999
 20
155.0
 30
0.0
 40
1.5
  1
40  BP
  7
ARIAL
100
AcDbText
  0
CIRCLE
  5
1E1
100
AcDbEntity
  8
1
  6
CONTINUOUS
 62
     7
100
AcDbCircle
 10
227.0
 20
155.0
 30
0.0
 40
0.4
  0
CIRCLE
  5
1E2
100
AcDbEntity
  8
1
  6
CONTINUOUS
 62
     7
100
AcDbCircle
 10
227.0
 20
157.9999999999999
 30
0.0
 40
0.4
  0
CIRCLE
  5
1E3
100
AcDbEntity
  8
1
  6
CONTINUOUS
 62
     7
100
AcDbCircle
 10
227.0
 20
161.0
 30
0.0
 40
0.4
  0
CIRCLE
  5
1E4
100
AcDbEntity
  8
1
  6
CONTINUOUS
 62
     7
100
AcDbCircle
 10
227.0
 20
164.0
 30
0.0
 40
0.4
  0
CIRCLE
  5
1E5
100
AcDbEntity
  8
1
  6
CONTINUOUS
 62
     7
100
AcDbCircle
 10
227.0
 20
166.9999999999999
 30
0.0
 40
0.4
  0
CIRCLE
  5
1E6
100
AcDbEntity
  8
1
  6
CONTINUOUS
 62
     7
100
AcDbCircle
 10
227.0
 20
152.0
 30
0.0
 40
0.4
  0
LINE
  5
1E7
100
AcDbEntity
  8
1
  6
CONTINUOUS
 62
     7
100
AcDbLine
 10
180.0
 20
159.9999999999999
 30
0.0
 11
209.9999999999999
 21
159.9999999999999
 31
0.0
  0
LINE
  5
1E8
100
AcDbEntity
  8
1
  6
CONTINUOUS
 62
     7
100
AcDbLine
 10
180.0
 20
155.9999999999999
 30
0.0
 11
150.0
 21
155.9999999999999
 31
0.0
  0
LINE
  5
1E9
100
AcDbEntity
  8
1
  6
CONTINUOUS
 62
     7
100
AcDbLine
 10
180.0
 20
145.9999999999999
 30
0.0
 11
159.9999999999999
 21
145.9999999999999
 31
0.0
  0
LINE
  5
1EA
100
AcDbEntity
  8
1
  6
CONTINUOUS
 62
     7
100
AcDbLine
 10
180.0
 20
140.9999999999999
 30
0.0
 11
175.0
 21
140.9999999999999
 31
0.0
  0
LINE
  5
1EB
100
AcDbEntity
  8
1
  6
CONTINUOUS
 62
     7
100
AcDbLine
 10
180.0
 20
136.0
 30
0.0
 11
175.0
 21
136.0
 31
0.0
  0
LINE
  5
1EC
100
AcDbEntity
  8
1
  6
CONTINUOUS
 62
     7
100
AcDbLine
 10
180.0
 20
127.9999999999999
 30
0.0
 11
150.0
 21
127.9999999999999
 31
0.0
  0
LINE
  5
1ED
100
AcDbEntity
  8
1
  6
CONTINUOUS
 62
     7
100
AcDbLine
 10
180.0
 20
122.9999999999999
 30
0.0
 11
150.0
 21
122.9999999999999
 31
0.0
  0
LINE
  5
1EE
100
AcDbEntity
  8
1
  6
CONTINUOUS
 62
     7
100
AcDbLine
 10
180.0
 20
116.9999999999999
 30
0.0
 11
175.0
 21
116.9999999999999
 31
0.0
  0
LINE
  5
1EF
100
AcDbEntity
  8
1
  6
CONTINUOUS
 62
     7
100
AcDbLine
 10
180.0
 20
110.0
 30
0.0
 11
175.0
 21
110.0
 31
0.0
  0
LINE
  5
1F0
100
AcDbEntity
  8
1
  6
CONTINUOUS
 62
     7
100
AcDbLine
 10
180.0
 20
100.0
 30
0.0
 11
150.0
 21
100.0
 31
0.0
  0
LINE
  5
1F1
100
AcDbEntity
  8
1
  6
CONTINUOUS
 62
     7
100
AcDbLine
 10
180.0
 20
93.0
 30
0.0
 11
172.9999999999999
 21
93.0
 31
0.0
  0
LINE
  5
1F2
100
AcDbEntity
  8
1
  6
CONTINUOUS
 62
     7
100
AcDbLine
 10
180.0
 20
84.99999999999998
 30
0.0
 11
172.9999999999999
 21
84.99999999999998
 31
0.0
  0
LINE
  5
1F3
100
AcDbEntity
  8
1
  6
CONTINUOUS
 62
     7
100
AcDbLine
 10
180.0
 20
77.99999999999998
 30
0.0
 11
174.0
 21
77.99999999999998
 31
0.0
  0
LINE
  5
1F4
100
AcDbEntity
  8
1
  6
CONTINUOUS
 62
     7
100
AcDbLine
 10
180.0
 20
72.99999999999998
 30
0.0
 11
174.0
 21
72.99999999999998
 31
0.0
  0
LINE
  5
1F5
100
AcDbEntity
  8
1
  6
CONTINUOUS
 62
     7
100
AcDbLine
 10
180.0
 20
65.99999999999998
 30
0.0
 11
174.0
 21
65.99999999999998
 31
0.0
  0
LINE
  5
1F6
100
AcDbEntity
  8
1
  6
CONTINUOUS
 62
     7
100
AcDbLine
 10
174.0
 20
68.0
 30
0.0
 11
174.0
 21
63.99999999999999
 31
0.0
  0
LINE
  5
1F7
100
AcDbEntity
  8
1
  6
CONTINUOUS
 62
     7
100
AcDbLine
 10
171.9999999999999
 20
68.0
 30
0.0
 11
171.9999999999999
 21
63.99999999999999
 31
0.0
  0
LINE
  5
1F8
100
AcDbEntity
  8
1
  6
CONTINUOUS
 62
     7
100
AcDbLine
 10
171.9999999999999
 20
65.99999999999998
 30
0.0
 11
159.9999999999999
 21
65.99999999999998
 31
0.0
  0
LINE
  5
1F9
100
AcDbEntity
  8
1
  6
CONTINUOUS
 62
     7
100
AcDbLine
 10
159.9999999999999
 20
65.99999999999998
 30
0.0
 11
159.9999999999999
 21
77.99999999999998
 31
0.0
  0
LINE
  5
1FA
100
AcDbEntity
  8
1
  6
CONTINUOUS
 62
     7
100
AcDbLine
 10
159.9999999999999
 20
77.99999999999998
 30
0.0
 11
171.9999999999999
 21
77.99999999999998
 31
0.0
  0
LINE
  5
1FB
100
AcDbEntity
  8
1
  6
CONTINUOUS
 62
     7
100
AcDbLine
 10
171.9999999999999
 20
79.99999999999999
 30
0.0
 11
171.9999999999999
 21
76.0
 31
0.0
  0
LINE
  5
1FC
100
AcDbEntity
  8
1
  6
CONTINUOUS
 62
     7
100
AcDbLine
 10
174.0
 20
76.0
 30
0.0
 11
174.0
 21
79.99999999999999
 31
0.0
  0
LINE
  5
1FD
100
AcDbEntity
  8
1
  6
CONTINUOUS
 62
     7
100
AcDbLine
 10
174.0
 20
72.99999999999998
 30
0.0
 11
174.0
 21
74.0
 31
0.0
  0
LINE
  5
1FE
100
AcDbEntity
  8
1
  6
CONTINUOUS
 62
     7
100
AcDbLine
 10
174.0
 20
74.0
 30
0.0
 11
166.0
 21
74.0
 31
0.0
  0
LINE
  5
1FF
100
AcDbEntity
  8
1
  6
CONTINUOUS
 62
     7
100
AcDbLine
 10
166.0
 20
71.99999999999999
 30
0.0
 11
174.0
 21
71.99999999999999
 31
0.0
  0
LINE
  5
200
100
AcDbEntity
  8
1
  6
CONTINUOUS
 62
     7
100
AcDbLine
 10
174.0
 20
71.99999999999999
 30
0.0
 11
174.0
 21
72.99999999999998
 31
0.0
  0
LINE
  5
201
100
AcDbEntity
  8
1
  6
CONTINUOUS
 62
     7
100
AcDbLine
 10
166.0
 20
74.0
 30
0.0
 11
166.0
 21
71.99999999999999
 31
0.0
  0
LINE
  5
202
100
AcDbEntity
  8
1
  6
CONTINUOUS
 62
     7
100
AcDbLine
 10
166.0
 20
72.99999999999998
 30
0.0
 11
159.9999999999999
 21
72.99999999999998
 31
0.0
  0
LINE
  5
203
100
AcDbEntity
  8
1
  6
CONTINUOUS
 62
     7
100
AcDbLine
 10
172.9999999999999
 20
93.0
 30
0.0
 11
172.9999999999999
 21
90.0
 31
0.0
  0
LINE
  5
204
100
AcDbEntity
  8
1
  6
CONTINUOUS
 62
     7
100
AcDbLine
 10
170.9999999999999
 20
90.0
 30
0.0
 11
175.0
 21
90.0
 31
0.0
  0
LINE
  5
205
100
AcDbEntity
  8
1
  6
CONTINUOUS
 62
     7
100
AcDbLine
 10
175.0
 20
88.0
 30
0.0
 11
170.9999999999999
 21
88.0
 31
0.0
  0
LINE
  5
206
100
AcDbEntity
  8
1
  6
CONTINUOUS
 62
     7
100
AcDbLine
 10
172.9999999999999
 20
87.00000000000001
 30
0.0
 11
172.9999999999999
 21
84.99999999999998
 31
0.0
  0
LINE
  5
207
100
AcDbEntity
  8
1
  6
CONTINUOUS
 62
     7
100
AcDbLine
 10
172.9999999999999
 20
87.00000000000001
 30
0.0
 11
172.9999999999999
 21
88.0
 31
0.0
  0
LINE
  5
208
100
AcDbEntity
  8
1
  6
CONTINUOUS
 62
     7
100
AcDbLine
 10
172.9999999999999
 20
93.0
 30
0.0
 11
165.0
 21
93.0
 31
0.0
  0
LINE
  5
209
100
AcDbEntity
  8
1
  6
CONTINUOUS
 62
     7
100
AcDbLine
 10
165.0
 20
84.99999999999998
 30
0.0
 11
172.9999999999999
 21
84.99999999999998
 31
0.0
  0
LINE
  5
20A
100
AcDbEntity
  8
1
  6
CONTINUOUS
 62
     7
100
AcDbLine
 10
165.0
 20
85.99999999999999
 30
0.0
 11
165.0
 21
83.99999999999998
 31
0.0
  0
LINE
  5
20B
100
AcDbEntity
  8
1
  6
CONTINUOUS
 62
     7
100
AcDbLine
 10
165.0
 20
83.99999999999998
 30
0.0
 11
156.9999999999999
 21
83.99999999999998
 31
0.0
  0
LINE
  5
20C
100
AcDbEntity
  8
1
  6
CONTINUOUS
 62
     7
100
AcDbLine
 10
156.9999999999999
 20
85.99999999999999
 30
0.0
 11
156.9999999999999
 21
83.99999999999998
 31
0.0
  0
LINE
  5
20D
100
AcDbEntity
  8
1
  6
CONTINUOUS
 62
     7
100
AcDbLine
 10
156.9999999999999
 20
85.99999999999999
 30
0.0
 11
165.0
 21
85.99999999999999
 31
0.0
  0
LINE
  5
20E
100
AcDbEntity
  8
1
  6
CONTINUOUS
 62
     7
100
AcDbLine
 10
165.0
 20
94.0
 30
0.0
 11
165.0
 21
91.99999999999999
 31
0.0
  0
LINE
  5
20F
100
AcDbEntity
  8
1
  6
CONTINUOUS
 62
     7
100
AcDbLine
 10
165.0
 20
91.99999999999999
 30
0.0
 11
156.9999999999999
 21
91.99999999999999
 31
0.0
  0
LINE
  5
210
100
AcDbEntity
  8
1
  6
CONTINUOUS
 62
     7
100
AcDbLine
 10
156.9999999999999
 20
91.99999999999999
 30
0.0
 11
156.9999999999999
 21
94.0
 31
0.0
  0
LINE
  5
211
100
AcDbEntity
  8
1
  6
CONTINUOUS
 62
     7
100
AcDbLine
 10
156.9999999999999
 20
94.0
 30
0.0
 11
165.0
 21
94.0
 31
0.0
  0
LINE
  5
212
100
AcDbEntity
  8
1
  6
CONTINUOUS
 62
     7
100
AcDbLine
 10
156.9999999999999
 20
93.0
 30
0.0
 11
150.0
 21
93.0
 31
0.0
  0
LINE
  5
213
100
AcDbEntity
  8
1
  6
CONTINUOUS
 62
     7
100
AcDbLine
 10
156.9999999999999
 20
84.99999999999998
 30
0.0
 11
150.0
 21
84.99999999999998
 31
0.0
  0
LINE
  5
214
100
AcDbEntity
  8
1
  6
CONTINUOUS
 62
     7
100
AcDbLine
 10
175.0
 20
116.9999999999999
 30
0.0
 11
175.0
 21
114.0
 31
0.0
  0
LINE
  5
215
100
AcDbEntity
  8
1
  6
CONTINUOUS
 62
     7
100
AcDbLine
 10
172.9999999999999
 20
114.0
 30
0.0
 11
177.0
 21
114.0
 31
0.0
  0
LINE
  5
216
100
AcDbEntity
  8
1
  6
CONTINUOUS
 62
     7
100
AcDbLine
 10
177.0
 20
112.0
 30
0.0
 11
172.9999999999999
 21
112.0
 31
0.0
  0
LINE
  5
217
100
AcDbEntity
  8
1
  6
CONTINUOUS
 62
     7
100
AcDbLine
 10
175.0
 20
112.0
 30
0.0
 11
175.0
 21
110.0
 31
0.0
  0
LINE
  5
218
100
AcDbEntity
  8
1
  6
CONTINUOUS
 62
     7
100
AcDbLine
 10
175.0
 20
138.0
 30
0.0
 11
175.0
 21
133.9999999999999
 31
0.0
  0
LINE
  5
219
100
AcDbEntity
  8
1
  6
CONTINUOUS
 62
     7
100
AcDbLine
 10
172.9999999999999
 20
133.9999999999999
 30
0.0
 11
172.9999999999999
 21
138.0
 31
0.0
  0
LINE
  5
21A
100
AcDbEntity
  8
1
  6
CONTINUOUS
 62
     7
100
AcDbLine
 10
172.9999999999999
 20
136.0
 30
0.0
 11
166.0
 21
136.0
 31
0.0
  0
LINE
  5
21B
100
AcDbEntity
  8
1
  6
CONTINUOUS
 62
     7
100
AcDbLine
 10
166.0
 20
136.0
 30
0.0
 11
159.9999999999999
 21
136.0
 31
0.0
  0
LINE
  5
21C
100
AcDbEntity
  8
1
  6
CONTINUOUS
 62
     7
100
AcDbLine
 10
159.9999999999999
 20
136.0
 30
0.0
 11
159.9999999999999
 21
140.9999999999999
 31
0.0
  0
LINE
  5
21D
100
AcDbEntity
  8
1
  6
CONTINUOUS
 62
     7
100
AcDbLine
 10
159.9999999999999
 20
140.9999999999999
 30
0.0
 11
166.9999999999999
 21
140.9999999999999
 31
0.0
  0
LINE
  5
21E
100
AcDbEntity
  8
1
  6
CONTINUOUS
 62
     7
100
AcDbLine
 10
166.9999999999999
 20
141.9999999999999
 30
0.0
 11
166.9999999999999
 21
140.0
 31
0.0
  0
LINE
  5
21F
100
AcDbEntity
  8
1
  6
CONTINUOUS
 62
     7
100
AcDbLine
 10
166.9999999999999
 20
140.0
 30
0.0
 11
175.0
 21
140.0
 31
0.0
  0
LINE
  5
220
100
AcDbEntity
  8
1
  6
CONTINUOUS
 62
     7
100
AcDbLine
 10
175.0
 20
140.0
 30
0.0
 11
175.0
 21
141.9999999999999
 31
0.0
  0
LINE
  5
221
100
AcDbEntity
  8
1
  6
CONTINUOUS
 62
     7
100
AcDbLine
 10
175.0
 20
141.9999999999999
 30
0.0
 11
166.9999999999999
 21
141.9999999999999
 31
0.0
  0
LINE
  5
222
100
AcDbEntity
  8
1
  6
CONTINUOUS
 62
     7
100
AcDbLine
 10
159.9999999999999
 20
140.9999999999999
 30
0.0
 11
159.9999999999999
 21
145.9999999999999
 31
0.0
  0
ARC
  5
223
100
AcDbEntity
  8
1
  6
CONTINUOUS
 62
     7
100
AcDbCircle
 10
149.0
 20
155.9999999999999
 30
0.0
 40
0.999999999999998
100
AcDbArc
 50
270.0
 51
90.00000000000007
  0
ARC
  5
224
100
AcDbEntity
  8
1
  6
CONTINUOUS
 62
     7
100
AcDbCircle
 10
149.0
 20
127.9999999999999
 30
0.0
 40
0.999999999999998
100
AcDbArc
 50
270.0
 51
90.00000000000007
  0
ARC
  5
225
100
AcDbEntity
  8
1
  6
CONTINUOUS
 62
     7
100
AcDbCircle
 10
149.0
 20
122.9999999999999
 30
0.0
 40
0.999999999999998
100
AcDbArc
 50
270.0
 51
90.00000000000007
  0
ARC
  5
226
100
AcDbEntity
  8
1
  6
CONTINUOUS
 62
     7
100
AcDbCircle
 10
149.0
 20
100.0
 30
0.0
 40
0.999999999999998
100
AcDbArc
 50
270.0
 51
90.00000000000007
  0
ARC
  5
227
100
AcDbEntity
  8
1
  6
CONTINUOUS
 62
     7
100
AcDbCircle
 10
149.0
 20
93.0
 30
0.0
 40
0.999999999999998
100
AcDbArc
 50
270.0
 51
90.00000000000007
  0
ARC
  5
228
100
AcDbEntity
  8
1
  6
CONTINUOUS
 62
     7
100
AcDbCircle
 10
149.0
 20
84.99999999999998
 30
0.0
 40
0.999999999999998
100
AcDbArc
 50
270.0
 51
90.00000000000007
  0
ARC
  5
229
100
AcDbEntity
  8
1
  6
CONTINUOUS
 62
     7
100
AcDbCircle
 10
149.0
 20
107.9999999999999
 30
0.0
 40
0.999999999999998
100
AcDbArc
 50
270.0
 51
90.00000000000007
  0
ARC
  5
22A
100
AcDbEntity
  8
1
  6
CONTINUOUS
 62
     7
100
AcDbCircle
 10
149.0
 20
153.0
 30
0.0
 40
0.999999999999998
100
AcDbArc
 50
270.0
 51
90.00000000000007
  0
ARC
  5
22B
100
AcDbEntity
  8
1
  6
CONTINUOUS
 62
     7
100
AcDbCircle
 10
149.0
 20
112.0
 30
0.0
 40
0.999999999999998
100
AcDbArc
 50
270.0
 51
90.00000000000007
  0
LINE
  5
22C
100
AcDbEntity
  8
1
  6
CONTINUOUS
 62
     7
100
AcDbLine
 10
150.0
 20
153.0
 30
0.0
 11
152.0
 21
153.0
 31
0.0
  0
LINE
  5
22D
100
AcDbEntity
  8
1
  6
CONTINUOUS
 62
     7
100
AcDbLine
 10
152.0
 20
153.0
 30
0.0
 11
152.0
 21
155.9999999999999
 31
0.0
  0
LINE
  5
22E
100
AcDbEntity
  8
1
  6
CONTINUOUS
 62
     7
100
AcDbLine
 10
150.0
 20
112.0
 30
0.0
 11
153.0
 21
112.0
 31
0.0
  0
LINE
  5
22F
100
AcDbEntity
  8
1
  6
CONTINUOUS
 62
     7
100
AcDbLine
 10
150.0
 20
107.9999999999999
 30
0.0
 11
153.0
 21
107.9999999999999
 31
0.0
  0
TEXT
  5
230
100
AcDbEntity
  8
1
  6
CONTINUOUS
 62
     7
100
AcDbText
 10
143.9999999999999
 20
155.0
 30
0.0
 40
1.5
  1
1
  7
ARIALB
100
AcDbText
  0
TEXT
  5
231
100
AcDbEntity
  8
1
  6
CONTINUOUS
 62
     7
100
AcDbText
 10
143.9999999999999
 20
152.0
 30
0.0
 40
1.5
  1
2
  7
ARIALB
100
AcDbText
  0
TEXT
  5
232
100
AcDbEntity
  8
1
  6
CONTINUOUS
 62
     7
100
AcDbText
 10
144.9999999999999
 20
127.0
 30
0.0
 40
1.5
  1
7
  7
ARIALB
100
AcDbText
  0
TEXT
  5
233
100
AcDbEntity
  8
1
  6
CONTINUOUS
 62
     7
100
AcDbText
 10
144.9999999999999
 20
121.9999999999999
 30
0.0
 40
1.5
  1
6
  7
ARIALB
100
AcDbText
  0
TEXT
  5
234
100
AcDbEntity
  8
1
  6
CONTINUOUS
 62
     7
100
AcDbText
 10
144.9999999999999
 20
111.0
 30
0.0
 40
1.5
  1
10
  7
ARIALB
100
AcDbText
  0
TEXT
  5
235
100
AcDbEntity
  8
1
  6
CONTINUOUS
 62
     7
100
AcDbText
 10
144.9999999999999
 20
106.9999999999999
 30
0.0
 40
1.5
  1
9
  7
ARIALB
100
AcDbText
  0
TEXT
  5
236
100
AcDbEntity
  8
1
  6
CONTINUOUS
 62
     7
100
AcDbText
 10
144.9999999999999
 20
98.99999999999998
 30
0.0
 40
1.5
  1
8
  7
ARIALB
100
AcDbText
  0
TEXT
  5
237
100
AcDbEntity
  8
1
  6
CONTINUOUS
 62
     7
100
AcDbText
 10
144.9999999999999
 20
91.99999999999999
 30
0.0
 40
1.5
  1
3
  7
ARIALB
100
AcDbText
  0
TEXT
  5
238
100
AcDbEntity
  8
1
  6
CONTINUOUS
 62
     7
100
AcDbText
 10
144.9999999999999
 20
83.99999999999998
 30
0.0
 40
1.5
  1
4
  7
ARIALB
100
AcDbText
  0
CIRCLE
  5
239
100
AcDbEntity
  8
1
  6
CONTINUOUS
 62
     7
100
AcDbCircle
 10
159.9999999999999
 20
72.99999999999998
 30
0.0
 40
0.4
  0
CIRCLE
  5
23A
100
AcDbEntity
  8
1
  6
CONTINUOUS
 62
     7
100
AcDbCircle
 10
172.9999999999999
 20
84.99999999999998
 30
0.0
 40
0.4
  0
CIRCLE
  5
23B
100
AcDbEntity
  8
1
  6
CONTINUOUS
 62
     7
100
AcDbCircle
 10
172.9999999999999
 20
93.0
 30
0.0
 40
0.4
  0
CIRCLE
  5
23C
100
AcDbEntity
  8
1
  6
CONTINUOUS
 62
     7
100
AcDbCircle
 10
159.9999999999999
 20
140.9999999999999
 30
0.0
 40
0.4
  0
CIRCLE
  5
23D
100
AcDbEntity
  8
1
  6
CONTINUOUS
 62
     7
100
AcDbCircle
 10
152.0
 20
155.9999999999999
 30
0.0
 40
0.4
  0
CIRCLE
  5
23E
100
AcDbEntity
  8
1
  6
CONTINUOUS
 62
     7
100
AcDbCircle
 10
154.0
 20
100.0
 30
0.0
 40
0.4
  0
LINE
  5
23F
100
AcDbEntity
  8
1
  6
CONTINUOUS
 62
     7
100
AcDbLine
 10
154.0
 20
100.0
 30
0.0
 11
154.0
 21
107.9999999999999
 31
0.0
  0
LINE
  5
240
100
AcDbEntity
  8
1
  6
CONTINUOUS
 62
     7
100
AcDbLine
 10
154.0
 20
107.9999999999999
 30
0.0
 11
153.0
 21
107.9999999999999
 31
0.0
  0
LINE
  5
241
100
AcDbEntity
  8
1
  6
CONTINUOUS
 62
     7
100
AcDbLine
 10
153.0
 20
112.0
 30
0.0
 11
154.0
 21
112.0
 31
0.0
  0
LINE
  5
242
100
AcDbEntity
  8
1
  6
CONTINUOUS
 62
     7
100
AcDbLine
 10
154.0
 20
112.0
 30
0.0
 11
154.0
 21
107.9999999999999
 31
0.0
  0
CIRCLE
  5
243
100
AcDbEntity
  8
1
  6
CONTINUOUS
 62
     7
100
AcDbCircle
 10
154.0
 20
107.9999999999999
 30
0.0
 40
0.4
  0
ARC
  5
244
100
AcDbEntity
  8
1
  6
CONTINUOUS
 62
     7
100
AcDbCircle
 10
158.9999999999999
 20
56.0
 30
0.0
 40
0.999999999999998
100
AcDbArc
 50
270.0
 51
90.00000000000007
  0
TEXT
  5
245
100
AcDbEntity
  8
1
  6
CONTINUOUS
 62
     7
100
AcDbText
 10
156.9999999999999
 20
55.0
 30
0.0
 40
1.5
  1
5
  7
ARIALB
100
AcDbText
  0
LINE
  5
246
100
AcDbEntity
  8
1
  6
CONTINUOUS
 62
     7
100
AcDbLine
 10
159.9999999999999
 20
56.0
 30
0.0
 11
186.0
 21
56.0
 31
0.0
  0
CIRCLE
  5
247
100
AcDbEntity
  8
1
  6
CONTINUOUS
 62
     7
100
AcDbCircle
 10
186.0
 20
56.0
 30
0.0
 40
0.4
  0
TEXT
  5
248
100
AcDbEntity
  8
1
  6
CONTINUOUS
 62
     7
100
AcDbText
 10
160.9999999999999
 20
59.00000000000001
 30
0.0
 40
1.5
  1
0.22u polypropylene
  7
ARIALB
100
AcDbText
  0
TEXT
  5
249
100
AcDbEntity
  8
1
  6
CONTINUOUS
 62
     7
100
AcDbText
 10
167.9999999999999
 20
70.0
 30
0.0
 40
1.5
  1
1M
  7
ARIALB
100
AcDbText
  0
TEXT
  5
24A
100
AcDbEntity
  8
1
  6
CONTINUOUS
 62
     7
100
AcDbText
 10
167.9999999999999
 20
78.99999999999998
 30
0.0
 40
1.5
  1
0.1u
  7
ARIALB
100
AcDbText
  0
TEXT
  5
24B
100
AcDbEntity
  8
1
  6
CONTINUOUS
 62
     7
100
AcDbText
 10
180.9999999999999
 20
65.99999999999998
 30
0.0
 40
1.5
  1
27  INT C
  7
ARIAL
100
AcDbText
  0
TEXT
  5
24C
100
AcDbEntity
  8
1
  6
CONTINUOUS
 62
     7
100
AcDbText
 10
180.9999999999999
 20
72.99999999999998
 30
0.0
 40
1.5
  1
28  INT R
  7
ARIAL
100
AcDbText
  0
TEXT
  5
24D
100
AcDbEntity
  8
1
  6
CONTINUOUS
 62
     7
100
AcDbText
 10
180.9999999999999
 20
77.99999999999998
 30
0.0
 40
1.5
  1
29  AZ C
  7
ARIAL
100
AcDbText
  0
TEXT
  5
24E
100
AcDbEntity
  8
1
  6
CONTINUOUS
 62
     7
100
AcDbText
 10
180.9999999999999
 20
84.99999999999998
 30
0.0
 40
1.5
  1
30  IN L
  7
ARIAL
100
AcDbText
  0
TEXT
  5
24F
100
AcDbEntity
  8
1
  6
CONTINUOUS
 62
     7
100
AcDbText
 10
180.9999999999999
 20
93.0
 30
0.0
 40
1.5
  1
31  IN H
  7
ARIAL
100
AcDbText
  0
TEXT
  5
250
100
AcDbEntity
  8
1
  6
CONTINUOUS
 62
     7
100
AcDbText
 10
180.9999999999999
 20
100.0
 30
0.0
 40
1.5
  1
32  ANALOG COMMON
  7
ARIAL
100
AcDbText
  0
TEXT
  5
251
100
AcDbEntity
  8
1
  6
CONTINUOUS
 62
     7
100
AcDbText
 10
180.9999999999999
 20
110.0
 30
0.0
 40
1.5
  1
33  C REF -
  7
ARIAL
100
AcDbText
  0
TEXT
  5
252
100
AcDbEntity
  8
1
  6
CONTINUOUS
 62
     7
100
AcDbText
 10
180.9999999999999
 20
116.9999999999999
 30
0.0
 40
1.5
  1
34 C REF +
  7
ARIAL
100
AcDbText
  0
TEXT
  5
253
100
AcDbEntity
  8
1
  6
CONTINUOUS
 62
     7
100
AcDbText
 10
180.9999999999999
 20
127.9999999999999
 30
0.0
 40
1.5
  1
36  REF H
  7
ARIAL
100
AcDbText
  0
TEXT
  5
254
100
AcDbEntity
  8
1
  6
CONTINUOUS
 62
     7
100
AcDbText
 10
180.9999999999999
 20
122.9999999999999
 30
0.0
 40
1.5
  1
35  REF L
  7
ARIAL
100
AcDbText
  0
TEXT
  5
255
100
AcDbEntity
  8
1
  6
CONTINUOUS
 62
     7
100
AcDbText
 10
180.9999999999999
 20
136.0
 30
0.0
 40
1.5
  1
38  OSC3
  7
ARIAL
100
AcDbText
  0
TEXT
  5
256
100
AcDbEntity
  8
1
  6
CONTINUOUS
 62
     7
100
AcDbText
 10
180.9999999999999
 20
140.9999999999999
 30
0.0
 40
1.5
  1
39 OSC2
  7
ARIAL
100
AcDbText
  0
TEXT
  5
257
100
AcDbEntity
  8
1
  6
CONTINUOUS
 62
     7
100
AcDbText
 10
180.9999999999999
 20
155.9999999999999
 30
0.0
 40
1.5
  1
1
  7
ARIAL
100
AcDbText
  0
TEXT
  5
258
100
AcDbEntity
  8
1
  6
CONTINUOUS
 62
     7
100
AcDbText
 10
180.9999999999999
 20
145.9999999999999
 30
0.0
 40
1.5
  1
40  OSC1
  7
ARIAL
100
AcDbText
  0
TEXT
  5
259
100
AcDbEntity
  8
1
  6
CONTINUOUS
 62
     7
100
AcDbText
 10
166.0
 20
88.0
 30
0.0
 40
1.5
  1
0.01u
  7
ARIALB
100
AcDbText
  0
TEXT
  5
25A
100
AcDbEntity
  8
1
  6
CONTINUOUS
 62
     7
100
AcDbText
 10
158.9999999999999
 20
95.0
 30
0.0
 40
1.5
  1
150k
  7
ARIALB
100
AcDbText
  0
TEXT
  5
25B
100
AcDbEntity
  8
1
  6
CONTINUOUS
 62
     7
100
AcDbText
 10
158.9999999999999
 20
87.00000000000001
 30
0.0
 40
1.5
  1
150k
  7
ARIALB
100
AcDbText
  0
TEXT
  5
25C
100
AcDbEntity
  8
1
  6
CONTINUOUS
 62
     7
100
AcDbText
 10
166.0
 20
112.0
 30
0.0
 40
1.5
  1
0.1u
  7
ARIALB
100
AcDbText
  0
TEXT
  5
25D
100
AcDbEntity
  8
1
  6
CONTINUOUS
 62
     7
100
AcDbText
 10
167.9999999999999
 20
131.9999999999999
 30
0.0
 40
1.5
  1
47pF
  7
ARIALB
100
AcDbText
  0
TEXT
  5
25E
100
AcDbEntity
  8
1
  6
CONTINUOUS
 62
     7
100
AcDbText
 10
168.9999999999999
 20
142.9999999999999
 30
0.0
 40
1.5
  1
560k
  7
ARIALB
100
AcDbText
  0
LINE
  5
25F
100
AcDbEntity
  8
1
  6
CONTINUOUS
 62
     7
100
AcDbLine
 10
177.0
 20
82.00000000000001
 30
0.0
 11
177.0
 21
75.0
 31
0.0
  0
LWPOLYLINE
  5
260
100
AcDbEntity
  8
1
  6
CONTINUOUS
 62
     7
100
AcDbPolyline
 90
        5
 70
     0
 43
0.0
 10
177.0
 20
75.0
 10
164.0
 20
75.0
 10
164.0
 20
62.0
 10
177.0
 20
62.0
 10
180.0
 20
65.99999999999998
  0
LINE
  5
261
100
AcDbEntity
  8
1
  6
CONTINUOUS
 62
     7
100
AcDbLine
 10
177.0073717521017
 20
81.88790958669651
 30
0.0
 11
157.0073717521017
 21
81.88790958669651
 31
0.0
  0
LINE
  5
262
100
AcDbEntity
  8
1
  6
CONTINUOUS
 62
     7
100
AcDbLine
 10
157.0073717521017
 20
81.88790958669651
 30
0.0
 11
157.0073717521017
 21
60.88790958669651
 31
0.0
  0
LINE
  5
263
100
AcDbEntity
  8
1
  6
CONTINUOUS
 62
     7
100
AcDbLine
 10
157.0073717521017
 20
60.88790958669651
 30
0.0
 11
178.0073717521017
 21
60.88790958669651
 31
0.0
  0
LINE
  5
264
100
AcDbEntity
  8
1
  6
CONTINUOUS
 62
     7
100
AcDbLine
 10
178.0
 20
61.0
 30
0.0
 11
180.0
 21
65.99999999999998
 31
0.0
  0
MTEXT
  5
265
100
AcDbEntity
  8
1
  6
CONTINUOUS
 62
     7
100
AcDbMText
 10
96.00000000000001
 20
101.0
 30
0.0
 40
1.999999999999999
 41
0.0
 71
     7
 72
     1
  1
THESE COMPONENTS \PARE SURROUNDED \PBY A GUARD TRACK \PCONNECTED TO PIN 27
  7
ARIALB
  0
LINE
  5
266
100
AcDbEntity
  8
1
  6
CONTINUOUS
 62
     7
100
AcDbLine
 10
123.9999999999999
 20
97.99999999999998
 30
0.0
 11
154.0
 21
77.0
 31
0.0
  0
LINE
  5
267
100
AcDbEntity
  8
1
  6
CONTINUOUS
 62
     7
100
AcDbLine
 10
154.0
 20
77.0
 30
0.0
 11
154.0
 21
77.99999999999998
 31
0.0
  0
LINE
  5
268
100
AcDbEntity
  8
1
  6
CONTINUOUS
 62
     7
100
AcDbLine
 10
154.0
 20
77.0
 30
0.0
 11
153.0
 21
77.0
 31
0.0
  0
LINE
  5
269
100
AcDbEntity
  8
1
  6
CONTINUOUS
 62
     7
100
AcDbLine
 10
215.9999999999999
 20
152.0
 30
0.0
 11
215.9999999999999
 21
169.9999999999999
 31
0.0
  0
LINE
  5
26A
100
AcDbEntity
  8
1
  6
CONTINUOUS
 62
     7
100
AcDbLine
 10
215.9999999999999
 20
169.9999999999999
 30
0.0
 11
169.9999999999999
 21
169.9999999999999
 31
0.0
  0
CIRCLE
  5
26B
100
AcDbEntity
  8
1
  6
CONTINUOUS
 62
     7
100
AcDbCircle
 10
215.9999999999999
 20
152.0
 30
0.0
 40
0.4
  0
LINE
  5
26C
100
AcDbEntity
  8
1
  6
CONTINUOUS
 62
     7
100
AcDbLine
 10
169.9999999999999
 20
169.9999999999999
 30
0.0
 11
70.0
 21
169.9999999999999
 31
0.0
  0
LINE
  5
26D
100
AcDbEntity
  8
1
  6
CONTINUOUS
 62
     7
100
AcDbLine
 10
70.0
 20
169.9999999999999
 30
0.0
 11
70.0
 21
82.00000000000001
 31
0.0
  0
TEXT
  5
26E
100
AcDbEntity
  8
1
  6
CONTINUOUS
 62
     7
100
AcDbText
 10
128.0
 20
155.0
 30
0.0
 40
1.5
  1
bATTERY + 9v
  7
ARIALB
100
AcDbText
  0
ENDSEC
  0
SECTION
  2
OBJECTS
  0
DICTIONARY
  5
C
100
AcDbDictionary
  3
ACAD_GROUP
350
D
  3
ACAD_MLINESTYLE
350
1B
  0
DICTIONARY
  5
D
102
{ACAD_REACTORS
330
C
102
}
100
AcDbDictionary
  0
DICTIONARY
  5
1B
102
{ACAD_REACTORS
330
C
102
}
100
AcDbDictionary
  3
STANDARD
350
1C
  0
MLINESTYLE
  5
1C
102
{ACAD_REACTORS
330
1B
102
}
100
AcDbMlineStyle
  2
STANDARD
 70
     0
  3

 62
   256
 51
90.0
 52
90.0
 71
     2
 49
0.5
 62
   256
  6
BYLAYER
 49
-0.5
 62
   256
  6
BYLAYER
  0
ENDSEC
  0
EOF
