  0
SECTION
  2
HEADER
  9
$ACADVER
  1
AC1014
  9
$ACADMAINTVER
 70
     5
  9
$DWGCODEPAGE
  3
ANSI_1252
  9
$INSBASE
 10
0.0
 20
0.0
 30
0.0
  9
$EXTMIN
 10
1.000000000000000E+20
 20
1.000000000000000E+20
 30
1.000000000000000E+20
  9
$EXTMAX
 10
-1.000000000000000E+20
 20
-1.000000000000000E+20
 30
-1.000000000000000E+20
  9
$LIMMIN
 10
0.0
 20
0.0
  9
$LIMMAX
 10
12.0
 20
9.0
  9
$ORTHOMODE
 70
     0
  9
$REGENMODE
 70
     1
  9
$FILLMODE
 70
     1
  9
$QTEXTMODE
 70
     0
  9
$MIRRTEXT
 70
     1
  9
$DRAGMODE
 70
     2
  9
$LTSCALE
 40
1.0
  9
$OSMODE
 70
     8
  9
$ATTMODE
 70
     1
  9
$TEXTSIZE
 40
9.999999999999998
  9
$TRACEWID
 40
0.05
  9
$TEXTSTYLE
  7
STANDARD
  9
$CLAYER
  8
0
  9
$CELTYPE
  6
BYLAYER
  9
$CECOLOR
 62
   256
  9
$CELTSCALE
 40
1.0
  9
$DELOBJ
 70
     1
  9
$DISPSILH
 70
     0
  9
$DIMSCALE
 40
1.0
  9
$DIMASZ
 40
0.18
  9
$DIMEXO
 40
0.0625
  9
$DIMDLI
 40
0.38
  9
$DIMRND
 40
0.0
  9
$DIMDLE
 40
0.0
  9
$DIMEXE
 40
0.18
  9
$DIMTP
 40
0.0
  9
$DIMTM
 40
0.0
  9
$DIMTXT
 40
0.1574803149606299
  9
$DIMCEN
 40
0.09
  9
$DIMTSZ
 40
0.0
  9
$DIMTOL
 70
     0
  9
$DIMLIM
 70
     0
  9
$DIMTIH
 70
     1
  9
$DIMTOH
 70
     1
  9
$DIMSE1
 70
     0
  9
$DIMSE2
 70
     0
  9
$DIMTAD
 70
     0
  9
$DIMZIN
 70
     0
  9
$DIMBLK
  1

  9
$DIMASO
 70
     1
  9
$DIMSHO
 70
     1
  9
$DIMPOST
  1

  9
$DIMAPOST
  1

  9
$DIMALT
 70
     0
  9
$DIMALTD
 70
     2
  9
$DIMALTF
 40
25.4
  9
$DIMLFAC
 40
1.0
  9
$DIMTOFL
 70
     0
  9
$DIMTVP
 40
0.0
  9
$DIMTIX
 70
     0
  9
$DIMSOXD
 70
     0
  9
$DIMSAH
 70
     0
  9
$DIMBLK1
  1

  9
$DIMBLK2
  1

  9
$DIMSTYLE
  2
STANDARD
  9
$DIMCLRD
 70
     0
  9
$DIMCLRE
 70
     0
  9
$DIMCLRT
 70
     0
  9
$DIMTFAC
 40
1.0
  9
$DIMGAP
 40
0.09
  9
$DIMJUST
 70
     0
  9
$DIMSD1
 70
     0
  9
$DIMSD2
 70
     0
  9
$DIMTOLJ
 70
     1
  9
$DIMTZIN
 70
     0
  9
$DIMALTZ
 70
     0
  9
$DIMALTTZ
 70
     0
  9
$DIMFIT
 70
     3
  9
$DIMUPT
 70
     0
  9
$DIMUNIT
 70
     4
  9
$DIMDEC
 70
     2
  9
$DIMTDEC
 70
     4
  9
$DIMALTU
 70
     2
  9
$DIMALTTD
 70
     2
  9
$DIMTXSTY
  7
STANDARD
  9
$DIMAUNIT
 70
     1
  9
$LUNITS
 70
     2
  9
$LUPREC
 70
     2
  9
$SKETCHINC
 40
0.1
  9
$FILLETRAD
 40
4.999999999999999
  9
$AUNITS
 70
     0
  9
$AUPREC
 70
     2
  9
$MENU
  1
.
  9
$ELEVATION
 40
0.0
  9
$PELEVATION
 40
0.0
  9
$THICKNESS
 40
0.0
  9
$LIMCHECK
 70
     0
  9
$BLIPMODE
 70
     0
  9
$CHAMFERA
 40
4.999999999999999
  9
$CHAMFERB
 40
4.999999999999999
  9
$CHAMFERC
 40
0.0
  9
$CHAMFERD
 40
0.0
  9
$SKPOLY
 70
     0
  9
$TDCREATE
 40
0.0000000000
  9
$TDUPDATE
 40
0.0000000000
  9
$TDINDWG
 40
0.0000000000
  9
$TDUSRTIMER
 40
0.0000000000
  9
$USRTIMER
 70
     1
  9
$ANGBASE
 50
0.0
  9
$ANGDIR
 70
     0
  9
$PDMODE
 70
     0
  9
$PDSIZE
 40
0.0
  9
$PLINEWID
 40
0.0
  9
$COORDS
 70
     1
  9
$SPLFRAME
 70
     0
  9
$SPLINETYPE
 70
     6
  9
$SPLINESEGS
 70
     8
  9
$ATTDIA
 70
     0
  9
$ATTREQ
 70
     1
  9
$HANDLING
 70
     1
  9
$HANDSEED
  5
118
  9
$SURFTAB1
 70
     6
  9
$SURFTAB2
 70
     6
  9
$SURFTYPE
 70
     6
  9
$SURFU
 70
     6
  9
$SURFV
 70
     6
  9
$UCSNAME
  2

  9
$UCSORG
 10
0.0
 20
0.0
 30
0.0
  9
$UCSXDIR
 10
1.0
 20
0.0
 30
0.0
  9
$UCSYDIR
 10
0.0
 20
1.0
 30
0.0
  9
$PUCSNAME
  2

  9
$PUCSORG
 10
0.0
 20
0.0
 30
0.0
  9
$PUCSXDIR
 10
1.0
 20
0.0
 30
0.0
  9
$PUCSYDIR
 10
0.0
 20
1.0
 30
0.0
  9
$USERI1
 70
     0
  9
$USERI2
 70
     0
  9
$USERI3
 70
     0
  9
$USERI4
 70
     0
  9
$USERI5
 70
     0
  9
$USERR1
 40
0.0
  9
$USERR2
 40
0.0
  9
$USERR3
 40
0.0
  9
$USERR4
 40
0.0
  9
$USERR5
 40
0.0
  9
$WORLDVIEW
 70
     1
  9
$SHADEDGE
 70
     3
  9
$SHADEDIF
 70
    70
  9
$TILEMODE
 70
     1
  9
$MAXACTVP
 70
    48
  9
$PINSBASE
 10
0.0
 20
0.0
 30
0.0
  9
$PLIMCHECK
 70
     0
  9
$PEXTMIN
 10
1.000000000000000E+20
 20
1.000000000000000E+20
 30
1.000000000000000E+20
  9
$PEXTMAX
 10
-1.000000000000000E+20
 20
-1.000000000000000E+20
 30
-1.000000000000000E+20
  9
$PLIMMIN
 10
0.0
 20
0.0
  9
$PLIMMAX
 10
12.0
 20
9.0
  9
$UNITMODE
 70
     0
  9
$VISRETAIN
 70
     1
  9
$PLINEGEN
 70
     0
  9
$PSLTSCALE
 70
     1
  9
$TREEDEPTH
 70
  3020
  9
$PICKSTYLE
 70
     1
  9
$CMLSTYLE
  2
STANDARD
  9
$CMLJUST
 70
     0
  9
$CMLSCALE
 40
1.0
  9
$PROXYGRAPHICS
 70
     1
  9
$MEASUREMENT
 70
     1
  0
ENDSEC
  0
SECTION
  2
CLASSES
  0
CLASS
  1
LWPOLYLINE
  2
AcDbPolyline
  3
"AutoCAD"
 90
        0
280
     0
281
     1
  0
ENDSEC
  0
SECTION
  2
TABLES
  0
TABLE
  2
VPORT
  5
8
100
AcDbSymbolTable
 70
     1
  0
VPORT
  5
11
100
AcDbSymbolTableRecord
100
AcDbViewportTableRecord
  2
*ACTIVE
 70
     0
 10
0.0
 20
0.0
 11
1.0
 21
1.0
 12
3.6
 22
4.5
 13
0.0
 23
0.0
 14
1.0
 24
1.0
 15
0.0
 25
0.0
 16
0.0
 26
0.0
 36
1.0
 17
0.0
 27
0.0
 37
0.0
 40
15.0
 41
0.8
 42
50.0
 43
0.0
 44
0.0
 50
0.0
 51
0.0
 71
     0
 72
   100
 73
     1
 74
     1
 75
     0
 76
     0
 77
     0
 78
     0
  0
ENDTAB
  0
TABLE
  2
LTYPE
  5
5
100
AcDbSymbolTable
 70
    40
  0
LTYPE
  5
12
100
AcDbSymbolTableRecord
100
AcDbLinetypeTableRecord
  2
BYBLOCK
 70
     0
  3

 72
    65
 73
     0
 40
0.0
  0
LTYPE
  5
13
100
AcDbSymbolTableRecord
100
AcDbLinetypeTableRecord
  2
BYLAYER
 70
     0
  3

 72
    65
 73
     0
 40
0.0
  0
LTYPE
  5
14
100
AcDbSymbolTableRecord
100
AcDbLinetypeTableRecord
  2
CONTINUOUS
 70
     0
  3
Solid line
 72
    65
 73
     0
 40
0.0
  0
LTYPE
  5
1E
100
AcDbSymbolTableRecord
100
AcDbLinetypeTableRecord
  2
HIDDEN
 70
     0
  3
_ _ _ _ _ _ _ _ _ _ _ _ _ _ 
 72
    65
 73
     2
 40
9.524999999999998
 49
6.349999999999999
 74
     0
 49
-3.174999999999999
 74
     0
  0
LTYPE
  5
1F
100
AcDbSymbolTableRecord
100
AcDbLinetypeTableRecord
  2
DASHED
 70
     0
  3
__ __ __ __ __ __ __ __ __ 
 72
    65
 73
     2
 40
19.04999999999999
 49
12.7
 74
     0
 49
-6.349999999999999
 74
     0
  0
LTYPE
  5
20
100
AcDbSymbolTableRecord
100
AcDbLinetypeTableRecord
  2
CENTER
 70
     0
  3
____ _ ____ _ ____ _ ____ _ 
 72
    65
 73
     4
 40
50.8
 49
31.75
 74
     0
 49
-6.349999999999999
 74
     0
 49
6.349999999999999
 74
     0
 49
-6.349999999999999
 74
     0
  0
LTYPE
  5
21
100
AcDbSymbolTableRecord
100
AcDbLinetypeTableRecord
  2
PHANTOM
 70
     0
  3
_____ _ _ _____ _ _ _____ _ _ 
 72
    65
 73
     6
 40
63.50000000000001
 49
31.75
 74
     0
 49
-6.349999999999999
 74
     0
 49
6.349999999999999
 74
     0
 49
-6.349999999999999
 74
     0
 49
6.349999999999999
 74
     0
 49
-6.349999999999999
 74
     0
  0
LTYPE
  5
22
100
AcDbSymbolTableRecord
100
AcDbLinetypeTableRecord
  2
DOT
 70
     0
  3
...........................
 72
    65
 73
     2
 40
6.349999999999999
 49
0.0
 74
     0
 49
-6.349999999999999
 74
     0
  0
LTYPE
  5
23
100
AcDbSymbolTableRecord
100
AcDbLinetypeTableRecord
  2
DASHDOT
 70
     0
  3
__ . __ . __ . __ . __ . __ . 
 72
    65
 73
     4
 40
25.4
 49
12.7
 74
     0
 49
-6.349999999999999
 74
     0
 49
0.0
 74
     0
 49
-6.349999999999999
 74
     0
  0
LTYPE
  5
24
100
AcDbSymbolTableRecord
100
AcDbLinetypeTableRecord
  2
DIVIDE
 70
     0
  3
__ . . __ . . __ . . __ . . 
 72
    65
 73
     6
 40
31.75
 49
12.7
 74
     0
 49
-6.349999999999999
 74
     0
 49
0.0
 74
     0
 49
-6.349999999999999
 74
     0
 49
0.0
 74
     0
 49
-6.349999999999999
 74
     0
  0
LTYPE
  5
25
100
AcDbSymbolTableRecord
100
AcDbLinetypeTableRecord
  2
BORDER
 70
     0
  3
__ __ . __ __ . __ __ . __ __ .
 72
    65
 73
     6
 40
44.44999999999999
 49
12.7
 74
     0
 49
-6.349999999999999
 74
     0
 49
12.7
 74
     0
 49
-6.349999999999999
 74
     0
 49
0.0
 74
     0
 49
-6.349999999999999
 74
     0
  0
LTYPE
  5
26
100
AcDbSymbolTableRecord
100
AcDbLinetypeTableRecord
  2
BORDER2
 70
     0
  3
Border (.5x) __.__.__.__.__.__.
 72
    65
 73
     6
 40
0.875
 49
0.25
 74
     0
 49
-0.125
 74
     0
 49
0.25
 74
     0
 49
-0.125
 74
     0
 49
0.0
 74
     0
 49
-0.125
 74
     0
  0
LTYPE
  5
27
100
AcDbSymbolTableRecord
100
AcDbLinetypeTableRecord
  2
BORDERX2
 70
     0
  3
Border (2x) ____  ____  .  ____
 72
    65
 73
     6
 40
3.5
 49
1.0
 74
     0
 49
-0.5
 74
     0
 49
1.0
 74
     0
 49
-0.5
 74
     0
 49
0.0
 74
     0
 49
-0.5
 74
     0
  0
LTYPE
  5
28
100
AcDbSymbolTableRecord
100
AcDbLinetypeTableRecord
  2
CENTER2
 70
     0
  3
Center (.5x) ___ _ ___ _ ___ _ 
 72
    65
 73
     4
 40
1.125
 49
0.7500000000000001
 74
     0
 49
-0.125
 74
     0
 49
0.125
 74
     0
 49
-0.125
 74
     0
  0
LTYPE
  5
29
100
AcDbSymbolTableRecord
100
AcDbLinetypeTableRecord
  2
CENTERX2
 70
     0
  3
Center (2x) ________  __  _____
 72
    65
 73
     4
 40
4.0
 49
2.5
 74
     0
 49
-0.5
 74
     0
 49
0.5
 74
     0
 49
-0.5
 74
     0
  0
LTYPE
  5
2A
100
AcDbSymbolTableRecord
100
AcDbLinetypeTableRecord
  2
DASHDOT2
 70
     0
  3
Dash dot (.5x) _._._._._._._._.
 72
    65
 73
     4
 40
0.5
 49
0.25
 74
     0
 49
-0.125
 74
     0
 49
0.0
 74
     0
 49
-0.125
 74
     0
  0
LTYPE
  5
2B
100
AcDbSymbolTableRecord
100
AcDbLinetypeTableRecord
  2
DASHDOTX2
 70
     0
  3
Dash dot (2x) ____  .  ____  . 
 72
    65
 73
     4
 40
2.0
 49
1.0
 74
     0
 49
-0.5
 74
     0
 49
0.0
 74
     0
 49
-0.5
 74
     0
  0
LTYPE
  5
2C
100
AcDbSymbolTableRecord
100
AcDbLinetypeTableRecord
  2
DASHED2
 70
     0
  3
Dashed (.5x) _ _ _ _ _ _ _ _ _ 
 72
    65
 73
     2
 40
0.375
 49
0.25
 74
     0
 49
-0.125
 74
     0
  0
LTYPE
  5
2D
100
AcDbSymbolTableRecord
100
AcDbLinetypeTableRecord
  2
DASHEDX2
 70
     0
  3
Dashed (2x) ____  ____  ____  _
 72
    65
 73
     2
 40
1.5
 49
1.0
 74
     0
 49
-0.5
 74
     0
  0
LTYPE
  5
2E
100
AcDbSymbolTableRecord
100
AcDbLinetypeTableRecord
  2
DIVIDE2
 70
     0
  3
Divide (.5x) __..__..__..__..__
 72
    65
 73
     6
 40
0.625
 49
0.25
 74
     0
 49
-0.125
 74
     0
 49
0.0
 74
     0
 49
-0.125
 74
     0
 49
0.0
 74
     0
 49
-0.125
 74
     0
  0
LTYPE
  5
2F
100
AcDbSymbolTableRecord
100
AcDbLinetypeTableRecord
  2
DIVIDEX2
 70
     0
  3
Divide (2x) ________  .  .  ___
 72
    65
 73
     6
 40
2.5
 49
1.0
 74
     0
 49
-0.5
 74
     0
 49
0.0
 74
     0
 49
-0.5
 74
     0
 49
0.0
 74
     0
 49
-0.5
 74
     0
  0
LTYPE
  5
30
100
AcDbSymbolTableRecord
100
AcDbLinetypeTableRecord
  2
DOT2
 70
     0
  3
Dot (.5x) .....................
 72
    65
 73
     2
 40
0.125
 49
0.0
 74
     0
 49
-0.125
 74
     0
  0
LTYPE
  5
31
100
AcDbSymbolTableRecord
100
AcDbLinetypeTableRecord
  2
DOTX2
 70
     0
  3
Dot (2x) .  .  .  .  .  .  .  .
 72
    65
 73
     2
 40
0.5
 49
0.0
 74
     0
 49
-0.5
 74
     0
  0
LTYPE
  5
32
100
AcDbSymbolTableRecord
100
AcDbLinetypeTableRecord
  2
HIDDEN2
 70
     0
  3
Hidden (.5x) _ _ _ _ _ _ _ _ _ 
 72
    65
 73
     2
 40
0.1875
 49
0.125
 74
     0
 49
-0.0625
 74
     0
  0
LTYPE
  5
33
100
AcDbSymbolTableRecord
100
AcDbLinetypeTableRecord
  2
HIDDENX2
 70
     0
  3
Hidden (2x) ____ ____ ____ ____
 72
    65
 73
     2
 40
0.75
 49
0.5
 74
     0
 49
-0.25
 74
     0
  0
LTYPE
  5
34
100
AcDbSymbolTableRecord
100
AcDbLinetypeTableRecord
  2
PHANTOM2
 70
     0
  3
Phantom (.5x) ___ _ _ ___ _ _ _
 72
    65
 73
     6
 40
1.25
 49
0.6250000000000001
 74
     0
 49
-0.125
 74
     0
 49
0.125
 74
     0
 49
-0.125
 74
     0
 49
0.125
 74
     0
 49
-0.125
 74
     0
  0
LTYPE
  5
35
100
AcDbSymbolTableRecord
100
AcDbLinetypeTableRecord
  2
PHANTOMX2
 70
     0
  3
Phantom (2x) ____________    __
 72
    65
 73
     6
 40
5.0
 49
2.5
 74
     0
 49
-0.5
 74
     0
 49
0.5
 74
     0
 49
-0.5
 74
     0
 49
0.5
 74
     0
 49
-0.5
 74
     0
  0
LTYPE
  5
36
100
AcDbSymbolTableRecord
100
AcDbLinetypeTableRecord
  2
DOTS
 70
     0
  3
Dots - - - - - - - - - - - - - 
 72
    65
 73
     2
 40
0.1
 49
0.05
 74
     0
 49
-0.05
 74
     0
  0
LTYPE
  5
37
100
AcDbSymbolTableRecord
100
AcDbLinetypeTableRecord
  2
ACAD_ISO02W100
 70
     0
  3
__ __ __ __ __ __ __ __ __ __ _
 72
    65
 73
     2
 40
15.0
 49
12.0
 74
     0
 49
-3.0
 74
     0
  0
LTYPE
  5
38
100
AcDbSymbolTableRecord
100
AcDbLinetypeTableRecord
  2
ACAD_ISO03W100
 70
     0
  3
__    __    __    __    __    _
 72
    65
 73
     2
 40
30.0
 49
12.0
 74
     0
 49
-18.0
 74
     0
  0
LTYPE
  5
39
100
AcDbSymbolTableRecord
100
AcDbLinetypeTableRecord
  2
ACAD_ISO04W100
 70
     0
  3
____ . ____ . ____ . ____ . ___
 72
    65
 73
     4
 40
30.5
 49
24.0
 74
     0
 49
-3.0
 74
     0
 49
0.5
 74
     0
 49
-3.0
 74
     0
  0
LTYPE
  5
3A
100
AcDbSymbolTableRecord
100
AcDbLinetypeTableRecord
  2
ACAD_ISO05W100
 70
     0
  3
____ .. ____ .. ____ .. ____ ..
 72
    65
 73
     6
 40
34.0
 49
24.0
 74
     0
 49
-3.0
 74
     0
 49
0.5
 74
     0
 49
-3.0
 74
     0
 49
0.5
 74
     0
 49
-3.0
 74
     0
  0
LTYPE
  5
3B
100
AcDbSymbolTableRecord
100
AcDbLinetypeTableRecord
  2
ACAD_ISO06W100
 70
     0
  3
____ ... ____ ... ____ ... ____
 72
    65
 73
     6
 40
34.0
 49
24.0
 74
     0
 49
-3.0
 74
     0
 49
0.5
 74
     0
 49
-3.0
 74
     0
 49
0.5
 74
     0
 49
-3.0
 74
     0
  0
LTYPE
  5
3C
100
AcDbSymbolTableRecord
100
AcDbLinetypeTableRecord
  2
ACAD_ISO07W100
 70
     0
  3
. . . . . . . . . . . . . . . .
 72
    65
 73
     2
 40
3.5
 49
0.5
 74
     0
 49
-3.0
 74
     0
  0
LTYPE
  5
3D
100
AcDbSymbolTableRecord
100
AcDbLinetypeTableRecord
  2
ACAD_ISO08W100
 70
     0
  3
____ __ ____ __ ____ __ ____ __
 72
    65
 73
     4
 40
36.0
 49
24.0
 74
     0
 49
-3.0
 74
     0
 49
6.0
 74
     0
 49
-3.0
 74
     0
  0
LTYPE
  5
3E
100
AcDbSymbolTableRecord
100
AcDbLinetypeTableRecord
  2
ACAD_ISO09W100
 70
     0
  3
____ __ __ ____ __ __ ____ __ _
 72
    65
 73
     6
 40
45.0
 49
24.0
 74
     0
 49
-3.0
 74
     0
 49
6.0
 74
     0
 49
-3.0
 74
     0
 49
6.0
 74
     0
 49
-3.0
 74
     0
  0
LTYPE
  5
3F
100
AcDbSymbolTableRecord
100
AcDbLinetypeTableRecord
  2
ACAD_ISO10W100
 70
     0
  3
__ . __ . __ . __ . __ . __ . _
 72
    65
 73
     4
 40
18.5
 49
12.0
 74
     0
 49
-3.0
 74
     0
 49
0.5
 74
     0
 49
-3.0
 74
     0
  0
LTYPE
  5
40
100
AcDbSymbolTableRecord
100
AcDbLinetypeTableRecord
  2
ACAD_ISO11W100
 70
     0
  3
__ __ . __ __ . __ __ . __ __ .
 72
    65
 73
     6
 40
33.5
 49
12.0
 74
     0
 49
-3.0
 74
     0
 49
12.0
 74
     0
 49
-3.0
 74
     0
 49
0.5
 74
     0
 49
-3.0
 74
     0
  0
LTYPE
  5
41
100
AcDbSymbolTableRecord
100
AcDbLinetypeTableRecord
  2
ACAD_ISO12W100
 70
     0
  3
__ . . __ . . __ . . __ . . __ 
 72
    65
 73
     6
 40
22.0
 49
12.0
 74
     0
 49
-3.0
 74
     0
 49
0.5
 74
     0
 49
-3.0
 74
     0
 49
0.5
 74
     0
 49
-3.0
 74
     0
  0
LTYPE
  5
42
100
AcDbSymbolTableRecord
100
AcDbLinetypeTableRecord
  2
ACAD_ISO13W100
 70
     0
  3
__ __ . . __ __ . . __ __ . . _
 72
    65
 73
     6
 40
33.5
 49
12.0
 74
     0
 49
-3.0
 74
     0
 49
12.0
 74
     0
 49
-3.0
 74
     0
 49
0.5
 74
     0
 49
-3.0
 74
     0
  0
LTYPE
  5
43
100
AcDbSymbolTableRecord
100
AcDbLinetypeTableRecord
  2
ACAD_ISO14W100
 70
     0
  3
__ . . . __ . . . __ . . . __ .
 72
    65
 73
     6
 40
22.0
 49
12.0
 74
     0
 49
-3.0
 74
     0
 49
0.5
 74
     0
 49
-3.0
 74
     0
 49
0.5
 74
     0
 49
-3.0
 74
     0
  0
LTYPE
  5
44
100
AcDbSymbolTableRecord
100
AcDbLinetypeTableRecord
  2
ACAD_ISO15W100
 70
     0
  3
__ __ . . . __ __ . . . __ __ .
 72
    65
 73
     6
 40
33.5
 49
12.0
 74
     0
 49
-3.0
 74
     0
 49
12.0
 74
     0
 49
-3.0
 74
     0
 49
0.5
 74
     0
 49
-3.0
 74
     0
  0
ENDTAB
  0
TABLE
  2
LAYER
  5
2
100
AcDbSymbolTable
 70
     2
  0
LAYER
  5
E
100
AcDbSymbolTableRecord
100
AcDbLayerTableRecord
  2
0
 70
     0
 62
     7
  6
CONTINUOUS
  0
LAYER
  5
45
100
AcDbSymbolTableRecord
100
AcDbLayerTableRecord
  2
1
 70
     0
 62
     7
  6
CONTINUOUS
  0
ENDTAB
  0
TABLE
  2
STYLE
  5
3
100
AcDbSymbolTable
 70
     5
  0
STYLE
  5
F
100
AcDbSymbolTableRecord
100
AcDbTextStyleTableRecord
  2
STANDARD
 70
     0
 40
0.0
 41
1.0
 50
0.0
 71
     0
 42
9.999999999999998
  3
txt
  4

  0
STYLE
  5
46
100
AcDbSymbolTableRecord
100
AcDbTextStyleTableRecord
  2
ITALIC
 70
     0
 40
0.0
 41
1.0
 50
0.0
 71
     0
 42
9.999999999999998
  3
ITALIC
  4

  0
STYLE
  5
47
100
AcDbSymbolTableRecord
100
AcDbTextStyleTableRecord
  2
SIMPLEX
 70
     0
 40
0.0
 41
1.0
 50
0.0
 71
     0
 42
9.999999999999998
  3
SIMPLEX
  4

  0
STYLE
  5
48
100
AcDbSymbolTableRecord
100
AcDbTextStyleTableRecord
  2
COMPLEX
 70
     0
 40
0.0
 41
1.0
 50
0.0
 71
     0
 42
9.999999999999998
  3
COMPLEX
  4

  0
STYLE
  5
61
100
AcDbSymbolTableRecord
100
AcDbTextStyleTableRecord
  2
ARIALB
 70
     0
 40
0.0
 41
1.0
 50
0.0
 71
     0
 42
9.999999999999998
  3
ARIALBD.TTF
  4

1001
ACAD
1000
Arial
1071
 33554432
  0
ENDTAB
  0
TABLE
  2
VIEW
  5
6
100
AcDbSymbolTable
 70
     0
  0
ENDTAB
  0
TABLE
  2
UCS
  5
7
100
AcDbSymbolTable
 70
     0
  0
ENDTAB
  0
TABLE
  2
APPID
  5
9
100
AcDbSymbolTable
 70
     1
  0
APPID
  5
10
100
AcDbSymbolTableRecord
100
AcDbRegAppTableRecord
  2
ACAD
 70
     0
  0
ENDTAB
  0
TABLE
  2
DIMSTYLE
  5
A
100
AcDbSymbolTable
 70
     1
  0
DIMSTYLE
105
1D
100
AcDbSymbolTableRecord
100
AcDbDimStyleTableRecord
  2
STANDARD
 70
     0
  3

  4

  5

  6

  7

 40
1.0
 41
0.18
 42
0.0625
 43
0.38
 44
0.18
 45
0.0
 46
0.0
 47
0.0
 48
0.0
140
0.18
141
0.09
142
0.0
143
25.4
144
1.0
145
0.0
146
1.0
147
0.09
 71
     0
 72
     0
 73
     1
 74
     1
 75
     0
 76
     0
 77
     0
 78
     0
170
     0
171
     2
172
     0
173
     0
174
     0
175
     0
176
     0
177
     0
178
     0
270
     2
271
     4
272
     4
273
     2
274
     2
340
F
275
     0
280
     0
281
     0
282
     0
283
     1
284
     0
285
     0
286
     0
287
     3
288
     0
  0
ENDTAB
  0
TABLE
  2
BLOCK_RECORD
  5
1
100
AcDbSymbolTable
 70
     0
  0
BLOCK_RECORD
  5
18
100
AcDbSymbolTableRecord
100
AcDbBlockTableRecord
  2
*MODEL_SPACE
  0
BLOCK_RECORD
  5
15
100
AcDbSymbolTableRecord
100
AcDbBlockTableRecord
  2
*PAPER_SPACE
  0
ENDTAB
  0
ENDSEC
  0
SECTION
  2
BLOCKS
  0
BLOCK
  5
19
100
AcDbEntity
  8
0
100
AcDbBlockBegin
  2
*MODEL_SPACE
 70
     0
 10
0.0
 20
0.0
 30
0.0
  3
*MODEL_SPACE
  1

  0
ENDBLK
  5
1A
100
AcDbEntity
  8
0
100
AcDbBlockEnd
  0
BLOCK
  5
16
100
AcDbEntity
 67
     1
  8
0
100
AcDbBlockBegin
  2
*PAPER_SPACE
 70
     0
 10
0.0
 20
0.0
 30
0.0
  3
*PAPER_SPACE
  1

  0
ENDBLK
  5
17
100
AcDbEntity
 67
     1
  8
0
100
AcDbBlockEnd
  0
ENDSEC
  0
SECTION
  2
ENTITIES
  0
LWPOLYLINE
  5
49
100
AcDbEntity
  8
1
  6
CONTINUOUS
 62
     7
100
AcDbPolyline
 90
        5
 70
     0
 43
0.0
 10
119.9999999999999
 20
190.0
 10
140.0
 20
190.0
 10
140.0
 20
110.0
 10
119.9999999999999
 20
110.0
 10
119.9999999999999
 20
190.0
  0
LINE
  5
4A
100
AcDbEntity
  8
1
  6
CONTINUOUS
 62
     7
100
AcDbLine
 10
119.9999999999999
 20
180.0
 30
0.0
 11
140.0
 21
180.0
 31
0.0
  0
LINE
  5
4B
100
AcDbEntity
  8
1
  6
CONTINUOUS
 62
     7
100
AcDbLine
 10
119.9999999999999
 20
170.0
 30
0.0
 11
140.0
 21
170.0
 31
0.0
  0
LINE
  5
4C
100
AcDbEntity
  8
1
  6
CONTINUOUS
 62
     7
100
AcDbLine
 10
119.9999999999999
 20
160.0
 30
0.0
 11
140.0
 21
160.0
 31
0.0
  0
LINE
  5
4D
100
AcDbEntity
  8
1
  6
CONTINUOUS
 62
     7
100
AcDbLine
 10
119.9999999999999
 20
150.0
 30
0.0
 11
140.0
 21
150.0
 31
0.0
  0
LINE
  5
4E
100
AcDbEntity
  8
1
  6
CONTINUOUS
 62
     7
100
AcDbLine
 10
119.9999999999999
 20
140.0
 30
0.0
 11
140.0
 21
140.0
 31
0.0
  0
LINE
  5
4F
100
AcDbEntity
  8
1
  6
CONTINUOUS
 62
     7
100
AcDbLine
 10
119.9999999999999
 20
130.0
 30
0.0
 11
140.0
 21
130.0
 31
0.0
  0
LINE
  5
50
100
AcDbEntity
  8
1
  6
CONTINUOUS
 62
     7
100
AcDbLine
 10
119.9999999999999
 20
119.9999999999999
 30
0.0
 11
140.0
 21
119.9999999999999
 31
0.0
  0
CIRCLE
  5
51
100
AcDbEntity
  8
1
  6
CONTINUOUS
 62
     7
100
AcDbCircle
 10
125.0
 20
185.0
 30
0.0
 40
0.999999999999998
  0
CIRCLE
  5
52
100
AcDbEntity
  8
1
  6
CONTINUOUS
 62
     7
100
AcDbCircle
 10
135.0
 20
185.0
 30
0.0
 40
1.000000000000009
  0
CIRCLE
  5
53
100
AcDbEntity
  8
1
  6
CONTINUOUS
 62
     7
100
AcDbCircle
 10
135.0
 20
175.0
 30
0.0
 40
1.000000000000009
  0
CIRCLE
  5
54
100
AcDbEntity
  8
1
  6
CONTINUOUS
 62
     7
100
AcDbCircle
 10
125.0
 20
175.0
 30
0.0
 40
1.000000000000009
  0
CIRCLE
  5
55
100
AcDbEntity
  8
1
  6
CONTINUOUS
 62
     7
100
AcDbCircle
 10
125.0
 20
165.0
 30
0.0
 40
1.000000000000009
  0
CIRCLE
  5
56
100
AcDbEntity
  8
1
  6
CONTINUOUS
 62
     7
100
AcDbCircle
 10
135.0
 20
165.0
 30
0.0
 40
1.000000000000009
  0
CIRCLE
  5
57
100
AcDbEntity
  8
1
  6
CONTINUOUS
 62
     7
100
AcDbCircle
 10
125.0
 20
155.0
 30
0.0
 40
1.000000000000009
  0
CIRCLE
  5
58
100
AcDbEntity
  8
1
  6
CONTINUOUS
 62
     7
100
AcDbCircle
 10
135.0
 20
155.0
 30
0.0
 40
1.000000000000009
  0
CIRCLE
  5
59
100
AcDbEntity
  8
1
  6
CONTINUOUS
 62
     7
100
AcDbCircle
 10
135.0
 20
145.0
 30
0.0
 40
1.000000000000009
  0
CIRCLE
  5
5A
100
AcDbEntity
  8
1
  6
CONTINUOUS
 62
     7
100
AcDbCircle
 10
125.0
 20
145.0
 30
0.0
 40
1.000000000000009
  0
CIRCLE
  5
5B
100
AcDbEntity
  8
1
  6
CONTINUOUS
 62
     7
100
AcDbCircle
 10
125.0
 20
135.0
 30
0.0
 40
1.000000000000009
  0
CIRCLE
  5
5C
100
AcDbEntity
  8
1
  6
CONTINUOUS
 62
     7
100
AcDbCircle
 10
135.0
 20
135.0
 30
0.0
 40
1.000000000000009
  0
CIRCLE
  5
5D
100
AcDbEntity
  8
1
  6
CONTINUOUS
 62
     7
100
AcDbCircle
 10
135.0
 20
125.0
 30
0.0
 40
1.000000000000009
  0
CIRCLE
  5
5E
100
AcDbEntity
  8
1
  6
CONTINUOUS
 62
     7
100
AcDbCircle
 10
125.0
 20
125.0
 30
0.0
 40
1.000000000000009
  0
CIRCLE
  5
5F
100
AcDbEntity
  8
1
  6
CONTINUOUS
 62
     7
100
AcDbCircle
 10
125.0
 20
115.0
 30
0.0
 40
1.000000000000009
  0
CIRCLE
  5
60
100
AcDbEntity
  8
1
  6
CONTINUOUS
 62
     7
100
AcDbCircle
 10
135.0
 20
115.0
 30
0.0
 40
1.000000000000009
  0
TEXT
  5
62
100
AcDbEntity
  8
1
  6
CONTINUOUS
 62
     7
100
AcDbText
 10
127.0
 20
183.0
 30
0.0
 40
1.5
  1
1
  7
ARIALB
100
AcDbText
  0
TEXT
  5
63
100
AcDbEntity
  8
1
  6
CONTINUOUS
 62
     7
100
AcDbText
 10
137.0
 20
183.0
 30
0.0
 40
1.5
  1
2
  7
ARIALB
100
AcDbText
  0
TEXT
  5
64
100
AcDbEntity
  8
1
  6
CONTINUOUS
 62
     7
100
AcDbText
 10
127.0
 20
172.9999999999999
 30
0.0
 40
1.5
  1
1
  7
ARIALB
100
AcDbText
  0
TEXT
  5
65
100
AcDbEntity
  8
1
  6
CONTINUOUS
 62
     7
100
AcDbText
 10
137.0
 20
172.9999999999999
 30
0.0
 40
1.5
  1
2
  7
ARIALB
100
AcDbText
  0
TEXT
  5
66
100
AcDbEntity
  8
1
  6
CONTINUOUS
 62
     7
100
AcDbText
 10
127.0
 20
162.0
 30
0.0
 40
1.5
  1
1
  7
ARIALB
100
AcDbText
  0
TEXT
  5
67
100
AcDbEntity
  8
1
  6
CONTINUOUS
 62
     7
100
AcDbText
 10
137.0
 20
162.0
 30
0.0
 40
1.5
  1
2
  7
ARIALB
100
AcDbText
  0
TEXT
  5
68
100
AcDbEntity
  8
1
  6
CONTINUOUS
 62
     7
100
AcDbText
 10
137.0
 20
152.0
 30
0.0
 40
1.5
  1
2
  7
ARIALB
100
AcDbText
  0
TEXT
  5
69
100
AcDbEntity
  8
1
  6
CONTINUOUS
 62
     7
100
AcDbText
 10
127.0
 20
152.0
 30
0.0
 40
1.5
  1
1
  7
ARIALB
100
AcDbText
  0
TEXT
  5
6A
100
AcDbEntity
  8
1
  6
CONTINUOUS
 62
     7
100
AcDbText
 10
127.0
 20
141.9999999999999
 30
0.0
 40
1.5
  1
1
  7
ARIALB
100
AcDbText
  0
TEXT
  5
6B
100
AcDbEntity
  8
1
  6
CONTINUOUS
 62
     7
100
AcDbText
 10
137.0
 20
141.9999999999999
 30
0.0
 40
1.5
  1
2
  7
ARIALB
100
AcDbText
  0
TEXT
  5
6C
100
AcDbEntity
  8
1
  6
CONTINUOUS
 62
     7
100
AcDbText
 10
127.0
 20
132.0
 30
0.0
 40
1.5
  1
1
  7
ARIALB
100
AcDbText
  0
TEXT
  5
6D
100
AcDbEntity
  8
1
  6
CONTINUOUS
 62
     7
100
AcDbText
 10
137.0
 20
132.0
 30
0.0
 40
1.5
  1
2
  7
ARIALB
100
AcDbText
  0
TEXT
  5
6E
100
AcDbEntity
  8
1
  6
CONTINUOUS
 62
     7
100
AcDbText
 10
128.0
 20
122.9999999999999
 30
0.0
 40
1.5
  1
1
  7
ARIALB
100
AcDbText
  0
TEXT
  5
6F
100
AcDbEntity
  8
1
  6
CONTINUOUS
 62
     7
100
AcDbText
 10
137.0
 20
122.9999999999999
 30
0.0
 40
1.5
  1
2
  7
ARIALB
100
AcDbText
  0
TEXT
  5
70
100
AcDbEntity
  8
1
  6
CONTINUOUS
 62
     7
100
AcDbText
 10
128.0
 20
113.0
 30
0.0
 40
1.5
  1
1
  7
ARIALB
100
AcDbText
  0
TEXT
  5
71
100
AcDbEntity
  8
1
  6
CONTINUOUS
 62
     7
100
AcDbText
 10
137.0
 20
113.0
 30
0.0
 40
1.5
  1
2
  7
ARIALB
100
AcDbText
  0
TEXT
  5
72
100
AcDbEntity
  8
1
  6
CONTINUOUS
 62
     7
100
AcDbText
 10
180.9999999999999
 20
21.99999999999999
 30
0.0
 40
4.999999999999999
  1
LR3 Display Card connectors
  7
ARIALB
100
AcDbText
  0
TEXT
  5
73
100
AcDbEntity
  8
1
  6
CONTINUOUS
 62
     7
100
AcDbText
 10
141.9770844763067
 20
183.4127784983478
 30
0.0
 40
1.999999999999999
  1
link for metres
  7
ARIALB
100
AcDbText
  0
TEXT
  5
74
100
AcDbEntity
  8
1
  6
CONTINUOUS
 62
     7
100
AcDbText
 10
141.6662989400338
 20
173.4676413376146
 30
0.0
 40
1.999999999999999
  1
link for feet
  7
ARIALB
100
AcDbText
  0
TEXT
  5
75
100
AcDbEntity
  8
1
  6
CONTINUOUS
 62
     7
100
AcDbText
 10
141.6662989400338
 20
163.6778969450178
 30
0.0
 40
1.999999999999999
  1
link for km
  7
ARIALB
100
AcDbText
  0
TEXT
  5
76
100
AcDbEntity
  8
1
  6
CONTINUOUS
 62
     7
100
AcDbText
 10
142.2878700125796
 20
153.888152552421
 30
0.0
 40
1.999999999999999
  1
link for metric
  7
ARIALB
100
AcDbText
  0
TEXT
  5
77
100
AcDbEntity
  8
1
  6
CONTINUOUS
 62
     7
100
AcDbText
 10
143.0648338532619
 20
139.1258395794577
 30
0.0
 40
1.999999999999999
  1
link for 500fpm FS
  7
ARIALB
100
AcDbText
  0
LINE
  5
78
100
AcDbEntity
  8
1
  6
HIDDEN
 62
     7
100
AcDbLine
 10
125.0
 20
184.9999999999999
 30
0.0
 11
135.0
 21
184.9999999999999
 31
0.0
  0
LINE
  5
79
100
AcDbEntity
  8
1
  6
HIDDEN
 62
     7
100
AcDbLine
 10
125.0
 20
175.0
 30
0.0
 11
135.0
 21
175.0
 31
0.0
  0
LINE
  5
7A
100
AcDbEntity
  8
1
  6
HIDDEN
 62
     7
100
AcDbLine
 10
125.0
 20
165.0
 30
0.0
 11
135.0
 21
165.0
 31
0.0
  0
LINE
  5
7B
100
AcDbEntity
  8
1
  6
HIDDEN
 62
     7
100
AcDbLine
 10
125.0
 20
155.0
 30
0.0
 11
135.0
 21
155.0
 31
0.0
  0
LINE
  5
7C
100
AcDbEntity
  8
1
  6
HIDDEN
 62
     7
100
AcDbLine
 10
135.0
 20
144.9999999999999
 30
0.0
 11
135.0
 21
135.0
 31
0.0
  0
LINE
  5
7D
100
AcDbEntity
  8
1
  6
CONTINUOUS
 62
     7
100
AcDbLine
 10
125.0
 20
144.9999999999999
 30
0.0
 11
125.0
 21
135.0
 31
0.0
  0
LINE
  5
7E
100
AcDbEntity
  8
1
  6
CONTINUOUS
 62
     7
100
AcDbLine
 10
125.0
 20
114.9999999999999
 30
0.0
 11
152.7138287506491
 21
120.7737143230518
 31
0.0
  0
LINE
  5
7F
100
AcDbEntity
  8
1
  6
CONTINUOUS
 62
     7
100
AcDbLine
 10
135.0
 20
114.9999999999999
 30
0.0
 11
153.3023595004017
 21
118.1687603548126
 31
0.0
  0
TEXT
  5
80
100
AcDbEntity
  8
1
  6
CONTINUOUS
 62
     7
100
AcDbText
 10
160.3531184498515
 20
109.9386355521268
 30
0.0
 40
1.999999999999999
  1
to panel meter
 50
90.00000000000005
  7
ARIALB
100
AcDbText
  0
LINE
  5
81
100
AcDbEntity
  8
1
  6
CONTINUOUS
 62
     7
100
AcDbLine
 10
220.0
 20
149.9999999999999
 30
0.0
 11
239.9999999999999
 21
149.9999999999999
 31
0.0
  0
LINE
  5
82
100
AcDbEntity
  8
1
  6
CONTINUOUS
 62
     7
100
AcDbLine
 10
220.0
 20
139.9999999999999
 30
0.0
 11
239.9999999999999
 21
139.9999999999999
 31
0.0
  0
LINE
  5
83
100
AcDbEntity
  8
1
  6
CONTINUOUS
 62
     7
100
AcDbLine
 10
220.0
 20
129.9999999999999
 30
0.0
 11
239.9999999999999
 21
129.9999999999999
 31
0.0
  0
LINE
  5
84
100
AcDbEntity
  8
1
  6
CONTINUOUS
 62
     7
100
AcDbLine
 10
220.0
 20
119.9999999999999
 30
0.0
 11
239.9999999999999
 21
119.9999999999999
 31
0.0
  0
LINE
  5
85
100
AcDbEntity
  8
1
  6
CONTINUOUS
 62
     7
100
AcDbLine
 10
220.0
 20
109.9999999999999
 30
0.0
 11
239.9999999999999
 21
109.9999999999999
 31
0.0
  0
CIRCLE
  5
86
100
AcDbEntity
  8
1
  6
CONTINUOUS
 62
     7
100
AcDbCircle
 10
225.0
 20
154.9999999999999
 30
0.0
 40
0.999999999999998
  0
CIRCLE
  5
87
100
AcDbEntity
  8
1
  6
CONTINUOUS
 62
     7
100
AcDbCircle
 10
235.0
 20
154.9999999999999
 30
0.0
 40
1.000000000000009
  0
CIRCLE
  5
88
100
AcDbEntity
  8
1
  6
CONTINUOUS
 62
     7
100
AcDbCircle
 10
235.0
 20
144.9999999999999
 30
0.0
 40
1.000000000000009
  0
CIRCLE
  5
89
100
AcDbEntity
  8
1
  6
CONTINUOUS
 62
     7
100
AcDbCircle
 10
225.0
 20
144.9999999999999
 30
0.0
 40
1.000000000000009
  0
CIRCLE
  5
8A
100
AcDbEntity
  8
1
  6
CONTINUOUS
 62
     7
100
AcDbCircle
 10
225.0
 20
134.9999999999999
 30
0.0
 40
1.000000000000009
  0
CIRCLE
  5
8B
100
AcDbEntity
  8
1
  6
CONTINUOUS
 62
     7
100
AcDbCircle
 10
235.0
 20
134.9999999999999
 30
0.0
 40
1.000000000000009
  0
CIRCLE
  5
8C
100
AcDbEntity
  8
1
  6
CONTINUOUS
 62
     7
100
AcDbCircle
 10
225.0
 20
124.9999999999999
 30
0.0
 40
1.000000000000009
  0
CIRCLE
  5
8D
100
AcDbEntity
  8
1
  6
CONTINUOUS
 62
     7
100
AcDbCircle
 10
235.0
 20
124.9999999999999
 30
0.0
 40
1.000000000000009
  0
CIRCLE
  5
8E
100
AcDbEntity
  8
1
  6
CONTINUOUS
 62
     7
100
AcDbCircle
 10
235.0
 20
114.9999999999999
 30
0.0
 40
1.000000000000009
  0
CIRCLE
  5
8F
100
AcDbEntity
  8
1
  6
CONTINUOUS
 62
     7
100
AcDbCircle
 10
225.0
 20
114.9999999999999
 30
0.0
 40
1.000000000000009
  0
TEXT
  5
90
100
AcDbEntity
  8
1
  6
CONTINUOUS
 62
     7
100
AcDbText
 10
227.0
 20
152.9999999999999
 30
0.0
 40
1.5
  1
1
  7
ARIALB
100
AcDbText
  0
TEXT
  5
91
100
AcDbEntity
  8
1
  6
CONTINUOUS
 62
     7
100
AcDbText
 10
237.0
 20
152.9999999999999
 30
0.0
 40
1.5
  1
2
  7
ARIALB
100
AcDbText
  0
TEXT
  5
92
100
AcDbEntity
  8
1
  6
CONTINUOUS
 62
     7
100
AcDbText
 10
227.0
 20
142.9999999999999
 30
0.0
 40
1.5
  1
1
  7
ARIALB
100
AcDbText
  0
TEXT
  5
93
100
AcDbEntity
  8
1
  6
CONTINUOUS
 62
     7
100
AcDbText
 10
237.0
 20
142.9999999999999
 30
0.0
 40
1.5
  1
2
  7
ARIALB
100
AcDbText
  0
TEXT
  5
94
100
AcDbEntity
  8
1
  6
CONTINUOUS
 62
     7
100
AcDbText
 10
227.0
 20
131.9999999999999
 30
0.0
 40
1.5
  1
1
  7
ARIALB
100
AcDbText
  0
TEXT
  5
95
100
AcDbEntity
  8
1
  6
CONTINUOUS
 62
     7
100
AcDbText
 10
237.0
 20
131.9999999999999
 30
0.0
 40
1.5
  1
2
  7
ARIALB
100
AcDbText
  0
TEXT
  5
96
100
AcDbEntity
  8
1
  6
CONTINUOUS
 62
     7
100
AcDbText
 10
237.0
 20
121.9999999999999
 30
0.0
 40
1.5
  1
2
  7
ARIALB
100
AcDbText
  0
TEXT
  5
97
100
AcDbEntity
  8
1
  6
CONTINUOUS
 62
     7
100
AcDbText
 10
227.0
 20
121.9999999999999
 30
0.0
 40
1.5
  1
1
  7
ARIALB
100
AcDbText
  0
TEXT
  5
98
100
AcDbEntity
  8
1
  6
CONTINUOUS
 62
     7
100
AcDbText
 10
227.0
 20
111.9999999999999
 30
0.0
 40
1.5
  1
1
  7
ARIALB
100
AcDbText
  0
TEXT
  5
99
100
AcDbEntity
  8
1
  6
CONTINUOUS
 62
     7
100
AcDbText
 10
237.0
 20
111.9999999999999
 30
0.0
 40
1.5
  1
2
  7
ARIALB
100
AcDbText
  0
LINE
  5
9A
100
AcDbEntity
  8
1
  6
CONTINUOUS
 62
     7
100
AcDbLine
 10
220.0
 20
79.99999999999999
 30
0.0
 11
239.9999999999999
 21
79.99999999999999
 31
0.0
  0
LINE
  5
9B
100
AcDbEntity
  8
1
  6
CONTINUOUS
 62
     7
100
AcDbLine
 10
220.0
 20
69.99999999999999
 30
0.0
 11
239.9999999999999
 21
69.99999999999999
 31
0.0
  0
LINE
  5
9C
100
AcDbEntity
  8
1
  6
CONTINUOUS
 62
     7
100
AcDbLine
 10
220.0
 20
59.99999999999998
 30
0.0
 11
239.9999999999999
 21
59.99999999999998
 31
0.0
  0
LINE
  5
9D
100
AcDbEntity
  8
1
  6
CONTINUOUS
 62
     7
100
AcDbLine
 10
220.0
 20
49.99999999999998
 30
0.0
 11
239.9999999999999
 21
49.99999999999998
 31
0.0
  0
LINE
  5
9E
100
AcDbEntity
  8
1
  6
CONTINUOUS
 62
     7
100
AcDbLine
 10
220.0
 20
39.99999999999997
 30
0.0
 11
239.9999999999999
 21
39.99999999999997
 31
0.0
  0
CIRCLE
  5
9F
100
AcDbEntity
  8
1
  6
CONTINUOUS
 62
     7
100
AcDbCircle
 10
225.0
 20
84.99999999999998
 30
0.0
 40
0.999999999999998
  0
CIRCLE
  5
A0
100
AcDbEntity
  8
1
  6
CONTINUOUS
 62
     7
100
AcDbCircle
 10
235.0
 20
84.99999999999998
 30
0.0
 40
1.000000000000009
  0
CIRCLE
  5
A1
100
AcDbEntity
  8
1
  6
CONTINUOUS
 62
     7
100
AcDbCircle
 10
225.0
 20
74.99999999999997
 30
0.0
 40
1.000000000000009
  0
CIRCLE
  5
A2
100
AcDbEntity
  8
1
  6
CONTINUOUS
 62
     7
100
AcDbCircle
 10
225.0
 20
64.99999999999997
 30
0.0
 40
1.000000000000009
  0
CIRCLE
  5
A3
100
AcDbEntity
  8
1
  6
CONTINUOUS
 62
     7
100
AcDbCircle
 10
235.0
 20
64.99999999999997
 30
0.0
 40
1.000000000000009
  0
CIRCLE
  5
A4
100
AcDbEntity
  8
1
  6
CONTINUOUS
 62
     7
100
AcDbCircle
 10
225.0
 20
55.0
 30
0.0
 40
1.000000000000009
  0
CIRCLE
  5
A5
100
AcDbEntity
  8
1
  6
CONTINUOUS
 62
     7
100
AcDbCircle
 10
235.0
 20
55.0
 30
0.0
 40
1.000000000000009
  0
CIRCLE
  5
A6
100
AcDbEntity
  8
1
  6
CONTINUOUS
 62
     7
100
AcDbCircle
 10
235.0
 20
44.99999999999999
 30
0.0
 40
1.000000000000009
  0
CIRCLE
  5
A7
100
AcDbEntity
  8
1
  6
CONTINUOUS
 62
     7
100
AcDbCircle
 10
225.0
 20
44.99999999999999
 30
0.0
 40
1.000000000000009
  0
TEXT
  5
A8
100
AcDbEntity
  8
1
  6
CONTINUOUS
 62
     7
100
AcDbText
 10
227.0
 20
82.99999999999998
 30
0.0
 40
1.5
  1
1
  7
ARIALB
100
AcDbText
  0
TEXT
  5
A9
100
AcDbEntity
  8
1
  6
CONTINUOUS
 62
     7
100
AcDbText
 10
237.0
 20
82.99999999999998
 30
0.0
 40
1.5
  1
2
  7
ARIALB
100
AcDbText
  0
TEXT
  5
AA
100
AcDbEntity
  8
1
  6
CONTINUOUS
 62
     7
100
AcDbText
 10
227.0
 20
72.99999999999998
 30
0.0
 40
1.5
  1
1
  7
ARIALB
100
AcDbText
  0
TEXT
  5
AB
100
AcDbEntity
  8
1
  6
CONTINUOUS
 62
     7
100
AcDbText
 10
227.0
 20
61.99999999999998
 30
0.0
 40
1.5
  1
1
  7
ARIALB
100
AcDbText
  0
TEXT
  5
AC
100
AcDbEntity
  8
1
  6
CONTINUOUS
 62
     7
100
AcDbText
 10
237.0
 20
61.99999999999998
 30
0.0
 40
1.5
  1
2
  7
ARIALB
100
AcDbText
  0
TEXT
  5
AD
100
AcDbEntity
  8
1
  6
CONTINUOUS
 62
     7
100
AcDbText
 10
237.0
 20
51.99999999999997
 30
0.0
 40
1.5
  1
2
  7
ARIALB
100
AcDbText
  0
TEXT
  5
AE
100
AcDbEntity
  8
1
  6
CONTINUOUS
 62
     7
100
AcDbText
 10
227.0
 20
51.99999999999997
 30
0.0
 40
1.5
  1
1
  7
ARIALB
100
AcDbText
  0
TEXT
  5
AF
100
AcDbEntity
  8
1
  6
CONTINUOUS
 62
     7
100
AcDbText
 10
227.0
 20
41.99999999999999
 30
0.0
 40
1.5
  1
1
  7
ARIALB
100
AcDbText
  0
TEXT
  5
B0
100
AcDbEntity
  8
1
  6
CONTINUOUS
 62
     7
100
AcDbText
 10
237.0
 20
41.99999999999999
 30
0.0
 40
1.5
  1
2
  7
ARIALB
100
AcDbText
  0
LWPOLYLINE
  5
B1
100
AcDbEntity
  8
1
  6
CONTINUOUS
 62
     7
100
AcDbPolyline
 90
        3
 70
     0
 43
0.0
 10
220.0
 20
159.9999999999999
 10
239.9999999999999
 20
159.9999999999999
 10
239.9999999999999
 20
110.0
  0
LWPOLYLINE
  5
B2
100
AcDbEntity
  8
1
  6
CONTINUOUS
 62
     7
100
AcDbPolyline
 90
        2
 70
     0
 43
0.0
 10
220.0
 20
159.9999999999999
 10
220.0
 20
110.0
  0
LWPOLYLINE
  5
B3
100
AcDbEntity
  8
1
  6
CONTINUOUS
 62
     7
100
AcDbPolyline
 90
        3
 70
     0
 43
0.0
 10
220.0
 20
100.0
 10
239.9999999999999
 20
100.0
 10
239.9999999999999
 20
39.99999999999999
  0
LWPOLYLINE
  5
B4
100
AcDbEntity
  8
1
  6
CONTINUOUS
 62
     7
100
AcDbPolyline
 90
        2
 70
     0
 43
0.0
 10
220.0
 20
39.99999999999999
 10
220.0
 20
100.0
  0
LINE
  5
B5
100
AcDbEntity
  8
1
  6
CONTINUOUS
 62
     7
100
AcDbLine
 10
220.0
 20
90.0
 30
0.0
 11
239.9999999999999
 21
90.0
 31
0.0
  0
CIRCLE
  5
B6
100
AcDbEntity
  8
1
  6
CONTINUOUS
 62
     7
100
AcDbCircle
 10
225.0
 20
95.0
 30
0.0
 40
0.999999999999998
  0
CIRCLE
  5
B7
100
AcDbEntity
  8
1
  6
CONTINUOUS
 62
     7
100
AcDbCircle
 10
234.9999999999999
 20
95.0
 30
0.0
 40
0.999999999999998
  0
TEXT
  5
B8
100
AcDbEntity
  8
1
  6
CONTINUOUS
 62
     7
100
AcDbText
 10
95.0
 20
139.0
 30
0.0
 40
1.999999999999999
  1
link for 1000fpm FS
  7
ARIALB
100
AcDbText
  0
TEXT
  5
B9
100
AcDbEntity
  8
1
  6
CONTINUOUS
 62
     7
100
AcDbText
 10
154.8118884597438
 20
116.9386355521268
 30
0.0
 40
1.999999999999999
  1
+
  7
ARIALB
100
AcDbText
  0
TEXT
  5
BA
100
AcDbEntity
  8
1
  6
CONTINUOUS
 62
     7
100
AcDbText
 10
154.2243622591503
 20
120.7032232522257
 30
0.0
 40
1.999999999999999
  1
-
  7
ARIALB
100
AcDbText
  0
TEXT
  5
BB
100
AcDbEntity
  8
1
  6
CONTINUOUS
 62
     7
100
AcDbText
 10
242.9999999999999
 20
154.0
 30
0.0
 40
1.999999999999999
  1
Batt +ve 9V
  7
ARIALB
100
AcDbText
  0
TEXT
  5
BC
100
AcDbEntity
  8
1
  6
CONTINUOUS
 62
     7
100
AcDbText
 10
242.9999999999999
 20
142.9999999999999
 30
0.0
 40
1.999999999999999
  1
+3.55V (sig gnd)
  7
ARIALB
100
AcDbText
  0
TEXT
  5
BD
100
AcDbEntity
  8
1
  6
CONTINUOUS
 62
     7
100
AcDbText
 10
241.9999999999999
 20
133.9999999999999
 30
0.0
 40
1.999999999999999
  1
Batt -ve
  7
ARIALB
100
AcDbText
  0
TEXT
  5
BE
100
AcDbEntity
  8
1
  6
CONTINUOUS
 62
     7
100
AcDbText
 10
242.9999999999999
 20
123.9999999999999
 30
0.0
 40
1.999999999999999
  1
Lineariser o/p
  7
ARIALB
100
AcDbText
  0
TEXT
  5
BF
100
AcDbEntity
  8
1
  6
CONTINUOUS
 62
     7
100
AcDbText
 10
242.9999999999999
 20
114.0
 30
0.0
 40
1.999999999999999
  1
+7.1V
  7
ARIALB
100
AcDbText
  0
TEXT
  5
C0
100
AcDbEntity
  8
1
  6
CONTINUOUS
 62
     7
100
AcDbText
 10
209.9999999999999
 20
114.0
 30
0.0
 40
1.999999999999999
  1
+7.1V
  7
ARIALB
100
AcDbText
  0
TEXT
  5
C1
100
AcDbEntity
  8
1
  6
CONTINUOUS
 62
     7
100
AcDbText
 10
207.9999999999999
 20
132.9999999999999
 30
0.0
 40
1.999999999999999
  1
Batt -ve
  7
ARIALB
100
AcDbText
  0
TEXT
  5
C2
100
AcDbEntity
  8
1
  6
CONTINUOUS
 62
     7
100
AcDbText
 10
197.9999999999999
 20
154.0
 30
0.0
 40
1.999999999999999
  1
+3.55V (sig gnd)
  7
ARIALB
100
AcDbText
  0
TEXT
  5
C3
100
AcDbEntity
  8
1
  6
CONTINUOUS
 62
     7
100
AcDbText
 10
203.0
 20
143.9999999999999
 30
0.0
 40
1.999999999999999
  1
Climb signal
  7
ARIALB
100
AcDbText
  0
LINE
  5
C4
100
AcDbEntity
  8
1
  6
HIDDEN
 62
     7
100
AcDbLine
 10
220.0
 20
110.0
 30
0.0
 11
220.0
 21
100.0
 31
0.0
  0
LINE
  5
C5
100
AcDbEntity
  8
1
  6
HIDDEN
 62
     7
100
AcDbLine
 10
239.9999999999999
 20
110.0
 30
0.0
 11
239.9999999999999
 21
100.0
 31
0.0
  0
LINE
  5
C6
100
AcDbEntity
  8
1
  6
HIDDEN
 62
     7
100
AcDbLine
 10
225.0
 20
95.0
 30
0.0
 11
234.9999999999999
 21
95.0
 31
0.0
  0
TEXT
  5
C7
100
AcDbEntity
  8
1
  6
CONTINUOUS
 62
     7
100
AcDbText
 10
242.9999999999999
 20
94.0
 30
0.0
 40
1.999999999999999
  1
link for metric averager
  7
ARIALB
100
AcDbText
  0
MTEXT
  5
C8
100
AcDbEntity
  8
1
  6
CONTINUOUS
 62
     7
100
AcDbMText
 10
160.2247722678843
 20
72.15521082699135
 30
0.0
 40
1.999999999999999
 41
0.0
 71
     7
 72
     1
  1
altimeter \Pzero \Ppot
  7
ARIALB
  0
LINE
  5
C9
100
AcDbEntity
  8
1
  6
CONTINUOUS
 62
     7
100
AcDbLine
 10
225.0
 20
75.0
 30
0.0
 11
225.0
 21
65.0
 31
0.0
  0
TEXT
  5
CA
100
AcDbEntity
  8
1
  6
CONTINUOUS
 62
     7
100
AcDbText
 10
242.9999999999999
 20
63.99999999999999
 30
0.0
 40
1.999999999999999
  1
lineariser o/p
  7
ARIALB
100
AcDbText
  0
TEXT
  5
CB
100
AcDbEntity
  8
1
  6
CONTINUOUS
 62
     7
100
AcDbText
 10
242.9999999999999
 20
45.99999999999999
 30
0.0
 40
1.999999999999999
  1
mB offset
  7
ARIALB
100
AcDbText
  0
TEXT
  5
CC
100
AcDbEntity
  8
1
  6
CONTINUOUS
 62
     7
100
AcDbText
 10
218.9999999999999
 20
33.0
 30
0.0
 40
1.999999999999999
  1
altitude / mB switch
  7
ARIALB
100
AcDbText
  0
TEXT
  5
CD
100
AcDbEntity
  8
1
  6
CONTINUOUS
 62
     7
100
AcDbText
 10
191.0
 20
51.99999999999999
 30
0.0
 40
1.999999999999999
  1
alti DVM i/p -ve
  7
ARIALB
100
AcDbText
  0
TEXT
  5
CE
100
AcDbEntity
  8
1
  6
CONTINUOUS
 62
     7
100
AcDbText
 10
191.0
 20
63.99999999999999
 30
0.0
 40
1.999999999999999
  1
alti zero
  7
ARIALB
100
AcDbText
  0
TEXT
  5
CF
100
AcDbEntity
  8
1
  6
CONTINUOUS
 62
     7
100
AcDbText
 10
242.9999999999999
 20
52.99999999999998
 30
0.0
 40
1.999999999999999
  1
alti DVM i/p +ve
  7
ARIALB
100
AcDbText
  0
CIRCLE
  5
D0
100
AcDbEntity
  8
1
  6
CONTINUOUS
 62
     7
100
AcDbCircle
 10
280.0
 20
50.0
 30
0.0
 40
0.999999999999998
  0
CIRCLE
  5
D1
100
AcDbEntity
  8
1
  6
CONTINUOUS
 62
     7
100
AcDbCircle
 10
280.0
 20
42.99999999999999
 30
0.0
 40
0.999999999999998
  0
CIRCLE
  5
D2
100
AcDbEntity
  8
1
  6
CONTINUOUS
 62
     7
100
AcDbCircle
 10
274.0
 20
45.99999999999999
 30
0.0
 40
0.999999999999998
  0
CIRCLE
  5
D3
100
AcDbEntity
  8
1
  6
CONTINUOUS
 62
     7
100
AcDbCircle
 10
177.0
 20
60.0
 30
0.0
 40
0.999999999999998
  0
CIRCLE
  5
D4
100
AcDbEntity
  8
1
  6
CONTINUOUS
 62
     7
100
AcDbCircle
 10
185.0
 20
56.0
 30
0.0
 40
0.999999999999998
  0
CIRCLE
  5
D5
100
AcDbEntity
  8
1
  6
CONTINUOUS
 62
     7
100
AcDbCircle
 10
177.0
 20
51.99999999999999
 30
0.0
 40
0.999999999999998
  0
LINE
  5
D6
100
AcDbEntity
  8
1
  6
CONTINUOUS
 62
     7
100
AcDbLine
 10
225.0
 20
65.0
 30
0.0
 11
178.0
 21
60.0
 31
0.0
  0
LINE
  5
D7
100
AcDbEntity
  8
1
  6
CONTINUOUS
 62
     7
100
AcDbLine
 10
183.9999999999999
 20
56.0
 30
0.0
 11
178.0
 21
56.0
 31
0.0
  0
LINE
  5
D8
100
AcDbEntity
  8
1
  6
CONTINUOUS
 62
     7
100
AcDbLine
 10
275.0
 20
45.99999999999999
 30
0.0
 11
281.0
 21
45.99999999999999
 31
0.0
  0
LINE
  5
D9
100
AcDbEntity
  8
1
  6
CONTINUOUS
 62
     7
100
AcDbLine
 10
225.0
 20
55.0
 30
0.0
 11
186.0
 21
56.0
 31
0.0
  0
LINE
  5
DA
100
AcDbEntity
  8
1
  6
CONTINUOUS
 62
     7
100
AcDbLine
 10
225.0
 20
45.0
 30
0.0
 11
178.0
 21
51.99999999999999
 31
0.0
  0
LINE
  5
DB
100
AcDbEntity
  8
1
  6
CONTINUOUS
 62
     7
100
AcDbLine
 10
279.0
 20
50.0
 30
0.0
 11
234.9999999999999
 21
65.0
 31
0.0
  0
LINE
  5
DC
100
AcDbEntity
  8
1
  6
CONTINUOUS
 62
     7
100
AcDbLine
 10
235.9999999999999
 20
55.0
 30
0.0
 11
272.9999999999999
 21
45.99999999999999
 31
0.0
  0
LINE
  5
DD
100
AcDbEntity
  8
1
  6
CONTINUOUS
 62
     7
100
AcDbLine
 10
234.9999999999999
 20
45.0
 30
0.0
 11
279.0
 21
42.99999999999999
 31
0.0
  0
MTEXT
  5
DE
100
AcDbEntity
  8
1
  6
CONTINUOUS
 62
     7
100
AcDbMText
 10
34.99999999999999
 20
80.0
 30
0.0
 40
3.0
 41
0.0
 71
     7
 72
     1
  1
Display Card (Card A) component side, 7136 chips to LHS\P(LCDs are other side)
  7
ARIALB
  0
TEXT
  5
DF
100
AcDbEntity
  8
1
  6
CONTINUOUS
 62
     7
100
AcDbText
 10
142.3890021235308
 20
112.745206849315
 30
0.0
 40
1.999999999999999
  1
red
  7
ARIALB
100
AcDbText
  0
TEXT
  5
E0
100
AcDbEntity
  8
1
  6
CONTINUOUS
 62
     7
100
AcDbText
 10
142.3239539880318
 20
120.3511924073031
 30
0.0
 40
1.999999999999999
  1
black
  7
ARIALB
100
AcDbText
  0
LINE
  5
E1
100
AcDbEntity
  8
1
  6
CONTINUOUS
 62
     7
100
AcDbLine
 10
125.0
 20
184.9999999999999
 30
0.0
 11
72.99999999999998
 21
171.9999999999999
 31
0.0
  0
LINE
  5
E2
100
AcDbEntity
  8
1
  6
CONTINUOUS
 62
     7
100
AcDbLine
 10
135.0
 20
184.9999999999999
 30
0.0
 11
80.99999999999999
 21
167.9999999999999
 31
0.0
  0
LINE
  5
E3
100
AcDbEntity
  8
1
  6
CONTINUOUS
 62
     7
100
AcDbLine
 10
123.9999999999999
 20
175.0
 30
0.0
 11
84.99999999999998
 21
166.0
 31
0.0
  0
LINE
  5
E4
100
AcDbEntity
  8
1
  6
CONTINUOUS
 62
     7
100
AcDbLine
 10
125.0
 20
175.0
 30
0.0
 11
89.0
 21
163.0
 31
0.0
  0
LINE
  5
E5
100
AcDbEntity
  8
1
  6
CONTINUOUS
 62
     7
100
AcDbLine
 10
125.0
 20
165.0
 30
0.0
 11
88.0
 21
159.9999999999999
 31
0.0
  0
LINE
  5
E6
100
AcDbEntity
  8
1
  6
CONTINUOUS
 62
     7
100
AcDbLine
 10
125.0
 20
155.0
 30
0.0
 11
74.0
 21
155.9999999999999
 31
0.0
  0
LINE
  5
E7
100
AcDbEntity
  8
1
  6
CONTINUOUS
 62
     7
100
AcDbLine
 10
135.0
 20
155.9999999999999
 30
0.0
 11
72.99999999999998
 21
158.9999999999999
 31
0.0
  0
TEXT
  5
E8
100
AcDbEntity
  8
1
  6
CONTINUOUS
 62
     7
100
AcDbText
 10
36.87154999534477
 20
174.9096143083253
 30
0.0
 40
3.0
  1
to metres/feet switch
  7
ARIALB
100
AcDbText
  0
TEXT
  5
E9
100
AcDbEntity
  8
1
  6
CONTINUOUS
 62
     7
100
AcDbText
 10
44.73263571495072
 20
167.251667871441
 30
0.0
 40
1.999999999999999
  1
yellow
  7
ARIALB
100
AcDbText
  0
TEXT
  5
EA
100
AcDbEntity
  8
1
  6
CONTINUOUS
 62
     7
100
AcDbText
 10
46.90043734971367
 20
171.0308111273263
 30
0.0
 40
1.999999999999999
  1
black
  7
ARIALB
100
AcDbText
  0
TEXT
  5
EB
100
AcDbEntity
  8
1
  6
CONTINUOUS
 62
     7
100
AcDbText
 10
45.40104642757388
 20
164.460039292032
 30
0.0
 40
1.999999999999999
  1
blue
  7
ARIALB
100
AcDbText
  0
TEXT
  5
EC
100
AcDbEntity
  8
1
  6
CONTINUOUS
 62
     7
100
AcDbText
 10
45.26736428504924
 20
159.5937214345567
 30
0.0
 40
1.999999999999999
  1
green
  7
ARIALB
100
AcDbText
  0
TEXT
  5
ED
100
AcDbEntity
  8
1
  6
CONTINUOUS
 62
     7
100
AcDbText
 10
46.20313928272165
 20
157.7274035770813
 30
0.0
 40
1.999999999999999
  1
blue
  7
ARIALB
100
AcDbText
  0
TEXT
  5
EE
100
AcDbEntity
  8
1
  6
CONTINUOUS
 62
     7
100
AcDbText
 10
45.5347285700985
 20
154.6579464368842
 30
0.0
 40
1.999999999999999
  1
brown
  7
ARIALB
100
AcDbText
  0
LINE
  5
EF
100
AcDbEntity
  8
1
  6
CONTINUOUS
 62
     7
100
AcDbLine
 10
72.99999999999998
 20
171.9999999999999
 30
0.0
 11
53.99999999999999
 21
171.9999999999999
 31
0.0
  0
LINE
  5
F0
100
AcDbEntity
  8
1
  6
CONTINUOUS
 62
     7
100
AcDbLine
 10
80.99999999999999
 20
167.9999999999999
 30
0.0
 11
53.99999999999999
 21
167.9999999999999
 31
0.0
  0
LINE
  5
F1
100
AcDbEntity
  8
1
  6
CONTINUOUS
 62
     7
100
AcDbLine
 10
84.99999999999998
 20
166.0
 30
0.0
 11
53.99999999999999
 21
166.0
 31
0.0
  0
LINE
  5
F2
100
AcDbEntity
  8
1
  6
CONTINUOUS
 62
     7
100
AcDbLine
 10
89.0
 20
163.0
 30
0.0
 11
55.0
 21
163.0
 31
0.0
  0
LINE
  5
F3
100
AcDbEntity
  8
1
  6
CONTINUOUS
 62
     7
100
AcDbLine
 10
88.0
 20
159.9999999999999
 30
0.0
 11
55.0
 21
159.9999999999999
 31
0.0
  0
LINE
  5
F4
100
AcDbEntity
  8
1
  6
CONTINUOUS
 62
     7
100
AcDbLine
 10
72.99999999999998
 20
158.9999999999999
 30
0.0
 11
56.0
 21
158.9999999999999
 31
0.0
  0
LINE
  5
F5
100
AcDbEntity
  8
1
  6
CONTINUOUS
 62
     7
100
AcDbLine
 10
74.0
 20
155.9999999999999
 30
0.0
 11
56.0
 21
155.9999999999999
 31
0.0
  0
TEXT
  5
F6
100
AcDbEntity
  8
1
  6
CONTINUOUS
 62
     7
100
AcDbText
 10
45.13368214252462
 20
162.0589928644581
 30
0.0
 40
1.999999999999999
  1
red
  7
ARIALB
100
AcDbText
  0
LINE
  5
F7
100
AcDbEntity
  8
1
  6
CONTINUOUS
 62
     7
100
AcDbLine
 10
234.9999999999999
 20
155.0
 30
0.0
 11
190.0
 21
143.9999999999999
 31
0.0
  0
LINE
  5
F8
100
AcDbEntity
  8
1
  6
CONTINUOUS
 62
     7
100
AcDbLine
 10
225.0
 20
144.9999999999999
 30
0.0
 11
192.9999999999999
 21
138.0
 31
0.0
  0
LINE
  5
F9
100
AcDbEntity
  8
1
  6
CONTINUOUS
 62
     7
100
AcDbLine
 10
234.9999999999999
 20
144.9999999999999
 30
0.0
 11
195.9999999999999
 21
133.9999999999999
 31
0.0
  0
LINE
  5
FA
100
AcDbEntity
  8
1
  6
CONTINUOUS
 62
     7
100
AcDbLine
 10
234.9999999999999
 20
135.0
 30
0.0
 11
196.9999999999999
 21
129.0
 31
0.0
  0
LINE
  5
FB
100
AcDbEntity
  8
1
  6
CONTINUOUS
 62
     7
100
AcDbLine
 10
234.9999999999999
 20
125.0
 30
0.0
 11
199.0
 21
119.9999999999999
 31
0.0
  0
LINE
  5
FC
100
AcDbEntity
  8
1
  6
CONTINUOUS
 62
     7
100
AcDbLine
 10
234.9999999999999
 20
114.9999999999999
 30
0.0
 11
201.0
 21
110.0
 31
0.0
  0
TEXT
  5
FD
100
AcDbEntity
  8
1
  6
CONTINUOUS
 62
     7
100
AcDbText
 10
187.9885342283153
 20
139.5733005480903
 30
0.0
 40
1.999999999999999
  1
yellow
  7
ARIALB
100
AcDbText
  0
TEXT
  5
FE
100
AcDbEntity
  8
1
  6
CONTINUOUS
 62
     7
100
AcDbText
 10
190.5094543129299
 20
129.4631181098121
 30
0.0
 40
1.999999999999999
  1
black
  7
ARIALB
100
AcDbText
  0
TEXT
  5
FF
100
AcDbEntity
  8
1
  6
CONTINUOUS
 62
     7
100
AcDbText
 10
192.1721534468805
 20
120.7332698659048
 30
0.0
 40
1.999999999999999
  1
green
  7
ARIALB
100
AcDbText
  0
TEXT
  5
100
100
AcDbEntity
  8
1
  6
CONTINUOUS
 62
     7
100
AcDbText
 10
195.1467591807922
 20
110.9715427202603
 30
0.0
 40
1.999999999999999
  1
brown
  7
ARIALB
100
AcDbText
  0
TEXT
  5
101
100
AcDbEntity
  8
1
  6
CONTINUOUS
 62
     7
100
AcDbText
 10
190.3905852050484
 20
145.7981220863097
 30
0.0
 40
1.999999999999999
  1
red
  7
ARIALB
100
AcDbText
  0
TEXT
  5
102
100
AcDbEntity
  8
1
  6
CONTINUOUS
 62
     7
100
AcDbText
 10
190.9900263146212
 20
135.0226444925854
 30
0.0
 40
1.999999999999999
  1
white
  7
ARIALB
100
AcDbText
  0
MTEXT
  5
103
100
AcDbEntity
  8
1
  6
CONTINUOUS
 62
     7
100
AcDbMText
 10
187.2234295162041
 20
105.007576255198
 30
0.0
 40
2.0
 41
0.0
 71
     7
 72
     1
  1
to Main Card\P(connects Dispaly Card and Main Card)
  7
ARIALB
 11
-0.000000000000001
 21
1.0
 31
0.0
  0
LINE
  5
104
100
AcDbEntity
  8
1
  6
CONTINUOUS
 62
     7
100
AcDbLine
 10
234.9999999999999
 20
84.99999999999998
 30
0.0
 11
182.9999999999999
 21
75.0
 31
0.0
  0
LINE
  5
105
100
AcDbEntity
  8
1
  6
CONTINUOUS
 62
     7
100
AcDbLine
 10
225.0
 20
75.0
 30
0.0
 11
190.0
 21
71.99999999999999
 31
0.0
  0
LINE
  5
106
100
AcDbEntity
  8
1
  6
CONTINUOUS
 62
     7
100
AcDbLine
 10
225.0
 20
84.99999999999998
 30
0.0
 11
189.0
 21
80.99999999999999
 31
0.0
  0
TEXT
  5
107
100
AcDbEntity
  8
1
  6
CONTINUOUS
 62
     7
100
AcDbText
 10
175.0
 20
74.0
 30
0.0
 40
1.999999999999999
  1
black
  7
ARIALB
100
AcDbText
  0
TEXT
  5
108
100
AcDbEntity
  8
1
  6
CONTINUOUS
 62
     7
100
AcDbText
 10
180.9999999999999
 20
80.99999999999999
 30
0.0
 40
1.999999999999999
  1
red
  7
ARIALB
100
AcDbText
  0
TEXT
  5
109
100
AcDbEntity
  8
1
  6
CONTINUOUS
 62
     7
100
AcDbText
 10
180.9999999999999
 20
70.0
 30
0.0
 40
1.999999999999999
  1
yellow
  7
ARIALB
100
AcDbText
  0
TEXT
  5
10A
100
AcDbEntity
  8
1
  6
CONTINUOUS
 62
     7
100
AcDbText
 10
278.0
 20
53.99999999999999
 30
0.0
 40
1.999999999999999
  1
yellow
  7
ARIALB
100
AcDbText
  0
TEXT
  5
10B
100
AcDbEntity
  8
1
  6
CONTINUOUS
 62
     7
100
AcDbText
 10
283.0
 20
45.0
 30
0.0
 40
1.999999999999999
  1
black
  7
ARIALB
100
AcDbText
  0
TEXT
  5
10C
100
AcDbEntity
  8
1
  6
CONTINUOUS
 62
     7
100
AcDbText
 10
281.9999999999999
 20
38.99999999999999
 30
0.0
 40
1.999999999999999
  1
blue
  7
ARIALB
100
AcDbText
  0
TEXT
  5
10D
100
AcDbEntity
  8
1
  6
CONTINUOUS
 62
     7
100
AcDbText
 10
164.0
 20
60.0
 30
0.0
 40
1.999999999999999
  1
white
  7
ARIALB
100
AcDbText
  0
TEXT
  5
10E
100
AcDbEntity
  8
1
  6
CONTINUOUS
 62
     7
100
AcDbText
 10
166.9999999999999
 20
56.0
 30
0.0
 40
1.999999999999999
  1
red
  7
ARIALB
100
AcDbText
  0
TEXT
  5
10F
100
AcDbEntity
  8
1
  6
CONTINUOUS
 62
     7
100
AcDbText
 10
166.0
 20
51.0
 30
0.0
 40
1.999999999999999
  1
brown
  7
ARIALB
100
AcDbText
  0
TEXT
  5
110
100
AcDbEntity
  8
1
  6
CONTINUOUS
 62
     7
100
AcDbText
 10
166.9999999999999
 20
46.0
 30
0.0
 40
1.999999999999999
  1
top of switch
  7
ARIALB
100
AcDbText
  0
TEXT
  5
111
100
AcDbEntity
  8
1
  6
CONTINUOUS
 62
     7
100
AcDbText
 10
262.4327999999999
 20
37.99999999999999
 30
0.0
 40
1.999999999999999
  1
top of switch
  7
ARIALB
100
AcDbText
  0
LINE
  5
112
100
AcDbEntity
  8
1
  6
CONTINUOUS
 62
     7
100
AcDbLine
 10
166.9999999999999
 20
41.99999999999999
 30
0.0
 11
166.9999999999999
 21
35.99999999999999
 31
0.0
  0
LINE
  5
113
100
AcDbEntity
  8
1
  6
CONTINUOUS
 62
     7
100
AcDbLine
 10
166.9999999999999
 20
35.99999999999999
 30
0.0
 11
287.9999999999999
 21
35.99999999999999
 31
0.0
  0
LINE
  5
114
100
AcDbEntity
  8
1
  6
CONTINUOUS
 62
     7
100
AcDbLine
 10
287.9999999999999
 20
35.99999999999999
 30
0.0
 11
287.9999999999999
 21
39.99999999999999
 31
0.0
  0
LINE
  5
115
100
AcDbEntity
  8
1
  6
CONTINUOUS
 62
     7
100
AcDbLine
 10
175.9999999999999
 20
84.99999999999998
 30
0.0
 11
171.9999999999999
 21
84.99999999999998
 31
0.0
  0
LINE
  5
116
100
AcDbEntity
  8
1
  6
CONTINUOUS
 62
     7
100
AcDbLine
 10
171.9999999999999
 20
84.99999999999998
 30
0.0
 11
171.9999999999999
 21
70.0
 31
0.0
  0
LINE
  5
117
100
AcDbEntity
  8
1
  6
CONTINUOUS
 62
     7
100
AcDbLine
 10
171.9999999999999
 20
70.0
 30
0.0
 11
175.9999999999999
 21
70.0
 31
0.0
  0
ENDSEC
  0
SECTION
  2
OBJECTS
  0
DICTIONARY
  5
C
100
AcDbDictionary
  3
ACAD_GROUP
350
D
  3
ACAD_MLINESTYLE
350
1B
  0
DICTIONARY
  5
D
102
{ACAD_REACTORS
330
C
102
}
100
AcDbDictionary
  0
DICTIONARY
  5
1B
102
{ACAD_REACTORS
330
C
102
}
100
AcDbDictionary
  3
STANDARD
350
1C
  0
MLINESTYLE
  5
1C
102
{ACAD_REACTORS
330
1B
102
}
100
AcDbMlineStyle
  2
STANDARD
 70
     0
  3

 62
   256
 51
90.0
 52
90.0
 71
     2
 49
0.5
 62
   256
  6
BYLAYER
 49
-0.5
 62
   256
  6
BYLAYER
  0
ENDSEC
  0
EOF
